<svg xmlns="http://www.w3.org/2000/svg" xmlns:xlink="http://www.w3.org/1999/xlink" width="250" height="250" viewBox="0 0 66.146 66.146"><defs><pattern xlink:href="#a" id="e" patternTransform="matrix(.07 0 0 .07 35.399 139.802)"/><pattern patternUnits="userSpaceOnUse" width="12.974" height="12.974" patternTransform="matrix(.26458 0 0 .26458 381.242 -1.62)" id="a"><rect y=".501" x=".501" height="11.972" width="11.972" rx="5.986" ry="5.986" fill="#ff0" fill-opacity=".498" stroke="#000" stroke-width="1.002" stroke-linecap="round" stroke-linejoin="bevel" stroke-opacity="0"/></pattern><pattern xlink:href="#b" id="f" patternTransform="rotate(15.003 -517.506 211.98) scale(.08606)"/><pattern xlink:href="#c" id="b" patternTransform="scale(.26458) rotate(15 -10907.283 19406.928)"/><pattern patternUnits="userSpaceOnUse" width="12.974" height="12.974" patternTransform="matrix(.26458 0 0 .26458 331.244 -1.89)" id="c"><rect ry="2.709" rx="2.709" width="11.972" height="11.972" x=".501" y=".501" fill="#f06" stroke="#000" stroke-width="1.002" stroke-linecap="round" stroke-linejoin="bevel" stroke-opacity="0"/></pattern><pattern xlink:href="#d" id="g" patternTransform="rotate(45.002 -150.674 120.156) scale(.07176)"/><pattern patternUnits="userSpaceOnUse" width="12.974" height="12.974" patternTransform="matrix(.26458 0 0 .26458 404.463 24.646)" id="d"><rect width="11.972" height="11.972" x=".501" y=".501" ry="0" fill-opacity=".004" stroke="#000" stroke-width="1.002" stroke-linecap="round" stroke-linejoin="bevel" stroke-opacity="0"/><rect transform="rotate(15)" ry="4.737" rx="4.737" width="9.473" height="9.473" x="3.081" y="-.338" fill-opacity=".498" stroke="#000" stroke-width=".793" stroke-linecap="round" stroke-linejoin="bevel" stroke-opacity="0"/></pattern></defs><g fill-rule="evenodd"><path d="M28.14 25.388l-9.42-6.396-.224-.224.09.133-.28-.19.001.002.462.459 6.395 9.419L.11 33.3l25.168 4.759-6.73 9.797 9.817-6.727-.001.002 4.599 24.99v-.008.006l.023.023 4.587-25.061 9.983 6.785-6.68-9.845 25.05-4.703h-.014l.013-.003.027-.019-24.978-4.67 6.538-9.739v-.001l.154-.153-.093.062.043-.062-9.83 6.681L32.943.492z" fill="#fff"/><path d="M40.02 150.026l.072 28.15-.04.028-4.833-3.282-9.422-6.396-.224-.224.09.133-.28-.19.464.46 6.395 9.42-25.054 4.71h-.06l.03.005-.056.01h.111l25.142 4.744 3.177-4.623 4.413-.05-4.413.05-9.907 14.42-.107.107.062-.042-.023.033.058-.057 14.347-9.88-4.52 3.112 4.6 24.99.01-3.402.012 3.426 4.587-25.063 9.982 6.785.155.155-.063-.093.066.045-.112-.111-6.728-9.842 25.052-4.703-12.668-.02h12.694l-24.98-4.67 6.541-9.74.154-.153-.093.063.043-.064-.106.106-9.725 6.576zm0 0l-4.801 24.897 4.763 3.234zm10.17 22.781l-4.803 4.843-.01-.045-3.759 3.747zm-5.383 5.428l-4.53 4.567 4.512-4.55.016-.016z" fill="url(#e)" transform="translate(-7.078 -149.534)"/><path d="M40.02 150.026l.072 28.15-.04.028-4.833-3.282-9.422-6.396-.224-.224.09.133-.28-.19.464.46 6.395 9.42-25.054 4.71h-.06l.03.005-.056.01h.111l25.142 4.744 3.177-4.623 4.413-.05-4.413.05-9.907 14.42-.107.107.062-.042-.023.033.058-.057 14.347-9.88-4.52 3.112 4.6 24.99.01-3.402.012 3.426 4.587-25.063 9.982 6.785.155.155-.063-.093.066.045-.112-.111-6.728-9.842 25.052-4.703-12.668-.02h12.694l-24.98-4.67 6.541-9.74.154-.153-.093.063.043-.064-.106.106-9.725 6.576zm0 0l-4.801 24.897 4.763 3.234zm10.17 22.781l-4.803 4.843-.01-.045-3.759 3.747zm-5.383 5.428l-4.53 4.567 4.512-4.55.016-.016z" fill="url(#f)" transform="translate(-7.078 -149.534)"/><path d="M40.02 150.026l.072 28.15 2.195-1.483 2.576-1.742zm-14.636 18.22l.463.46-.183-.27zm29.31.022l-.106.106.062-.042zm-.104.154l-4.383 4.368-4.82 4.86-.01-.045-3.759 3.747 3.171-3.1.016-.016h.003l-4.53 4.567-.031.031h-.114l-.015.015.072.07 4.629.053 3.133 4.584 25.051-4.703-12.668-.019H44.912l.016-.023 3.122-4.648zm-28.793.104l14.275 14.275h.031l-.052-4.597-4.832-3.281zm6.445 9.6l-25.055 4.709 28.233-.029zM7.157 182.84l-.055.01h.11zm32.945.078v.087l-.044 3.95-.006.535.07.048 4.528 3.077 9.983 6.786-14.471-14.483zm-.157.003l-4.413.05-9.908 14.42 14.32-14.399zm.016 4.632l-4.52 3.112 4.6 24.99.01-3.403zm14.717 9.843l.046.067.066.045zm-29.064.035l-.035.024-.022.033z" fill="url(#g)" transform="translate(-7.078 -149.534)"/></g></svg>