<svg xmlns="http://www.w3.org/2000/svg" xmlns:xlink="http://www.w3.org/1999/xlink" width="233.558" height="269.4" viewBox="0 0 61.795 71.279"><defs><pattern patternUnits="userSpaceOnUse" width="12.974" height="12.974" patternTransform="matrix(.26458 0 0 .26458 331.244 25.884)" id="a"><rect height="12.974" width="12.974" ry="3.048" fill-opacity=".498" stroke-width="3.78"/></pattern><pattern patternUnits="userSpaceOnUse" width="12.974" height="12.974" patternTransform="matrix(.26458 0 0 .26458 331.244 25.884)" id="b"><rect height="12.974" width="12.974" ry="3.048" fill-opacity=".498" stroke-width="3.78"/></pattern><pattern xlink:href="#c" id="i" patternTransform="scale(.17558) rotate(15 -4487.673 -6359.368)"/><pattern patternUnits="userSpaceOnUse" width="12.974" height="12.974" patternTransform="matrix(.26458 0 0 .26458 453.676 -53.01)" id="c"><rect ry="0" y=".501" x=".501" height="11.972" width="11.972" fill="#999" fill-opacity=".004" stroke="#000" stroke-width="1.002" stroke-linecap="round" stroke-linejoin="bevel" stroke-opacity="0"/><rect y="2.757" x="6.424" height="3.538" width="3.538" rx="1.769" ry="1.769" transform="rotate(15)" fill="#0ff" fill-opacity=".498" stroke="#000" stroke-width=".296" stroke-linecap="round" stroke-linejoin="bevel" stroke-opacity="0"/></pattern><pattern xlink:href="#d" id="h" patternTransform="translate(-304.343 169.772) scale(.22393)"/><pattern patternUnits="userSpaceOnUse" width="12.974" height="12.974" patternTransform="matrix(.26458 0 0 .26458 453.676 -2.833)" id="d"><rect width="11.972" height="11.972" x=".501" y=".501" ry="0" fill="#999" fill-opacity=".004" stroke="#000" stroke-width="1.002" stroke-linecap="round" stroke-linejoin="bevel" stroke-opacity="0"/><rect transform="rotate(15)" ry="1.769" rx="1.769" width="3.538" height="3.538" x="6.424" y="2.758" fill="#ff0" fill-opacity=".498" stroke="#000" stroke-width=".296" stroke-linecap="round" stroke-linejoin="bevel" stroke-opacity="0"/></pattern><pattern xlink:href="#e" id="g" patternTransform="scale(.13073) rotate(45 -2766.273 -2200.112)"/><pattern patternUnits="userSpaceOnUse" width="12.974" height="12.974" patternTransform="matrix(.26458 0 0 .26458 331.244 25.884)" id="e"><rect height="12.974" width="12.974" ry="3.048" fill-opacity=".498" stroke-width="3.78"/></pattern></defs><g transform="translate(-269.042 -175.995)"><path d="M269.174 193.872v35.525l30.766 17.762 30.765-17.762v-35.525L299.94 176.11z" fill="#fff"/><use xlink:href="#f" opacity=".568"/><path transform="scale(-1 1)" id="f" d="M-269.174 193.872v35.525l-30.766 17.762-30.765-17.762v-35.525l30.765-17.762z" opacity="1" fill="url(#g)" fill-opacity="1" stroke="#000" stroke-width=".265" stroke-linecap="round" stroke-linejoin="bevel" stroke-miterlimit="4" stroke-dasharray="none" stroke-dashoffset="0" stroke-opacity="0"/><path transform="scale(-1 1)" d="M-269.174 193.872v35.525l-30.766 17.762-30.765-17.762v-35.525l30.765-17.762z" opacity=".738" fill="url(#h)"/><path d="M-269.174 193.872v35.525l-30.766 17.762-30.765-17.762v-35.525l30.765-17.762z" transform="scale(-1 1)" opacity=".565" fill="url(#i)"/><path d="M285.42 200.845l-3.737.063v6.082c-11.642-6.678-10.408 19.114.19 10.707v1.393h3.547zm-5.473 8.35c.479.021 1.016.2 1.609.583l.127 5.574c-5.622 3.93-5.631-6.333-1.736-6.157zM293.62 205.887c-1.862.022-3.827.639-5.185 1.531l1.254 2.553c2.738-1.134 5.175-1.803 5.555.717-12.679.709-6.695 13.049.448 7.078v1.568l3.36-.045s-.08-6.464-.13-8.7c-.076-3.498-2.58-4.735-5.302-4.702zm1.714 7.22v2.375c-3.647 2.939-6.07-1.817 0-2.375zM303.039 202.848s-.085 1.466-.164 3.405h-1.807v3.002h1.71c-.047 2.042-.05 4.126.065 5.51.299 3.592 1.843 5.885 7.274 4.121l-.627-2.643c-1.49.448-2.68.353-2.912-1.478v-5.51h3.091v-3.002h-3.09v-3.36z" fill="#fff" fill-rule="evenodd"/><circle r="1.964" cy="209.45" cx="313.335" fill="#fff"/><circle cx="313.335" cy="215.469" r="1.964" fill="#fff"/><path d="M319.44 201.848l-3.485 17.866H318.576l3.51-17.866h-2.117zM324.202 201.848l-3.484 17.866h2.62l3.51-17.866h-2.117z" fill="#fff" fill-rule="evenodd"/></g></svg>