<svg xmlns="http://www.w3.org/2000/svg" xmlns:xlink="http://www.w3.org/1999/xlink" width="233.557" height="269.399" viewBox="0 0 61.795 71.279"><defs><pattern xlink:href="#a" id="j" patternTransform="scale(.07) rotate(-15 3249.753 -4800.882)"/><pattern xlink:href="#b" id="a" patternTransform="scale(.07) rotate(-15 14336.998 -3132.605)"/><pattern xlink:href="#c" id="b" patternTransform="scale(.07) rotate(-15 -508.08 -2161.077)"/><pattern patternTransform="scale(.26458) rotate(-15 -508.08 -2161.076)" id="c" xlink:href="#d"/><pattern xlink:href="#e" id="n" patternTransform="scale(.0417) rotate(45 -665.55 3833.927)"/><pattern patternUnits="userSpaceOnUse" width="12.974" height="12.974" patternTransform="matrix(.26458 0 0 .26458 430.922 24.646)" id="e"><rect ry="0" y=".501" x=".501" height="11.972" width="11.972" fill-opacity=".004" stroke="#000" stroke-width="1.002" stroke-linecap="round" stroke-linejoin="bevel" stroke-opacity="0"/><rect y="1.892" x="4.812" height="5.724" width="5.724" rx="2.862" ry="2.862" transform="rotate(15)" fill-opacity=".498" stroke="#000" stroke-width=".479" stroke-linecap="round" stroke-linejoin="bevel" stroke-opacity="0"/></pattern><pattern xlink:href="#f" id="m" patternTransform="scale(.1756) rotate(15 -932.416 2211.748)"/><pattern patternUnits="userSpaceOnUse" width="12.974" height="12.974" patternTransform="matrix(.26458 0 0 .26458 331.244 -26.977)" id="f"><rect ry="3.048" width="12.974" height="12.974" fill="#f06" fill-opacity=".498" stroke-width="3.78"/></pattern><pattern xlink:href="#g" id="l" patternTransform="scale(-.13073 .13073) rotate(45 -899.914 -677.052)"/><pattern patternTransform="scale(.13073) rotate(45 -2766.273 -2200.112)" id="g" xlink:href="#h"/><pattern id="h" patternTransform="matrix(.26458 0 0 .26458 331.244 25.884)" height="12.974" width="12.974" patternUnits="userSpaceOnUse"><rect ry="3.048" width="12.974" height="12.974" fill-opacity=".498" stroke-width="3.78"/></pattern><pattern xlink:href="#i" id="d" patternTransform="scale(.26458) rotate(-15 4342.178 -8059.869)"/><pattern patternUnits="userSpaceOnUse" width="12.974" height="12.974" patternTransform="matrix(.26458 0 0 .26458 357.166 -51.616)" id="i"><rect y=".501" x=".501" height="11.972" width="11.972" rx="5.079" ry="5.079" fill="#0ff" fill-opacity=".498" stroke="#000" stroke-width="1.002" stroke-linecap="round" stroke-linejoin="bevel" stroke-opacity="0"/></pattern></defs><g transform="translate(-56.793 -61.79)"><path d="M87.69 61.904L56.925 79.666v35.525l30.765 17.762 30.766-17.762V79.666zm7.413 22.914c1.862.002 3.742.431 5.366 1.423l-.87 2.29c-3.975-2.82-9.62-1.071-11.824 2.616l-1.826-1.553c1.043-2.712 5.057-4.78 9.154-4.776zm6.874 2.168h5.14v20.892h-5.14v-1.192c-1.578.873-3.57 1.57-5.27 1.581-1.97 0-3.588-.733-4.854-2.201-1.266-1.477-1.899-3.375-1.899-5.694 0-2.318.633-4.211 1.899-5.68 1.266-1.476 2.888-2.095 4.855-2.215 1.894-.115 4.232.377 5.269 1.582zm-34.925.845h5.797c3.236 0 5.644.22 7.224.658 1.59.43 2.951 1.164 4.084 2.202 1 .904 1.742 1.948 2.228 3.13.485 1.18.728 2.519.728 4.013 0 1.513-.243 2.865-.728 4.056-.486 1.181-1.228 2.224-2.228 3.128-1.142 1.038-2.513 1.777-4.112 2.216-1.599.43-3.998.644-7.196.644h-5.797zm28.442 1.046c.17-.004.34-.004.508 0 1.226.036 2.397.309 3.337.798l-.609 1.88c-3.052-1.05-6.19-.98-8.347 2.045l-1.391-1.308c1.268-2.272 3.95-3.353 6.502-3.415zm-22.945 2.862v12.232h1.97c2.247 0 3.96-.524 5.14-1.57 1.19-1.048 1.785-2.57 1.785-4.567 0-1.987-.59-3.5-1.77-4.538-1.18-1.038-2.899-1.557-5.155-1.557zm26.057 4.23c-1.085 0-1.917.375-2.498 1.127-.57.752-.856 1.844-.856 3.276 0 1.433.285 2.525.856 3.277.581.752 1.413 1.128 2.498 1.128 1.095 0 1.928-.376 2.499-1.128.58-.752.872-1.844.872-3.277 0-1.432-.291-2.524-.872-3.276-.571-.752-1.404-1.128-2.499-1.128z" fill="#fff"/><path d="M87.69 61.904L56.925 79.666v35.525l30.765 17.762 30.766-17.762V79.666zm7.413 22.914c1.862.002 3.742.431 5.366 1.423l-.87 2.29c-3.975-2.82-9.62-1.071-11.824 2.616l-1.826-1.553c1.043-2.712 5.057-4.78 9.154-4.776zm6.874 2.168h5.14v20.892h-5.14v-1.192c-1.578.873-3.57 1.57-5.27 1.581-1.97 0-3.588-.733-4.854-2.201-1.266-1.477-1.899-3.375-1.899-5.694 0-2.318.633-4.211 1.899-5.68 1.266-1.476 2.888-2.095 4.855-2.215 1.894-.115 4.232.377 5.269 1.582zm-34.925.845h5.797c3.236 0 5.644.22 7.224.658 1.59.43 2.951 1.164 4.084 2.202 1 .904 1.742 1.948 2.228 3.13.485 1.18.728 2.519.728 4.013 0 1.513-.243 2.865-.728 4.056-.486 1.181-1.228 2.224-2.228 3.128-1.142 1.038-2.513 1.777-4.112 2.216-1.599.43-3.998.644-7.196.644h-5.797zm28.442 1.046c.17-.004.34-.004.508 0 1.226.036 2.397.309 3.337.798l-.609 1.88c-3.052-1.05-6.19-.98-8.347 2.045l-1.391-1.308c1.268-2.272 3.95-3.353 6.502-3.415zm-22.945 2.862v12.232h1.97c2.247 0 3.96-.524 5.14-1.57 1.19-1.048 1.785-2.57 1.785-4.567 0-1.987-.59-3.5-1.77-4.538-1.18-1.038-2.899-1.557-5.155-1.557zm26.057 4.23c-1.085 0-1.917.375-2.498 1.127-.57.752-.856 1.844-.856 3.276 0 1.433.285 2.525.856 3.277.581.752 1.413 1.128 2.498 1.128 1.095 0 1.928-.376 2.499-1.128.58-.752.872-1.844.872-3.277 0-1.432-.291-2.524-.872-3.276-.571-.752-1.404-1.128-2.499-1.128z" id="k" opacity=".568" fill="url(#j)" fill-opacity="1" stroke="#000" stroke-width=".265" stroke-linecap="round" stroke-linejoin="bevel" stroke-miterlimit="4" stroke-dasharray="none" stroke-dashoffset="0" stroke-opacity="0"/><use height="100%" width="100%" xlink:href="#k"/><path d="M87.69 61.904L56.925 79.666v35.525l30.765 17.762 30.766-17.762V79.666zm7.413 22.914c1.862.002 3.742.431 5.366 1.423l-.87 2.29c-3.975-2.82-9.62-1.071-11.824 2.616l-1.826-1.553c1.043-2.712 5.057-4.78 9.154-4.776zm6.874 2.168h5.14v20.892h-5.14v-1.192c-1.578.873-3.57 1.57-5.27 1.581-1.97 0-3.588-.733-4.854-2.201-1.266-1.477-1.899-3.375-1.899-5.694 0-2.318.633-4.211 1.899-5.68 1.266-1.476 2.888-2.095 4.855-2.215 1.894-.115 4.232.377 5.269 1.582zm-34.925.845h5.797c3.236 0 5.644.22 7.224.658 1.59.43 2.951 1.164 4.084 2.202 1 .904 1.742 1.948 2.228 3.13.485 1.18.728 2.519.728 4.013 0 1.513-.243 2.865-.728 4.056-.486 1.181-1.228 2.224-2.228 3.128-1.142 1.038-2.513 1.777-4.112 2.216-1.599.43-3.998.644-7.196.644h-5.797zm28.442 1.046c.17-.004.34-.004.508 0 1.226.036 2.397.309 3.337.798l-.609 1.88c-3.052-1.05-6.19-.98-8.347 2.045l-1.391-1.308c1.268-2.272 3.95-3.353 6.502-3.415zm-22.945 2.862v12.232h1.97c2.247 0 3.96-.524 5.14-1.57 1.19-1.048 1.785-2.57 1.785-4.567 0-1.987-.59-3.5-1.77-4.538-1.18-1.038-2.899-1.557-5.155-1.557zm26.057 4.23c-1.085 0-1.917.375-2.498 1.127-.57.752-.856 1.844-.856 3.276 0 1.433.285 2.525.856 3.277.581.752 1.413 1.128 2.498 1.128 1.095 0 1.928-.376 2.499-1.128.58-.752.872-1.844.872-3.277 0-1.432-.291-2.524-.872-3.276-.571-.752-1.404-1.128-2.499-1.128z" opacity=".568" fill="url(#l)"/><path d="M87.69 61.904L56.925 79.666v35.525l30.765 17.762 30.766-17.762V79.666zm7.413 22.914c1.862.002 3.742.431 5.366 1.423l-.87 2.29c-3.975-2.82-9.62-1.071-11.824 2.616l-1.826-1.553c1.043-2.712 5.057-4.78 9.154-4.776zm6.874 2.168h5.14v20.892h-5.14v-1.192c-1.578.873-3.57 1.57-5.27 1.581-1.97 0-3.588-.733-4.854-2.201-1.266-1.477-1.899-3.375-1.899-5.694 0-2.318.633-4.211 1.899-5.68 1.266-1.476 2.888-2.095 4.855-2.215 1.894-.115 4.232.377 5.269 1.582zm-34.925.845h5.797c3.236 0 5.644.22 7.224.658 1.59.43 2.951 1.164 4.084 2.202 1 .904 1.742 1.948 2.228 3.13.485 1.18.728 2.519.728 4.013 0 1.513-.243 2.865-.728 4.056-.486 1.181-1.228 2.224-2.228 3.128-1.142 1.038-2.513 1.777-4.112 2.216-1.599.43-3.998.644-7.196.644h-5.797zm28.442 1.046c.17-.004.34-.004.508 0 1.226.036 2.397.309 3.337.798l-.609 1.88c-3.052-1.05-6.19-.98-8.347 2.045l-1.391-1.308c1.268-2.272 3.95-3.353 6.502-3.415zm-22.945 2.862v12.232h1.97c2.247 0 3.96-.524 5.14-1.57 1.19-1.048 1.785-2.57 1.785-4.567 0-1.987-.59-3.5-1.77-4.538-1.18-1.038-2.899-1.557-5.155-1.557zm26.057 4.23c-1.085 0-1.917.375-2.498 1.127-.57.752-.856 1.844-.856 3.276 0 1.433.285 2.525.856 3.277.581.752 1.413 1.128 2.498 1.128 1.095 0 1.928-.376 2.499-1.128.58-.752.872-1.844.872-3.277 0-1.432-.291-2.524-.872-3.276-.571-.752-1.404-1.128-2.499-1.128z" opacity=".568" fill="url(#m)"/><path style="line-height:125%;-inkscape-font-specification:'Bitstream Vera Sans Bold'" d="M95.103 84.818c-4.097-.004-8.111 2.064-9.154 4.776l1.826 1.553c2.204-3.687 7.849-5.435 11.825-2.616l.87-2.29c-1.625-.992-3.505-1.421-5.367-1.423zm.39 4.059c-2.551.062-5.233 1.143-6.501 3.415l1.391 1.308c2.156-3.024 5.295-3.094 8.347-2.044l.61-1.88c-.94-.49-2.112-.763-3.338-.798a9.575 9.575 0 0 0-.508-.001z" font-weight="700" font-size="24.694" font-family="Bitstream Vera Sans" letter-spacing="0" word-spacing="0" fill="url(#n)"/><path style="line-height:125%;-inkscape-font-specification:'Bitstream Vera Sans Bold'" d="M101.977 86.986v7.073c-1.037-1.205-3.375-1.697-5.27-1.582-1.966.12-3.588.739-4.854 2.216-1.266 1.468-1.899 3.36-1.899 5.68 0 2.318.633 4.216 1.899 5.693 1.266 1.468 2.884 2.201 4.855 2.201 1.7-.012 3.69-.708 5.269-1.58v1.191h5.14V86.986zm-34.925.845v20.047h5.797c3.198 0 5.597-.214 7.196-.644 1.6-.439 2.97-1.178 4.112-2.216 1-.904 1.742-1.947 2.228-3.128.485-1.191.728-2.543.728-4.056 0-1.494-.243-2.832-.728-4.014-.486-1.181-1.228-2.225-2.228-3.129-1.133-1.038-2.494-1.772-4.084-2.202-1.58-.438-3.988-.658-7.224-.658zm5.497 3.908h1.97c2.256 0 3.974.519 5.155 1.557 1.18 1.039 1.77 2.551 1.77 4.538 0 1.997-.594 3.519-1.784 4.566-1.18 1.047-2.894 1.571-5.14 1.571h-1.971zm26.057 4.23c1.095 0 1.928.375 2.499 1.127.58.752.872 1.844.872 3.276 0 1.433-.291 2.525-.872 3.277-.571.752-1.404 1.128-2.499 1.128-1.085 0-1.917-.376-2.498-1.128-.57-.752-.856-1.844-.856-3.277 0-1.432.285-2.524.856-3.276.581-.752 1.413-1.128 2.498-1.128z" font-weight="700" font-size="24.694" font-family="Bitstream Vera Sans" letter-spacing="0" word-spacing="0" fill="#fff"/></g></svg>