<svg xmlns="http://www.w3.org/2000/svg" xmlns:xlink="http://www.w3.org/1999/xlink" width="434.797" height="374.406" viewBox="0 0 115.04 99.062"><defs><pattern xlink:href="#a" id="r" patternTransform="matrix(.3771 0 0 .3771 -98.175 24.095)"/><pattern xlink:href="#b" id="s" patternTransform="rotate(14.999 -131.434 -438.019) scale(.41813)"/><pattern xlink:href="#c" id="q" patternTransform="rotate(14.999 -131.434 -438.019) scale(.41813)"/><pattern xlink:href="#c" id="b" patternTransform="rotate(14.999 -131.434 -438.019) scale(.41813)"/><pattern xlink:href="#c" id="t" patternTransform="rotate(14.999 -131.434 -438.019) scale(.41813)"/><pattern xlink:href="#d" id="c" patternTransform="rotate(14.999 263.094 743.899) scale(.41813)"/><pattern patternUnits="userSpaceOnUse" width="12.974" height="12.974" patternTransform="matrix(.26458 0 0 .26458 357.166 -26.888)" id="d"><rect ry="5.079" rx="5.079" width="11.972" height="11.972" x=".501" y=".501" fill="#f06" fill-opacity=".498" stroke="#000" stroke-width="1.002" stroke-linecap="round" stroke-linejoin="bevel" stroke-opacity="0"/></pattern><pattern xlink:href="#e" id="m" patternTransform="matrix(.41858 0 0 .41858 151.766 -77.397)"/><pattern patternUnits="userSpaceOnUse" width="12.974" height="12.974" patternTransform="matrix(.26458 0 0 .26458 357.166 -1.8)" id="e"><rect y=".501" x=".501" height="11.972" width="11.972" rx="5.079" ry="5.079" fill="#ff0" fill-opacity=".498" stroke="#000" stroke-width="1.002" stroke-linecap="round" stroke-linejoin="bevel" stroke-opacity="0"/></pattern><pattern xlink:href="#f" id="g" patternTransform="translate(149.051 -83.212) scale(.44096)"/><pattern patternUnits="userSpaceOnUse" width="12.974" height="12.974" patternTransform="matrix(.26458 0 0 .26458 381.242 -51.437)" id="f"><rect y=".501" x=".501" height="11.972" width="11.972" rx="5.986" ry="5.986" fill="#0ff" fill-opacity=".498" stroke="#000" stroke-width="1.002" stroke-linecap="round" stroke-linejoin="bevel" stroke-opacity="0"/></pattern><pattern xlink:href="#g" id="C" patternTransform="rotate(-30 3.467 -137.3) scale(.44096)"/><pattern xlink:href="#h" id="a" patternTransform="matrix(.3771 0 0 .3771 -98.175 24.095)"/><pattern patternUnits="userSpaceOnUse" width="12.974" height="12.974" patternTransform="matrix(.26458 0 0 .26458 381.242 -1.62)" id="h"><rect y=".501" x=".501" height="11.972" width="11.972" rx="5.986" ry="5.986" fill="#ff0" fill-opacity=".498" stroke="#000" stroke-width="1.002" stroke-linecap="round" stroke-linejoin="bevel" stroke-opacity="0"/></pattern><pattern xlink:href="#i" id="E" patternTransform="rotate(45.001 164.692 209.32) scale(.12426)"/><pattern xlink:href="#j" id="i" patternTransform="rotate(45.001 164.13 208.672) scale(.12426)"/><pattern patternUnits="userSpaceOnUse" width="12.974" height="12.974" patternTransform="matrix(.26458 0 0 .26458 357.166 24.808)" id="j"><rect ry="5.079" rx="5.079" width="11.972" height="11.972" x=".501" y=".501" fill-opacity=".498" stroke="#000" stroke-width="1.002" stroke-linecap="round" stroke-linejoin="bevel" stroke-opacity="0"/></pattern><pattern xlink:href="#k" id="F" patternTransform="rotate(-15.003 -97.404 -763.507) scale(.15427)"/><pattern patternUnits="userSpaceOnUse" width="12.974" height="12.974" patternTransform="matrix(.26458 0 0 .26458 404.463 -52.898)" id="k"><rect ry="0" y=".501" x=".501" height="11.972" width="11.972" fill="#0ff" fill-opacity=".043" stroke="#000" stroke-width="1.002" stroke-linecap="round" stroke-linejoin="bevel" stroke-opacity="0"/><rect y="-.338" x="3.081" height="9.473" width="9.473" rx="4.737" ry="4.737" transform="rotate(15)" fill="#0ff" fill-opacity=".498" stroke="#000" stroke-width=".793" stroke-linecap="round" stroke-linejoin="bevel" stroke-opacity="0"/></pattern><pattern xlink:href="#l" id="G" patternTransform="rotate(15.003 324.075 690.06) scale(.13462)"/><pattern patternUnits="userSpaceOnUse" width="12.974" height="12.974" patternTransform="matrix(.26458 0 0 .26458 404.806 -26.709)" id="l"><rect y=".501" x=".501" height="11.972" width="11.972" rx="5.986" ry="5.986" fill="#f06" fill-opacity=".498" stroke="#000" stroke-width="1.002" stroke-linecap="round" stroke-linejoin="bevel" stroke-opacity="0"/></pattern><pattern xlink:href="#m" id="B" patternTransform="matrix(.41858 0 0 .41858 -167.58 -15.555)"/><pattern xlink:href="#d" id="D" patternTransform="matrix(.1283 0 0 .1283 90.826 153.152)"/><pattern xlink:href="#l" id="u" patternTransform="rotate(15 -301.189 -398.985) scale(.42966)"/><pattern xlink:href="#n" id="v" patternTransform="scale(.27559) rotate(-15 714.443 1710.252)"/><pattern patternUnits="userSpaceOnUse" width="12.974" height="12.974" patternTransform="matrix(.26458 0 0 .26458 331.244 -52.243)" id="n"><rect height="12.974" width="12.974" ry="3.048" fill="#0ff" fill-opacity=".498" stroke-width="3.78"/></pattern><pattern xlink:href="#o" id="w" patternTransform="matrix(.15394 0 0 .15394 201.098 218.916)"/><pattern patternUnits="userSpaceOnUse" width="12.974" height="12.974" patternTransform="matrix(.26458 0 0 .26458 430.922 24.646)" id="o"><rect ry="0" y=".501" x=".501" height="11.972" width="11.972" fill-opacity=".004" stroke="#000" stroke-width="1.002" stroke-linecap="round" stroke-linejoin="bevel" stroke-opacity="0"/><rect y="1.892" x="4.812" height="5.724" width="5.724" rx="2.862" ry="2.862" transform="rotate(15)" fill-opacity=".498" stroke="#000" stroke-width=".479" stroke-linecap="round" stroke-linejoin="bevel" stroke-opacity="0"/></pattern><pattern xlink:href="#o" id="A" patternTransform="scale(.47577) rotate(45 206.32 606.954)"/><pattern xlink:href="#p" id="x" patternTransform="scale(.82586) rotate(15 122.045 948.873)"/><pattern patternUnits="userSpaceOnUse" width="12.974" height="12.974" patternTransform="matrix(.26458 0 0 .26458 430.922 -32.372)" id="p"><rect ry="0" y=".501" x=".501" height="11.972" width="11.972" fill="#999" fill-opacity=".004" stroke="#000" stroke-width="1.002" stroke-linecap="round" stroke-linejoin="bevel" stroke-opacity="0"/><rect y="1.892" x="4.812" height="5.724" width="5.724" rx="2.862" ry="2.862" transform="rotate(15)" fill="#f06" fill-opacity=".498" stroke="#000" stroke-width=".479" stroke-linecap="round" stroke-linejoin="bevel" stroke-opacity="0"/></pattern><pattern xlink:href="#j" id="I" patternTransform="scale(.05414) rotate(45 -4217.9 3935.853)"/><pattern xlink:href="#j" id="J" patternTransform="scale(.07) rotate(45 -1387.525 4142.147)"/></defs><g transform="translate(-80.82 -143.904)"><path style="line-height:normal;font-variant-ligatures:normal;font-variant-position:normal;font-variant-caps:normal;font-variant-numeric:normal;font-variant-alternates:normal;font-feature-settings:normal;text-indent:0;text-align:start;text-decoration-line:none;text-decoration-style:solid;text-decoration-color:#000;text-transform:none;text-orientation:mixed;white-space:normal;shape-padding:0;isolation:auto;mix-blend-mode:normal;solid-color:#000;solid-opacity:1" d="M393.275 154.443l4.524 11.116-16.549 6.734v8.639l19.564-7.961 4.522 11.111 19.61-25.252-31.67-4.387zM375 174.836l-156.807 63.807v8.638L375 183.475v-8.64zm-163.004 66.328L180 254.184v5.222l4.012 1.783 27.984-11.386v-8.639z" transform="matrix(.26458 0 0 .26458 80.82 143.904)" color="#000" font-weight="400" font-family="sans-serif" overflow="visible" fill="url(#q)" fill-rule="evenodd"/><path style="line-height:normal;font-variant-ligatures:normal;font-variant-position:normal;font-variant-caps:normal;font-variant-numeric:normal;font-variant-alternates:normal;font-feature-settings:normal;text-indent:0;text-align:start;text-decoration-line:none;text-decoration-style:solid;text-decoration-color:#000;text-transform:none;text-orientation:mixed;white-space:normal;shape-padding:0;isolation:auto;mix-blend-mode:normal;solid-color:#000;solid-opacity:1" d="M393.275 154.443l4.524 11.116-16.549 6.734v8.639l19.564-7.961 4.522 11.111 19.61-25.252-31.67-4.387zM375 174.836l-156.807 63.807v8.638L375 183.475v-8.64zm-163.004 66.328L180 254.184v5.222l4.012 1.783 27.984-11.386v-8.639z" transform="matrix(.26458 0 0 .26458 80.82 143.904)" color="#000" font-weight="400" font-family="sans-serif" overflow="visible" fill="url(#r)" fill-rule="evenodd"/><path style="line-height:normal;font-variant-ligatures:normal;font-variant-position:normal;font-variant-caps:normal;font-variant-numeric:normal;font-variant-alternates:normal;font-feature-settings:normal;text-indent:0;text-align:start;text-decoration-line:none;text-decoration-style:solid;text-decoration-color:#000;text-transform:none;text-orientation:mixed;white-space:normal;shape-padding:0;isolation:auto;mix-blend-mode:normal;solid-color:#000;solid-opacity:1" d="M393.275 154.443l4.524 11.116-16.549 6.734v8.639l19.564-7.961 4.522 11.111 19.61-25.252-31.67-4.387zM375 174.836l-156.807 63.807v8.638L375 183.475v-8.64zm-163.004 66.328L180 254.184v5.222l4.012 1.783 27.984-11.386v-8.639z" transform="matrix(.26458 0 0 .26458 80.82 143.904)" color="#000" font-weight="400" font-family="sans-serif" overflow="visible" fill="url(#s)" fill-rule="evenodd"/><path style="line-height:normal;font-variant-ligatures:normal;font-variant-position:normal;font-variant-caps:normal;font-variant-numeric:normal;font-variant-alternates:normal;font-feature-settings:normal;text-indent:0;text-align:start;text-decoration-line:none;text-decoration-style:solid;text-decoration-color:#000;text-transform:none;text-orientation:mixed;white-space:normal;shape-padding:0;isolation:auto;mix-blend-mode:normal;solid-color:#000;solid-opacity:1" d="M393.275 154.443l4.524 11.116-16.549 6.734v8.639l19.564-7.961 4.522 11.111 19.61-25.252-31.67-4.387zM375 174.836l-156.807 63.807v8.638L375 183.475v-8.64zm-163.004 66.328L180 254.184v5.222l4.012 1.783 27.984-11.386v-8.639z" transform="matrix(.26458 0 0 .26458 80.82 143.904)" color="#000" font-weight="400" font-family="sans-serif" overflow="visible" fill="url(#t)" fill-rule="evenodd"/><path style="line-height:normal;font-variant-ligatures:normal;font-variant-position:normal;font-variant-caps:normal;font-variant-numeric:normal;font-variant-alternates:normal;font-feature-settings:normal;text-indent:0;text-align:start;text-decoration-line:none;text-decoration-style:solid;text-decoration-color:#000;text-transform:none;text-orientation:mixed;white-space:normal;shape-padding:0;isolation:auto;mix-blend-mode:normal;solid-color:#000;solid-opacity:1" d="M177.729 258.08l-3.374 7.256 37.641 17.49v-8.822L177.73 258.08zm40.464 18.803v8.824l167.46 77.813-5.06 10.886 31.844-2.845-18.359-26.176-5.057 10.88-170.828-79.382z" transform="matrix(.26458 0 0 .26458 80.82 143.904)" color="#000" font-weight="400" font-family="sans-serif" overflow="visible" fill="url(#u)" fill-rule="evenodd"/><path style="line-height:normal;font-variant-ligatures:normal;font-variant-position:normal;font-variant-caps:normal;font-variant-numeric:normal;font-variant-alternates:normal;font-feature-settings:normal;text-indent:0;text-align:start;text-decoration-line:none;text-decoration-style:solid;text-decoration-color:#000;text-transform:none;text-orientation:mixed;white-space:normal;shape-padding:0;isolation:auto;mix-blend-mode:normal;solid-color:#000;solid-opacity:1" d="M177.729 258.08l-3.374 7.256 37.641 17.49v-8.822L177.73 258.08zm40.464 18.803v8.824l167.46 77.813-5.06 10.886 31.844-2.845-18.359-26.176-5.057 10.88-170.828-79.382z" transform="matrix(.26458 0 0 .26458 80.82 143.904)" color="#000" font-weight="400" font-family="sans-serif" overflow="visible" fill="url(#v)" fill-rule="evenodd"/><path d="M127.843 212.187l-.892 1.92 9.959 4.628V216.4zm10.707 4.975v2.335l44.306 20.588-1.338 2.88 8.425-.753-4.857-6.925-1.338 2.879z" style="line-height:normal;font-variant-ligatures:normal;font-variant-position:normal;font-variant-caps:normal;font-variant-numeric:normal;font-variant-alternates:normal;font-feature-settings:normal;text-indent:0;text-align:start;text-decoration-line:none;text-decoration-style:solid;text-decoration-color:#000;text-transform:none;text-orientation:mixed;white-space:normal;shape-padding:0;isolation:auto;mix-blend-mode:normal;solid-color:#000;solid-opacity:1" color="#000" font-weight="400" font-family="sans-serif" overflow="visible" fill="url(#w)" fill-rule="evenodd"/><path d="M216.996 44.693l-36.95 14.827v194.644l31.95-13V228.01h6.197v10.633l160.147-65.166-.201-35.952c-.491.03-.985.05-1.483.05-13.787 0-25.092-11.304-25.092-25.09 0-3.79.86-7.39 2.385-10.622l-134.953-55.17-2-2zM172.045 62.73L54.996 109.693v153.532c13.71.091 24.922 11.357 24.922 25.087 0 4.171-1.04 8.11-2.865 11.583l137.943 63.798 86.51-39.275-83.313-38.713v9.656h-6.197v-12.535l-37.64-17.49.124-.268-.855.348-1.51-3.705h-.07v-.172l-1.44-3.533 1.44-.586V62.729zm192.998 43.67a13.18 13.18 0 0 0-1.475 6.085c0 7.302 5.787 13.088 13.088 13.088.48 0 .951-.027 1.416-.076l-.076-13.803-12.953-5.295zm13.344 75.697L218.193 247.28v29.604l92.914 43.176 65.077-29.545 2.812 1.177-.61-109.597zm-166.39 67.707l-27.768 11.299 27.767 12.902v-24.201zm-157 25.422v14.468l11.189 5.176a13.128 13.128 0 0 0 1.738-6.557c0-7.244-5.707-12.998-12.928-13.087z" transform="matrix(.26458 0 0 .26458 80.82 143.904)" fill="url(#x)" fill-rule="evenodd"/><use xlink:href="#y"/><use xlink:href="#z"/><path style="line-height:normal;font-variant-ligatures:normal;font-variant-position:normal;font-variant-caps:normal;font-variant-numeric:normal;font-variant-alternates:normal;font-feature-settings:normal;text-indent:0;text-align:start;text-decoration-line:none;text-decoration-style:solid;text-decoration-color:#000;text-transform:none;text-orientation:mixed;white-space:normal;shape-padding:0;isolation:auto;mix-blend-mode:normal;solid-color:#000;solid-opacity:1" d="M176.043 0l-16 27.682h12.002v133.33l8.002 3.699V27.68h11.996L176.043 0zm-3.998 167.854v93.857h8.002v-90.096l-8.002-3.761z" transform="matrix(.26458 0 0 .26458 80.82 143.904)" color="#000" font-weight="400" font-family="sans-serif" overflow="visible" fill="url(#A)" fill-rule="evenodd"/><path style="line-height:normal;font-variant-ligatures:normal;font-variant-position:normal;font-variant-caps:normal;font-variant-numeric:normal;font-variant-alternates:normal;font-feature-settings:normal;text-indent:0;text-align:start;text-decoration-line:none;text-decoration-style:solid;text-decoration-color:#000;text-transform:none;text-orientation:mixed;white-space:normal;shape-padding:0;isolation:auto;mix-blend-mode:normal;solid-color:#000;solid-opacity:1" d="M176.043 0l-16 27.682h12.002v133.33l8.002 3.699V27.68h11.996L176.043 0zm-3.998 167.854v93.857h8.002v-90.096l-8.002-3.761z" id="z" transform="matrix(.26458 0 0 .26458 80.82 143.904)" color="#000" font-style="normal" font-variant="normal" font-weight="400" font-stretch="normal" font-size="medium" font-family="sans-serif" text-decoration="none" letter-spacing="normal" word-spacing="normal" writing-mode="lr-tb" direction="ltr" dominant-baseline="auto" baseline-shift="baseline" text-anchor="start" clip-rule="nonzero" display="inline" overflow="visible" visibility="visible" opacity="1" color-interpolation="sRGB" color-interpolation-filters="linearRGB" vector-effect="none" fill="url(#B)" fill-opacity="1" fill-rule="evenodd" stroke="none" stroke-width="8" stroke-linecap="butt" stroke-linejoin="miter" stroke-miterlimit="4" stroke-dasharray="none" stroke-dashoffset="0" stroke-opacity="1" color-rendering="auto" image-rendering="auto" shape-rendering="auto" text-rendering="auto"/><path style="line-height:normal;font-variant-ligatures:normal;font-variant-position:normal;font-variant-caps:normal;font-variant-numeric:normal;font-variant-alternates:normal;font-feature-settings:normal;text-indent:0;text-align:start;text-decoration-line:none;text-decoration-style:solid;text-decoration-color:#000;text-transform:none;text-orientation:mixed;white-space:normal;shape-padding:0;isolation:auto;mix-blend-mode:normal;solid-color:#000;solid-opacity:1" d="M176.043 0l-16 27.682h12.002v133.33l8.002 3.699V27.68h11.996L176.043 0zm-3.998 167.854v93.857h8.002v-90.096l-8.002-3.761z" id="y" transform="matrix(.26458 0 0 .26458 80.82 143.904)" color="#000" font-style="normal" font-variant="normal" font-weight="400" font-stretch="normal" font-size="medium" font-family="sans-serif" text-decoration="none" letter-spacing="normal" word-spacing="normal" writing-mode="lr-tb" direction="ltr" dominant-baseline="auto" baseline-shift="baseline" text-anchor="start" clip-rule="nonzero" display="inline" overflow="visible" visibility="visible" opacity="1" color-interpolation="sRGB" color-interpolation-filters="linearRGB" vector-effect="none" fill="url(#C)" fill-opacity="1" fill-rule="evenodd" stroke="none" stroke-width="8" stroke-linecap="butt" stroke-linejoin="miter" stroke-miterlimit="4" stroke-dasharray="none" stroke-dashoffset="0" stroke-opacity="1" color-rendering="auto" image-rendering="auto" shape-rendering="auto" text-rendering="auto"/><path style="line-height:normal;font-variant-ligatures:normal;font-variant-position:normal;font-variant-caps:normal;font-variant-numeric:normal;font-variant-alternates:normal;font-feature-settings:normal;text-indent:0;text-align:start;text-decoration-line:none;text-decoration-style:solid;text-decoration-color:#000;text-transform:none;text-orientation:mixed;white-space:normal;shape-padding:0;isolation:auto;mix-blend-mode:normal;solid-color:#000;solid-opacity:1" mask="none" clip-path="none" d="M177.86 171.384c-.346.4-.601.88-.736 1.413l1.68.687-1.738.767c.09.544.304 1.04.612 1.464l2.359-1.042v2.425c.144.018.29.03.44.03a3.51 3.51 0 0 0 1.167-.201l-.02-3.476-.494-.73zm2.177 48.394l-33.1-13.861-2.083.848 33.514 14.033-16.184 7.347 1.898.882 16.284-7.392.423.177 1.1-.736-.227-40.882s-.781.11-1.186.11c-.147 0-.44-.017-.44-.017zm-53.698-12.893l-25.066 10.367c.235.47.414.973.531 1.498l24.535-10.148zm-31.013 9.836c-.258 0-.509.03-.75.082v3.75l.461.72 2.81 1.3c.364-.386.641-.855.797-1.381l-1.296-.6L98.78 220a3.467 3.467 0 0 0-.442-1.535l-2.175.9v-2.54a3.531 3.531 0 0 0-.838-.104zm41.584 22.167l-35.377-16.36c-.19.5-.44.972-.74 1.407l36.578 16.916.33-.21.33.212 23.51-10.673-1.898-.882-21.145 9.6v-34.794l3.587 1.502 2.084-.849-4.613-1.931v-10.27l35.194-15.547a6.605 6.605 0 0 1-.635-1.455l-34.559 15.265v-33.38l34.618 14.152a6.62 6.62 0 0 1 .678-1.437l-35.79-14.631-.17.114-.955-.645-9.48 3.804v1.712l8.982-3.604v34.613L96.776 173.22l29.563-11.862v-1.712l-31.265 12.546-.498.736v40.664a6.61 6.61 0 0 1 .75-.044c.284 0 .563.02.838.056v-38.92l40.746 18.336v9.494l-8.453 3.496v1.718l8.453-3.496z" id="K" color="#000" font-style="normal" font-variant="normal" font-weight="400" font-stretch="normal" font-size="medium" font-family="sans-serif" text-decoration="none" letter-spacing="normal" word-spacing="normal" writing-mode="lr-tb" direction="ltr" dominant-baseline="auto" baseline-shift="baseline" text-anchor="start" clip-rule="nonzero" display="inline" overflow="visible" visibility="visible" opacity="1" color-interpolation="sRGB" color-interpolation-filters="linearRGB" vector-effect="none" fill="url(#D)" fill-opacity="1" fill-rule="evenodd" stroke="none" stroke-width="1.587" stroke-linecap="butt" stroke-linejoin="bevel" stroke-miterlimit="4" stroke-dasharray="none" stroke-dashoffset="0" stroke-opacity="1" color-rendering="auto" image-rendering="auto" shape-rendering="auto" text-rendering="auto"/><g color="#000" font-weight="400" font-family="sans-serif"><path d="M183.588-57.594c-3.648 0-6.639 2.99-6.639 6.638 0 3.648 2.991 6.639 6.639 6.639s6.639-2.991 6.639-6.639c0-3.647-2.991-6.638-6.64-6.638zm0 3.173a3.442 3.442 0 0 1 3.465 3.465 3.44 3.44 0 0 1-3.465 3.463 3.438 3.438 0 0 1-3.463-3.463 3.44 3.44 0 0 1 3.463-3.465z" style="line-height:normal;font-variant-ligatures:normal;font-variant-position:normal;font-variant-caps:normal;font-variant-numeric:normal;font-variant-alternates:normal;font-feature-settings:normal;text-indent:0;text-align:start;text-decoration-line:none;text-decoration-style:solid;text-decoration-color:#000;text-transform:none;text-orientation:mixed;white-space:normal;shape-padding:0;isolation:auto;mix-blend-mode:normal;solid-color:#000;solid-opacity:1" overflow="visible" fill="url(#E)" transform="translate(-3.112 224.62)"/><path style="line-height:normal;font-variant-ligatures:normal;font-variant-position:normal;font-variant-caps:normal;font-variant-numeric:normal;font-variant-alternates:normal;font-feature-settings:normal;text-indent:0;text-align:start;text-decoration-line:none;text-decoration-style:solid;text-decoration-color:#000;text-transform:none;text-orientation:mixed;white-space:normal;shape-padding:0;isolation:auto;mix-blend-mode:normal;solid-color:#000;solid-opacity:1" d="M183.588-57.594c-3.648 0-6.639 2.99-6.639 6.638 0 3.648 2.991 6.639 6.639 6.639s6.639-2.991 6.639-6.639c0-3.647-2.991-6.638-6.64-6.638zm0 3.173a3.442 3.442 0 0 1 3.465 3.465 3.44 3.44 0 0 1-3.465 3.463 3.438 3.438 0 0 1-3.463-3.463 3.44 3.44 0 0 1 3.463-3.465z" overflow="visible" fill="url(#F)" transform="translate(-3.112 224.62)"/><path d="M183.588-57.594c-3.648 0-6.639 2.99-6.639 6.638 0 3.648 2.991 6.639 6.639 6.639s6.639-2.991 6.639-6.639c0-3.647-2.991-6.638-6.64-6.638zm0 3.173a3.442 3.442 0 0 1 3.465 3.465 3.44 3.44 0 0 1-3.465 3.463 3.438 3.438 0 0 1-3.463-3.463 3.44 3.44 0 0 1 3.463-3.465z" style="line-height:normal;font-variant-ligatures:normal;font-variant-position:normal;font-variant-caps:normal;font-variant-numeric:normal;font-variant-alternates:normal;font-feature-settings:normal;text-indent:0;text-align:start;text-decoration-line:none;text-decoration-style:solid;text-decoration-color:#000;text-transform:none;text-orientation:mixed;white-space:normal;shape-padding:0;isolation:auto;mix-blend-mode:normal;solid-color:#000;solid-opacity:1" overflow="visible" fill="url(#G)" transform="translate(-3.112 224.62)"/></g><g transform="translate(-88.262 271.142)"><path style="line-height:normal;font-variant-ligatures:normal;font-variant-position:normal;font-variant-caps:normal;font-variant-numeric:normal;font-variant-alternates:normal;font-feature-settings:normal;text-indent:0;text-align:start;text-decoration-line:none;text-decoration-style:solid;text-decoration-color:#000;text-transform:none;text-orientation:mixed;white-space:normal;shape-padding:0;isolation:auto;mix-blend-mode:normal;solid-color:#000;solid-opacity:1" d="M183.588-57.594c-3.648 0-6.639 2.99-6.639 6.638 0 3.648 2.991 6.639 6.639 6.639s6.639-2.991 6.639-6.639c0-3.647-2.991-6.638-6.64-6.638zm0 3.173a3.442 3.442 0 0 1 3.465 3.465 3.44 3.44 0 0 1-3.465 3.463 3.438 3.438 0 0 1-3.463-3.463 3.44 3.44 0 0 1 3.463-3.465z" id="H" color="#000" font-style="normal" font-variant="normal" font-weight="400" font-stretch="normal" font-size="medium" font-family="sans-serif" text-decoration="none" letter-spacing="normal" word-spacing="normal" writing-mode="lr-tb" direction="ltr" dominant-baseline="auto" baseline-shift="baseline" text-anchor="start" clip-rule="nonzero" display="inline" overflow="visible" visibility="visible" opacity="1" color-interpolation="sRGB" color-interpolation-filters="linearRGB" vector-effect="none" fill="url(#E)" fill-opacity="1" fill-rule="nonzero" stroke="none" stroke-width="3.175" stroke-linecap="round" stroke-linejoin="bevel" stroke-miterlimit="4" stroke-dasharray="none" stroke-dashoffset="0" stroke-opacity="1" color-rendering="auto" image-rendering="auto" shape-rendering="auto" text-rendering="auto"/><use height="100%" width="100%" xlink:href="#H"/><path d="M183.588-57.594c-3.648 0-6.639 2.99-6.639 6.638 0 3.648 2.991 6.639 6.639 6.639s6.639-2.991 6.639-6.639c0-3.647-2.991-6.638-6.64-6.638zm0 3.173a3.442 3.442 0 0 1 3.465 3.465 3.44 3.44 0 0 1-3.465 3.463 3.438 3.438 0 0 1-3.463-3.463 3.44 3.44 0 0 1 3.463-3.465z" style="line-height:normal;font-variant-ligatures:normal;font-variant-position:normal;font-variant-caps:normal;font-variant-numeric:normal;font-variant-alternates:normal;font-feature-settings:normal;text-indent:0;text-align:start;text-decoration-line:none;text-decoration-style:solid;text-decoration-color:#000;text-transform:none;text-orientation:mixed;white-space:normal;shape-padding:0;isolation:auto;mix-blend-mode:normal;solid-color:#000;solid-opacity:1" color="#000" font-weight="400" font-family="sans-serif" overflow="visible" fill="url(#F)"/><path style="line-height:normal;font-variant-ligatures:normal;font-variant-position:normal;font-variant-caps:normal;font-variant-numeric:normal;font-variant-alternates:normal;font-feature-settings:normal;text-indent:0;text-align:start;text-decoration-line:none;text-decoration-style:solid;text-decoration-color:#000;text-transform:none;text-orientation:mixed;white-space:normal;shape-padding:0;isolation:auto;mix-blend-mode:normal;solid-color:#000;solid-opacity:1" d="M183.588-57.594c-3.648 0-6.639 2.99-6.639 6.638 0 3.648 2.991 6.639 6.639 6.639s6.639-2.991 6.639-6.639c0-3.647-2.991-6.638-6.64-6.638zm0 3.173a3.442 3.442 0 0 1 3.465 3.465 3.44 3.44 0 0 1-3.465 3.463 3.438 3.438 0 0 1-3.463-3.463 3.44 3.44 0 0 1 3.463-3.465z" color="#000" font-weight="400" font-family="sans-serif" overflow="visible" fill="url(#G)"/></g><path style="line-height:125%;-inkscape-font-specification:'Sans Bold'" d="M80.82 230.037v5.676h1.93v-.7h-.874v-4.277h.873v-.699zm27.958 0v.7h.874v4.277h-.874v.699h1.93v-5.676zm-25.438 1.356l1.256 1.7-1.318 1.78h1.178l.774-1.1.783 1.1h1.178l-1.318-1.786 1.256-1.694h-1.178l-.721 1.031-.712-1.031zm9.232 0l1.55 3.614-.03.096c-.048.156-.115.264-.202.324-.085.06-.222.09-.41.09h-.349v.73h.644c.32 0 .579-.077.774-.233.197-.153.368-.423.515-.81l1.464-3.811h-1.112l-.796 2.362-.935-2.362zm9.648 0v.795h1.756l-1.834 1.909v.776h3.115v-.795h-1.834l1.834-1.909v-.776zm-13.574.833c-.375 0-.665.116-.87.35-.204.233-.305.564-.305.995 0 .433.101.767.304 1.001.201.232.491.349.87.349.374 0 .663-.117.868-.349.203-.23.305-.564.305-1 0-.432-.102-.763-.305-.996-.205-.234-.494-.35-.867-.35zm9.362 0c-.375 0-.665.116-.87.35-.203.233-.305.564-.305.995 0 .433.102.767.305 1.001.2.232.49.349.87.349.373 0 .662-.117.868-.349.203-.23.304-.564.304-1 0-.432-.101-.763-.304-.996-.206-.234-.495-.35-.868-.35zm8.915 0c-.375 0-.665.116-.87.35-.204.233-.305.564-.305.995 0 .433.101.767.304 1.001.201.232.491.349.87.349.374 0 .663-.117.868-.349.203-.23.305-.564.305-1 0-.432-.102-.763-.305-.996-.205-.234-.494-.35-.867-.35zm-18.277.456c.157 0 .27.067.336.2.066.132.099.36.099.686 0 .33-.033.562-.1.696a.35.35 0 0 1-.335.202.351.351 0 0 1-.339-.202c-.066-.134-.1-.366-.1-.696 0-.325.034-.554.1-.687a.352.352 0 0 1 .339-.199zm9.362 0c.157 0 .27.067.336.2.066.132.1.36.1.686 0 .33-.034.562-.1.696a.35.35 0 0 1-.336.202.351.351 0 0 1-.339-.202c-.066-.134-.1-.366-.1-.696 0-.325.034-.554.1-.687a.352.352 0 0 1 .339-.199zm8.915 0c.157 0 .27.067.336.2.066.132.099.36.099.686 0 .33-.033.562-.1.696a.35.35 0 0 1-.335.202.351.351 0 0 1-.339-.202c-.066-.134-.1-.366-.1-.696 0-.325.034-.554.1-.687a.352.352 0 0 1 .339-.199zm-16.204.989v.948l-.31 1.16h.661l.768-1.16v-.948zm9.362 0v.948l-.31 1.16h.662l.767-1.16v-.948z" font-weight="700" font-family="Sans" letter-spacing="0" word-spacing="0" fill="url(#I)"/><path style="line-height:125%;-inkscape-font-specification:'Sans Bold'" d="M165.97 158.025v5.676h1.93v-.7h-.874v-4.277h.874v-.7zm27.959 0v.7h.874V163h-.874v.7h1.93v-5.676zm-25.439 1.355l1.256 1.7-1.318 1.781h1.178l.774-1.1.784 1.1h1.177l-1.317-1.787 1.255-1.694h-1.178l-.72 1.032-.712-1.032zm9.232 0l1.551 3.615-.03.096c-.048.156-.116.264-.203.324-.085.06-.222.09-.41.09h-.348v.73h.643c.321 0 .58-.078.774-.233.197-.154.369-.423.516-.811l1.464-3.811h-1.113l-.796 2.363-.935-2.363zm9.648 0v.796h1.756l-1.834 1.908v.777h3.115v-.795h-1.834l1.834-1.909v-.777zm-13.841.886l-.712.152v.498l.7-.162v1.62h-.644v.487h1.993v-.487h-.634v-2.108zm9.362 0l-.711.152v.498l.699-.162v1.62h-.644v.487h1.993v-.487h-.634v-2.108zm8.915 0l-.712.152v.498l.7-.162v1.62h-.644v.487h1.993v-.487h-.634v-2.108zm-15.937 1.392v.949l-.31 1.159h.662l.768-1.16v-.948zm9.363 0v.949l-.311 1.159h.662l.768-1.16v-.948z" font-weight="700" font-family="Sans" letter-spacing="0" word-spacing="0" fill="url(#J)"/><use xlink:href="#K"/></g></svg>