<svg xmlns="http://www.w3.org/2000/svg" xmlns:xlink="http://www.w3.org/1999/xlink" width="351.455" height="381.43" viewBox="0 0 92.989 100.92"><defs><pattern xlink:href="#a" id="u" patternTransform="matrix(.07 0 0 .07 154.83 -20.798)"/><pattern xlink:href="#b" id="t" patternTransform="matrix(.07 0 0 .07 120.436 -27.306)"/><pattern xlink:href="#c" id="a" patternTransform="matrix(.07 0 0 .07 53.158 -119.171)"/><pattern xlink:href="#d" id="b" patternTransform="matrix(.07 0 0 .07 18.764 -125.68)"/><pattern patternTransform="matrix(.26458 0 0 .26458 200.914 -450.41)" id="c" xlink:href="#e"/><pattern patternTransform="matrix(.26458 0 0 .26458 70.92 -475.008)" id="d" xlink:href="#f"/><pattern xlink:href="#g" id="x" patternTransform="scale(.07) rotate(45 -3066.142 5621.099)"/><pattern xlink:href="#h" id="g" patternTransform="scale(.26458) rotate(45 1169.103 5464.055)"/><pattern patternUnits="userSpaceOnUse" width="12.974" height="12.974" patternTransform="matrix(.26458 0 0 .26458 430.922 24.646)" id="h"><rect ry="0" y=".501" x=".501" height="11.972" width="11.972" fill-opacity=".004" stroke="#000" stroke-width="1.002" stroke-linecap="round" stroke-linejoin="bevel" stroke-opacity="0"/><rect y="1.892" x="4.812" height="5.724" width="5.724" rx="2.862" ry="2.862" transform="rotate(15)" fill-opacity=".498" stroke="#000" stroke-width=".479" stroke-linecap="round" stroke-linejoin="bevel" stroke-opacity="0"/></pattern><pattern xlink:href="#i" id="y" patternTransform="scale(.26458) rotate(-15 1392.51 -4287.481)"/><pattern patternUnits="userSpaceOnUse" width="12.974" height="12.974" patternTransform="matrix(.26458 0 0 .26458 331.244 -52.243)" id="i"><rect height="12.974" width="12.974" ry="3.048" fill="#0ff" fill-opacity=".498" stroke-width="3.78"/></pattern><pattern xlink:href="#j" id="z" patternTransform="scale(.07) rotate(38.855 -3824.57 6628.555)"/><pattern xlink:href="#k" id="j" patternTransform="scale(.26458) rotate(38.855 1050.92 6709.317)"/><pattern patternUnits="userSpaceOnUse" width="12.974" height="12.974" patternTransform="matrix(.26458 0 0 .26458 404.463 24.646)" id="k"><rect width="11.972" height="11.972" x=".501" y=".501" ry="0" fill-opacity=".004" stroke="#000" stroke-width="1.002" stroke-linecap="round" stroke-linejoin="bevel" stroke-opacity="0"/><rect transform="rotate(15)" ry="4.737" rx="4.737" width="9.473" height="9.473" x="3.081" y="-.338" fill-opacity=".498" stroke="#000" stroke-width=".793" stroke-linecap="round" stroke-linejoin="bevel" stroke-opacity="0"/></pattern><pattern xlink:href="#l" id="A" patternTransform="scale(.07) rotate(45 -2941.446 6154.888)"/><pattern xlink:href="#m" id="l" patternTransform="scale(.26458) rotate(45 1293.8 5997.844)"/><pattern patternUnits="userSpaceOnUse" width="12.974" height="12.974" patternTransform="matrix(.26458 0 0 .26458 381.242 24.988)" id="m"><rect ry="5.986" rx="5.986" width="11.972" height="11.972" x=".501" y=".501" fill-opacity=".498" stroke="#000" stroke-width="1.002" stroke-linecap="round" stroke-linejoin="bevel" stroke-opacity="0"/></pattern><pattern patternUnits="userSpaceOnUse" width="12.974" height="12.974" patternTransform="matrix(.26458 0 0 .26458 404.463 -2.469)" id="B"><rect ry="0" y=".501" x=".501" height="11.972" width="11.972" fill="#ff0" fill-opacity=".043" stroke="#000" stroke-width="1.002" stroke-linecap="round" stroke-linejoin="bevel" stroke-opacity="0"/><rect y="-.338" x="3.081" height="9.473" width="9.473" rx="4.737" ry="4.737" transform="rotate(15)" fill="#ff0" fill-opacity=".498" stroke="#000" stroke-width=".793" stroke-linecap="round" stroke-linejoin="bevel" stroke-opacity="0"/></pattern><pattern xlink:href="#n" id="C" patternTransform="scale(.26458) rotate(15 -1157.664 3729.775)"/><pattern patternUnits="userSpaceOnUse" width="12.974" height="12.974" patternTransform="matrix(.26458 0 0 .26458 331.244 -26.977)" id="n"><rect ry="3.048" width="12.974" height="12.974" fill="#f06" fill-opacity=".498" stroke-width="3.78"/></pattern><pattern xlink:href="#o" id="D" patternTransform="rotate(44.999 -209.795 411.404) scale(.09584)"/><pattern xlink:href="#p" id="o" patternTransform="scale(.36224) rotate(45 904.598 4177.913)"/><pattern patternUnits="userSpaceOnUse" width="12.974" height="12.974" patternTransform="matrix(.26458 0 0 .26458 453.676 24.438)" id="p"><rect ry="0" y=".501" x=".501" height="11.972" width="11.972" fill="#999" fill-opacity=".004" stroke="#000" stroke-width="1.002" stroke-linecap="round" stroke-linejoin="bevel" stroke-opacity="0"/><rect y="2.758" x="6.424" height="3.538" width="3.538" rx="1.769" ry="1.769" transform="rotate(15)" fill-opacity=".498" stroke="#000" stroke-width=".296" stroke-linecap="round" stroke-linejoin="bevel" stroke-opacity="0"/></pattern><pattern xlink:href="#q" id="E" patternTransform="scale(.07) rotate(45 -3138.251 5602.743)"/><pattern xlink:href="#p" id="q" patternTransform="scale(.07) rotate(45 1096.994 5445.7)"/><pattern xlink:href="#r" id="F" patternTransform="scale(.08012) rotate(60 -1424.336 4271.914)"/><pattern xlink:href="#h" id="r" patternTransform="scale(.3028) rotate(60 1370.101 3798.088)"/><pattern xlink:href="#s" id="G" patternTransform="scale(.05527) rotate(45 -3706.21 7541.183)"/><pattern xlink:href="#k" id="s" patternTransform="scale(.05527) rotate(45 1658.393 7342.263)"/><pattern patternUnits="userSpaceOnUse" width="12.974" height="12.974" patternTransform="matrix(.26458 0 0 .26458 430.922 -2.469)" id="e"><rect width="11.972" height="11.972" x=".501" y=".501" ry="0" fill="#ff0" fill-opacity=".004" stroke="#000" stroke-width="1.002" stroke-linecap="round" stroke-linejoin="bevel" stroke-opacity="0"/><rect transform="rotate(15)" ry="2.862" rx="2.862" width="5.724" height="5.724" x="4.812" y="1.892" fill="#ff0" fill-opacity=".498" stroke="#000" stroke-width=".479" stroke-linecap="round" stroke-linejoin="bevel" stroke-opacity="0"/></pattern><pattern patternUnits="userSpaceOnUse" width="12.974" height="12.974" patternTransform="matrix(.26458 0 0 .26458 300.928 -27.067)" id="f"><rect width="11.972" height="11.972" x=".501" y=".501" ry="0" fill="#f06" fill-opacity=".498" stroke="#000" stroke-width="1.002" stroke-linecap="round" stroke-linejoin="bevel" stroke-opacity="0"/></pattern></defs><g transform="translate(-101.672 -98.373)"><path d="M147.58 98.903a8.077 8.077 0 0 0-8.078 8.077 8.077 8.077 0 0 0 .765 3.41l-23.333 13.47a8.077 8.077 0 0 0-6.656-3.516 8.077 8.077 0 0 0-8.077 8.077 8.077 8.077 0 0 0 8.077 8.077 8.077 8.077 0 0 0 .17-.006v25.861a8.077 8.077 0 0 0-.17-.009 8.077 8.077 0 0 0-8.077 8.077 8.077 8.077 0 0 0 8.077 8.077 8.077 8.077 0 0 0 6.93-3.946l22.857 13.196a8.077 8.077 0 0 0-.563 2.94 8.077 8.077 0 0 0 8.077 8.076 8.077 8.077 0 0 0 8.077-8.077 8.077 8.077 0 0 0-.507-2.801l23.757-13.716a8.077 8.077 0 0 0 7.15 4.328 8.077 8.077 0 0 0 8.076-8.077 8.077 8.077 0 0 0-8.077-8.077 8.077 8.077 0 0 0-1.052.079V136.42a8.077 8.077 0 0 0 1.052.078 8.077 8.077 0 0 0 8.077-8.077 8.077 8.077 0 0 0-8.077-8.077 8.077 8.077 0 0 0-6.894 3.888l-24.206-13.975a8.077 8.077 0 0 0 .701-3.277 8.077 8.077 0 0 0-8.077-8.078zm6.88 12.289l24.207 13.977a8.077 8.077 0 0 0-.615 2.219l-18.014.017-7.907-13.762a8.077 8.077 0 0 0 2.329-2.451zm-13.69.128a8.077 8.077 0 0 0 1.732 1.933L134.6 127.43l-16.314.015a8.077 8.077 0 0 0-.805-2.677zm2.603 2.543a8.077 8.077 0 0 0 3.236 1.128v12.427l-10.797.01 7.56-13.565zm7.85.324l7.594 13.219-11.15.01v-12.362a8.077 8.077 0 0 0 3.556-.867zm26.756 14.257a8.077 8.077 0 0 0 .318 2.21l-12.32 7.088-5.332-9.281zm-18.555.019l5.635 9.807-17.391 10.007v-19.803zm-12.815.012v19.432l-16.797-9.714c2.715-4.874 3.017-5.413 5.41-9.707zm-12.599.012l-5.114 9.176-11.067-6.401a8.077 8.077 0 0 0 .522-2.76zm44.658 3.174a8.077 8.077 0 0 0 1.642 2.432l-8.214 14.296-5.59-9.73zm-61.273.572l10.986 6.354c-1.968 3.533-3.578 6.428-5.444 9.78-1.873-3.364-4.035-7.246-5.57-10.006-.83-1.492-1.341-2.415-2.026-3.65a8.077 8.077 0 0 0 2.054-2.478zm63.73 2.572a8.077 8.077 0 0 0 2.82 1.403v26.419a8.077 8.077 0 0 0-2.85 1.424l-8.387-14.597zm-66.658.512c.673 1.21 1.167 2.103 1.976 3.557 1.623 2.919 3.895 6.998 5.89 10.58-1.995 3.581-4.267 7.66-5.89 10.579l-1.95 3.51a8.077 8.077 0 0 0-2.985-1.094v-26.052a8.077 8.077 0 0 0 2.96-1.08zm14.83 3.8l17.101 9.891-17.5 10.069-5.355-9.622c1.96-3.521 3.674-6.604 5.754-10.338zm36.29.071l5.897 10.265-5.538 9.639-17.43-10.08zm-17.92 10.554l17.752 10.267-5.995 10.435-11.756-.011zm-1.058.367v20.323l-11.388-.011-5.464-9.802-.343-.616zm25.487.409l8.192 14.26a8.077 8.077 0 0 0-1.349 1.828l-12.075-6.983zm-49.159.023l5.046 9.063-10.998 6.328a8.077 8.077 0 0 0-1.62-1.778l2.002-3.606c1.535-2.76 3.698-6.642 5.57-10.007zm5.561 9.989l.336.602c2.598 4.665 2.805 5.033 5.176 9.288l-15.655-.016a8.077 8.077 0 0 0-.838-3.556zm37.84.01l12.167 7.038a8.077 8.077 0 0 0-.527 2.843 8.077 8.077 0 0 0 .002.041l-17.334-.016zm-48.059 10.923l16.321.015 7.436 13.341a8.077 8.077 0 0 0-1.526 1.965l-22.814-13.173a8.077 8.077 0 0 0 .583-2.148zm17.533.016l10.797.01v11.19a8.077 8.077 0 0 0-3.741 1.46l-7.056-12.66zm11.856.012l11.148.01-7.058 12.286a8.077 8.077 0 0 0-4.09-1.172zm12.37.012l18.024.017a8.077 8.077 0 0 0 .415 1.677l-23.762 13.719a8.077 8.077 0 0 0-2.084-2.522z" id="H" opacity="1" fill="url(#t)" fill-opacity="1" stroke="#000" stroke-width="1.058" stroke-linecap="round" stroke-linejoin="miter" stroke-miterlimit="4" stroke-dasharray="none" stroke-dashoffset="0" stroke-opacity="0"/><path id="v" d="M147.58 98.903a8.077 8.077 0 0 0-8.078 8.077 8.077 8.077 0 0 0 .765 3.41l-23.333 13.47a8.077 8.077 0 0 0-6.656-3.516 8.077 8.077 0 0 0-8.077 8.077 8.077 8.077 0 0 0 8.077 8.077 8.077 8.077 0 0 0 .17-.006v25.861a8.077 8.077 0 0 0-.17-.009 8.077 8.077 0 0 0-8.077 8.077 8.077 8.077 0 0 0 8.077 8.077 8.077 8.077 0 0 0 6.93-3.946l22.857 13.196a8.077 8.077 0 0 0-.563 2.94 8.077 8.077 0 0 0 8.077 8.076 8.077 8.077 0 0 0 8.077-8.077 8.077 8.077 0 0 0-.507-2.801l23.757-13.716a8.077 8.077 0 0 0 7.15 4.328 8.077 8.077 0 0 0 8.076-8.077 8.077 8.077 0 0 0-8.077-8.077 8.077 8.077 0 0 0-1.052.079V136.42a8.077 8.077 0 0 0 1.052.078 8.077 8.077 0 0 0 8.077-8.077 8.077 8.077 0 0 0-8.077-8.077 8.077 8.077 0 0 0-6.894 3.888l-24.206-13.975a8.077 8.077 0 0 0 .701-3.277 8.077 8.077 0 0 0-8.077-8.078zm6.88 12.289l24.207 13.977a8.077 8.077 0 0 0-.615 2.219l-18.014.017-7.907-13.762a8.077 8.077 0 0 0 2.329-2.451zm-13.69.128a8.077 8.077 0 0 0 1.732 1.933L134.6 127.43l-16.314.015a8.077 8.077 0 0 0-.805-2.677zm2.603 2.543a8.077 8.077 0 0 0 3.236 1.128v12.427l-10.797.01 7.56-13.565zm7.85.324l7.594 13.219-11.15.01v-12.362a8.077 8.077 0 0 0 3.556-.867zm26.756 14.257a8.077 8.077 0 0 0 .318 2.21l-12.32 7.088-5.332-9.281zm-18.555.019l5.635 9.807-17.391 10.007v-19.803zm-12.815.012v19.432l-16.797-9.714c2.715-4.874 3.017-5.413 5.41-9.707zm-12.599.012l-5.114 9.176-11.067-6.401a8.077 8.077 0 0 0 .522-2.76zm44.658 3.174a8.077 8.077 0 0 0 1.642 2.432l-8.214 14.296-5.59-9.73zm-61.273.572l10.986 6.354c-1.968 3.533-3.578 6.428-5.444 9.78-1.873-3.364-4.035-7.246-5.57-10.006-.83-1.492-1.341-2.415-2.026-3.65a8.077 8.077 0 0 0 2.054-2.478zm63.73 2.572a8.077 8.077 0 0 0 2.82 1.403v26.419a8.077 8.077 0 0 0-2.85 1.424l-8.387-14.597zm-66.658.512c.673 1.21 1.167 2.103 1.976 3.557 1.623 2.919 3.895 6.998 5.89 10.58-1.995 3.581-4.267 7.66-5.89 10.579l-1.95 3.51a8.077 8.077 0 0 0-2.985-1.094v-26.052a8.077 8.077 0 0 0 2.96-1.08zm14.83 3.8l17.101 9.891-17.5 10.069-5.355-9.622c1.96-3.521 3.674-6.604 5.754-10.338zm36.29.071l5.897 10.265-5.538 9.639-17.43-10.08zm-17.92 10.554l17.752 10.267-5.995 10.435-11.756-.011zm-1.058.367v20.323l-11.388-.011-5.464-9.802-.343-.616zm25.487.409l8.192 14.26a8.077 8.077 0 0 0-1.349 1.828l-12.075-6.983zm-49.159.023l5.046 9.063-10.998 6.328a8.077 8.077 0 0 0-1.62-1.778l2.002-3.606c1.535-2.76 3.698-6.642 5.57-10.007zm5.561 9.989l.336.602c2.598 4.665 2.805 5.033 5.176 9.288l-15.655-.016a8.077 8.077 0 0 0-.838-3.556zm37.84.01l12.167 7.038a8.077 8.077 0 0 0-.527 2.843 8.077 8.077 0 0 0 .002.041l-17.334-.016zm-48.059 10.923l16.321.015 7.436 13.341a8.077 8.077 0 0 0-1.526 1.965l-22.814-13.173a8.077 8.077 0 0 0 .583-2.148zm17.533.016l10.797.01v11.19a8.077 8.077 0 0 0-3.741 1.46l-7.056-12.66zm11.856.012l11.148.01-7.058 12.286a8.077 8.077 0 0 0-4.09-1.172zm12.37.012l18.024.017a8.077 8.077 0 0 0 .415 1.677l-23.762 13.719a8.077 8.077 0 0 0-2.084-2.522z" opacity="1" fill="url(#u)" fill-opacity="1" stroke="#000" stroke-width="1.058" stroke-linecap="round" stroke-linejoin="miter" stroke-miterlimit="4" stroke-dasharray="none" stroke-dashoffset="0" stroke-opacity="0"/><use height="100%" width="100%" x="0" y="0" xlink:href="#v" id="w"/><use height="100%" width="100%" x="0" y="0" xlink:href="#w" id="I"/><g transform="translate(-77.011 -156.331)" id="J"><path d="M213.736 276.9l-2.728.306a32.144 32.144 0 0 0-14.118 13.69 17.866 17.866 0 0 1 11.289-4.033 17.866 17.866 0 0 1 9.091 2.51l.227-1.183-.727-.418.727-1.972-.727-2.29-2.072-.308-3.844.517-2.699-2.18 2.8-2.49-2.39 2.49 2.289 1.562 3.217-.417-.209-1.663 2.699-.418.318-1.036.827.827.209-1.454.244-.01c-.322-.17-.65-.337-.983-.501l-.615.72-.1-.827-1.663.208v-.935l-2.28.935-2.5-.208 4.78-.937.014-.042c-.354-.15-.712-.298-1.076-.442zm16.283 12.069l.355 1.193.5.068a28.938 28.938 0 0 0-.855-1.261zm5.418 17.221l-.283.275.26.937c.015-.404.023-.807.023-1.212zm-4.127.375l-.418 1.045-1.763-.727-2.6.618-.408 1.972-.418 3.017 1.145 1.345 2.181.318.727-1.663 2.699-.209-2.081 3.944 1.872-.409 1.552.679c.447-1.395.81-2.824 1.08-4.277l-1.282-.248 1.395-.407c.088-.532.163-1.067.226-1.604l-.272-.068-.936-2.599zm-7.83 7.346a17.866 17.866 0 0 1-15.301 8.684 17.866 17.866 0 0 1-13.256-5.92 32.144 32.144 0 0 0 19.285 19.511c7.887-1.449 14.66-7.971 18.322-16.334l-.184-.092-1.454-2.181-1.554-.209-2.281-2.281-1.254.518zm9.945 3.685l-.661 1.437.09.056c.201-.492.39-.99.57-1.493zm-19.098 18.638a32.144 32.144 0 0 0 2.174.679 32.144 32.144 0 0 1-2.174-.679zm3.117.952a32.144 32.144 0 0 0 2.009.413 32.144 32.144 0 0 1-2.01-.413zm3.19.632a32.144 32.144 0 0 0 1.83.188 32.144 32.144 0 0 1-1.83-.188zm3.366.316a32.144 32.144 0 0 0 1.21.033 32.144 32.144 0 0 1-1.21-.033z" opacity=".5" fill="url(#x)" stroke-width=".265" stroke-linecap="round" stroke-linejoin="bevel" stroke-opacity="0"/><path transform="matrix(.26458 0 0 .26458 -79.065 212.867)" d="M1150.018 230.596a121.49 121.49 0 0 0-7.22.256l-3.077 5.923-13.362 3.16-9.033 10.579-.377-3.125-6.287.789v-3.537l-8.619 3.537-9.445-.79 18.064-3.538.791-2.37-15.113 1.692a121.49 121.49 0 0 0-67.813 108.914 121.49 121.49 0 0 0 121.49 121.49 121.49 121.49 0 0 0 70.04-22.404c-12.814 8.971-27.43 15.545-43.21 19.053l-1.408-2.233 17.276-17.687-7.074-2.336-3.54-10.99-3.914-4.708 5.495-2.369-3.538-3.537 7.454-4.705 5.117-9.033-2.748-7.041-3.537 3.125-9.446-4.705-5.494-8.244-5.873-.79-8.62-8.62-4.741 1.957-18.822-13.739 1.959-3.537-9.825-17.654-1.168-8.242-3.537-3.537 1.168 7.453 6.285 14.906-2.748 1.58-4.705-8.244-4.328-6.662 2.748-.791-1.957-10.99-4.293-7.454-.79-16.486 8.243-14.527-1.203-7.453 1.58-8.244-2.748-1.58 2.748-7.454-2.748-8.654-7.83-1.168-14.53 1.957-10.198-8.242 10.578-9.41-9.033 9.41 8.654 5.906 12.16-1.578-.791-6.285 10.201-1.58 1.201-3.916 3.127 3.125.79-5.494 9.41-.38 6.285 9.034 14.117 9.033 12.982 3.125 3.916-5.496 7.453 9.412-2.37 6.697-7.042 3.125 2.336 7.866 5.908.79 8.621 4.294 1.168 6.697 4.327 1.168-2.334-7.076 4.293-1.957-6.664-6.664 3.125-.413-3.915-6.285 6.663.412 9.445 7.454.791-4.329 7.83 7.454 9.41 5.908 1.58 6.285 2.748-.412 3.537 5.496-7.865.789-1.168-9.033-.789 2.748-7.83.412-2.748 5.873 4.293-3.125.79 5.496 4.327 1.545 1.168-2.748 4.328 1.58-8.62 9.033v-5.496l-6.286 5.117 1.545 3.916-7.83 6.285.377 8.622-12.158 11.78 3.916 14.116-4.705-1.168-3.54-9.822-10.199-2.748-1.58 3.95-6.664-2.747-9.822 2.336-1.547 7.451-1.578 11.404 4.326 5.082 8.244 1.203 2.748-6.285 10.2-.79-7.866 14.906 7.076-1.545 6.286 2.748-4.329 9.41 6.286 3.916 6.285-1.58 3.539 4.328 2.334-7.076 9.824-5.496-1.959 7.865 1.58 1.168 3.127-7.041 3.537 3.127 10.201-2.748 6.662 6.285 9.034-1.58 1.957 7.453 10.992-2.748 5.396 1.701a121.49 121.49 0 0 0 14.149-56.746 121.49 121.49 0 0 0-121.49-121.49zm38.757 16.789l23.159 14.13-.786 7.85 7.46 12.56-11.776-4.318-5.104-9.812-7.85-3.533-3.532-5.102-7.067-1.57-2.353-9.422zm-9.812 2.353l.785 11.778-9.422-3.141 3.14-.393-2.355-6.28zm-26.3 5.496l7.458 6.674 3.14-1.57.393 7.064-10.207-1.57-1.568-4.316 4.316 1.568-2.748-3.139-5.494-.392zm20.804 7.067l10.597 1.568 14.524 10.992-4.316 1.961 1.568 5.889-12.168-4.711 4.71-1.96v-5.104l-7.849-1.57-.785 5.103-2.355-.785-.786-5.104zm45.926.783l3.14 4.71-5.496-1.177zm-28.262 108.73l11.383 8.243h-7.457l-1.178-3.139-12.17-2.355zm18.842 7.85l3.923 1.963-9.027 1.57.785-3.14zm25.418 58.791c-.557.544-1.115 1.086-1.682 1.62a121.49 121.49 0 0 0 1.682-1.62zm-7.84 7.03a122.177 122.177 0 0 1-5.334 4.144 121.49 121.49 0 0 0 5.334-4.145z" stroke-linecap="round" stroke-linejoin="bevel" stroke-opacity="0" opacity=".5" fill="url(#y)"/><path d="M223.072 274.386l-.586 1.128-3.535.836-1.775 2.079c.333.164.66.331.983.501l2.246-.09 1.663 2.39 3.735 2.39 3.435.827 1.036-1.455 1.972 2.49-.627 1.773-1.863.826.263.888c.298.416.584.836.855 1.26l1.063.143 2.28 1.136.31 1.772 1.145.309-.618-1.873 1.136-.517-1.763-1.764.826-.109-1.035-1.663 1.763.11 2.499 1.971.209-1.145 2.072 1.972 2.49 1.563.417 1.663.728-.109.211.33a29.453 29.453 0 0 0-4.36-7.7l-.004-.001-.006-.011a31.445 31.445 0 0 0-3.052-3.354l-.37-.166-.335-.485a34.442 34.442 0 0 0-1.147-.987l-1.322-.294-.227-.91c-.287-.21-.58-.42-.879-.626l.172 2.575-2.493-.83.83-.105-.622-1.662 1.521-.38c-2.647-1.763-5.712-3.343-9.24-4.697zm-8.065 2.373l-1.27.142c.363.144.721.292 1.075.442zm10.903 3.639l1.974 1.765.83-.415.105 1.87-2.7-.416-.416-1.142 1.142.415-.727-.83-1.454-.105zm5.505 1.87l2.804.414 3.843 2.909-1.143.518.415 1.558-3.219-1.246 1.246-.519v-1.35l-2.076-.416-.208 1.35-.623-.207-.208-1.35zm11.526 10.693l-.208.727-2.072.11-.727 1.553 1.136-.827.208 1.455 1.146.408.309-.727 1.145.418-2.281 2.39v-1.454l-1.663 1.354.409 1.036-2.072 1.663.1 2.281-2.934 2.842c0 .405-.008.808-.023 1.212l.776 2.798-.973-.241a33.872 33.872 0 0 1-.226 1.604l1.098-.32 3.011 2.18h-1.973l-.311-.83-1.939-.375a34.764 34.764 0 0 1-1.079 4.277l.11.048-.483 1.053c-.18.503-.37 1.001-.571 1.493l1.573.98 1.663-.418.936 1.145.617-1.872 2.6-1.454-.519 2.08.419.31.827-1.863.936.827 2.699-.727.24.228c2.197-7.544 2.682-15.695.177-23.151l-1.772.177zm-1.867 20.359l1.038.519-2.389.415.208-.83zm-8.544 6.532c-3.665 8.37-10.447 14.897-18.343 16.338a32.144 32.144 0 0 0 11.024 1.977 32.144 32.144 0 0 0 7.38-.953c-.094.022-.187.046-.282.067l-.372-.591 4.57-4.68-1.871-.618-.936-2.908-1.036-1.245 1.454-.627-.936-.936 1.972-1.245 1.354-2.39-.727-1.863-.936.827zm.062 17.362c.609-.142 1.211-.3 1.807-.477a32.144 32.144 0 0 1-1.807.477zm1.807-.477a32.144 32.144 0 0 0 1.044-.325c-.345.115-.694.222-1.044.325zm1.044-.325c.06-.02.12-.043.18-.064 0-.002.004-.003.005-.005a32.144 32.144 0 0 1-.185.068zm1.03-.363l-.17.06.17-.06z" opacity=".309" fill="url(#z)" stroke-width=".265" stroke-linecap="round" stroke-linejoin="bevel" stroke-opacity="0"/><path d="M225.21 273.879a32.144 32.144 0 0 0-1.91.067l-.228.44c3.529 1.353 6.595 2.934 9.242 4.696l.555-.139.036.542c.298.206.592.415.879.626l-.396-1.583 2.077-.207 6.128 3.739-.208 2.076 1.973 3.324-3.111-1.141a29.453 29.453 0 0 1 4.36 7.699l.724 1.125-.31.03c2.506 7.457 2.021 15.608-.175 23.152l1.522 1.435 2.39-.418.517 1.972 2.909-.727 1.428.45a32.144 32.144 0 0 0 3.743-15.014 32.144 32.144 0 0 0-32.144-32.144zm10.123 7.436c.394.324.776.653 1.147.986l-.6-.865zm8.233 1.16l.831 1.246-1.454-.312zm-6.38.478a31.447 31.447 0 0 1 3.051 3.353l-1.345-2.585zm10.613 45.922a32.34 32.34 0 0 1-.445.428 32.144 32.144 0 0 0 .445-.428zm-2.074 1.86a32.144 32.144 0 0 1-1.412 1.096c.481-.352.952-.718 1.412-1.096zm-2.467 1.835a32.144 32.144 0 0 1-2.233 1.376c.764-.43 1.509-.889 2.233-1.376zm-3.297 1.946a32.144 32.144 0 0 1-1.246.605c.42-.193.836-.395 1.246-.605zm-1.246.605c-.42.193-.848.376-1.279.552a32.144 32.144 0 0 0 1.28-.552zm-1.279.552a32.144 32.144 0 0 1-1.808.67c-.003.004-.005.008-.008.01a32.03 32.03 0 0 0 1.816-.68z" opacity=".279" fill="url(#A)" stroke-width=".265" stroke-linecap="round" stroke-linejoin="bevel" stroke-opacity="0"/><g transform="matrix(.2908 0 0 .2908 152.653 236.7)" opacity=".542" fill="url(#B)" stroke="#000" stroke-width=".91" stroke-opacity="0"><path d="M279.78 152.415l6.428 1.428 3.214 4.643 7.143 3.214 4.643 8.929 10.714 3.929-6.785-11.429.714-7.143-21.071-12.857-7.143.714zM291.208 175.272l-11.071-4.286 4.285-1.786v-4.642l-7.142-1.429-.715 4.643-2.143-.714-.714-4.643-2.857-5.715 9.643 1.429 13.214 10-3.928 1.786zM247.637 154.2l5 .358 2.5 2.857-3.929-1.429 1.429 3.929 9.285 1.428-.357-6.428-2.857 1.428-6.786-6.071zM275.851 145.272l-7.143 1.786 2.143 5.714-2.857.357 8.571 2.857zM243.427 127.164c-4.873.276-9.66.896-14.344 1.781l-17.969 5a109.79 109.79 0 0 0-12.593 5.594l15.906-1.781-.719 2.156-16.437 3.219 8.593.719 7.844-3.22v3.22l5.719-.72.344 2.845 8.218-9.625 12.157-2.875zM278.351 258.843l8.571-2.5 10.358 7.5h-6.786l-1.072-2.857zM299.422 266.7l8.215-1.428-3.572-1.786-3.928.357zM312.637 157.415l-2.143 3.214 5 1.071z"/><path d="M232.99 144.914l-8.563.344-.719 5-2.844-2.844-1.093 3.563-9.282 1.437.72 5.719-11.063 1.437-7.875-5.375 8.218-8.562-9.625 8.562 9.282 7.5 13.218-1.78 7.125 1.062 2.5 7.875-2.5 6.78 2.5 1.438-1.437 7.5 1.094 6.782-7.5 13.218.718 15 3.907 6.782 1.78 10-2.5.718 3.938 6.063 4.282 7.5 2.5-1.438-5.72-13.562-1.062-6.781 3.22 3.218 1.062 7.5 8.937 16.063-1.781 3.219 17.125 12.5 4.312-1.782 7.844 7.844 5.344.719 5 7.5 8.594 4.281 3.218-2.844 2.5 6.407-4.656 8.218-6.781 4.282 3.219 3.218-5 2.157 3.562 4.28 3.219 10 6.437 2.126-15.718 16.094 1.28 2.03c31.828-7.074 58.486-27.821 73.5-55.78l-5.155-1.625-10 2.5-1.782-6.782-8.218 1.438-6.063-5.719-9.281 2.5-3.219-2.844-2.844 6.407-1.437-1.063 1.781-7.156-8.937 5-2.125 6.437-3.22-3.937-5.718 1.437-5.719-3.562 3.938-8.563-5.719-2.5-6.437 1.407 7.156-13.563-9.281.719-2.5 5.719-7.5-1.094-3.938-4.625 1.438-10.375 1.406-6.781 8.937-2.125 6.063 2.5 1.437-3.594 9.282 2.5 3.218 8.937 4.282 1.063-3.563-12.844 11.063-10.719-.344-7.843 7.125-5.72-1.406-3.562 5.718-4.656v5l7.844-8.219-3.937-1.437-1.063 2.5-3.937-1.406-.72-5-3.905 2.843 2.5-5.343 7.125-.375.718-2.5 1.063 8.218 7.156-.718-3.219-5-2.5.375-1.437-5.72-8.563-5.374-7.125-6.781-.718 3.937-8.594-6.781-6.063-.375 3.563 5.719-2.844.375 6.063 6.062-3.907 1.781 2.125 6.438-3.937-1.063-1.063-6.093-7.843-3.907-5.375-.718-2.125-7.157 6.406-2.843 2.156-6.094-6.781-8.563-3.563 5-11.812-2.843-12.844-8.22z"/></g><g transform="matrix(.2908 0 0 .2908 152.141 236.553)" opacity=".748" fill="url(#C)" stroke="#000" stroke-width=".91" stroke-opacity="0"><path d="M279.78 152.415l6.428 1.428 3.214 4.643 7.143 3.214 4.643 8.929 10.714 3.929-6.785-11.429.714-7.143-21.071-12.857-7.143.714zM232.99 144.914l-8.563.344-.719 5-2.844-2.844-1.093 3.563-9.282 1.437.72 5.719-11.063 1.437-7.875-5.375 8.218-8.562-9.625 8.562 9.282 7.5 13.218-1.78 7.125 1.062 2.5 7.875-2.5 6.78 2.5 1.438-1.437 7.5 1.094 6.782-7.5 13.218.718 15 3.907 6.782 1.78 10-2.5.718 3.938 6.063 4.282 7.5 2.5-1.438-5.72-13.562-1.062-6.781 3.22 3.218 1.062 7.5 8.937 16.063-1.781 3.219 17.125 12.5 4.312-1.782 7.844 7.844 5.344.719 5 7.5 8.594 4.281 3.218-2.844 2.5 6.407-4.656 8.218-6.781 4.282 3.219 3.218-5 2.157 3.562 4.28 3.219 10 6.437 2.126-15.718 16.094 1.28 2.03c31.828-7.074 58.486-27.821 73.5-55.78l-5.155-1.625-10 2.5-1.782-6.782-8.218 1.438-6.063-5.719-9.281 2.5-3.219-2.844-2.844 6.407-1.437-1.063 1.781-7.156-8.937 5-2.125 6.437-3.22-3.937-5.718 1.437-5.719-3.562 3.938-8.563-5.719-2.5-6.437 1.407 7.156-13.563-9.281.719-2.5 5.719-7.5-1.094-3.938-4.625 1.438-10.375 1.406-6.781 8.937-2.125 6.063 2.5 1.437-3.594 9.282 2.5 3.218 8.937 4.282 1.063-3.563-12.844 11.063-10.719-.344-7.843 7.125-5.72-1.406-3.562 5.718-4.656v5l7.844-8.219-3.937-1.437-1.063 2.5-3.937-1.406-.72-5-3.905 2.843 2.5-5.343 7.125-.375.718-2.5 1.063 8.218 7.156-.718-3.219-5-2.5.375-1.437-5.72-8.563-5.374-7.125-6.781-.718 3.937-8.594-6.781-6.063-.375 3.563 5.719-2.844.375 6.063 6.062-3.907 1.781 2.125 6.438-3.937-1.063-1.063-6.093-7.843-3.907-5.375-.718-2.125-7.157 6.406-2.843 2.156-6.094-6.781-8.563-3.563 5-11.812-2.843-12.844-8.22z"/><path d="M291.208 175.272l-11.071-4.286 4.285-1.786v-4.642l-7.142-1.429-.715 4.643-2.143-.714-.714-4.643-2.857-5.715 9.643 1.429 13.214 10-3.928 1.786zM247.637 154.2l5 .358 2.5 2.857-3.929-1.429 1.429 3.929 9.285 1.428-.357-6.428-2.857 1.428-6.786-6.071zM275.851 145.272l-7.143 1.786 2.143 5.714-2.857.357 8.571 2.857zM243.427 127.164c-4.873.276-9.66.896-14.344 1.781l-17.969 5a109.79 109.79 0 0 0-12.593 5.594l15.906-1.781-.719 2.156-16.437 3.219 8.593.719 7.844-3.22v3.22l5.719-.72.344 2.845 8.218-9.625 12.157-2.875zM278.351 258.843l8.571-2.5 10.358 7.5h-6.786l-1.072-2.857zM299.422 266.7l8.215-1.428-3.572-1.786-3.928.357zM312.637 157.415l-2.143 3.214 5 1.071z"/></g><g transform="matrix(.2908 0 0 .2908 152.048 236.7)" opacity=".399" fill="url(#C)" stroke="#000" stroke-width=".91" stroke-opacity="0"><path d="M279.78 152.415l6.428 1.428 3.214 4.643 7.143 3.214 4.643 8.929 10.714 3.929-6.785-11.429.714-7.143-21.071-12.857-7.143.714zM232.99 144.914l-8.563.344-.719 5-2.844-2.844-1.093 3.563-9.282 1.437.72 5.719-11.063 1.437-7.875-5.375 8.218-8.562-9.625 8.562 9.282 7.5 13.218-1.78 7.125 1.062 2.5 7.875-2.5 6.78 2.5 1.438-1.437 7.5 1.094 6.782-7.5 13.218.718 15 3.907 6.782 1.78 10-2.5.718 3.938 6.063 4.282 7.5 2.5-1.438-5.72-13.562-1.062-6.781 3.22 3.218 1.062 7.5 8.937 16.063-1.781 3.219 17.125 12.5 4.312-1.782 7.844 7.844 5.344.719 5 7.5 8.594 4.281 3.218-2.844 2.5 6.407-4.656 8.218-6.781 4.282 3.219 3.218-5 2.157 3.562 4.28 3.219 10 6.437 2.126-15.718 16.094 1.28 2.03c31.828-7.074 58.486-27.821 73.5-55.78l-5.155-1.625-10 2.5-1.782-6.782-8.218 1.438-6.063-5.719-9.281 2.5-3.219-2.844-2.844 6.407-1.437-1.063 1.781-7.156-8.937 5-2.125 6.437-3.22-3.937-5.718 1.437-5.719-3.562 3.938-8.563-5.719-2.5-6.437 1.407 7.156-13.563-9.281.719-2.5 5.719-7.5-1.094-3.938-4.625 1.438-10.375 1.406-6.781 8.937-2.125 6.063 2.5 1.437-3.594 9.282 2.5 3.218 8.937 4.282 1.063-3.563-12.844 11.063-10.719-.344-7.843 7.125-5.72-1.406-3.562 5.718-4.656v5l7.844-8.219-3.937-1.437-1.063 2.5-3.937-1.406-.72-5-3.905 2.843 2.5-5.343 7.125-.375.718-2.5 1.063 8.218 7.156-.718-3.219-5-2.5.375-1.437-5.72-8.563-5.374-7.125-6.781-.718 3.937-8.594-6.781-6.063-.375 3.563 5.719-2.844.375 6.063 6.062-3.907 1.781 2.125 6.438-3.937-1.063-1.063-6.093-7.843-3.907-5.375-.718-2.125-7.157 6.406-2.843 2.156-6.094-6.781-8.563-3.563 5-11.812-2.843-12.844-8.22z"/><path d="M291.208 175.272l-11.071-4.286 4.285-1.786v-4.642l-7.142-1.429-.715 4.643-2.143-.714-.714-4.643-2.857-5.715 9.643 1.429 13.214 10-3.928 1.786zM247.637 154.2l5 .358 2.5 2.857-3.929-1.429 1.429 3.929 9.285 1.428-.357-6.428-2.857 1.428-6.786-6.071zM275.851 145.272l-7.143 1.786 2.143 5.714-2.857.357 8.571 2.857zM243.427 127.164c-4.873.276-9.66.896-14.344 1.781l-17.969 5a109.79 109.79 0 0 0-12.593 5.594l15.906-1.781-.719 2.156-16.437 3.219 8.593.719 7.844-3.22v3.22l5.719-.72.344 2.845 8.218-9.625 12.157-2.875zM278.351 258.843l8.571-2.5 10.358 7.5h-6.786l-1.072-2.857zM299.422 266.7l8.215-1.428-3.572-1.786-3.928.357zM312.637 157.415l-2.143 3.214 5 1.071z"/></g><g transform="matrix(.2908 0 0 .2908 151.414 236.762)" opacity=".748" fill="url(#B)" stroke="#000" stroke-width=".91" stroke-opacity="0"><path d="M279.78 152.415l6.428 1.428 3.214 4.643 7.143 3.214 4.643 8.929 10.714 3.929-6.785-11.429.714-7.143-21.071-12.857-7.143.714zM291.208 175.272l-11.071-4.286 4.285-1.786v-4.642l-7.142-1.429-.715 4.643-2.143-.714-.714-4.643-2.857-5.715 9.643 1.429 13.214 10-3.928 1.786zM247.637 154.2l5 .358 2.5 2.857-3.929-1.429 1.429 3.929 9.285 1.428-.357-6.428-2.857 1.428-6.786-6.071zM275.851 145.272l-7.143 1.786 2.143 5.714-2.857.357 8.571 2.857zM243.427 127.164c-4.873.276-9.66.896-14.344 1.781l-17.969 5a109.79 109.79 0 0 0-12.593 5.594l15.906-1.781-.719 2.156-16.437 3.219 8.593.719 7.844-3.22v3.22l5.719-.72.344 2.845 8.218-9.625 12.157-2.875zM278.351 258.843l8.571-2.5 10.358 7.5h-6.786l-1.072-2.857zM299.422 266.7l8.215-1.428-3.572-1.786-3.928.357zM312.637 157.415l-2.143 3.214 5 1.071z"/><path d="M232.99 144.914l-8.563.344-.719 5-2.844-2.844-1.093 3.563-9.282 1.437.72 5.719-11.063 1.437-7.875-5.375 8.218-8.562-9.625 8.562 9.282 7.5 13.218-1.78 7.125 1.062 2.5 7.875-2.5 6.78 2.5 1.438-1.437 7.5 1.094 6.782-7.5 13.218.718 15 3.907 6.782 1.78 10-2.5.718 3.938 6.063 4.282 7.5 2.5-1.438-5.72-13.562-1.062-6.781 3.22 3.218 1.062 7.5 8.937 16.063-1.781 3.219 17.125 12.5 4.312-1.782 7.844 7.844 5.344.719 5 7.5 8.594 4.281 3.218-2.844 2.5 6.407-4.656 8.218-6.781 4.282 3.219 3.218-5 2.157 3.562 4.28 3.219 10 6.437 2.126-15.718 16.094 1.28 2.03c31.828-7.074 58.486-27.821 73.5-55.78l-5.155-1.625-10 2.5-1.782-6.782-8.218 1.438-6.063-5.719-9.281 2.5-3.219-2.844-2.844 6.407-1.437-1.063 1.781-7.156-8.937 5-2.125 6.437-3.22-3.937-5.718 1.437-5.719-3.562 3.938-8.563-5.719-2.5-6.437 1.407 7.156-13.563-9.281.719-2.5 5.719-7.5-1.094-3.938-4.625 1.438-10.375 1.406-6.781 8.937-2.125 6.063 2.5 1.437-3.594 9.282 2.5 3.218 8.937 4.282 1.063-3.563-12.844 11.063-10.719-.344-7.843 7.125-5.72-1.406-3.562 5.718-4.656v5l7.844-8.219-3.937-1.437-1.063 2.5-3.937-1.406-.72-5-3.905 2.843 2.5-5.343 7.125-.375.718-2.5 1.063 8.218 7.156-.718-3.219-5-2.5.375-1.437-5.72-8.563-5.374-7.125-6.781-.718 3.937-8.594-6.781-6.063-.375 3.563 5.719-2.844.375 6.063 6.062-3.907 1.781 2.125 6.438-3.937-1.063-1.063-6.093-7.843-3.907-5.375-.718-2.125-7.157 6.406-2.843 2.156-6.094-6.781-8.563-3.563 5-11.812-2.843-12.844-8.22z"/></g><path d="M221.244 274.164a32.144 32.144 0 0 0-2.196.338 32.144 32.144 0 0 1 2.196-.338zm-2.896.495a32.144 32.144 0 0 0-2.536.655 32.144 32.144 0 0 1 2.536-.655zm-5.718 1.82a32.144 32.144 0 0 0-1.458.709l2.558-.286a50.17 50.17 0 0 0-1.1-.423zm2.18.867l-.012.04-4.78.936 2.5.209 2.28-.936v.936l1.663-.21.1.828.614-.72c-.761-.375-1.55-.736-2.364-1.083zm3.348 1.584l-.243.01-.209 1.454-.827-.827-.318 1.036-2.699.418.21 1.663-3.218.418-2.29-1.563 2.39-2.49-2.799 2.49 2.699 2.18 3.844-.517 2.072.309.727 2.29-.727 1.972.727.418-.22 1.144a17.866 17.866 0 0 1 8.86 15.41 17.866 17.866 0 0 1-2.587 9.218l2.253 1.644 1.254-.518 2.281 2.281 1.554.209 1.454 2.181.175.088c.111-.253.222-.506.327-.762l-.084-.053.619-1.345c.142-.396.278-.795.406-1.197l-1.543-.675-1.872.41 2.08-3.945-2.698.21-.727 1.662-2.181-.318-1.145-1.345.418-3.017.409-1.971 2.599-.618 1.763.727.418-1.046 2.699.727.936 2.6.266.065c.1-.853.165-1.712.197-2.573l-.254-.919.278-.27c.006-5.466-1.384-11-4.563-15.966l-.495-.066-.352-1.184c-2.753-3.843-6.642-7.298-11.864-10.049zm16.822 32.636l-1.384.404 1.275.246c.04-.216.073-.433.11-.65zm17.002 12.205a32.144 32.144 0 0 1-.938 1.312 32.144 32.144 0 0 0 .938-1.312zm-1.906 2.585a32.144 32.144 0 0 1-1.062 1.21 32.144 32.144 0 0 0 1.062-1.21zm-2.155 2.382a32.144 32.144 0 0 1-1.182 1.102 32.144 32.144 0 0 0 1.182-1.102z" fill="url(#D)" stroke-width=".397" stroke-linecap="round" stroke-linejoin="bevel"/><path d="M211.008 277.206a32.144 32.144 0 0 0-14.117 13.688 32.144 32.144 0 0 1 14.117-13.688zm-2.83 9.657a17.866 17.866 0 0 0-11.288 4.032 32.144 32.144 0 0 0-3.824 15.128 32.144 32.144 0 0 0 1.857 10.653 17.866 17.866 0 0 0 13.256 5.919 17.866 17.866 0 0 0 15.3-8.684l-2.656-1.939.518-.936-2.6-4.67-.308-2.182-.936-.936.309 1.972 1.663 3.944-.727.418-1.245-2.18-1.145-1.764.727-.209-.518-2.908-1.136-1.972-.21-4.362 2.182-3.843-.318-1.972.191-.999a17.866 17.866 0 0 0-9.091-2.51zm-13.255 29.813a32.144 32.144 0 0 0 1.206 2.951 32.144 32.144 0 0 1-1.206-2.951zm1.234 3.01a32.144 32.144 0 0 0 1.458 2.75 32.144 32.144 0 0 1-1.458-2.75zm1.542 2.886a32.144 32.144 0 0 0 1.672 2.509 32.144 32.144 0 0 1-1.672-2.51zm1.829 2.715a32.144 32.144 0 0 0 1.85 2.25 32.144 32.144 0 0 1-1.85-2.25zm2.098 2.518a32.144 32.144 0 0 0 1.988 1.978 32.144 32.144 0 0 1-1.988-1.978zm46.173 1.07a32.144 32.144 0 0 1-.445.428c.15-.14.298-.284.445-.428zm-43.824 1.226a32.144 32.144 0 0 0 2.08 1.691 32.144 32.144 0 0 1-2.08-1.691zm2.58 2.049a32.144 32.144 0 0 0 2.126 1.402 32.144 32.144 0 0 1-2.127-1.402zm2.775 1.775a32.144 32.144 0 0 0 2.131 1.117 32.144 32.144 0 0 1-2.131-1.117zm2.953 1.485a32.144 32.144 0 0 0 2.085.84 32.144 32.144 0 0 1-2.085-.84zm23.341.938c-.06.02-.12.044-.18.064l.176-.059c.003-.002.003-.003.004-.005zm-20.24.24a32.144 32.144 0 0 0 1.996.58 32.144 32.144 0 0 1-1.996-.58zm3.2.85a32.144 32.144 0 0 0 1.88.348 32.144 32.144 0 0 1-1.88-.347zm3.277.518a32.144 32.144 0 0 0 1.938.161 32.144 32.144 0 0 1-1.938-.161z" opacity=".5" fill="url(#E)" stroke-width=".265" stroke-linecap="round" stroke-linejoin="bevel" stroke-opacity="0"/><path d="M222.142 274.04a32.144 32.144 0 0 0-9.512 2.439c.372.137.738.28 1.1.423l1.277-.143-.196.587c.815.347 1.603.708 2.364 1.084l1.776-2.08 3.535-.836.583-1.12c-.308-.119-.612-.239-.927-.354zm-1.737 4.8l-2.247.09c5.222 2.75 9.111 6.205 11.864 10.048l-.266-.897 1.863-.826.627-1.772-1.972-2.49-1.036 1.453-3.435-.826-3.735-2.39zm11.897.245l-1.51.378.623 1.662-.831.104 2.493.83-.171-2.566c-.198-.137-.4-.273-.604-.408zm1.485 1.04l.224.896 1.31.29a36.36 36.36 0 0 0-1.534-1.185zm-7.877.273l-1.246 1.142 1.454.104.727.83-1.142-.414.415 1.142 2.7.415-.103-1.87-.831.416zm5.505 1.87l.83 1.66.209 1.351.623.208.208-1.35 2.076.415v1.35l-1.246.52 3.22 1.245-.416-1.558 1.143-.518-3.843-2.909zm5.087.066l.314.452.346.156a33.57 33.57 0 0 0-.66-.609zm-2.284 5.33l1.035 1.662-.826.11 1.763 1.763-1.136.517.617 1.873-1.144-.31-.31-1.771-2.28-1.136-1.068-.143c3.18 4.966 4.569 10.5 4.563 15.967l2.939-2.848-.1-2.28 2.071-1.664-.408-1.036 1.663-1.354v1.454l2.28-2.39-1.144-.418-.31.727-1.145-.408-.208-1.455-1.136.827.727-1.554 2.072-.109.208-.727.31 2.39 1.763-.176a30.099 30.099 0 0 0-.425-1.186l-.194-.3-.727.108-.418-1.663-2.49-1.563-2.071-1.972-.21 1.145-2.499-1.972zm1.19 19.72c-.032.861-.098 1.72-.197 2.573l.979.243zm.68 3.859l-1.108.323c-.036.217-.07.435-.11.65l1.946.377.311.83h1.973zm4.986 2.077l-1.143.104-.208.83 2.389-.415zm-7.285 3.171c-.128.402-.264.8-.406 1.196l.526-1.144zm6.454.979l-2.6 1.454-.617 1.872-.936-1.145-1.663.418-1.579-.983c-.105.256-.216.508-.327.761l2.324 1.158.936-.827.727 1.863-1.354 2.39-1.972 1.245.936.936-1.454.627 1.036 1.245.936 2.908 1.872.618-4.571 4.68.372.59a31.99 31.99 0 0 0 3.301-.922c3.849-4.867 7.243-11.202 9.233-18.037l-.238-.224-2.7.727-.935-.827-.827 1.863-.419-.31zm12.37 5.296a32.144 32.144 0 0 1-1.428 2.12 32.144 32.144 0 0 0 1.427-2.12zm-1.789 2.624a32.144 32.144 0 0 1-1.717 2.068 32.144 32.144 0 0 0 1.717-2.068zm-2.038 2.434a32.144 32.144 0 0 1-2.004 1.975 32.144 32.144 0 0 0 2.004-1.975zm-2.271 2.224a32.144 32.144 0 0 1-2.276 1.833 32.144 32.144 0 0 0 2.276-1.833z" opacity=".807" fill="url(#F)" stroke-width=".397" stroke-linecap="round" stroke-linejoin="bevel"/><path d="M223.32 273.98a32.144 32.144 0 0 0-1.141.06c.315.115.619.235.927.353zm12.182 4.34l-2.077.208.4 1.598a36.36 36.36 0 0 1 1.533 1.186l.56.124.621.897c.224.202.445.404.66.61l1.73.778 1.35 2.596 3.116 1.143-1.973-3.324.208-2.076zm-2.596.623l-.567.142c.203.135.406.27.604.408zm10.697 3.532l-.623.934 1.454.312zm1.023 11.514c.15.393.291.788.425 1.186l.317-.032zm.254 24.332c-1.99 6.835-5.384 13.17-9.233 18.037.386-.13.768-.27 1.147-.414a32.144 32.144 0 0 0 .834-.331c.543-.225 1.08-.464 1.607-.717a32.144 32.144 0 0 0 1.762-.913c.26-.145.518-.293.774-.445a32.144 32.144 0 0 0 2.245-1.465c.058-.042.117-.082.175-.123a32.144 32.144 0 0 0 9.417-10.926l-1.387-.437-2.909.727-.517-1.972-2.39.418z" opacity=".645" fill="url(#G)" stroke-width=".397" stroke-linecap="round" stroke-linejoin="bevel"/><circle r="32.144" cy="306.023" cx="225.211" opacity=".568" fill="none" stroke="#4b2525" stroke-width=".265" stroke-linecap="round" stroke-linejoin="bevel" stroke-opacity=".403"/></g><use height="100%" width="100%" xlink:href="#H"/><use height="100%" width="100%" xlink:href="#v"/><use height="100%" width="100%" xlink:href="#w"/><use height="100%" width="100%" xlink:href="#I"/><use height="100%" width="100%" xlink:href="#J"/></g></svg>