<svg xmlns="http://www.w3.org/2000/svg" xmlns:xlink="http://www.w3.org/1999/xlink" width="233.559" height="269.399" viewBox="0 0 61.796 71.279"><defs><pattern xlink:href="#a" id="E" patternTransform="scale(.07) rotate(45 -2144.627 2459.866)"/><pattern xlink:href="#b" id="a" patternTransform="scale(.07) rotate(45 403.205 730.626)"/><pattern patternTransform="scale(.26458) rotate(45 403.205 730.626)" id="b" xlink:href="#c"/><pattern xlink:href="#d" id="F" patternTransform="rotate(45.002 169.287 260.131) scale(.05797)"/><pattern xlink:href="#e" id="d" patternTransform="scale(.07) rotate(45 -3066.142 5621.099)"/><pattern xlink:href="#f" id="e" patternTransform="scale(.26458) rotate(45 1169.103 5464.055)"/><pattern patternUnits="userSpaceOnUse" width="12.974" height="12.974" patternTransform="matrix(.26458 0 0 .26458 430.922 24.646)" id="f"><rect ry="0" y=".501" x=".501" height="11.972" width="11.972" fill-opacity=".004" stroke="#000" stroke-width="1.002" stroke-linecap="round" stroke-linejoin="bevel" stroke-opacity="0"/><rect y="1.892" x="4.812" height="5.724" width="5.724" rx="2.862" ry="2.862" transform="rotate(15)" fill-opacity=".498" stroke="#000" stroke-width=".479" stroke-linecap="round" stroke-linejoin="bevel" stroke-opacity="0"/></pattern><pattern xlink:href="#g" id="G" patternTransform="scale(.26458) rotate(-15 1392.51 -4287.481)"/><pattern patternUnits="userSpaceOnUse" width="12.974" height="12.974" patternTransform="matrix(.26458 0 0 .26458 331.244 -52.243)" id="g"><rect height="12.974" width="12.974" ry="3.048" fill="#0ff" fill-opacity=".498" stroke-width="3.78"/></pattern><pattern xlink:href="#h" id="H" patternTransform="rotate(38.857 181.044 330.147) scale(.05797)"/><pattern xlink:href="#i" id="h" patternTransform="scale(.07) rotate(38.855 -3824.57 6628.555)"/><pattern xlink:href="#j" id="i" patternTransform="scale(.26458) rotate(38.855 1050.92 6709.317)"/><pattern patternUnits="userSpaceOnUse" width="12.974" height="12.974" patternTransform="matrix(.26458 0 0 .26458 404.463 24.646)" id="j"><rect width="11.972" height="11.972" x=".501" y=".501" ry="0" fill-opacity=".004" stroke="#000" stroke-width="1.002" stroke-linecap="round" stroke-linejoin="bevel" stroke-opacity="0"/><rect transform="rotate(15)" ry="4.737" rx="4.737" width="9.473" height="9.473" x="3.081" y="-.338" fill-opacity=".498" stroke="#000" stroke-width=".793" stroke-linecap="round" stroke-linejoin="bevel" stroke-opacity="0"/></pattern><pattern xlink:href="#k" id="I" patternTransform="rotate(45.002 176.517 291.074) scale(.05797)"/><pattern xlink:href="#l" id="k" patternTransform="scale(.07) rotate(45 -2941.446 6154.888)"/><pattern xlink:href="#m" id="l" patternTransform="scale(.26458) rotate(45 1293.8 5997.844)"/><pattern patternUnits="userSpaceOnUse" width="12.974" height="12.974" patternTransform="matrix(.26458 0 0 .26458 381.242 24.988)" id="m"><rect ry="5.986" rx="5.986" width="11.972" height="11.972" x=".501" y=".501" fill-opacity=".498" stroke="#000" stroke-width="1.002" stroke-linecap="round" stroke-linejoin="bevel" stroke-opacity="0"/></pattern><pattern patternUnits="userSpaceOnUse" width="12.974" height="12.974" patternTransform="matrix(.26458 0 0 .26458 404.463 -2.469)" id="J"><rect ry="0" y=".501" x=".501" height="11.972" width="11.972" fill="#ff0" fill-opacity=".043" stroke="#000" stroke-width="1.002" stroke-linecap="round" stroke-linejoin="bevel" stroke-opacity="0"/><rect y="-.338" x="3.081" height="9.473" width="9.473" rx="4.737" ry="4.737" transform="rotate(15)" fill="#ff0" fill-opacity=".498" stroke="#000" stroke-width=".793" stroke-linecap="round" stroke-linejoin="bevel" stroke-opacity="0"/></pattern><pattern xlink:href="#n" id="K" patternTransform="scale(.26458) rotate(15 -1157.664 3729.775)"/><pattern patternUnits="userSpaceOnUse" width="12.974" height="12.974" patternTransform="matrix(.26458 0 0 .26458 331.244 -26.977)" id="n"><rect ry="3.048" width="12.974" height="12.974" fill="#f06" fill-opacity=".498" stroke-width="3.78"/></pattern><pattern xlink:href="#o" id="L" patternTransform="scale(.07936) rotate(45 2183.556 3464.656)"/><pattern xlink:href="#p" id="o" patternTransform="rotate(44.999 -209.795 411.404) scale(.09584)"/><pattern xlink:href="#q" id="p" patternTransform="scale(.36224) rotate(45 904.598 4177.913)"/><pattern patternUnits="userSpaceOnUse" width="12.974" height="12.974" patternTransform="matrix(.26458 0 0 .26458 453.676 24.438)" id="q"><rect ry="0" y=".501" x=".501" height="11.972" width="11.972" fill="#999" fill-opacity=".004" stroke="#000" stroke-width="1.002" stroke-linecap="round" stroke-linejoin="bevel" stroke-opacity="0"/><rect y="2.758" x="6.424" height="3.538" width="3.538" rx="1.769" ry="1.769" transform="rotate(15)" fill-opacity=".498" stroke="#000" stroke-width=".296" stroke-linecap="round" stroke-linejoin="bevel" stroke-opacity="0"/></pattern><pattern xlink:href="#r" id="M" patternTransform="rotate(45.002 165.107 259.067) scale(.05797)"/><pattern xlink:href="#s" id="r" patternTransform="scale(.07) rotate(45 -3138.251 5602.743)"/><pattern xlink:href="#q" id="s" patternTransform="scale(.07) rotate(45 1096.994 5445.7)"/><pattern xlink:href="#t" id="N" patternTransform="rotate(59.999 162.256 198.877) scale(.06634)"/><pattern xlink:href="#u" id="t" patternTransform="scale(.08012) rotate(60 -1424.336 4271.914)"/><pattern xlink:href="#f" id="u" patternTransform="scale(.3028) rotate(60 1370.101 3798.088)"/><pattern xlink:href="#v" id="O" patternTransform="scale(.04576) rotate(45 3876.312 6105.362)"/><pattern xlink:href="#w" id="v" patternTransform="scale(.05527) rotate(45 -3706.21 7541.183)"/><pattern xlink:href="#j" id="w" patternTransform="scale(.05527) rotate(45 1658.393 7342.263)"/><pattern xlink:href="#x" id="c" patternTransform="scale(.26458) rotate(45 -75.563 3174.531)"/><pattern patternUnits="userSpaceOnUse" width="12.974" height="12.974" patternTransform="matrix(.26458 0 0 .26458 357.166 24.808)" id="x"><rect ry="5.079" rx="5.079" width="11.972" height="11.972" x=".501" y=".501" fill-opacity=".498" stroke="#000" stroke-width="1.002" stroke-linecap="round" stroke-linejoin="bevel" stroke-opacity="0"/></pattern><pattern xlink:href="#y" id="D" patternTransform="matrix(-.22393 0 0 .22393 68.66 155.352)"/><pattern patternTransform="translate(-304.343 169.772) scale(.22393)" id="y" xlink:href="#z"/><pattern id="z" patternTransform="matrix(.26458 0 0 .26458 453.676 -2.833)" height="12.974" width="12.974" patternUnits="userSpaceOnUse"><rect ry="0" y=".501" x=".501" height="11.972" width="11.972" fill="#999" fill-opacity=".004" stroke="#000" stroke-width="1.002" stroke-linecap="round" stroke-linejoin="bevel" stroke-opacity="0"/><rect y="2.758" x="6.424" height="3.538" width="3.538" rx="1.769" ry="1.769" transform="rotate(15)" fill="#ff0" fill-opacity=".498" stroke="#000" stroke-width=".296" stroke-linecap="round" stroke-linejoin="bevel" stroke-opacity="0"/></pattern><pattern xlink:href="#n" id="C" patternTransform="rotate(14.998 -550.123 357.572) scale(.11856)"/><pattern xlink:href="#A" id="B" patternTransform="scale(.07) rotate(-15 9057.313 -2869.62)"/><pattern patternUnits="userSpaceOnUse" width="12.974" height="12.974" patternTransform="matrix(.26458 0 0 .26458 430.922 -52.898)" id="A"><rect width="11.972" height="11.972" x=".501" y=".501" ry="0" fill="#0ff" fill-opacity=".004" stroke="#000" stroke-width="1.002" stroke-linecap="round" stroke-linejoin="bevel" stroke-opacity="0"/><rect transform="rotate(15)" ry="2.862" rx="2.862" width="5.724" height="5.724" x="4.812" y="1.892" fill="#0ff" fill-opacity=".498" stroke="#000" stroke-width=".479" stroke-linecap="round" stroke-linejoin="bevel" stroke-opacity="0"/></pattern></defs><g transform="translate(-33.358 -161.575)"><path d="M64.256 161.69L33.49 179.452v35.525l30.766 17.762 30.766-17.762v-35.525zm.383 8.178a26.999 26.999 0 0 1 27 26.999 26.999 26.999 0 0 1-27 26.999 26.999 26.999 0 0 1-26.998-27 26.999 26.999 0 0 1 26.998-26.998z" opacity=".738" fill="url(#B)"/><path d="M64.256 161.69L33.49 179.452v35.525l30.766 17.762 30.766-17.762v-35.525zm.321 8.318a26.999 26.999 0 0 1 27 26.999 26.999 26.999 0 0 1-27 26.999 26.999 26.999 0 0 1-26.998-27 26.999 26.999 0 0 1 26.998-26.998z" opacity=".565" fill="url(#C)"/><path d="M64.256 161.69L33.49 179.452v35.525l30.766 17.762 30.766-17.762v-35.525zm.383 8.178a26.999 26.999 0 0 1 27 26.999 26.999 26.999 0 0 1-27 26.999 26.999 26.999 0 0 1-26.998-27 26.999 26.999 0 0 1 26.998-26.998z" opacity=".738" fill="url(#D)"/><path id="P" d="M64.256 161.69L33.49 179.452v35.525l30.766 17.762 30.766-17.762v-35.525zm.383 8.178a26.999 26.999 0 0 1 27 26.999 26.999 26.999 0 0 1-27 26.999 26.999 26.999 0 0 1-26.998-27 26.999 26.999 0 0 1 26.998-26.998z" opacity=".738" fill="url(#E)" fill-opacity="1" stroke="#000" stroke-width=".265" stroke-linecap="round" stroke-linejoin="bevel" stroke-miterlimit="4" stroke-dasharray="none" stroke-dashoffset="0" stroke-opacity="0"/><g id="Q" transform="translate(-176.982 208.307)"><path d="M232.16-35.328l-2.259.253a26.617 26.617 0 0 0-11.69 11.335 14.794 14.794 0 0 1 9.347-3.339A14.794 14.794 0 0 1 235.086-25l.188-.98-.602-.346.602-1.633-.602-1.896-1.715-.256-3.184.429-2.234-1.806 2.317-2.061-1.979 2.061 1.896 1.294 2.664-.346-.173-1.377 2.235-.346.263-.858.685.685.173-1.204.203-.008c-.267-.14-.54-.279-.815-.415l-.509.596-.082-.685-1.378.173v-.775l-1.888.775-2.07-.173 3.958-.775.012-.035c-.293-.125-.59-.247-.89-.366zm13.483 9.993l.294.988.414.056c-.225-.352-.46-.7-.708-1.044zm4.487 14.26l-.235.228.215.775c.013-.333.02-.668.02-1.003zm-3.418.31l-.346.866-1.46-.602-2.152.512-.339 1.632-.346 2.5.948 1.112 1.806.264.602-1.377 2.235-.173-1.723 3.266 1.55-.339 1.286.562c.37-1.155.67-2.338.893-3.541l-1.061-.206 1.155-.337c.073-.44.135-.884.187-1.328l-.225-.056-.775-2.152zm-6.484 6.083a14.794 14.794 0 0 1-12.67 7.191 14.794 14.794 0 0 1-10.976-4.901 26.617 26.617 0 0 0 15.969 16.156c6.53-1.2 12.14-6.601 15.171-13.526l-.152-.076-1.204-1.806-1.287-.173-1.889-1.889-1.038.429zm8.235 3.052l-.547 1.19.074.046c.167-.407.324-.82.473-1.236zM232.65 13.803a26.617 26.617 0 0 0 1.8.562 26.617 26.617 0 0 1-1.8-.562zm2.581.789a26.617 26.617 0 0 0 1.664.342 26.617 26.617 0 0 1-1.664-.342zm2.642.523a26.617 26.617 0 0 0 1.515.156 26.617 26.617 0 0 1-1.515-.156zm2.787.261a26.617 26.617 0 0 0 1.003.028 26.617 26.617 0 0 1-1.003-.028z" opacity=".5" fill="url(#F)" stroke-width=".219" stroke-linecap="round" stroke-linejoin="bevel" stroke-opacity="0"/><path d="M1150.018 230.596a121.49 121.49 0 0 0-7.22.256l-3.077 5.923-13.362 3.16-9.033 10.579-.377-3.125-6.287.789v-3.537l-8.619 3.537-9.445-.79 18.064-3.538.791-2.37-15.113 1.692a121.49 121.49 0 0 0-67.813 108.914 121.49 121.49 0 0 0 121.49 121.49 121.49 121.49 0 0 0 70.04-22.404c-12.814 8.971-27.43 15.545-43.21 19.053l-1.408-2.233 17.276-17.687-7.074-2.336-3.54-10.99-3.914-4.708 5.495-2.369-3.538-3.537 7.454-4.705 5.117-9.033-2.748-7.041-3.537 3.125-9.446-4.705-5.494-8.244-5.873-.79-8.62-8.62-4.741 1.957-18.822-13.739 1.959-3.537-9.825-17.654-1.168-8.242-3.537-3.537 1.168 7.453 6.285 14.906-2.748 1.58-4.705-8.244-4.328-6.662 2.748-.791-1.957-10.99-4.293-7.454-.79-16.486 8.243-14.527-1.203-7.453 1.58-8.244-2.748-1.58 2.748-7.454-2.748-8.654-7.83-1.168-14.53 1.957-10.198-8.242 10.578-9.41-9.033 9.41 8.654 5.906 12.16-1.578-.791-6.285 10.201-1.58 1.201-3.916 3.127 3.125.79-5.494 9.41-.38 6.285 9.034 14.117 9.033 12.982 3.125 3.916-5.496 7.453 9.412-2.37 6.697-7.042 3.125 2.336 7.866 5.908.79 8.621 4.294 1.168 6.697 4.327 1.168-2.334-7.076 4.293-1.957-6.664-6.664 3.125-.413-3.915-6.285 6.663.412 9.445 7.454.791-4.329 7.83 7.454 9.41 5.908 1.58 6.285 2.748-.412 3.537 5.496-7.865.789-1.168-9.033-.789 2.748-7.83.412-2.748 5.873 4.293-3.125.79 5.496 4.327 1.545 1.168-2.748 4.328 1.58-8.62 9.033v-5.496l-6.286 5.117 1.545 3.916-7.83 6.285.377 8.622-12.158 11.78 3.916 14.116-4.705-1.168-3.54-9.822-10.199-2.748-1.58 3.95-6.664-2.747-9.822 2.336-1.547 7.451-1.578 11.404 4.326 5.082 8.244 1.203 2.748-6.285 10.2-.79-7.866 14.906 7.076-1.545 6.286 2.748-4.329 9.41 6.286 3.916 6.285-1.58 3.539 4.328 2.334-7.076 9.824-5.496-1.959 7.865 1.58 1.168 3.127-7.041 3.537 3.127 10.201-2.748 6.662 6.285 9.034-1.58 1.957 7.453 10.992-2.748 5.396 1.701a121.49 121.49 0 0 0 14.149-56.746 121.49 121.49 0 0 0-121.49-121.49zm38.757 16.789l23.159 14.13-.786 7.85 7.46 12.56-11.776-4.318-5.104-9.812-7.85-3.533-3.532-5.102-7.067-1.57-2.353-9.422zm-9.812 2.353l.785 11.778-9.422-3.141 3.14-.393-2.355-6.28zm-26.3 5.496l7.458 6.674 3.14-1.57.393 7.064-10.207-1.57-1.568-4.316 4.316 1.568-2.748-3.139-5.494-.392zm20.804 7.067l10.597 1.568 14.524 10.992-4.316 1.961 1.568 5.889-12.168-4.711 4.71-1.96v-5.104l-7.849-1.57-.785 5.103-2.355-.785-.786-5.104zm45.926.783l3.14 4.71-5.496-1.177zm-28.262 108.73l11.383 8.243h-7.457l-1.178-3.139-12.17-2.355zm18.842 7.85l3.923 1.963-9.027 1.57.785-3.14zm25.418 58.791c-.557.544-1.115 1.086-1.682 1.62a121.49 121.49 0 0 0 1.682-1.62zm-7.84 7.03a122.177 122.177 0 0 1-5.334 4.144 121.49 121.49 0 0 0 5.334-4.145z" transform="matrix(.2191 0 0 .2191 -10.297 -88.352)" stroke-linecap="round" stroke-linejoin="bevel" stroke-opacity="0" opacity=".5" fill="url(#G)"/><path d="M239.89-37.411l-.484.934-2.928.693-1.47 1.721c.276.136.548.274.815.415l1.859-.075 1.377 1.98 3.093 1.978 2.844.685.858-1.204 1.633 2.062-.52 1.467-1.542.685.218.735c.247.344.483.692.708 1.044l.88.118 1.89.94.255 1.467.948.256-.512-1.55.941-.429-1.46-1.46.685-.09-.858-1.377 1.46.09 2.07 1.633.172-.948 1.716 1.633 2.062 1.294.346 1.377.602-.09.175.272a24.389 24.389 0 0 0-3.61-6.375l-.003-.001-.005-.01a26.038 26.038 0 0 0-2.528-2.776l-.306-.138-.278-.402a28.52 28.52 0 0 0-.95-.816l-1.094-.244-.188-.754c-.238-.174-.48-.347-.728-.518l.142 2.132-2.064-.688.688-.086-.516-1.376 1.26-.315c-2.192-1.46-4.73-2.768-7.652-3.89zm-6.678 1.965l-1.052.118c.302.12.598.242.89.366zm9.029 3.013l1.634 1.463.688-.344.086 1.547-2.236-.344-.344-.945.946.343-.602-.687-1.204-.086zm4.558 1.549l2.322.343 3.182 2.408-.946.43.344 1.29-2.666-1.032 1.032-.43v-1.118l-1.72-.344-.172 1.118-.516-.172-.172-1.118zm9.545 8.855l-.173.602-1.716.09-.602 1.287.94-.685.174 1.204.948.339.256-.602.948.346-1.889 1.98v-1.205l-1.377 1.121.339.858-1.716 1.377.083 1.889-2.43 2.353c0 .335-.006.67-.019 1.003l.643 2.318-.806-.2c-.052.444-.114.887-.187 1.328l.91-.265 2.493 1.806h-1.634l-.258-.688-1.605-.31a28.787 28.787 0 0 1-.893 3.541l.091.04-.4.872c-.15.416-.307.829-.474 1.236l1.303.812 1.377-.346.775.948.512-1.55 2.152-1.205-.43 1.724.347.256.685-1.543.775.685 2.235-.602.2.188c1.818-6.246 2.22-12.996.145-19.17l-1.466.147zm-1.547 16.858l.86.43-1.978.344.172-.688zM247.722.238c-3.035 6.931-8.65 12.336-15.189 13.529a26.617 26.617 0 0 0 9.129 1.637 26.617 26.617 0 0 0 6.111-.79c-.078.019-.155.039-.233.056l-.309-.49 3.785-3.874-1.55-.512-.775-2.408-.858-1.031 1.204-.52-.775-.774 1.633-1.031 1.121-1.98-.602-1.542-.775.685zm.051 14.377a26.102 26.102 0 0 0 1.497-.395 26.617 26.617 0 0 1-1.497.395zm1.497-.395a26.617 26.617 0 0 0 .865-.27c-.286.096-.575.184-.865.27zm.865-.27c.05-.016.1-.035.15-.052l.002-.004a26.617 26.617 0 0 1-.152.056zm.852-.3l-.14.05.14-.05z" opacity=".309" fill="url(#H)" stroke-width=".219" stroke-linecap="round" stroke-linejoin="bevel" stroke-opacity="0"/><path d="M241.662-37.83a26.617 26.617 0 0 0-1.582.055l-.19.364c2.923 1.121 5.462 2.43 7.654 3.89l.46-.116.03.448c.246.171.489.344.727.519l-.328-1.31 1.72-.172 5.074 3.096-.172 1.72 1.634 2.751-2.576-.945a24.39 24.39 0 0 1 3.61 6.375l.6.932-.257.026c2.075 6.174 1.673 12.924-.145 19.17l1.26 1.189 1.979-.346.429 1.633 2.408-.602 1.182.372a26.617 26.617 0 0 0 3.1-12.432 26.617 26.617 0 0 0-26.617-26.618zm8.381 6.157c.327.268.643.54.95.817l-.496-.717zm6.818.96l.688 1.032-1.204-.258zm-5.284.396a26.04 26.04 0 0 1 2.527 2.777l-1.113-2.14zm8.789 38.026c-.122.12-.244.238-.368.355a26.617 26.617 0 0 0 .368-.355zm-1.718 1.54a26.617 26.617 0 0 1-1.168.909c.398-.292.787-.595 1.168-.908zm-2.042 1.52a26.617 26.617 0 0 1-1.85 1.14c.633-.356 1.25-.736 1.85-1.14zm-2.73 1.612a26.617 26.617 0 0 1-1.032.5c.348-.16.692-.326 1.032-.5zm-1.032.5c-.349.16-.702.312-1.059.458a26.617 26.617 0 0 0 1.06-.457zm-1.059.458a26.617 26.617 0 0 1-1.498.555l-.007.008c.51-.172 1.01-.361 1.505-.563z" opacity=".279" fill="url(#I)" stroke-width=".219" stroke-linecap="round" stroke-linejoin="bevel" stroke-opacity="0"/><g transform="matrix(.2408 0 0 .2408 181.58 -68.618)" opacity=".542" fill="url(#J)" stroke="#000" stroke-width=".91" stroke-opacity="0"><path d="M279.78 152.415l6.428 1.428 3.214 4.643 7.143 3.214 4.643 8.929 10.714 3.929-6.785-11.429.714-7.143-21.071-12.857-7.143.714zM291.208 175.272l-11.071-4.286 4.285-1.786v-4.642l-7.142-1.429-.715 4.643-2.143-.714-.714-4.643-2.857-5.715 9.643 1.429 13.214 10-3.928 1.786zM247.637 154.2l5 .358 2.5 2.857-3.929-1.429 1.429 3.929 9.285 1.428-.357-6.428-2.857 1.428-6.786-6.071zM275.851 145.272l-7.143 1.786 2.143 5.714-2.857.357 8.571 2.857zM243.427 127.164c-4.873.276-9.66.896-14.344 1.781l-17.969 5a109.79 109.79 0 0 0-12.593 5.594l15.906-1.781-.719 2.156-16.437 3.219 8.593.719 7.844-3.22v3.22l5.719-.72.344 2.845 8.218-9.625 12.157-2.875zM278.351 258.843l8.571-2.5 10.358 7.5h-6.786l-1.072-2.857zM299.422 266.7l8.215-1.428-3.572-1.786-3.928.357zM312.637 157.415l-2.143 3.214 5 1.071z"/><path d="M232.99 144.914l-8.563.344-.719 5-2.844-2.844-1.093 3.563-9.282 1.437.72 5.719-11.063 1.437-7.875-5.375 8.218-8.562-9.625 8.562 9.282 7.5 13.218-1.78 7.125 1.062 2.5 7.875-2.5 6.78 2.5 1.438-1.437 7.5 1.094 6.782-7.5 13.218.718 15 3.907 6.782 1.78 10-2.5.718 3.938 6.063 4.282 7.5 2.5-1.438-5.72-13.562-1.062-6.781 3.22 3.218 1.062 7.5 8.937 16.063-1.781 3.219 17.125 12.5 4.312-1.782 7.844 7.844 5.344.719 5 7.5 8.594 4.281 3.218-2.844 2.5 6.407-4.656 8.218-6.781 4.282 3.219 3.218-5 2.157 3.562 4.28 3.219 10 6.437 2.126-15.718 16.094 1.28 2.03c31.828-7.074 58.486-27.821 73.5-55.78l-5.155-1.625-10 2.5-1.782-6.782-8.218 1.438-6.063-5.719-9.281 2.5-3.219-2.844-2.844 6.407-1.437-1.063 1.781-7.156-8.937 5-2.125 6.437-3.22-3.937-5.718 1.437-5.719-3.562 3.938-8.563-5.719-2.5-6.437 1.407 7.156-13.563-9.281.719-2.5 5.719-7.5-1.094-3.938-4.625 1.438-10.375 1.406-6.781 8.937-2.125 6.063 2.5 1.437-3.594 9.282 2.5 3.218 8.937 4.282 1.063-3.563-12.844 11.063-10.719-.344-7.843 7.125-5.72-1.406-3.562 5.718-4.656v5l7.844-8.219-3.937-1.437-1.063 2.5-3.937-1.406-.72-5-3.905 2.843 2.5-5.343 7.125-.375.718-2.5 1.063 8.218 7.156-.718-3.219-5-2.5.375-1.437-5.72-8.563-5.374-7.125-6.781-.718 3.937-8.594-6.781-6.063-.375 3.563 5.719-2.844.375 6.063 6.062-3.907 1.781 2.125 6.438-3.937-1.063-1.063-6.093-7.843-3.907-5.375-.718-2.125-7.157 6.406-2.843 2.156-6.094-6.781-8.563-3.563 5-11.812-2.843-12.844-8.22z"/></g><g transform="matrix(.2408 0 0 .2408 181.156 -68.738)" opacity=".748" fill="url(#K)" stroke="#000" stroke-width=".91" stroke-opacity="0"><path d="M279.78 152.415l6.428 1.428 3.214 4.643 7.143 3.214 4.643 8.929 10.714 3.929-6.785-11.429.714-7.143-21.071-12.857-7.143.714zM232.99 144.914l-8.563.344-.719 5-2.844-2.844-1.093 3.563-9.282 1.437.72 5.719-11.063 1.437-7.875-5.375 8.218-8.562-9.625 8.562 9.282 7.5 13.218-1.78 7.125 1.062 2.5 7.875-2.5 6.78 2.5 1.438-1.437 7.5 1.094 6.782-7.5 13.218.718 15 3.907 6.782 1.78 10-2.5.718 3.938 6.063 4.282 7.5 2.5-1.438-5.72-13.562-1.062-6.781 3.22 3.218 1.062 7.5 8.937 16.063-1.781 3.219 17.125 12.5 4.312-1.782 7.844 7.844 5.344.719 5 7.5 8.594 4.281 3.218-2.844 2.5 6.407-4.656 8.218-6.781 4.282 3.219 3.218-5 2.157 3.562 4.28 3.219 10 6.437 2.126-15.718 16.094 1.28 2.03c31.828-7.074 58.486-27.821 73.5-55.78l-5.155-1.625-10 2.5-1.782-6.782-8.218 1.438-6.063-5.719-9.281 2.5-3.219-2.844-2.844 6.407-1.437-1.063 1.781-7.156-8.937 5-2.125 6.437-3.22-3.937-5.718 1.437-5.719-3.562 3.938-8.563-5.719-2.5-6.437 1.407 7.156-13.563-9.281.719-2.5 5.719-7.5-1.094-3.938-4.625 1.438-10.375 1.406-6.781 8.937-2.125 6.063 2.5 1.437-3.594 9.282 2.5 3.218 8.937 4.282 1.063-3.563-12.844 11.063-10.719-.344-7.843 7.125-5.72-1.406-3.562 5.718-4.656v5l7.844-8.219-3.937-1.437-1.063 2.5-3.937-1.406-.72-5-3.905 2.843 2.5-5.343 7.125-.375.718-2.5 1.063 8.218 7.156-.718-3.219-5-2.5.375-1.437-5.72-8.563-5.374-7.125-6.781-.718 3.937-8.594-6.781-6.063-.375 3.563 5.719-2.844.375 6.063 6.062-3.907 1.781 2.125 6.438-3.937-1.063-1.063-6.093-7.843-3.907-5.375-.718-2.125-7.157 6.406-2.843 2.156-6.094-6.781-8.563-3.563 5-11.812-2.843-12.844-8.22z"/><path d="M291.208 175.272l-11.071-4.286 4.285-1.786v-4.642l-7.142-1.429-.715 4.643-2.143-.714-.714-4.643-2.857-5.715 9.643 1.429 13.214 10-3.928 1.786zM247.637 154.2l5 .358 2.5 2.857-3.929-1.429 1.429 3.929 9.285 1.428-.357-6.428-2.857 1.428-6.786-6.071zM275.851 145.272l-7.143 1.786 2.143 5.714-2.857.357 8.571 2.857zM243.427 127.164c-4.873.276-9.66.896-14.344 1.781l-17.969 5a109.79 109.79 0 0 0-12.593 5.594l15.906-1.781-.719 2.156-16.437 3.219 8.593.719 7.844-3.22v3.22l5.719-.72.344 2.845 8.218-9.625 12.157-2.875zM278.351 258.843l8.571-2.5 10.358 7.5h-6.786l-1.072-2.857zM299.422 266.7l8.215-1.428-3.572-1.786-3.928.357zM312.637 157.415l-2.143 3.214 5 1.071z"/></g><g transform="matrix(.2408 0 0 .2408 181.078 -68.618)" opacity=".399" fill="url(#K)" stroke="#000" stroke-width=".91" stroke-opacity="0"><path d="M279.78 152.415l6.428 1.428 3.214 4.643 7.143 3.214 4.643 8.929 10.714 3.929-6.785-11.429.714-7.143-21.071-12.857-7.143.714zM232.99 144.914l-8.563.344-.719 5-2.844-2.844-1.093 3.563-9.282 1.437.72 5.719-11.063 1.437-7.875-5.375 8.218-8.562-9.625 8.562 9.282 7.5 13.218-1.78 7.125 1.062 2.5 7.875-2.5 6.78 2.5 1.438-1.437 7.5 1.094 6.782-7.5 13.218.718 15 3.907 6.782 1.78 10-2.5.718 3.938 6.063 4.282 7.5 2.5-1.438-5.72-13.562-1.062-6.781 3.22 3.218 1.062 7.5 8.937 16.063-1.781 3.219 17.125 12.5 4.312-1.782 7.844 7.844 5.344.719 5 7.5 8.594 4.281 3.218-2.844 2.5 6.407-4.656 8.218-6.781 4.282 3.219 3.218-5 2.157 3.562 4.28 3.219 10 6.437 2.126-15.718 16.094 1.28 2.03c31.828-7.074 58.486-27.821 73.5-55.78l-5.155-1.625-10 2.5-1.782-6.782-8.218 1.438-6.063-5.719-9.281 2.5-3.219-2.844-2.844 6.407-1.437-1.063 1.781-7.156-8.937 5-2.125 6.437-3.22-3.937-5.718 1.437-5.719-3.562 3.938-8.563-5.719-2.5-6.437 1.407 7.156-13.563-9.281.719-2.5 5.719-7.5-1.094-3.938-4.625 1.438-10.375 1.406-6.781 8.937-2.125 6.063 2.5 1.437-3.594 9.282 2.5 3.218 8.937 4.282 1.063-3.563-12.844 11.063-10.719-.344-7.843 7.125-5.72-1.406-3.562 5.718-4.656v5l7.844-8.219-3.937-1.437-1.063 2.5-3.937-1.406-.72-5-3.905 2.843 2.5-5.343 7.125-.375.718-2.5 1.063 8.218 7.156-.718-3.219-5-2.5.375-1.437-5.72-8.563-5.374-7.125-6.781-.718 3.937-8.594-6.781-6.063-.375 3.563 5.719-2.844.375 6.063 6.062-3.907 1.781 2.125 6.438-3.937-1.063-1.063-6.093-7.843-3.907-5.375-.718-2.125-7.157 6.406-2.843 2.156-6.094-6.781-8.563-3.563 5-11.812-2.843-12.844-8.22z"/><path d="M291.208 175.272l-11.071-4.286 4.285-1.786v-4.642l-7.142-1.429-.715 4.643-2.143-.714-.714-4.643-2.857-5.715 9.643 1.429 13.214 10-3.928 1.786zM247.637 154.2l5 .358 2.5 2.857-3.929-1.429 1.429 3.929 9.285 1.428-.357-6.428-2.857 1.428-6.786-6.071zM275.851 145.272l-7.143 1.786 2.143 5.714-2.857.357 8.571 2.857zM243.427 127.164c-4.873.276-9.66.896-14.344 1.781l-17.969 5a109.79 109.79 0 0 0-12.593 5.594l15.906-1.781-.719 2.156-16.437 3.219 8.593.719 7.844-3.22v3.22l5.719-.72.344 2.845 8.218-9.625 12.157-2.875zM278.351 258.843l8.571-2.5 10.358 7.5h-6.786l-1.072-2.857zM299.422 266.7l8.215-1.428-3.572-1.786-3.928.357zM312.637 157.415l-2.143 3.214 5 1.071z"/></g><g transform="matrix(.2408 0 0 .2408 180.554 -68.565)" opacity=".748" fill="url(#J)" stroke="#000" stroke-width=".91" stroke-opacity="0"><path d="M279.78 152.415l6.428 1.428 3.214 4.643 7.143 3.214 4.643 8.929 10.714 3.929-6.785-11.429.714-7.143-21.071-12.857-7.143.714zM291.208 175.272l-11.071-4.286 4.285-1.786v-4.642l-7.142-1.429-.715 4.643-2.143-.714-.714-4.643-2.857-5.715 9.643 1.429 13.214 10-3.928 1.786zM247.637 154.2l5 .358 2.5 2.857-3.929-1.429 1.429 3.929 9.285 1.428-.357-6.428-2.857 1.428-6.786-6.071zM275.851 145.272l-7.143 1.786 2.143 5.714-2.857.357 8.571 2.857zM243.427 127.164c-4.873.276-9.66.896-14.344 1.781l-17.969 5a109.79 109.79 0 0 0-12.593 5.594l15.906-1.781-.719 2.156-16.437 3.219 8.593.719 7.844-3.22v3.22l5.719-.72.344 2.845 8.218-9.625 12.157-2.875zM278.351 258.843l8.571-2.5 10.358 7.5h-6.786l-1.072-2.857zM299.422 266.7l8.215-1.428-3.572-1.786-3.928.357zM312.637 157.415l-2.143 3.214 5 1.071z"/><path d="M232.99 144.914l-8.563.344-.719 5-2.844-2.844-1.093 3.563-9.282 1.437.72 5.719-11.063 1.437-7.875-5.375 8.218-8.562-9.625 8.562 9.282 7.5 13.218-1.78 7.125 1.062 2.5 7.875-2.5 6.78 2.5 1.438-1.437 7.5 1.094 6.782-7.5 13.218.718 15 3.907 6.782 1.78 10-2.5.718 3.938 6.063 4.282 7.5 2.5-1.438-5.72-13.562-1.062-6.781 3.22 3.218 1.062 7.5 8.937 16.063-1.781 3.219 17.125 12.5 4.312-1.782 7.844 7.844 5.344.719 5 7.5 8.594 4.281 3.218-2.844 2.5 6.407-4.656 8.218-6.781 4.282 3.219 3.218-5 2.157 3.562 4.28 3.219 10 6.437 2.126-15.718 16.094 1.28 2.03c31.828-7.074 58.486-27.821 73.5-55.78l-5.155-1.625-10 2.5-1.782-6.782-8.218 1.438-6.063-5.719-9.281 2.5-3.219-2.844-2.844 6.407-1.437-1.063 1.781-7.156-8.937 5-2.125 6.437-3.22-3.937-5.718 1.437-5.719-3.562 3.938-8.563-5.719-2.5-6.437 1.407 7.156-13.563-9.281.719-2.5 5.719-7.5-1.094-3.938-4.625 1.438-10.375 1.406-6.781 8.937-2.125 6.063 2.5 1.437-3.594 9.282 2.5 3.218 8.937 4.282 1.063-3.563-12.844 11.063-10.719-.344-7.843 7.125-5.72-1.406-3.562 5.718-4.656v5l7.844-8.219-3.937-1.437-1.063 2.5-3.937-1.406-.72-5-3.905 2.843 2.5-5.343 7.125-.375.718-2.5 1.063 8.218 7.156-.718-3.219-5-2.5.375-1.437-5.72-8.563-5.374-7.125-6.781-.718 3.937-8.594-6.781-6.063-.375 3.563 5.719-2.844.375 6.063 6.062-3.907 1.781 2.125 6.438-3.937-1.063-1.063-6.093-7.843-3.907-5.375-.718-2.125-7.157 6.406-2.843 2.156-6.094-6.781-8.563-3.563 5-11.812-2.843-12.844-8.22z"/></g><path d="M238.377-37.595a26.617 26.617 0 0 0-1.819.28 26.617 26.617 0 0 1 1.82-.28zm-2.398.41a26.617 26.617 0 0 0-2.1.543 26.617 26.617 0 0 1 2.1-.543zm-4.735 1.507a26.617 26.617 0 0 0-1.207.588l2.118-.237c-.3-.12-.603-.237-.911-.35zm1.806.719l-.011.032-3.958.775 2.07.173 1.888-.775v.775l1.377-.173.083.685.508-.595a37.63 37.63 0 0 0-1.957-.897zm2.771 1.311l-.2.008-.174 1.204-.685-.685-.263.858-2.235.347.173 1.377-2.664.345-1.896-1.294 1.98-2.061-2.318 2.061 2.234 1.806 3.184-.429 1.715.256.602 1.896-.602 1.633.602.346-.182.948a14.794 14.794 0 0 1 7.337 12.76 14.794 14.794 0 0 1-2.142 7.633l1.865 1.362 1.038-.429 1.89 1.889 1.286.173L247.57.162l.145.072c.092-.21.184-.418.271-.63l-.07-.044.513-1.114c.118-.328.23-.658.336-.99l-1.278-.56-1.55.339 1.723-3.266-2.234.173-.603 1.377-1.806-.263-.948-1.114.346-2.498.34-1.633 2.151-.512 1.46.602.346-.865 2.235.602.775 2.152.22.055a27.4 27.4 0 0 0 .164-2.131l-.21-.76.23-.224c.004-4.527-1.146-9.11-3.779-13.222l-.41-.055-.291-.98c-2.28-3.182-5.5-6.043-9.825-8.32zm13.93 27.025l-1.146.334 1.056.204c.033-.179.06-.358.09-.538zM263.83 3.483a26.617 26.617 0 0 1-.777 1.086 26.617 26.617 0 0 0 .777-1.086zm-1.578 2.14a26.617 26.617 0 0 1-.88 1.002 26.617 26.617 0 0 0 .88-1.002zm-1.785 1.973a26.617 26.617 0 0 1-.979.912 26.617 26.617 0 0 0 .98-.912z" fill="url(#L)" stroke-width=".329" stroke-linecap="round" stroke-linejoin="bevel"/><path d="M229.901-35.075a26.617 26.617 0 0 0-11.69 11.334 26.617 26.617 0 0 1 11.69-11.334zm-2.343 7.996a14.794 14.794 0 0 0-9.347 3.339 26.617 26.617 0 0 0-3.167 12.527 26.617 26.617 0 0 0 1.538 8.82 14.794 14.794 0 0 0 10.976 4.902 14.794 14.794 0 0 0 12.67-7.19l-2.2-1.606.43-.775-2.153-3.868-.256-1.806-.775-.775.256 1.633 1.377 3.266-.602.346-1.03-1.806-.95-1.46.603-.173-.429-2.408-.94-1.633-.174-3.612 1.806-3.183-.263-1.632.158-.827a14.794 14.794 0 0 0-7.528-2.079zM216.582-2.392a26.617 26.617 0 0 0 .998 2.444 26.617 26.617 0 0 1-.998-2.444zM217.603.1a26.617 26.617 0 0 0 1.208 2.277A26.617 26.617 0 0 1 217.603.1zm1.277 2.39a26.617 26.617 0 0 0 1.385 2.078 26.617 26.617 0 0 1-1.385-2.078zm1.515 2.248a26.617 26.617 0 0 0 1.531 1.864 26.617 26.617 0 0 1-1.531-1.864zm1.737 2.085a26.617 26.617 0 0 0 1.646 1.639 26.617 26.617 0 0 1-1.646-1.639zm38.234.886a26.617 26.617 0 0 1-.368.355c.124-.117.246-.235.368-.355zm-36.289 1.015a26.617 26.617 0 0 0 1.722 1.401 26.617 26.617 0 0 1-1.722-1.4zm2.136 1.697a26.617 26.617 0 0 0 1.76 1.162 26.617 26.617 0 0 1-1.76-1.162zm2.298 1.47a26.617 26.617 0 0 0 1.765.926 26.617 26.617 0 0 1-1.765-.926zm2.446 1.23a26.617 26.617 0 0 0 1.726.696 26.617 26.617 0 0 1-1.726-.696zm19.327.777l-.15.053.147-.049.003-.004zm-16.76.198a26.617 26.617 0 0 0 1.653.48 26.617 26.617 0 0 1-1.652-.48zm2.65.705a26.617 26.617 0 0 0 1.558.288 26.617 26.617 0 0 1-1.557-.288zm2.714.428a26.617 26.617 0 0 0 1.605.134 26.617 26.617 0 0 1-1.605-.134z" opacity=".5" fill="url(#M)" stroke-width=".219" stroke-linecap="round" stroke-linejoin="bevel" stroke-opacity="0"/><path d="M239.12-37.697a26.617 26.617 0 0 0-7.876 2.02c.308.113.61.23.91.35l1.058-.119-.162.487a37.63 37.63 0 0 1 1.957.897l1.471-1.722 2.928-.693.482-.928c-.255-.097-.507-.197-.768-.292zm-1.438 3.974l-1.86.075c4.324 2.278 7.544 5.138 9.824 8.32l-.221-.742 1.543-.685.52-1.467-1.634-2.062-.858 1.204-2.844-.685-3.093-1.979zm9.852.203l-1.251.313.516 1.376-.688.086 2.064.689-.141-2.125a32.536 32.536 0 0 0-.5-.339zm1.23.862l.185.741 1.084.241c-.406-.334-.833-.66-1.27-.982zm-6.523.225l-1.032.947 1.204.086.602.687-.946-.343.344.945 2.236.344-.086-1.547-.688.344zm4.558 1.549l.688 1.375.172 1.118.516.172.172-1.118 1.72.344v1.119l-1.032.43 2.666 1.031-.344-1.29.946-.43-3.182-2.408zm4.212.054l.26.375.287.13a27.8 27.8 0 0 0-.547-.505zm-1.891 4.414l.858 1.377-.685.09 1.46 1.46-.94.429.51 1.55-.947-.256-.256-1.467-1.889-.94-.884-.119c2.633 4.112 3.783 8.695 3.778 13.222l2.434-2.358-.083-1.889 1.716-1.377-.339-.858 1.377-1.121v1.204l1.889-1.979-.948-.346-.256.602-.948-.339-.173-1.204-.94.685.601-1.287 1.716-.09.173-.602.256 1.979 1.46-.146c-.11-.33-.227-.657-.352-.982l-.16-.25-.602.091-.346-1.377-2.062-1.294-1.716-1.633-.173.948-2.07-1.633zm.986 16.33a27.395 27.395 0 0 1-.163 2.13l.81.202zm.563 3.195l-.918.268c-.03.18-.057.36-.09.538l1.61.312.258.688h1.634zm4.128 1.72l-.946.086-.172.688 1.978-.344zm-6.032 2.626a29.01 29.01 0 0 1-.336.99l.435-.947zm5.344.81L251.957-.53l-.512 1.55-.775-.948-1.377.346-1.307-.814c-.087.212-.18.42-.27.63l1.923.959.775-.685.602 1.543-1.121 1.979-1.633 1.03.775.776-1.204.519.858 1.031.775 2.408 1.55.512-3.785 3.875.309.489a26.49 26.49 0 0 0 2.733-.764c3.187-4.03 5.998-9.276 7.645-14.935l-.197-.186-2.235.602-.775-.685-.685 1.543-.346-.256zm10.243 4.386a26.617 26.617 0 0 1-1.182 1.755 26.617 26.617 0 0 0 1.182-1.755zm-1.481 2.173a26.617 26.617 0 0 1-1.421 1.713 26.617 26.617 0 0 0 1.421-1.713zm-1.687 2.016a26.617 26.617 0 0 1-1.66 1.635 26.617 26.617 0 0 0 1.66-1.635zm-1.881 1.84a26.617 26.617 0 0 1-1.885 1.519 26.617 26.617 0 0 0 1.885-1.518z" opacity=".807" fill="url(#N)" stroke-width=".329" stroke-linecap="round" stroke-linejoin="bevel"/><path d="M240.096-37.747a26.617 26.617 0 0 0-.945.05c.26.095.513.195.768.293zm10.088 3.595l-1.72.171.33 1.323c.437.322.863.648 1.27.982l.464.103.514.743c.185.167.369.335.547.504l1.433.645 1.118 2.15 2.58.946-1.635-2.752.172-1.72zm-2.15.515l-.47.117c.169.112.336.225.5.339zm8.858 2.924l-.516.774 1.204.258zm.847 9.535c.124.325.24.653.351.982l.263-.027zm.21 20.149c-1.648 5.66-4.459 10.905-7.645 14.935.32-.108.635-.223.95-.343a26.617 26.617 0 0 0 .69-.274c.45-.186.893-.384 1.33-.593a26.617 26.617 0 0 0 1.46-.757c.215-.12.429-.243.64-.368a26.617 26.617 0 0 0 1.86-1.214l.144-.101a26.617 26.617 0 0 0 7.799-9.047l-1.15-.362-2.408.602-.428-1.633-1.98.346z" opacity=".645" fill="url(#O)" stroke-width=".329" stroke-linecap="round" stroke-linejoin="bevel"/><circle cx="241.661" cy="-11.213" r="26.617" opacity=".568" fill="none" stroke="#4b2525" stroke-width=".219" stroke-linecap="round" stroke-linejoin="bevel" stroke-opacity=".403"/></g><use height="100%" width="100%" xlink:href="#P"/><use height="100%" width="100%" xlink:href="#Q"/></g></svg>