<svg xmlns="http://www.w3.org/2000/svg" xmlns:xlink="http://www.w3.org/1999/xlink" width="1098.763" height="322.671" viewBox="0 0 290.714 85.373"><defs><clipPath clipPathUnits="userSpaceOnUse" id="Q"><path d="M159.226 259.228v104.406h108.967V259.228zm46.88 33.501l4.843 24.926 9.725-6.576.106-.107-.043.064.093-.062-.154.153-6.542 9.74h0l24.98 4.67-.027.02-25.05 4.702 6.681 9.847-9.982-6.786-4.587 25.063-.022-.023-4.6-24.99-9.862 6.79h0l-.062.042.108-.11 6.73-9.794-25.142-4.744h-.112l.056-.01-.03-.006h.06l25.055-4.71-6.445-9.599 9.422 6.397z" opacity=".492" fill="#a70000" stroke="#000" stroke-width=".265" stroke-linecap="round" stroke-linejoin="bevel" stroke-opacity="0"/></clipPath><pattern xlink:href="#a" id="R" patternTransform="scale(.07) rotate(45 -3066.142 5621.099)"/><pattern xlink:href="#b" id="a" patternTransform="scale(.26458) rotate(45 1169.103 5464.055)"/><pattern patternUnits="userSpaceOnUse" width="12.974" height="12.974" patternTransform="matrix(.26458 0 0 .26458 430.922 24.646)" id="b"><rect ry="0" y=".501" x=".501" height="11.972" width="11.972" fill-opacity=".004" stroke="#000" stroke-width="1.002" stroke-linecap="round" stroke-linejoin="bevel" stroke-opacity="0"/><rect y="1.892" x="4.812" height="5.724" width="5.724" rx="2.862" ry="2.862" transform="rotate(15)" fill-opacity=".498" stroke="#000" stroke-width=".479" stroke-linecap="round" stroke-linejoin="bevel" stroke-opacity="0"/></pattern><pattern xlink:href="#c" id="S" patternTransform="scale(.26458) rotate(-15 1392.51 -4287.481)"/><pattern patternUnits="userSpaceOnUse" width="12.974" height="12.974" patternTransform="matrix(.26458 0 0 .26458 331.244 -52.243)" id="c"><rect height="12.974" width="12.974" ry="3.048" fill="#0ff" fill-opacity=".498" stroke-width="3.78"/></pattern><pattern xlink:href="#d" id="T" patternTransform="scale(.07) rotate(38.855 -3824.57 6628.555)"/><pattern xlink:href="#e" id="d" patternTransform="scale(.26458) rotate(38.855 1050.92 6709.317)"/><pattern patternUnits="userSpaceOnUse" width="12.974" height="12.974" patternTransform="matrix(.26458 0 0 .26458 404.463 24.646)" id="e"><rect width="11.972" height="11.972" x=".501" y=".501" ry="0" fill-opacity=".004" stroke="#000" stroke-width="1.002" stroke-linecap="round" stroke-linejoin="bevel" stroke-opacity="0"/><rect transform="rotate(15)" ry="4.737" rx="4.737" width="9.473" height="9.473" x="3.081" y="-.338" fill-opacity=".498" stroke="#000" stroke-width=".793" stroke-linecap="round" stroke-linejoin="bevel" stroke-opacity="0"/></pattern><pattern xlink:href="#f" id="U" patternTransform="scale(.07) rotate(45 -2941.446 6154.888)"/><pattern xlink:href="#g" id="f" patternTransform="scale(.26458) rotate(45 1293.8 5997.844)"/><pattern patternUnits="userSpaceOnUse" width="12.974" height="12.974" patternTransform="matrix(.26458 0 0 .26458 381.242 24.988)" id="g"><rect ry="5.986" rx="5.986" width="11.972" height="11.972" x=".501" y=".501" fill-opacity=".498" stroke="#000" stroke-width="1.002" stroke-linecap="round" stroke-linejoin="bevel" stroke-opacity="0"/></pattern><pattern patternUnits="userSpaceOnUse" width="12.974" height="12.974" patternTransform="matrix(.26458 0 0 .26458 404.463 -2.469)" id="V"><rect ry="0" y=".501" x=".501" height="11.972" width="11.972" fill="#ff0" fill-opacity=".043" stroke="#000" stroke-width="1.002" stroke-linecap="round" stroke-linejoin="bevel" stroke-opacity="0"/><rect y="-.338" x="3.081" height="9.473" width="9.473" rx="4.737" ry="4.737" transform="rotate(15)" fill="#ff0" fill-opacity=".498" stroke="#000" stroke-width=".793" stroke-linecap="round" stroke-linejoin="bevel" stroke-opacity="0"/></pattern><pattern xlink:href="#h" id="W" patternTransform="scale(.26458) rotate(15 -1157.664 3729.775)"/><pattern patternUnits="userSpaceOnUse" width="12.974" height="12.974" patternTransform="matrix(.26458 0 0 .26458 331.244 -26.977)" id="h"><rect ry="3.048" width="12.974" height="12.974" fill="#f06" fill-opacity=".498" stroke-width="3.78"/></pattern><pattern xlink:href="#i" id="X" patternTransform="rotate(44.999 -209.795 411.404) scale(.09584)"/><pattern xlink:href="#j" id="i" patternTransform="scale(.36224) rotate(45 904.598 4177.913)"/><pattern patternUnits="userSpaceOnUse" width="12.974" height="12.974" patternTransform="matrix(.26458 0 0 .26458 453.676 24.438)" id="j"><rect ry="0" y=".501" x=".501" height="11.972" width="11.972" fill="#999" fill-opacity=".004" stroke="#000" stroke-width="1.002" stroke-linecap="round" stroke-linejoin="bevel" stroke-opacity="0"/><rect y="2.758" x="6.424" height="3.538" width="3.538" rx="1.769" ry="1.769" transform="rotate(15)" fill-opacity=".498" stroke="#000" stroke-width=".296" stroke-linecap="round" stroke-linejoin="bevel" stroke-opacity="0"/></pattern><pattern xlink:href="#k" id="Y" patternTransform="scale(.07) rotate(45 -3138.251 5602.743)"/><pattern xlink:href="#j" id="k" patternTransform="scale(.07) rotate(45 1096.994 5445.7)"/><pattern xlink:href="#l" id="Z" patternTransform="scale(.08012) rotate(60 -1424.336 4271.914)"/><pattern xlink:href="#b" id="l" patternTransform="scale(.3028) rotate(60 1370.101 3798.088)"/><pattern xlink:href="#m" id="aa" patternTransform="scale(.05527) rotate(45 -3706.21 7541.183)"/><pattern xlink:href="#e" id="m" patternTransform="scale(.05527) rotate(45 1658.393 7342.263)"/><pattern xlink:href="#n" id="N" patternTransform="matrix(.07 0 0 .07 323.426 179.286)"/><pattern patternUnits="userSpaceOnUse" width="12.974" height="12.974" patternTransform="matrix(.26458 0 0 .26458 381.242 -1.62)" id="n"><rect y=".501" x=".501" height="11.972" width="11.972" rx="5.986" ry="5.986" fill="#ff0" fill-opacity=".498" stroke="#000" stroke-width="1.002" stroke-linecap="round" stroke-linejoin="bevel" stroke-opacity="0"/></pattern><pattern xlink:href="#o" id="O" patternTransform="rotate(15.003 -523.38 1325.624) scale(.08606)"/><pattern xlink:href="#p" id="o" patternTransform="scale(.26458) rotate(15 -10907.283 19406.928)"/><pattern patternUnits="userSpaceOnUse" width="12.974" height="12.974" patternTransform="matrix(.26458 0 0 .26458 331.244 -1.89)" id="p"><rect ry="2.709" rx="2.709" width="11.972" height="11.972" x=".501" y=".501" fill="#f06" stroke="#000" stroke-width="1.002" stroke-linecap="round" stroke-linejoin="bevel" stroke-opacity="0"/></pattern><pattern xlink:href="#e" id="P" patternTransform="rotate(45.002 -54.308 487.58) scale(.07176)"/><clipPath clipPathUnits="userSpaceOnUse" id="C"><path d="M197.47 35.162v134.034h413.57V35.162zm88.137 45.627l4.843 24.925 9.725-6.576.106-.107-.044.065.093-.063-.153.153-6.542 9.74v0l24.98 4.67-.027.02-25.05 4.703 6.681 9.846-9.983-6.786-4.587 25.064-.022-.023-4.6-24.99-9.86 6.788v0l-.063.044.108-.11 6.73-9.795-25.143-4.743h-.11l.055-.01-.03-.006h.06l25.055-4.71-6.445-9.599 9.421 6.397z" opacity=".492" fill="#a70000" stroke="#000" stroke-width=".265" stroke-linecap="round" stroke-linejoin="bevel" stroke-opacity="0"/></clipPath><pattern xlink:href="#q" id="D" patternTransform="scale(.07845) rotate(-30 3684.142 -8364.83)"/><pattern xlink:href="#r" id="q" patternTransform="scale(.07845) rotate(-30 3680.77 -8352.242)"/><pattern patternUnits="userSpaceOnUse" width="12.974" height="12.974" patternTransform="matrix(.26458 0 0 .26458 357.166 -51.616)" id="r"><rect y=".501" x=".501" height="11.972" width="11.972" rx="5.079" ry="5.079" fill="#0ff" fill-opacity=".498" stroke="#000" stroke-width="1.002" stroke-linecap="round" stroke-linejoin="bevel" stroke-opacity="0"/></pattern><pattern xlink:href="#s" id="E" patternTransform="scale(.07) rotate(45 1587.497 6412.579)"/><pattern xlink:href="#t" id="s" patternTransform="scale(.26458) rotate(45 1587.497 6412.579)"/><pattern patternUnits="userSpaceOnUse" width="12.974" height="12.974" patternTransform="matrix(.26458 0 0 .26458 331.244 25.884)" id="t"><rect height="12.974" width="12.974" ry="3.048" fill-opacity=".498" stroke-width="3.78"/></pattern><pattern xlink:href="#u" id="F" patternTransform="scale(.07) rotate(45 1467.314 6361.997)"/><pattern xlink:href="#v" id="u" patternTransform="scale(.26458) rotate(45 1467.314 6361.996)"/><pattern patternUnits="userSpaceOnUse" width="12.974" height="12.974" patternTransform="matrix(.26458 0 0 .26458 357.166 24.808)" id="v"><rect ry="5.079" rx="5.079" width="11.972" height="11.972" x=".501" y=".501" fill-opacity=".498" stroke="#000" stroke-width="1.002" stroke-linecap="round" stroke-linejoin="bevel" stroke-opacity="0"/></pattern><pattern xlink:href="#w" id="G" patternTransform="scale(.07) rotate(45 1123.335 5493.92)"/><pattern xlink:href="#g" id="w" patternTransform="scale(.26458) rotate(45 1123.335 5493.92)"/><pattern xlink:href="#x" id="H" patternTransform="scale(.07) rotate(45 1587.497 6412.579)"/><pattern xlink:href="#s" id="x" patternTransform="scale(.07) rotate(45 1587.497 6412.579)"/><pattern xlink:href="#x" id="I" patternTransform="scale(.07) rotate(45 1587.497 6412.579)"/><pattern xlink:href="#u" id="J" patternTransform="scale(.07) rotate(45 1467.314 6361.997)"/><pattern xlink:href="#w" id="K" patternTransform="scale(.07) rotate(45 1123.335 5493.92)"/><pattern xlink:href="#u" id="L" patternTransform="scale(.07) rotate(45 1467.314 6361.997)"/><pattern xlink:href="#w" id="M" patternTransform="scale(.07) rotate(45 1123.335 5493.92)"/><clipPath clipPathUnits="userSpaceOnUse" id="z"><path d="M197.47 35.162v134.034h413.57V35.162zm88.137 45.627l4.843 24.925 9.725-6.576.106-.107-.044.065.093-.063-.153.153-6.542 9.74v0l24.98 4.67-.027.02-25.05 4.703 6.681 9.846-9.983-6.786-4.587 25.064-.022-.023-4.6-24.99-9.86 6.788v0l-.063.044.108-.11 6.73-9.795-25.143-4.743h-.11l.055-.01-.03-.006h.06l25.055-4.71-6.445-9.599 9.421 6.397z" opacity=".492" fill="#a70000" stroke="#000" stroke-width=".265" stroke-linecap="round" stroke-linejoin="bevel" stroke-opacity="0"/></clipPath><pattern xlink:href="#y" id="A" patternTransform="matrix(.08141 .02181 -.02181 .08141 390.687 79.82)"/><pattern patternUnits="userSpaceOnUse" width="12.974" height="12.974" patternTransform="matrix(.26458 0 0 .26458 426.525 -26.977)" id="y"><rect ry="5.986" rx="5.986" width="11.972" height="11.972" x=".501" y=".501" fill="#f06" fill-opacity=".498" stroke="#000" stroke-width="1.002" stroke-linecap="round" stroke-linejoin="bevel" stroke-opacity="0"/></pattern><pattern xlink:href="#n" id="B" patternTransform="matrix(.097 0 0 .097 411.398 86.418)"/></defs><g transform="translate(34.232 -26.016)"><g transform="translate(-282.014 -34.816)" clip-path="url(#z)" font-weight="700" font-size="14.111" font-family="Sans" letter-spacing="0" word-spacing="0" stroke="#000" stroke-width=".265" stroke-opacity="0"><text style="line-height:125%;-inkscape-font-specification:'Sans Bold'" x="355.461" y="95.855" fill="url(#A)"><tspan x="355.461" y="95.855" font-size="17.639">peermaps</tspan></text><text y="95.855" x="355.461" style="line-height:125%;-inkscape-font-specification:'Sans Bold'" fill="url(#A)"><tspan y="95.855" x="355.461" font-size="17.639">peermaps</tspan></text><text y="96.213" x="356.095" style="line-height:125%;-inkscape-font-specification:'Sans Bold'" fill="url(#B)"><tspan y="96.213" x="356.095" font-size="17.639">peermaps</tspan></text></g><g transform="translate(-282.014 -34.816)" clip-path="url(#C)"><path d="M248.311 63.178v58.846h17.436l.184.254H291.283a32.144 32.144 0 0 1-18.623-29.122 32.144 32.144 0 0 1 19.971-29.725h-26.853a48.56 48.56 0 0 0-9.272 21.678 48.56 48.56 0 0 1 9.272-21.931zm94.788 0a48.56 48.56 0 0 1 7.481 14.612 48.56 48.56 0 0 0-7.48-14.359h-26.101a32.144 32.144 0 0 1 19.95 29.725 32.144 32.144 0 0 1-18.624 29.122h24.564l.176-.254h194.947V63.178zm7.783 15.599zm12.869 7.199c1.188 0 2.164.474 2.928 1.421.763.942 1.145 2.156 1.145 3.643 0 1.487-.382 2.705-1.145 3.652-.764.942-1.74 1.413-2.928 1.413-.672 0-1.266-.133-1.783-.397-.517-.27-.988-.686-1.413-1.248v5.064h-3.083V86.208h3.083v1.413c.425-.563.896-.976 1.413-1.24.517-.27 1.11-.405 1.783-.405zm10.99 0c1.515 0 2.727.456 3.634 1.37.913.912 1.37 2.132 1.37 3.66v.878h-7.21c.075.724.336 1.266.784 1.628.448.362 1.074.543 1.878.543.649 0 1.312-.095 1.99-.285a10.382 10.382 0 0 0 2.1-.878v2.377a13.02 13.02 0 0 1-2.187.62 11.3 11.3 0 0 1-2.187.216c-1.746 0-3.104-.443-4.074-1.327-.965-.89-1.447-2.136-1.447-3.738 0-1.573.473-2.81 1.42-3.712.954-.901 2.263-1.352 3.928-1.352zm11.954 0c1.516 0 2.727.456 3.634 1.37.913.912 1.37 2.132 1.37 3.66v.878h-7.209c.075.724.336 1.266.784 1.628.448.362 1.073.543 1.877.543.65 0 1.312-.095 1.99-.285a10.386 10.386 0 0 0 2.102-.878v2.377c-.73.276-1.46.482-2.188.62a11.3 11.3 0 0 1-2.188.216c-1.745 0-3.103-.443-4.074-1.327-.964-.89-1.447-2.136-1.447-3.738 0-1.573.474-2.81 1.422-3.712.953-.901 2.262-1.352 3.927-1.352zm13.625 0c.103 0 .215.006.336.017.12.006.296.023.525.052l.01 2.79a3.749 3.749 0 0 0-.81-.275 3.432 3.432 0 0 0-.801-.095c-.793 0-1.404.256-1.835.767-.425.505-.637 1.231-.637 2.179v4.444h-3.083v-9.647h3.083v1.585c.396-.631.85-1.09 1.36-1.378.517-.293 1.135-.439 1.852-.439zm8.432 0c.666 0 1.255.16 1.766.482.51.322.898.773 1.163 1.352.39-.597.852-1.05 1.386-1.36a3.45 3.45 0 0 1 1.774-.474c1.108 0 1.952.341 2.532 1.025.58.683.87 1.676.87 2.98v5.874h-3.1v-5.03c.006-.075.008-.152.008-.233.006-.08.009-.195.009-.344 0-.683-.1-1.177-.301-1.482-.201-.31-.526-.465-.974-.465-.586 0-1.04.242-1.36.724-.316.482-.48 1.18-.492 2.093v4.737h-3.1v-5.03c0-1.068-.092-1.754-.276-2.059-.183-.31-.51-.465-.981-.465-.592 0-1.048.245-1.37.733-.321.482-.482 1.174-.482 2.075v4.746h-3.101v-9.647h3.1v1.413c.38-.546.813-.956 1.301-1.232a3.283 3.283 0 0 1 1.628-.413zm16.494 0c1.74 0 2.994.344 3.763 1.033.775.684 1.163 1.798 1.163 3.342v5.504h-3.11v-1.43c-.413.586-.878 1.013-1.395 1.283-.516.264-1.145.397-1.886.397-.999 0-1.811-.29-2.437-.87-.62-.586-.93-1.344-.93-2.274 0-1.131.387-1.961 1.163-2.49.78-.527 2.003-.791 3.669-.791h1.817v-.242c0-.488-.192-.844-.577-1.068-.385-.23-.985-.344-1.8-.344-.66 0-1.275.066-1.843.198a6.315 6.315 0 0 0-1.585.594v-2.351c.66-.16 1.323-.281 1.99-.362.665-.086 1.332-.129 1.998-.129zm14.09 0c1.188 0 2.165.474 2.928 1.421.764.942 1.146 2.156 1.146 3.643 0 1.487-.382 2.705-1.146 3.652-.763.942-1.74 1.413-2.928 1.413-.672 0-1.266-.133-1.783-.397-.517-.27-.988-.686-1.412-1.248v5.064h-3.084V86.208h3.084v1.413c.424-.563.895-.976 1.412-1.24.517-.27 1.11-.405 1.783-.405zm10.068 0c.569 0 1.166.043 1.791.13.626.085 1.307.22 2.042.404v2.343a11.53 11.53 0 0 0-1.912-.62 7.96 7.96 0 0 0-1.74-.207c-.585 0-1.022.074-1.31.224-.28.143-.42.367-.42.672 0 .246.105.436.317.568.219.132.606.23 1.163.293l.543.077c1.579.201 2.641.531 3.187.99.545.46.818 1.18.818 2.163 0 1.028-.38 1.8-1.137 2.316-.758.517-1.889.776-3.393.776a13.25 13.25 0 0 1-1.982-.156 16.491 16.491 0 0 1-2.092-.448V93.16a8.92 8.92 0 0 0 1.886.672 8.77 8.77 0 0 0 1.972.224c.603 0 1.057-.084 1.36-.25.305-.167.458-.413.458-.74 0-.276-.107-.48-.32-.612-.206-.138-.622-.244-1.248-.319l-.543-.069c-1.372-.172-2.334-.49-2.885-.956-.551-.465-.827-1.171-.827-2.119 0-1.022.35-1.78 1.05-2.274.701-.493 1.775-.74 3.222-.74zm-74.68 2.05c-.598 0-1.083.17-1.457.508-.373.333-.605.815-.697 1.447h4.005c0-.586-.173-1.056-.517-1.412-.339-.362-.784-.543-1.335-.543zm11.953 0c-.597 0-1.082.17-1.455.508-.373.333-.606.815-.697 1.447h4.005c0-.586-.173-1.056-.517-1.412-.339-.362-.784-.543-1.336-.543zm-24.072.19c-.66 0-1.168.243-1.524.731-.35.483-.526 1.18-.526 2.093s.175 1.614.526 2.102c.356.482.864.723 1.524.723s1.163-.24 1.507-.723c.35-.482.525-1.183.525-2.102 0-.918-.174-1.62-.525-2.101-.344-.483-.847-.724-1.507-.724zm75.586 0c-.66 0-1.169.243-1.525.731-.35.483-.525 1.18-.525 2.093s.175 1.614.525 2.102c.356.482.864.723 1.525.723.66 0 1.162-.24 1.506-.723.35-.482.526-1.183.526-2.102 0-.918-.175-1.62-.526-2.101-.344-.483-.846-.724-1.506-.724zm-85.407.549c.115 1.235.183 2.473.204 3.713l-.007.126a48.58 48.58 0 0 0-.197-3.84zm72.677 2.75c-.643 0-1.128.108-1.456.326-.321.218-.482.54-.482.965 0 .39.129.697.387.921.264.219.63.328 1.094.328.58 0 1.068-.207 1.464-.62.396-.42.595-.942.595-1.568v-.353zm-169.581.707l-.01.378-.004-.122.013-.256z" fill="url(#D)"/><path d="M247.782 63.431v58.847h17.62a48.56 48.56 0 0 1-10.065-29.546 48.56 48.56 0 0 1 9.912-29.3zm94.788 0a48.56 48.56 0 0 1 9.889 29.3 48.56 48.56 0 0 1-10.1 29.547h196.137V63.43zm20.651 22.545c1.189 0 2.165.474 2.928 1.421.764.942 1.146 2.156 1.146 3.643 0 1.487-.382 2.705-1.146 3.652-.763.942-1.739 1.413-2.928 1.413-.671 0-1.266-.133-1.782-.397-.517-.27-.988-.686-1.413-1.248v5.064h-3.083V86.208h3.083v1.413c.425-.563.896-.976 1.413-1.24.516-.27 1.11-.405 1.782-.405zm10.99 0c1.516 0 2.728.456 3.635 1.37.913.912 1.37 2.132 1.37 3.66v.878h-7.21c.075.724.336 1.266.784 1.628.448.362 1.074.543 1.878.543.649 0 1.312-.095 1.99-.285a10.382 10.382 0 0 0 2.1-.878v2.377a13.02 13.02 0 0 1-2.187.62 11.3 11.3 0 0 1-2.187.216c-1.746 0-3.104-.443-4.075-1.327-.964-.89-1.446-2.136-1.446-3.738 0-1.573.473-2.81 1.42-3.712.954-.901 2.263-1.352 3.928-1.352zm11.955 0c1.516 0 2.727.456 3.634 1.37.913.912 1.37 2.132 1.37 3.66v.878h-7.21c.075.724.337 1.266.785 1.628.448.362 1.073.543 1.877.543.649 0 1.312-.095 1.99-.285a10.386 10.386 0 0 0 2.101-.878v2.377c-.729.276-1.458.482-2.188.62a11.3 11.3 0 0 1-2.187.216c-1.746 0-3.103-.443-4.074-1.327-.964-.89-1.447-2.136-1.447-3.738 0-1.573.474-2.81 1.421-3.712.954-.901 2.263-1.352 3.928-1.352zm13.625 0c.103 0 .215.006.336.017.12.006.296.023.525.052l.01 2.79a3.749 3.749 0 0 0-.81-.275 3.432 3.432 0 0 0-.801-.095c-.793 0-1.404.256-1.835.767-.425.505-.637 1.231-.637 2.179v4.444h-3.084v-9.647h3.084v1.585c.396-.631.85-1.09 1.36-1.378.517-.293 1.134-.439 1.852-.439zm8.432 0c.666 0 1.255.16 1.766.482.51.322.898.773 1.162 1.352.39-.597.853-1.05 1.387-1.36a3.45 3.45 0 0 1 1.774-.474c1.108 0 1.952.341 2.532 1.025.58.683.87 1.676.87 2.98v5.874h-3.1v-5.03c.006-.075.008-.152.008-.233.006-.08.009-.195.009-.344 0-.683-.1-1.177-.302-1.482-.2-.31-.525-.465-.973-.465-.586 0-1.04.242-1.36.724-.317.482-.48 1.18-.492 2.093v4.737h-3.1v-5.03c0-1.068-.092-1.754-.276-2.059-.183-.31-.51-.465-.982-.465-.591 0-1.047.245-1.369.733-.322.482-.483 1.174-.483 2.075v4.746h-3.1v-9.647h3.1v1.413c.38-.546.813-.956 1.301-1.232a3.283 3.283 0 0 1 1.628-.413zm16.493 0c1.74 0 2.995.344 3.764 1.033.775.684 1.163 1.798 1.163 3.342v5.504h-3.11v-1.43c-.413.586-.878 1.013-1.395 1.283-.517.264-1.145.397-1.886.397-1 0-1.811-.29-2.437-.87-.62-.586-.93-1.344-.93-2.274 0-1.131.387-1.961 1.162-2.49.781-.527 2.004-.791 3.67-.791h1.816v-.242c0-.488-.192-.844-.576-1.068-.385-.23-.985-.344-1.8-.344-.661 0-1.275.066-1.843.198a6.315 6.315 0 0 0-1.585.594v-2.351c.66-.16 1.323-.281 1.99-.362.665-.086 1.331-.129 1.997-.129zm14.09 0c1.19 0 2.165.474 2.93 1.421.763.942 1.145 2.156 1.145 3.643 0 1.487-.382 2.705-1.146 3.652-.764.942-1.74 1.413-2.928 1.413-.672 0-1.267-.133-1.783-.397-.517-.27-.988-.686-1.413-1.248v5.064h-3.083V86.208h3.083v1.413c.425-.563.896-.976 1.413-1.24.516-.27 1.11-.405 1.783-.405zm10.07 0c.568 0 1.164.043 1.79.13.626.085 1.307.22 2.042.404v2.343a11.53 11.53 0 0 0-1.913-.62 7.96 7.96 0 0 0-1.739-.207c-.586 0-1.022.074-1.31.224-.28.143-.421.367-.421.672 0 .246.106.436.318.568.218.132.606.23 1.163.293l.543.077c1.579.201 2.641.531 3.186.99.546.46.818 1.18.818 2.163 0 1.028-.378 1.8-1.136 2.316-.758.517-1.89.776-3.393.776a13.25 13.25 0 0 1-1.982-.156 16.491 16.491 0 0 1-2.093-.448V93.16a8.92 8.92 0 0 0 1.887.672 8.77 8.77 0 0 0 1.972.224c.603 0 1.056-.084 1.36-.25.305-.167.457-.413.457-.74 0-.276-.106-.48-.318-.612-.207-.138-.624-.244-1.25-.319l-.542-.069c-1.372-.172-2.334-.49-2.885-.956-.551-.465-.827-1.171-.827-2.119 0-1.022.35-1.78 1.05-2.274.701-.493 1.775-.74 3.222-.74zm-74.682 2.05c-.597 0-1.083.17-1.456.508-.373.333-.606.815-.697 1.447h4.005c0-.586-.173-1.056-.517-1.412-.339-.362-.784-.543-1.335-.543zm11.954 0c-.597 0-1.082.17-1.455.508-.373.333-.606.815-.698 1.447H388c0-.586-.172-1.056-.516-1.412-.34-.362-.785-.543-1.336-.543zm-24.072.19c-.66 0-1.169.243-1.525.731-.35.483-.525 1.18-.525 2.093s.175 1.614.525 2.102c.356.482.865.723 1.525.723.66 0 1.163-.24 1.507-.723.35-.482.525-1.183.525-2.102 0-.918-.175-1.62-.525-2.101-.344-.483-.847-.724-1.507-.724zm75.585 0c-.66 0-1.168.243-1.524.731-.35.483-.526 1.18-.526 2.093s.176 1.614.526 2.102c.356.482.864.723 1.524.723s1.163-.24 1.507-.723c.35-.482.526-1.183.526-2.102 0-.918-.175-1.62-.526-2.101-.344-.483-.846-.724-1.507-.724zm-12.73 3.298c-.643 0-1.127.109-1.455.327-.321.218-.482.54-.482.965 0 .39.129.697.387.921.264.219.629.328 1.094.328.58 0 1.068-.207 1.464-.62.396-.42.594-.942.594-1.568v-.353z" fill="url(#E)"/><path d="M265.25 63.431a48.56 48.56 0 0 0-9.913 29.3 48.56 48.56 0 0 0 10.065 29.547h12.187a39.601 39.601 0 0 1-13.292-29.546 39.601 39.601 0 0 1 13.027-29.3zm65.22 0a39.601 39.601 0 0 1 13.029 29.3 39.601 39.601 0 0 1-13.306 29.547h12.167a48.56 48.56 0 0 0 10.099-29.546 48.56 48.56 0 0 0-9.89-29.3z" fill="url(#F)"/><path d="M277.324 63.431a39.601 39.601 0 0 0-13.027 29.3 39.601 39.601 0 0 0 13.292 29.547h13.164a32.144 32.144 0 0 1-18.622-29.122 32.144 32.144 0 0 1 19.971-29.725zm39.146 0a32.144 32.144 0 0 1 19.95 29.725 32.144 32.144 0 0 1-18.624 29.122h12.397a39.601 39.601 0 0 0 13.306-29.546 39.601 39.601 0 0 0-13.029-29.3z" opacity=".651" fill="url(#G)"/><path d="M247.782 63.431v58.847h17.62a48.56 48.56 0 0 1-10.065-29.546 48.56 48.56 0 0 1 9.912-29.3zm94.788 0a48.56 48.56 0 0 1 9.889 29.3 48.56 48.56 0 0 1-10.1 29.547h194.11V63.43zm20.651 22.545c1.189 0 2.165.474 2.928 1.421.764.942 1.146 2.156 1.146 3.643 0 1.487-.382 2.705-1.146 3.652-.763.942-1.739 1.413-2.928 1.413-.671 0-1.266-.133-1.782-.397-.517-.27-.988-.686-1.413-1.248v5.064h-3.083V86.208h3.083v1.413c.425-.563.896-.976 1.413-1.24.516-.27 1.11-.405 1.782-.405zm10.99 0c1.516 0 2.728.456 3.635 1.37.913.912 1.37 2.132 1.37 3.66v.878h-7.21c.075.724.336 1.266.784 1.628.448.362 1.074.543 1.878.543.649 0 1.312-.095 1.99-.285a10.382 10.382 0 0 0 2.1-.878v2.377a13.02 13.02 0 0 1-2.187.62 11.3 11.3 0 0 1-2.187.216c-1.746 0-3.104-.443-4.075-1.327-.964-.89-1.446-2.136-1.446-3.738 0-1.573.473-2.81 1.42-3.712.954-.901 2.263-1.352 3.928-1.352zm11.955 0c1.516 0 2.727.456 3.634 1.37.913.912 1.37 2.132 1.37 3.66v.878h-7.21c.075.724.337 1.266.785 1.628.448.362 1.073.543 1.877.543.649 0 1.312-.095 1.99-.285a10.386 10.386 0 0 0 2.101-.878v2.377c-.729.276-1.458.482-2.188.62a11.3 11.3 0 0 1-2.187.216c-1.746 0-3.103-.443-4.074-1.327-.964-.89-1.447-2.136-1.447-3.738 0-1.573.474-2.81 1.421-3.712.954-.901 2.263-1.352 3.928-1.352zm13.625 0c.103 0 .215.006.336.017.12.006.296.023.525.052l.01 2.79a3.749 3.749 0 0 0-.81-.275 3.432 3.432 0 0 0-.801-.095c-.793 0-1.404.256-1.835.767-.425.505-.637 1.231-.637 2.179v4.444h-3.084v-9.647h3.084v1.585c.396-.631.85-1.09 1.36-1.378.517-.293 1.134-.439 1.852-.439zm8.432 0c.666 0 1.255.16 1.766.482.51.322.898.773 1.162 1.352.39-.597.853-1.05 1.387-1.36a3.45 3.45 0 0 1 1.774-.474c1.108 0 1.952.341 2.532 1.025.58.683.87 1.676.87 2.98v5.874h-3.1v-5.03c.006-.075.008-.152.008-.233.006-.08.009-.195.009-.344 0-.683-.1-1.177-.302-1.482-.2-.31-.525-.465-.973-.465-.586 0-1.04.242-1.36.724-.317.482-.48 1.18-.492 2.093v4.737h-3.1v-5.03c0-1.068-.092-1.754-.276-2.059-.183-.31-.51-.465-.982-.465-.591 0-1.047.245-1.369.733-.322.482-.483 1.174-.483 2.075v4.746h-3.1v-9.647h3.1v1.413c.38-.546.813-.956 1.301-1.232a3.283 3.283 0 0 1 1.628-.413zm16.493 0c1.74 0 2.995.344 3.764 1.033.775.684 1.163 1.798 1.163 3.342v5.504h-3.11v-1.43c-.413.586-.878 1.013-1.395 1.283-.517.264-1.145.397-1.886.397-1 0-1.811-.29-2.437-.87-.62-.586-.93-1.344-.93-2.274 0-1.131.387-1.961 1.162-2.49.781-.527 2.004-.791 3.67-.791h1.816v-.242c0-.488-.192-.844-.576-1.068-.385-.23-.985-.344-1.8-.344-.661 0-1.275.066-1.843.198a6.315 6.315 0 0 0-1.585.594v-2.351c.66-.16 1.323-.281 1.99-.362.665-.086 1.331-.129 1.997-.129zm14.09 0c1.19 0 2.165.474 2.93 1.421.763.942 1.145 2.156 1.145 3.643 0 1.487-.382 2.705-1.146 3.652-.764.942-1.74 1.413-2.928 1.413-.672 0-1.267-.133-1.783-.397-.517-.27-.988-.686-1.413-1.248v5.064h-3.083V86.208h3.083v1.413c.425-.563.896-.976 1.413-1.24.516-.27 1.11-.405 1.783-.405zm10.07 0c.568 0 1.164.043 1.79.13.626.085 1.307.22 2.042.404v2.343a11.53 11.53 0 0 0-1.913-.62 7.96 7.96 0 0 0-1.739-.207c-.586 0-1.022.074-1.31.224-.28.143-.421.367-.421.672 0 .246.106.436.318.568.218.132.606.23 1.163.293l.543.077c1.579.201 2.641.531 3.186.99.546.46.818 1.18.818 2.163 0 1.028-.378 1.8-1.136 2.316-.758.517-1.89.776-3.393.776a13.25 13.25 0 0 1-1.982-.156 16.491 16.491 0 0 1-2.093-.448V93.16a8.92 8.92 0 0 0 1.887.672 8.77 8.77 0 0 0 1.972.224c.603 0 1.056-.084 1.36-.25.305-.167.457-.413.457-.74 0-.276-.106-.48-.318-.612-.207-.138-.624-.244-1.25-.319l-.542-.069c-1.372-.172-2.334-.49-2.885-.956-.551-.465-.827-1.171-.827-2.119 0-1.022.35-1.78 1.05-2.274.701-.493 1.775-.74 3.222-.74zm-74.682 2.05c-.597 0-1.083.17-1.456.508-.373.333-.606.815-.697 1.447h4.005c0-.586-.173-1.056-.517-1.412-.339-.362-.784-.543-1.335-.543zm11.954 0c-.597 0-1.082.17-1.455.508-.373.333-.606.815-.698 1.447H388c0-.586-.172-1.056-.516-1.412-.34-.362-.785-.543-1.336-.543zm-24.072.19c-.66 0-1.169.243-1.525.731-.35.483-.525 1.18-.525 2.093s.175 1.614.525 2.102c.356.482.865.723 1.525.723.66 0 1.163-.24 1.507-.723.35-.482.525-1.183.525-2.102 0-.918-.175-1.62-.525-2.101-.344-.483-.847-.724-1.507-.724zm75.585 0c-.66 0-1.168.243-1.524.731-.35.483-.526 1.18-.526 2.093s.176 1.614.526 2.102c.356.482.864.723 1.524.723s1.163-.24 1.507-.723c.35-.482.526-1.183.526-2.102 0-.918-.175-1.62-.526-2.101-.344-.483-.846-.724-1.507-.724zm-12.73 3.298c-.643 0-1.127.109-1.455.327-.321.218-.482.54-.482.965 0 .39.129.697.387.921.264.219.629.328 1.094.328.58 0 1.068-.207 1.464-.62.396-.42.594-.942.594-1.568v-.353z" fill="url(#H)"/><path d="M247.782 63.431v58.847h17.62a48.56 48.56 0 0 1-10.065-29.546 48.56 48.56 0 0 1 9.912-29.3zm94.788 0a48.56 48.56 0 0 1 9.889 29.3 48.56 48.56 0 0 1-10.1 29.547h194.11V63.43zm20.651 22.545c1.189 0 2.165.474 2.928 1.421.764.942 1.146 2.156 1.146 3.643 0 1.487-.382 2.705-1.146 3.652-.763.942-1.739 1.413-2.928 1.413-.671 0-1.266-.133-1.782-.397-.517-.27-.988-.686-1.413-1.248v5.064h-3.083V86.208h3.083v1.413c.425-.563.896-.976 1.413-1.24.516-.27 1.11-.405 1.782-.405zm10.99 0c1.516 0 2.728.456 3.635 1.37.913.912 1.37 2.132 1.37 3.66v.878h-7.21c.075.724.336 1.266.784 1.628.448.362 1.074.543 1.878.543.649 0 1.312-.095 1.99-.285a10.382 10.382 0 0 0 2.1-.878v2.377a13.02 13.02 0 0 1-2.187.62 11.3 11.3 0 0 1-2.187.216c-1.746 0-3.104-.443-4.075-1.327-.964-.89-1.446-2.136-1.446-3.738 0-1.573.473-2.81 1.42-3.712.954-.901 2.263-1.352 3.928-1.352zm11.955 0c1.516 0 2.727.456 3.634 1.37.913.912 1.37 2.132 1.37 3.66v.878h-7.21c.075.724.337 1.266.785 1.628.448.362 1.073.543 1.877.543.649 0 1.312-.095 1.99-.285a10.386 10.386 0 0 0 2.101-.878v2.377c-.729.276-1.458.482-2.188.62a11.3 11.3 0 0 1-2.187.216c-1.746 0-3.103-.443-4.074-1.327-.964-.89-1.447-2.136-1.447-3.738 0-1.573.474-2.81 1.421-3.712.954-.901 2.263-1.352 3.928-1.352zm13.625 0c.103 0 .215.006.336.017.12.006.296.023.525.052l.01 2.79a3.749 3.749 0 0 0-.81-.275 3.432 3.432 0 0 0-.801-.095c-.793 0-1.404.256-1.835.767-.425.505-.637 1.231-.637 2.179v4.444h-3.084v-9.647h3.084v1.585c.396-.631.85-1.09 1.36-1.378.517-.293 1.134-.439 1.852-.439zm8.432 0c.666 0 1.255.16 1.766.482.51.322.898.773 1.162 1.352.39-.597.853-1.05 1.387-1.36a3.45 3.45 0 0 1 1.774-.474c1.108 0 1.952.341 2.532 1.025.58.683.87 1.676.87 2.98v5.874h-3.1v-5.03c.006-.075.008-.152.008-.233.006-.08.009-.195.009-.344 0-.683-.1-1.177-.302-1.482-.2-.31-.525-.465-.973-.465-.586 0-1.04.242-1.36.724-.317.482-.48 1.18-.492 2.093v4.737h-3.1v-5.03c0-1.068-.092-1.754-.276-2.059-.183-.31-.51-.465-.982-.465-.591 0-1.047.245-1.369.733-.322.482-.483 1.174-.483 2.075v4.746h-3.1v-9.647h3.1v1.413c.38-.546.813-.956 1.301-1.232a3.283 3.283 0 0 1 1.628-.413zm16.493 0c1.74 0 2.995.344 3.764 1.033.775.684 1.163 1.798 1.163 3.342v5.504h-3.11v-1.43c-.413.586-.878 1.013-1.395 1.283-.517.264-1.145.397-1.886.397-1 0-1.811-.29-2.437-.87-.62-.586-.93-1.344-.93-2.274 0-1.131.387-1.961 1.162-2.49.781-.527 2.004-.791 3.67-.791h1.816v-.242c0-.488-.192-.844-.576-1.068-.385-.23-.985-.344-1.8-.344-.661 0-1.275.066-1.843.198a6.315 6.315 0 0 0-1.585.594v-2.351c.66-.16 1.323-.281 1.99-.362.665-.086 1.331-.129 1.997-.129zm14.09 0c1.19 0 2.165.474 2.93 1.421.763.942 1.145 2.156 1.145 3.643 0 1.487-.382 2.705-1.146 3.652-.764.942-1.74 1.413-2.928 1.413-.672 0-1.267-.133-1.783-.397-.517-.27-.988-.686-1.413-1.248v5.064h-3.083V86.208h3.083v1.413c.425-.563.896-.976 1.413-1.24.516-.27 1.11-.405 1.783-.405zm10.07 0c.568 0 1.164.043 1.79.13.626.085 1.307.22 2.042.404v2.343a11.53 11.53 0 0 0-1.913-.62 7.96 7.96 0 0 0-1.739-.207c-.586 0-1.022.074-1.31.224-.28.143-.421.367-.421.672 0 .246.106.436.318.568.218.132.606.23 1.163.293l.543.077c1.579.201 2.641.531 3.186.99.546.46.818 1.18.818 2.163 0 1.028-.378 1.8-1.136 2.316-.758.517-1.89.776-3.393.776a13.25 13.25 0 0 1-1.982-.156 16.491 16.491 0 0 1-2.093-.448V93.16a8.92 8.92 0 0 0 1.887.672 8.77 8.77 0 0 0 1.972.224c.603 0 1.056-.084 1.36-.25.305-.167.457-.413.457-.74 0-.276-.106-.48-.318-.612-.207-.138-.624-.244-1.25-.319l-.542-.069c-1.372-.172-2.334-.49-2.885-.956-.551-.465-.827-1.171-.827-2.119 0-1.022.35-1.78 1.05-2.274.701-.493 1.775-.74 3.222-.74zm-74.682 2.05c-.597 0-1.083.17-1.456.508-.373.333-.606.815-.697 1.447h4.005c0-.586-.173-1.056-.517-1.412-.339-.362-.784-.543-1.335-.543zm11.954 0c-.597 0-1.082.17-1.455.508-.373.333-.606.815-.698 1.447H388c0-.586-.172-1.056-.516-1.412-.34-.362-.785-.543-1.336-.543zm-24.072.19c-.66 0-1.169.243-1.525.731-.35.483-.525 1.18-.525 2.093s.175 1.614.525 2.102c.356.482.865.723 1.525.723.66 0 1.163-.24 1.507-.723.35-.482.525-1.183.525-2.102 0-.918-.175-1.62-.525-2.101-.344-.483-.847-.724-1.507-.724zm75.585 0c-.66 0-1.168.243-1.524.731-.35.483-.526 1.18-.526 2.093s.176 1.614.526 2.102c.356.482.864.723 1.524.723s1.163-.24 1.507-.723c.35-.482.526-1.183.526-2.102 0-.918-.175-1.62-.526-2.101-.344-.483-.846-.724-1.507-.724zm-12.73 3.298c-.643 0-1.127.109-1.455.327-.321.218-.482.54-.482.965 0 .39.129.697.387.921.264.219.629.328 1.094.328.58 0 1.068-.207 1.464-.62.396-.42.594-.942.594-1.568v-.353z" fill="url(#I)"/><path d="M265.25 63.431a48.56 48.56 0 0 0-9.913 29.3 48.56 48.56 0 0 0 10.065 29.547h12.187a39.601 39.601 0 0 1-13.292-29.546 39.601 39.601 0 0 1 13.027-29.3zm65.22 0a39.601 39.601 0 0 1 13.029 29.3 39.601 39.601 0 0 1-13.306 29.547h12.167a48.56 48.56 0 0 0 10.099-29.546 48.56 48.56 0 0 0-9.89-29.3z" fill="url(#J)"/><path d="M277.324 63.431a39.601 39.601 0 0 0-13.027 29.3 39.601 39.601 0 0 0 13.292 29.547h13.164a32.144 32.144 0 0 1-18.622-29.122 32.144 32.144 0 0 1 19.971-29.725zm39.146 0a32.144 32.144 0 0 1 19.95 29.725 32.144 32.144 0 0 1-18.624 29.122h12.397a39.601 39.601 0 0 0 13.306-29.546 39.601 39.601 0 0 0-13.029-29.3z" opacity=".651" fill="url(#K)"/><path d="M265.25 63.431a48.56 48.56 0 0 0-9.913 29.3 48.56 48.56 0 0 0 10.065 29.547h12.187a39.601 39.601 0 0 1-13.292-29.546 39.601 39.601 0 0 1 13.027-29.3zm65.22 0a39.601 39.601 0 0 1 13.029 29.3 39.601 39.601 0 0 1-13.306 29.547h12.167a48.56 48.56 0 0 0 10.099-29.546 48.56 48.56 0 0 0-9.89-29.3z" fill="url(#L)"/><path d="M277.324 63.431a39.601 39.601 0 0 0-13.027 29.3 39.601 39.601 0 0 0 13.292 29.547h13.164a32.144 32.144 0 0 1-18.622-29.122 32.144 32.144 0 0 1 19.971-29.725zm39.146 0a32.144 32.144 0 0 1 19.95 29.725 32.144 32.144 0 0 1-18.624 29.122h12.397a39.601 39.601 0 0 0 13.306-29.546 39.601 39.601 0 0 0-13.029-29.3z" fill="url(#M)"/><path transform="scale(.26458)" d="M1002.518 239.74a183.536 183.536 0 0 0-37.463 110.742 183.536 183.536 0 0 0 38.039 111.67h46.062a149.673 149.673 0 0 1-50.238-111.67 149.673 149.673 0 0 1 49.234-110.742zm246.503 0a149.673 149.673 0 0 1 49.243 110.742 149.673 149.673 0 0 1-50.291 111.67h45.986a183.536 183.536 0 0 0 38.168-111.67 183.536 183.536 0 0 0-37.375-110.742z" fill="url(#u)"/><path transform="scale(.26458)" d="M1048.152 239.74a149.673 149.673 0 0 0-49.234 110.742 149.673 149.673 0 0 0 50.238 111.67h49.754a121.49 121.49 0 0 1-70.383-110.066 121.49 121.49 0 0 1 75.48-112.346zm147.955 0a121.49 121.49 0 0 1 75.4 112.346 121.49 121.49 0 0 1-70.388 110.066h46.854a149.673 149.673 0 0 0 50.29-111.67 149.673 149.673 0 0 0-49.242-110.742z" fill="url(#w)"/></g><g fill-rule="evenodd"><path d="M328.048 189.51l.071 28.15-.04.028-4.833-3.282-9.421-6.396-.224-.224.09.133-.28-.19.464.46 6.395 9.42-25.055 4.71h-.06l.03.006-.055.01h.11l25.143 4.743 3.177-4.623 4.413-.05-4.413.05-9.908 14.42-.107.108.062-.043-.022.033.057-.057 14.347-9.88-4.52 3.112 4.6 24.99.01-3.402.012 3.426 4.587-25.063 9.983 6.785.155.155-.064-.093.066.045-.111-.111-6.728-9.842 25.051-4.703-12.668-.02h12.694l-24.98-4.67 6.542-9.74.153-.153-.093.063.044-.064-.106.106-9.725 6.576zm0 0l-4.802 24.897 4.764 3.234zm10.17 22.781l-4.804 4.843-.009-.045-3.76 3.747zm-5.384 5.428l-4.53 4.567 4.513-4.55.016-.016z" fill="url(#N)" transform="translate(-324.136 -143.796)"/><path d="M328.048 189.51l.071 28.15-.04.028-4.833-3.282-9.421-6.396-.224-.224.09.133-.28-.19.464.46 6.395 9.42-25.055 4.71h-.06l.03.006-.055.01h.11l25.143 4.743 3.177-4.623 4.413-.05-4.413.05-9.908 14.42-.107.108.062-.043-.022.033.057-.057 14.347-9.88-4.52 3.112 4.6 24.99.01-3.402.012 3.426 4.587-25.063 9.983 6.785.155.155-.064-.093.066.045-.111-.111-6.728-9.842 25.051-4.703-12.668-.02h12.694l-24.98-4.67 6.542-9.74.153-.153-.093.063.044-.064-.106.106-9.725 6.576zm0 0l-4.802 24.897 4.764 3.234zm10.17 22.781l-4.804 4.843-.009-.045-3.76 3.747zm-5.384 5.428l-4.53 4.567 4.513-4.55.016-.016z" fill="url(#O)" transform="translate(-324.136 -143.796)"/><path d="M328.048 189.51l.071 28.15 2.195-1.483 2.576-1.742zm-14.637 18.22l.464.46-.184-.27zm29.31.022l-.106.106.063-.042zm-.104.154l-4.382 4.368-4.821 4.86-.009-.045-3.76 3.747 3.171-3.1.017-.016h.003l-4.53 4.567-.032.031h-.114l-.014.015.071.07 4.63.054 3.132 4.583 25.052-4.703-12.668-.019h-15.424l.016-.023 3.122-4.648zm-28.792.104l14.275 14.275h.03l-.051-4.597-4.833-3.281zm6.445 9.6l-25.055 4.709 28.232-.029zm-25.085 4.715l-.056.01h.111zm32.945.078v.087l-.044 3.95-.006.535.07.048 4.528 3.077 9.983 6.786-14.472-14.483zm-.158.003l-4.413.05-9.908 14.42 14.321-14.399zm.016 4.632l-4.52 3.112 4.6 24.99.01-3.403zm14.718 9.843l.045.067.066.045zm-29.065.035l-.034.024-.023.033z" fill="url(#P)" transform="translate(-324.136 -143.796)"/></g><g transform="translate(-202.471 -247.371)" id="ab" clip-path="url(#Q)"><path d="M213.736 276.9l-2.728.306a32.144 32.144 0 0 0-14.118 13.69 17.866 17.866 0 0 1 11.289-4.033 17.866 17.866 0 0 1 9.091 2.51l.227-1.183-.727-.418.727-1.972-.727-2.29-2.072-.308-3.844.517-2.699-2.18 2.8-2.49-2.39 2.49 2.289 1.562 3.217-.417-.209-1.663 2.699-.418.318-1.036.827.827.209-1.454.244-.01c-.322-.17-.65-.337-.983-.501l-.615.72-.1-.827-1.663.208v-.935l-2.28.935-2.5-.208 4.78-.937.014-.042c-.354-.15-.712-.298-1.076-.442zm16.283 12.069l.355 1.193.5.068a28.938 28.938 0 0 0-.855-1.261zm5.418 17.221l-.283.275.26.937c.015-.404.023-.807.023-1.212zm-4.127.375l-.418 1.045-1.763-.727-2.6.618-.408 1.972-.418 3.017 1.145 1.345 2.181.318.727-1.663 2.699-.209-2.081 3.944 1.872-.409 1.552.679c.447-1.395.81-2.824 1.08-4.277l-1.282-.248 1.395-.407c.088-.532.163-1.067.226-1.604l-.272-.068-.936-2.599zm-7.83 7.346a17.866 17.866 0 0 1-15.301 8.684 17.866 17.866 0 0 1-13.256-5.92 32.144 32.144 0 0 0 19.285 19.511c7.887-1.449 14.66-7.971 18.322-16.334l-.184-.092-1.454-2.181-1.554-.209-2.281-2.281-1.254.518zm9.945 3.685l-.661 1.437.09.056c.201-.492.39-.99.57-1.493zm-19.098 18.638a32.144 32.144 0 0 0 2.174.679 32.144 32.144 0 0 1-2.174-.679zm3.117.952a32.144 32.144 0 0 0 2.009.413 32.144 32.144 0 0 1-2.01-.413zm3.19.632a32.144 32.144 0 0 0 1.83.188 32.144 32.144 0 0 1-1.83-.188zm3.366.316a32.144 32.144 0 0 0 1.21.033 32.144 32.144 0 0 1-1.21-.033z" opacity=".5" fill="url(#R)" stroke-width=".265" stroke-linecap="round" stroke-linejoin="bevel" stroke-opacity="0"/><path transform="matrix(.26458 0 0 .26458 -79.065 212.867)" d="M1150.018 230.596a121.49 121.49 0 0 0-7.22.256l-3.077 5.923-13.362 3.16-9.033 10.579-.377-3.125-6.287.789v-3.537l-8.619 3.537-9.445-.79 18.064-3.538.791-2.37-15.113 1.692a121.49 121.49 0 0 0-67.813 108.914 121.49 121.49 0 0 0 121.49 121.49 121.49 121.49 0 0 0 70.04-22.404c-12.814 8.971-27.43 15.545-43.21 19.053l-1.408-2.233 17.276-17.687-7.074-2.336-3.54-10.99-3.914-4.708 5.495-2.369-3.538-3.537 7.454-4.705 5.117-9.033-2.748-7.041-3.537 3.125-9.446-4.705-5.494-8.244-5.873-.79-8.62-8.62-4.741 1.957-18.822-13.739 1.959-3.537-9.825-17.654-1.168-8.242-3.537-3.537 1.168 7.453 6.285 14.906-2.748 1.58-4.705-8.244-4.328-6.662 2.748-.791-1.957-10.99-4.293-7.454-.79-16.486 8.243-14.527-1.203-7.453 1.58-8.244-2.748-1.58 2.748-7.454-2.748-8.654-7.83-1.168-14.53 1.957-10.198-8.242 10.578-9.41-9.033 9.41 8.654 5.906 12.16-1.578-.791-6.285 10.201-1.58 1.201-3.916 3.127 3.125.79-5.494 9.41-.38 6.285 9.034 14.117 9.033 12.982 3.125 3.916-5.496 7.453 9.412-2.37 6.697-7.042 3.125 2.336 7.866 5.908.79 8.621 4.294 1.168 6.697 4.327 1.168-2.334-7.076 4.293-1.957-6.664-6.664 3.125-.413-3.915-6.285 6.663.412 9.445 7.454.791-4.329 7.83 7.454 9.41 5.908 1.58 6.285 2.748-.412 3.537 5.496-7.865.789-1.168-9.033-.789 2.748-7.83.412-2.748 5.873 4.293-3.125.79 5.496 4.327 1.545 1.168-2.748 4.328 1.58-8.62 9.033v-5.496l-6.286 5.117 1.545 3.916-7.83 6.285.377 8.622-12.158 11.78 3.916 14.116-4.705-1.168-3.54-9.822-10.199-2.748-1.58 3.95-6.664-2.747-9.822 2.336-1.547 7.451-1.578 11.404 4.326 5.082 8.244 1.203 2.748-6.285 10.2-.79-7.866 14.906 7.076-1.545 6.286 2.748-4.329 9.41 6.286 3.916 6.285-1.58 3.539 4.328 2.334-7.076 9.824-5.496-1.959 7.865 1.58 1.168 3.127-7.041 3.537 3.127 10.201-2.748 6.662 6.285 9.034-1.58 1.957 7.453 10.992-2.748 5.396 1.701a121.49 121.49 0 0 0 14.149-56.746 121.49 121.49 0 0 0-121.49-121.49zm38.757 16.789l23.159 14.13-.786 7.85 7.46 12.56-11.776-4.318-5.104-9.812-7.85-3.533-3.532-5.102-7.067-1.57-2.353-9.422zm-9.812 2.353l.785 11.778-9.422-3.141 3.14-.393-2.355-6.28zm-26.3 5.496l7.458 6.674 3.14-1.57.393 7.064-10.207-1.57-1.568-4.316 4.316 1.568-2.748-3.139-5.494-.392zm20.804 7.067l10.597 1.568 14.524 10.992-4.316 1.961 1.568 5.889-12.168-4.711 4.71-1.96v-5.104l-7.849-1.57-.785 5.103-2.355-.785-.786-5.104zm45.926.783l3.14 4.71-5.496-1.177zm-28.262 108.73l11.383 8.243h-7.457l-1.178-3.139-12.17-2.355zm18.842 7.85l3.923 1.963-9.027 1.57.785-3.14zm25.418 58.791c-.557.544-1.115 1.086-1.682 1.62a121.49 121.49 0 0 0 1.682-1.62zm-7.84 7.03a122.177 122.177 0 0 1-5.334 4.144 121.49 121.49 0 0 0 5.334-4.145z" stroke-linecap="round" stroke-linejoin="bevel" stroke-opacity="0" opacity=".5" fill="url(#S)"/><path d="M223.072 274.386l-.586 1.128-3.535.836-1.775 2.079c.333.164.66.331.983.501l2.246-.09 1.663 2.39 3.735 2.39 3.435.827 1.036-1.455 1.972 2.49-.627 1.773-1.863.826.263.888c.298.416.584.836.855 1.26l1.063.143 2.28 1.136.31 1.772 1.145.309-.618-1.873 1.136-.517-1.763-1.764.826-.109-1.035-1.663 1.763.11 2.499 1.971.209-1.145 2.072 1.972 2.49 1.563.417 1.663.728-.109.211.33a29.453 29.453 0 0 0-4.36-7.7l-.004-.001-.006-.011a31.445 31.445 0 0 0-3.052-3.354l-.37-.166-.335-.485a34.442 34.442 0 0 0-1.147-.987l-1.322-.294-.227-.91c-.287-.21-.58-.42-.879-.626l.172 2.575-2.493-.83.83-.105-.622-1.662 1.521-.38c-2.647-1.763-5.712-3.343-9.24-4.697zm-8.065 2.373l-1.27.142c.363.144.721.292 1.075.442zm10.903 3.639l1.974 1.765.83-.415.105 1.87-2.7-.416-.416-1.142 1.142.415-.727-.83-1.454-.105zm5.505 1.87l2.804.414 3.843 2.909-1.143.518.415 1.558-3.219-1.246 1.246-.519v-1.35l-2.076-.416-.208 1.35-.623-.207-.208-1.35zm11.526 10.693l-.208.727-2.072.11-.727 1.553 1.136-.827.208 1.455 1.146.408.309-.727 1.145.418-2.281 2.39v-1.454l-1.663 1.354.409 1.036-2.072 1.663.1 2.281-2.934 2.842c0 .405-.008.808-.023 1.212l.776 2.798-.973-.241a33.872 33.872 0 0 1-.226 1.604l1.098-.32 3.011 2.18h-1.973l-.311-.83-1.939-.375a34.764 34.764 0 0 1-1.079 4.277l.11.048-.483 1.053c-.18.503-.37 1.001-.571 1.493l1.573.98 1.663-.418.936 1.145.617-1.872 2.6-1.454-.519 2.08.419.31.827-1.863.936.827 2.699-.727.24.228c2.197-7.544 2.682-15.695.177-23.151l-1.772.177zm-1.867 20.359l1.038.519-2.389.415.208-.83zm-8.544 6.532c-3.665 8.37-10.447 14.897-18.343 16.338a32.144 32.144 0 0 0 11.024 1.977 32.144 32.144 0 0 0 7.38-.953c-.094.022-.187.046-.282.067l-.372-.591 4.57-4.68-1.871-.618-.936-2.908-1.036-1.245 1.454-.627-.936-.936 1.972-1.245 1.354-2.39-.727-1.863-.936.827zm.062 17.362c.609-.142 1.211-.3 1.807-.477a32.144 32.144 0 0 1-1.807.477zm1.807-.477a32.144 32.144 0 0 0 1.044-.325c-.345.115-.694.222-1.044.325zm1.044-.325c.06-.02.12-.043.18-.064 0-.002.004-.003.005-.005a32.144 32.144 0 0 1-.185.068zm1.03-.363l-.17.06.17-.06z" opacity=".309" fill="url(#T)" stroke-width=".265" stroke-linecap="round" stroke-linejoin="bevel" stroke-opacity="0"/><path d="M225.21 273.879a32.144 32.144 0 0 0-1.91.067l-.228.44c3.529 1.353 6.595 2.934 9.242 4.696l.555-.139.036.542c.298.206.592.415.879.626l-.396-1.583 2.077-.207 6.128 3.739-.208 2.076 1.973 3.324-3.111-1.141a29.453 29.453 0 0 1 4.36 7.699l.724 1.125-.31.03c2.506 7.457 2.021 15.608-.175 23.152l1.522 1.435 2.39-.418.517 1.972 2.909-.727 1.428.45a32.144 32.144 0 0 0 3.743-15.014 32.144 32.144 0 0 0-32.144-32.144zm10.123 7.436c.394.324.776.653 1.147.986l-.6-.865zm8.233 1.16l.831 1.246-1.454-.312zm-6.38.478a31.447 31.447 0 0 1 3.051 3.353l-1.345-2.585zm10.613 45.922a32.34 32.34 0 0 1-.445.428 32.144 32.144 0 0 0 .445-.428zm-2.074 1.86a32.144 32.144 0 0 1-1.412 1.096c.481-.352.952-.718 1.412-1.096zm-2.467 1.835a32.144 32.144 0 0 1-2.233 1.376c.764-.43 1.509-.889 2.233-1.376zm-3.297 1.946a32.144 32.144 0 0 1-1.246.605c.42-.193.836-.395 1.246-.605zm-1.246.605c-.42.193-.848.376-1.279.552a32.144 32.144 0 0 0 1.28-.552zm-1.279.552a32.144 32.144 0 0 1-1.808.67c-.003.004-.005.008-.008.01a32.03 32.03 0 0 0 1.816-.68z" opacity=".279" fill="url(#U)" stroke-width=".265" stroke-linecap="round" stroke-linejoin="bevel" stroke-opacity="0"/><g transform="matrix(.2908 0 0 .2908 152.653 236.7)" opacity=".542" fill="url(#V)" stroke="#000" stroke-width=".91" stroke-opacity="0"><path d="M279.78 152.415l6.428 1.428 3.214 4.643 7.143 3.214 4.643 8.929 10.714 3.929-6.785-11.429.714-7.143-21.071-12.857-7.143.714zM291.208 175.272l-11.071-4.286 4.285-1.786v-4.642l-7.142-1.429-.715 4.643-2.143-.714-.714-4.643-2.857-5.715 9.643 1.429 13.214 10-3.928 1.786zM247.637 154.2l5 .358 2.5 2.857-3.929-1.429 1.429 3.929 9.285 1.428-.357-6.428-2.857 1.428-6.786-6.071zM275.851 145.272l-7.143 1.786 2.143 5.714-2.857.357 8.571 2.857zM243.427 127.164c-4.873.276-9.66.896-14.344 1.781l-17.969 5a109.79 109.79 0 0 0-12.593 5.594l15.906-1.781-.719 2.156-16.437 3.219 8.593.719 7.844-3.22v3.22l5.719-.72.344 2.845 8.218-9.625 12.157-2.875zM278.351 258.843l8.571-2.5 10.358 7.5h-6.786l-1.072-2.857zM299.422 266.7l8.215-1.428-3.572-1.786-3.928.357zM312.637 157.415l-2.143 3.214 5 1.071z"/><path d="M232.99 144.914l-8.563.344-.719 5-2.844-2.844-1.093 3.563-9.282 1.437.72 5.719-11.063 1.437-7.875-5.375 8.218-8.562-9.625 8.562 9.282 7.5 13.218-1.78 7.125 1.062 2.5 7.875-2.5 6.78 2.5 1.438-1.437 7.5 1.094 6.782-7.5 13.218.718 15 3.907 6.782 1.78 10-2.5.718 3.938 6.063 4.282 7.5 2.5-1.438-5.72-13.562-1.062-6.781 3.22 3.218 1.062 7.5 8.937 16.063-1.781 3.219 17.125 12.5 4.312-1.782 7.844 7.844 5.344.719 5 7.5 8.594 4.281 3.218-2.844 2.5 6.407-4.656 8.218-6.781 4.282 3.219 3.218-5 2.157 3.562 4.28 3.219 10 6.437 2.126-15.718 16.094 1.28 2.03c31.828-7.074 58.486-27.821 73.5-55.78l-5.155-1.625-10 2.5-1.782-6.782-8.218 1.438-6.063-5.719-9.281 2.5-3.219-2.844-2.844 6.407-1.437-1.063 1.781-7.156-8.937 5-2.125 6.437-3.22-3.937-5.718 1.437-5.719-3.562 3.938-8.563-5.719-2.5-6.437 1.407 7.156-13.563-9.281.719-2.5 5.719-7.5-1.094-3.938-4.625 1.438-10.375 1.406-6.781 8.937-2.125 6.063 2.5 1.437-3.594 9.282 2.5 3.218 8.937 4.282 1.063-3.563-12.844 11.063-10.719-.344-7.843 7.125-5.72-1.406-3.562 5.718-4.656v5l7.844-8.219-3.937-1.437-1.063 2.5-3.937-1.406-.72-5-3.905 2.843 2.5-5.343 7.125-.375.718-2.5 1.063 8.218 7.156-.718-3.219-5-2.5.375-1.437-5.72-8.563-5.374-7.125-6.781-.718 3.937-8.594-6.781-6.063-.375 3.563 5.719-2.844.375 6.063 6.062-3.907 1.781 2.125 6.438-3.937-1.063-1.063-6.093-7.843-3.907-5.375-.718-2.125-7.157 6.406-2.843 2.156-6.094-6.781-8.563-3.563 5-11.812-2.843-12.844-8.22z"/></g><g transform="matrix(.2908 0 0 .2908 152.141 236.553)" opacity=".748" fill="url(#W)" stroke="#000" stroke-width=".91" stroke-opacity="0"><path d="M279.78 152.415l6.428 1.428 3.214 4.643 7.143 3.214 4.643 8.929 10.714 3.929-6.785-11.429.714-7.143-21.071-12.857-7.143.714zM232.99 144.914l-8.563.344-.719 5-2.844-2.844-1.093 3.563-9.282 1.437.72 5.719-11.063 1.437-7.875-5.375 8.218-8.562-9.625 8.562 9.282 7.5 13.218-1.78 7.125 1.062 2.5 7.875-2.5 6.78 2.5 1.438-1.437 7.5 1.094 6.782-7.5 13.218.718 15 3.907 6.782 1.78 10-2.5.718 3.938 6.063 4.282 7.5 2.5-1.438-5.72-13.562-1.062-6.781 3.22 3.218 1.062 7.5 8.937 16.063-1.781 3.219 17.125 12.5 4.312-1.782 7.844 7.844 5.344.719 5 7.5 8.594 4.281 3.218-2.844 2.5 6.407-4.656 8.218-6.781 4.282 3.219 3.218-5 2.157 3.562 4.28 3.219 10 6.437 2.126-15.718 16.094 1.28 2.03c31.828-7.074 58.486-27.821 73.5-55.78l-5.155-1.625-10 2.5-1.782-6.782-8.218 1.438-6.063-5.719-9.281 2.5-3.219-2.844-2.844 6.407-1.437-1.063 1.781-7.156-8.937 5-2.125 6.437-3.22-3.937-5.718 1.437-5.719-3.562 3.938-8.563-5.719-2.5-6.437 1.407 7.156-13.563-9.281.719-2.5 5.719-7.5-1.094-3.938-4.625 1.438-10.375 1.406-6.781 8.937-2.125 6.063 2.5 1.437-3.594 9.282 2.5 3.218 8.937 4.282 1.063-3.563-12.844 11.063-10.719-.344-7.843 7.125-5.72-1.406-3.562 5.718-4.656v5l7.844-8.219-3.937-1.437-1.063 2.5-3.937-1.406-.72-5-3.905 2.843 2.5-5.343 7.125-.375.718-2.5 1.063 8.218 7.156-.718-3.219-5-2.5.375-1.437-5.72-8.563-5.374-7.125-6.781-.718 3.937-8.594-6.781-6.063-.375 3.563 5.719-2.844.375 6.063 6.062-3.907 1.781 2.125 6.438-3.937-1.063-1.063-6.093-7.843-3.907-5.375-.718-2.125-7.157 6.406-2.843 2.156-6.094-6.781-8.563-3.563 5-11.812-2.843-12.844-8.22z"/><path d="M291.208 175.272l-11.071-4.286 4.285-1.786v-4.642l-7.142-1.429-.715 4.643-2.143-.714-.714-4.643-2.857-5.715 9.643 1.429 13.214 10-3.928 1.786zM247.637 154.2l5 .358 2.5 2.857-3.929-1.429 1.429 3.929 9.285 1.428-.357-6.428-2.857 1.428-6.786-6.071zM275.851 145.272l-7.143 1.786 2.143 5.714-2.857.357 8.571 2.857zM243.427 127.164c-4.873.276-9.66.896-14.344 1.781l-17.969 5a109.79 109.79 0 0 0-12.593 5.594l15.906-1.781-.719 2.156-16.437 3.219 8.593.719 7.844-3.22v3.22l5.719-.72.344 2.845 8.218-9.625 12.157-2.875zM278.351 258.843l8.571-2.5 10.358 7.5h-6.786l-1.072-2.857zM299.422 266.7l8.215-1.428-3.572-1.786-3.928.357zM312.637 157.415l-2.143 3.214 5 1.071z"/></g><g transform="matrix(.2908 0 0 .2908 152.048 236.7)" opacity=".399" fill="url(#W)" stroke="#000" stroke-width=".91" stroke-opacity="0"><path d="M279.78 152.415l6.428 1.428 3.214 4.643 7.143 3.214 4.643 8.929 10.714 3.929-6.785-11.429.714-7.143-21.071-12.857-7.143.714zM232.99 144.914l-8.563.344-.719 5-2.844-2.844-1.093 3.563-9.282 1.437.72 5.719-11.063 1.437-7.875-5.375 8.218-8.562-9.625 8.562 9.282 7.5 13.218-1.78 7.125 1.062 2.5 7.875-2.5 6.78 2.5 1.438-1.437 7.5 1.094 6.782-7.5 13.218.718 15 3.907 6.782 1.78 10-2.5.718 3.938 6.063 4.282 7.5 2.5-1.438-5.72-13.562-1.062-6.781 3.22 3.218 1.062 7.5 8.937 16.063-1.781 3.219 17.125 12.5 4.312-1.782 7.844 7.844 5.344.719 5 7.5 8.594 4.281 3.218-2.844 2.5 6.407-4.656 8.218-6.781 4.282 3.219 3.218-5 2.157 3.562 4.28 3.219 10 6.437 2.126-15.718 16.094 1.28 2.03c31.828-7.074 58.486-27.821 73.5-55.78l-5.155-1.625-10 2.5-1.782-6.782-8.218 1.438-6.063-5.719-9.281 2.5-3.219-2.844-2.844 6.407-1.437-1.063 1.781-7.156-8.937 5-2.125 6.437-3.22-3.937-5.718 1.437-5.719-3.562 3.938-8.563-5.719-2.5-6.437 1.407 7.156-13.563-9.281.719-2.5 5.719-7.5-1.094-3.938-4.625 1.438-10.375 1.406-6.781 8.937-2.125 6.063 2.5 1.437-3.594 9.282 2.5 3.218 8.937 4.282 1.063-3.563-12.844 11.063-10.719-.344-7.843 7.125-5.72-1.406-3.562 5.718-4.656v5l7.844-8.219-3.937-1.437-1.063 2.5-3.937-1.406-.72-5-3.905 2.843 2.5-5.343 7.125-.375.718-2.5 1.063 8.218 7.156-.718-3.219-5-2.5.375-1.437-5.72-8.563-5.374-7.125-6.781-.718 3.937-8.594-6.781-6.063-.375 3.563 5.719-2.844.375 6.063 6.062-3.907 1.781 2.125 6.438-3.937-1.063-1.063-6.093-7.843-3.907-5.375-.718-2.125-7.157 6.406-2.843 2.156-6.094-6.781-8.563-3.563 5-11.812-2.843-12.844-8.22z"/><path d="M291.208 175.272l-11.071-4.286 4.285-1.786v-4.642l-7.142-1.429-.715 4.643-2.143-.714-.714-4.643-2.857-5.715 9.643 1.429 13.214 10-3.928 1.786zM247.637 154.2l5 .358 2.5 2.857-3.929-1.429 1.429 3.929 9.285 1.428-.357-6.428-2.857 1.428-6.786-6.071zM275.851 145.272l-7.143 1.786 2.143 5.714-2.857.357 8.571 2.857zM243.427 127.164c-4.873.276-9.66.896-14.344 1.781l-17.969 5a109.79 109.79 0 0 0-12.593 5.594l15.906-1.781-.719 2.156-16.437 3.219 8.593.719 7.844-3.22v3.22l5.719-.72.344 2.845 8.218-9.625 12.157-2.875zM278.351 258.843l8.571-2.5 10.358 7.5h-6.786l-1.072-2.857zM299.422 266.7l8.215-1.428-3.572-1.786-3.928.357zM312.637 157.415l-2.143 3.214 5 1.071z"/></g><g transform="matrix(.2908 0 0 .2908 151.414 236.762)" opacity=".748" fill="url(#V)" stroke="#000" stroke-width=".91" stroke-opacity="0"><path d="M279.78 152.415l6.428 1.428 3.214 4.643 7.143 3.214 4.643 8.929 10.714 3.929-6.785-11.429.714-7.143-21.071-12.857-7.143.714zM291.208 175.272l-11.071-4.286 4.285-1.786v-4.642l-7.142-1.429-.715 4.643-2.143-.714-.714-4.643-2.857-5.715 9.643 1.429 13.214 10-3.928 1.786zM247.637 154.2l5 .358 2.5 2.857-3.929-1.429 1.429 3.929 9.285 1.428-.357-6.428-2.857 1.428-6.786-6.071zM275.851 145.272l-7.143 1.786 2.143 5.714-2.857.357 8.571 2.857zM243.427 127.164c-4.873.276-9.66.896-14.344 1.781l-17.969 5a109.79 109.79 0 0 0-12.593 5.594l15.906-1.781-.719 2.156-16.437 3.219 8.593.719 7.844-3.22v3.22l5.719-.72.344 2.845 8.218-9.625 12.157-2.875zM278.351 258.843l8.571-2.5 10.358 7.5h-6.786l-1.072-2.857zM299.422 266.7l8.215-1.428-3.572-1.786-3.928.357zM312.637 157.415l-2.143 3.214 5 1.071z"/><path d="M232.99 144.914l-8.563.344-.719 5-2.844-2.844-1.093 3.563-9.282 1.437.72 5.719-11.063 1.437-7.875-5.375 8.218-8.562-9.625 8.562 9.282 7.5 13.218-1.78 7.125 1.062 2.5 7.875-2.5 6.78 2.5 1.438-1.437 7.5 1.094 6.782-7.5 13.218.718 15 3.907 6.782 1.78 10-2.5.718 3.938 6.063 4.282 7.5 2.5-1.438-5.72-13.562-1.062-6.781 3.22 3.218 1.062 7.5 8.937 16.063-1.781 3.219 17.125 12.5 4.312-1.782 7.844 7.844 5.344.719 5 7.5 8.594 4.281 3.218-2.844 2.5 6.407-4.656 8.218-6.781 4.282 3.219 3.218-5 2.157 3.562 4.28 3.219 10 6.437 2.126-15.718 16.094 1.28 2.03c31.828-7.074 58.486-27.821 73.5-55.78l-5.155-1.625-10 2.5-1.782-6.782-8.218 1.438-6.063-5.719-9.281 2.5-3.219-2.844-2.844 6.407-1.437-1.063 1.781-7.156-8.937 5-2.125 6.437-3.22-3.937-5.718 1.437-5.719-3.562 3.938-8.563-5.719-2.5-6.437 1.407 7.156-13.563-9.281.719-2.5 5.719-7.5-1.094-3.938-4.625 1.438-10.375 1.406-6.781 8.937-2.125 6.063 2.5 1.437-3.594 9.282 2.5 3.218 8.937 4.282 1.063-3.563-12.844 11.063-10.719-.344-7.843 7.125-5.72-1.406-3.562 5.718-4.656v5l7.844-8.219-3.937-1.437-1.063 2.5-3.937-1.406-.72-5-3.905 2.843 2.5-5.343 7.125-.375.718-2.5 1.063 8.218 7.156-.718-3.219-5-2.5.375-1.437-5.72-8.563-5.374-7.125-6.781-.718 3.937-8.594-6.781-6.063-.375 3.563 5.719-2.844.375 6.063 6.062-3.907 1.781 2.125 6.438-3.937-1.063-1.063-6.093-7.843-3.907-5.375-.718-2.125-7.157 6.406-2.843 2.156-6.094-6.781-8.563-3.563 5-11.812-2.843-12.844-8.22z"/></g><path d="M221.244 274.164a32.144 32.144 0 0 0-2.196.338 32.144 32.144 0 0 1 2.196-.338zm-2.896.495a32.144 32.144 0 0 0-2.536.655 32.144 32.144 0 0 1 2.536-.655zm-5.718 1.82a32.144 32.144 0 0 0-1.458.709l2.558-.286a50.17 50.17 0 0 0-1.1-.423zm2.18.867l-.012.04-4.78.936 2.5.209 2.28-.936v.936l1.663-.21.1.828.614-.72c-.761-.375-1.55-.736-2.364-1.083zm3.348 1.584l-.243.01-.209 1.454-.827-.827-.318 1.036-2.699.418.21 1.663-3.218.418-2.29-1.563 2.39-2.49-2.799 2.49 2.699 2.18 3.844-.517 2.072.309.727 2.29-.727 1.972.727.418-.22 1.144a17.866 17.866 0 0 1 8.86 15.41 17.866 17.866 0 0 1-2.587 9.218l2.253 1.644 1.254-.518 2.281 2.281 1.554.209 1.454 2.181.175.088c.111-.253.222-.506.327-.762l-.084-.053.619-1.345c.142-.396.278-.795.406-1.197l-1.543-.675-1.872.41 2.08-3.945-2.698.21-.727 1.662-2.181-.318-1.145-1.345.418-3.017.409-1.971 2.599-.618 1.763.727.418-1.046 2.699.727.936 2.6.266.065c.1-.853.165-1.712.197-2.573l-.254-.919.278-.27c.006-5.466-1.384-11-4.563-15.966l-.495-.066-.352-1.184c-2.753-3.843-6.642-7.298-11.864-10.049zm16.822 32.636l-1.384.404 1.275.246c.04-.216.073-.433.11-.65zm17.002 12.205a32.144 32.144 0 0 1-.938 1.312 32.144 32.144 0 0 0 .938-1.312zm-1.906 2.585a32.144 32.144 0 0 1-1.062 1.21 32.144 32.144 0 0 0 1.062-1.21zm-2.155 2.382a32.144 32.144 0 0 1-1.182 1.102 32.144 32.144 0 0 0 1.182-1.102z" fill="url(#X)" stroke-width=".397" stroke-linecap="round" stroke-linejoin="bevel"/><path d="M211.008 277.206a32.144 32.144 0 0 0-14.117 13.688 32.144 32.144 0 0 1 14.117-13.688zm-2.83 9.657a17.866 17.866 0 0 0-11.288 4.032 32.144 32.144 0 0 0-3.824 15.128 32.144 32.144 0 0 0 1.857 10.653 17.866 17.866 0 0 0 13.256 5.919 17.866 17.866 0 0 0 15.3-8.684l-2.656-1.939.518-.936-2.6-4.67-.308-2.182-.936-.936.309 1.972 1.663 3.944-.727.418-1.245-2.18-1.145-1.764.727-.209-.518-2.908-1.136-1.972-.21-4.362 2.182-3.843-.318-1.972.191-.999a17.866 17.866 0 0 0-9.091-2.51zm-13.255 29.813a32.144 32.144 0 0 0 1.206 2.951 32.144 32.144 0 0 1-1.206-2.951zm1.234 3.01a32.144 32.144 0 0 0 1.458 2.75 32.144 32.144 0 0 1-1.458-2.75zm1.542 2.886a32.144 32.144 0 0 0 1.672 2.509 32.144 32.144 0 0 1-1.672-2.51zm1.829 2.715a32.144 32.144 0 0 0 1.85 2.25 32.144 32.144 0 0 1-1.85-2.25zm2.098 2.518a32.144 32.144 0 0 0 1.988 1.978 32.144 32.144 0 0 1-1.988-1.978zm46.173 1.07a32.144 32.144 0 0 1-.445.428c.15-.14.298-.284.445-.428zm-43.824 1.226a32.144 32.144 0 0 0 2.08 1.691 32.144 32.144 0 0 1-2.08-1.691zm2.58 2.049a32.144 32.144 0 0 0 2.126 1.402 32.144 32.144 0 0 1-2.127-1.402zm2.775 1.775a32.144 32.144 0 0 0 2.131 1.117 32.144 32.144 0 0 1-2.131-1.117zm2.953 1.485a32.144 32.144 0 0 0 2.085.84 32.144 32.144 0 0 1-2.085-.84zm23.341.938c-.06.02-.12.044-.18.064l.176-.059c.003-.002.003-.003.004-.005zm-20.24.24a32.144 32.144 0 0 0 1.996.58 32.144 32.144 0 0 1-1.996-.58zm3.2.85a32.144 32.144 0 0 0 1.88.348 32.144 32.144 0 0 1-1.88-.347zm3.277.518a32.144 32.144 0 0 0 1.938.161 32.144 32.144 0 0 1-1.938-.161z" opacity=".5" fill="url(#Y)" stroke-width=".265" stroke-linecap="round" stroke-linejoin="bevel" stroke-opacity="0"/><path d="M222.142 274.04a32.144 32.144 0 0 0-9.512 2.439c.372.137.738.28 1.1.423l1.277-.143-.196.587c.815.347 1.603.708 2.364 1.084l1.776-2.08 3.535-.836.583-1.12c-.308-.119-.612-.239-.927-.354zm-1.737 4.8l-2.247.09c5.222 2.75 9.111 6.205 11.864 10.048l-.266-.897 1.863-.826.627-1.772-1.972-2.49-1.036 1.453-3.435-.826-3.735-2.39zm11.897.245l-1.51.378.623 1.662-.831.104 2.493.83-.171-2.566c-.198-.137-.4-.273-.604-.408zm1.485 1.04l.224.896 1.31.29a36.36 36.36 0 0 0-1.534-1.185zm-7.877.273l-1.246 1.142 1.454.104.727.83-1.142-.414.415 1.142 2.7.415-.103-1.87-.831.416zm5.505 1.87l.83 1.66.209 1.351.623.208.208-1.35 2.076.415v1.35l-1.246.52 3.22 1.245-.416-1.558 1.143-.518-3.843-2.909zm5.087.066l.314.452.346.156a33.57 33.57 0 0 0-.66-.609zm-2.284 5.33l1.035 1.662-.826.11 1.763 1.763-1.136.517.617 1.873-1.144-.31-.31-1.771-2.28-1.136-1.068-.143c3.18 4.966 4.569 10.5 4.563 15.967l2.939-2.848-.1-2.28 2.071-1.664-.408-1.036 1.663-1.354v1.454l2.28-2.39-1.144-.418-.31.727-1.145-.408-.208-1.455-1.136.827.727-1.554 2.072-.109.208-.727.31 2.39 1.763-.176a30.099 30.099 0 0 0-.425-1.186l-.194-.3-.727.108-.418-1.663-2.49-1.563-2.071-1.972-.21 1.145-2.499-1.972zm1.19 19.72c-.032.861-.098 1.72-.197 2.573l.979.243zm.68 3.859l-1.108.323c-.036.217-.07.435-.11.65l1.946.377.311.83h1.973zm4.986 2.077l-1.143.104-.208.83 2.389-.415zm-7.285 3.171c-.128.402-.264.8-.406 1.196l.526-1.144zm6.454.979l-2.6 1.454-.617 1.872-.936-1.145-1.663.418-1.579-.983c-.105.256-.216.508-.327.761l2.324 1.158.936-.827.727 1.863-1.354 2.39-1.972 1.245.936.936-1.454.627 1.036 1.245.936 2.908 1.872.618-4.571 4.68.372.59a31.99 31.99 0 0 0 3.301-.922c3.849-4.867 7.243-11.202 9.233-18.037l-.238-.224-2.7.727-.935-.827-.827 1.863-.419-.31zm12.37 5.296a32.144 32.144 0 0 1-1.428 2.12 32.144 32.144 0 0 0 1.427-2.12zm-1.789 2.624a32.144 32.144 0 0 1-1.717 2.068 32.144 32.144 0 0 0 1.717-2.068zm-2.038 2.434a32.144 32.144 0 0 1-2.004 1.975 32.144 32.144 0 0 0 2.004-1.975zm-2.271 2.224a32.144 32.144 0 0 1-2.276 1.833 32.144 32.144 0 0 0 2.276-1.833z" opacity=".807" fill="url(#Z)" stroke-width=".397" stroke-linecap="round" stroke-linejoin="bevel"/><path d="M223.32 273.98a32.144 32.144 0 0 0-1.141.06c.315.115.619.235.927.353zm12.182 4.34l-2.077.208.4 1.598a36.36 36.36 0 0 1 1.533 1.186l.56.124.621.897c.224.202.445.404.66.61l1.73.778 1.35 2.596 3.116 1.143-1.973-3.324.208-2.076zm-2.596.623l-.567.142c.203.135.406.27.604.408zm10.697 3.532l-.623.934 1.454.312zm1.023 11.514c.15.393.291.788.425 1.186l.317-.032zm.254 24.332c-1.99 6.835-5.384 13.17-9.233 18.037.386-.13.768-.27 1.147-.414a32.144 32.144 0 0 0 .834-.331c.543-.225 1.08-.464 1.607-.717a32.144 32.144 0 0 0 1.762-.913c.26-.145.518-.293.774-.445a32.144 32.144 0 0 0 2.245-1.465c.058-.042.117-.082.175-.123a32.144 32.144 0 0 0 9.417-10.926l-1.387-.437-2.909.727-.517-1.972-2.39.418z" opacity=".645" fill="url(#aa)" stroke-width=".397" stroke-linecap="round" stroke-linejoin="bevel"/><circle r="32.144" cy="306.023" cx="225.211" opacity=".568" fill="none" stroke="#4b2525" stroke-width=".265" stroke-linecap="round" stroke-linejoin="bevel" stroke-opacity=".403"/></g><use xlink:href="#ab"/></g></svg>