<svg xmlns="http://www.w3.org/2000/svg" xmlns:xlink="http://www.w3.org/1999/xlink" width="287.917" height="192.234" viewBox="0 0 76.178 50.862"><defs><pattern xlink:href="#a" id="j" patternTransform="rotate(-15.001 723.51 -1660.648) scale(.81575)"/><pattern patternUnits="userSpaceOnUse" width="12.974" height="12.974" patternTransform="matrix(.26458 0 0 .26458 453.676 -53.01)" id="a"><rect ry="0" y=".501" x=".501" height="11.972" width="11.972" fill="#999" fill-opacity=".004" stroke="#000" stroke-width="1.002" stroke-linecap="round" stroke-linejoin="bevel" stroke-opacity="0"/><rect y="2.757" x="6.424" height="3.538" width="3.538" rx="1.769" ry="1.769" transform="rotate(15)" fill="#0ff" fill-opacity=".498" stroke="#000" stroke-width=".296" stroke-linecap="round" stroke-linejoin="bevel" stroke-opacity="0"/></pattern><pattern xlink:href="#b" id="k" patternTransform="rotate(30 -48.793 876.948) scale(.38603)"/><pattern patternUnits="userSpaceOnUse" width="12.974" height="12.974" patternTransform="matrix(.26458 0 0 .26458 404.463 -32.372)" id="b"><rect width="11.972" height="11.972" x=".501" y=".501" ry="0" fill="#999" fill-opacity=".043" stroke="#000" stroke-width="1.002" stroke-linecap="round" stroke-linejoin="bevel" stroke-opacity="0"/><rect transform="rotate(15)" ry="4.737" rx="4.737" width="9.473" height="9.473" x="3.081" y="-.338" fill="#f06" fill-opacity=".498" stroke="#000" stroke-width=".793" stroke-linecap="round" stroke-linejoin="bevel" stroke-opacity="0"/></pattern><pattern xlink:href="#c" id="l" patternTransform="rotate(45 148.635 443.541) scale(.36045)"/><pattern patternUnits="userSpaceOnUse" width="12.974" height="12.974" patternTransform="matrix(.26458 0 0 .26458 357.166 24.808)" id="c"><rect ry="5.079" rx="5.079" width="11.972" height="11.972" x=".501" y=".501" fill-opacity=".498" stroke="#000" stroke-width="1.002" stroke-linecap="round" stroke-linejoin="bevel" stroke-opacity="0"/></pattern><pattern xlink:href="#b" id="m" patternTransform="scale(.4667) rotate(30 279.61 432.051)"/><pattern xlink:href="#d" id="n" patternTransform="rotate(45 105.172 76.267) scale(.45557)"/><pattern patternUnits="userSpaceOnUse" width="12.974" height="12.974" patternTransform="matrix(.26458 0 0 .26458 430.922 24.646)" id="d"><rect ry="0" y=".501" x=".501" height="11.972" width="11.972" fill-opacity=".004" stroke="#000" stroke-width="1.002" stroke-linecap="round" stroke-linejoin="bevel" stroke-opacity="0"/><rect y="1.892" x="4.812" height="5.724" width="5.724" rx="2.862" ry="2.862" transform="rotate(15)" fill-opacity=".498" stroke="#000" stroke-width=".479" stroke-linecap="round" stroke-linejoin="bevel" stroke-opacity="0"/></pattern><pattern xlink:href="#e" id="o" patternTransform="matrix(.41053 -.11 .11 .41053 117.88 -63.928)"/><pattern patternUnits="userSpaceOnUse" width="12.974" height="12.974" patternTransform="matrix(.26458 0 0 .26458 381.242 -51.437)" id="e"><rect y=".501" x=".501" height="11.972" width="11.972" rx="5.986" ry="5.986" fill="#0ff" fill-opacity=".498" stroke="#000" stroke-width="1.002" stroke-linecap="round" stroke-linejoin="bevel" stroke-opacity="0"/></pattern><pattern xlink:href="#f" id="p" patternTransform="scale(.47632) rotate(15 426.546 681.667)"/><pattern xlink:href="#g" id="f" patternTransform="scale(.668) rotate(15 -7130.23 4855.838)"/><pattern patternUnits="userSpaceOnUse" width="12.974" height="12.974" patternTransform="matrix(.26458 0 0 .26458 381.242 -26.709)" id="g"><rect ry="5.986" rx="5.986" width="11.972" height="11.972" x=".501" y=".501" fill="#f06" fill-opacity=".498" stroke="#000" stroke-width="1.002" stroke-linecap="round" stroke-linejoin="bevel" stroke-opacity="0"/></pattern><pattern xlink:href="#h" id="q" patternTransform="matrix(.51935 0 0 .51935 134.436 -33.047)"/><pattern patternUnits="userSpaceOnUse" width="12.974" height="12.974" patternTransform="matrix(.26458 0 0 .26458 404.463 -2.469)" id="h"><rect ry="0" y=".501" x=".501" height="11.972" width="11.972" fill="#ff0" fill-opacity=".043" stroke="#000" stroke-width="1.002" stroke-linecap="round" stroke-linejoin="bevel" stroke-opacity="0"/><rect y="-.338" x="3.081" height="9.473" width="9.473" rx="4.737" ry="4.737" transform="rotate(15)" fill="#ff0" fill-opacity=".498" stroke="#000" stroke-width=".793" stroke-linecap="round" stroke-linejoin="bevel" stroke-opacity="0"/></pattern><pattern xlink:href="#d" id="r" patternTransform="scale(.40019) rotate(60 243.152 154.328)"/><pattern xlink:href="#i" id="s" patternTransform="rotate(45 42.787 676.793) scale(.4797)"/><pattern patternUnits="userSpaceOnUse" width="12.974" height="12.974" patternTransform="matrix(.26458 0 0 .26458 331.244 25.884)" id="i"><rect height="12.974" width="12.974" ry="3.048" fill-opacity=".498" stroke-width="3.78"/></pattern></defs><g transform="translate(-26.971 -130.206)"><path d="M27.424 130.34l5.863 37.906.275.213.4 2.689 12.952 9.787 54.988-1.197.63-1.796.56-.006-24.667-11.804 2.587-35.186-53.412-.603zm70.483 45.114l4.706 2.252.114-.324z" fill="#fff" fill-rule="evenodd"/><g id="t"><path d="M190.057 49.566l22.158 143.264.986-.047 20.07-.94-19.953.823 2.623-2.627L195.84 53.996l-5.12-4.422zm191.812 141.727l-150.416 7.215 22.756 17.762 59.232-1.975 17.793 11.89 61.268-.972-22.459-12.217-54.535 1.23 105.213-3.507zm-168.613 2.342l1.508 10.162 48.955 36.99 207.83-4.523 2.377-6.79-211.623 2.089zm243.193 26.44l17.787 8.51.43-1.226z" transform="matrix(.26458 0 0 .26458 -23.13 117.226)" fill="url(#j)" fill-rule="evenodd" stroke="#000" stroke-opacity="0"/><path transform="matrix(.26458 0 0 .26458 -23.13 117.226)" d="M190.72 49.574l5.12 4.422L215.94 190.04l-2.74 2.744-.986.047 50.088 38.733 213.744-2.108-93.233-44.615 9.78-132.985zm186.83 15.463l-6.364 111.95-147.286 7.501-17.306-119.013zm4.32 126.256l38.85 19.426-105.212 3.508 54.535-1.23 22.459 12.216-61.268.973-17.793-11.891-59.232 1.975-22.756-17.762z" opacity=".525" fill="url(#k)" fill-rule="evenodd" stroke="#000" stroke-width="1.002" stroke-opacity="0"/><path transform="matrix(.26458 0 0 .26458 -23.13 117.226)" d="M190.72 49.574l5.12 4.422L215.94 190.04l-2.74 2.744-.986.047 50.088 38.733 213.744-2.108-93.233-44.615 9.78-132.985zm186.83 15.463l-6.364 111.95-147.286 7.501-17.306-119.013zm4.32 126.256l38.85 19.426-105.212 3.508 54.535-1.23 22.459 12.216-61.268.973-17.793-11.891-59.232 1.975-22.756-17.762z" fill="url(#l)" fill-rule="evenodd" stroke="#000" stroke-opacity="0"/><path d="M29.578 16.385l-12.342.031 17.307 119.016 15.906-.81 1.403-48.24 3.863-22.696 6.76-14.971 2.414-.965-5.793 13.521h6.76l9.658 19.801 5.312-6.761 15.453-1.932.582-2.326.424.217 6.246-12.18 4.864 1.853-1.926 10.286 7.21 12.152 11.507-.883-3.694-12.934 8.942-11.416 4.757.678 6.334-7.664 5.233 2.092 6.52 21.195-2.104 10.549 5.158 6.373-1.043.58-12.76-4.254-4.736-1.295-6.701 9.09 13.654 2.658 3.522 12.022-9.903 4.95-.795 9.942 5.203 5.856 3.524-.18 5.101-6.52 5.211-.546 6.227 6.222 5.443-.277 5.48-5.004 8.329-.26.162-2.857-9.635.3-7.236 6.608-7.711-7.71-7.77.816-5.462 6.984-3.922-4.416.568-7.129 10.592-5.295-4.68-15.974-10.933-2.127 2.863-3.883 2.78.752 13.874 4.627 5.106-2.836-6.454-7.97 1.99-9.944-7.138-23.192-8.432-3.369-6.636 8.04-4.805-.686-10.861 13.853 3.138 10.971-6.26.484-5.757-9.707 2.17-11.568-9.48-3.611-7.413 14.453.246.125-14.65 3.767-3.863-6.277 9.177-5.795-1.45-13.521-14.97-4.83-9.175 4.83-30.483-30.883zM182.77 82.93l-5.348 2.494.713 2.496 6.01-.707.007-.137-1.382-4.146z" transform="matrix(.26458 0 0 .26458 26.971 130.206)" opacity=".332" fill="url(#m)" stroke-width="2.852" stroke-linecap="round" stroke-linejoin="bevel" stroke-opacity="0"/><path d="M29.578 16.385l-12.342.031 17.307 119.016 15.906-.81 1.403-48.24 3.863-22.696 6.76-14.971 2.414-.965-5.793 13.521h6.76l9.658 19.801 5.312-6.761 15.453-1.932.582-2.326.424.217 6.246-12.18 4.864 1.853-1.926 10.286 7.21 12.152 11.507-.883-3.694-12.934 8.942-11.416 4.757.678 6.334-7.664 5.233 2.092 6.52 21.195-2.104 10.549 5.158 6.373-1.043.58-12.76-4.254-4.736-1.295-6.701 9.09 13.654 2.658 3.522 12.022-9.903 4.95-.795 9.942 5.203 5.856 3.524-.18 5.101-6.52 5.211-.546 6.227 6.222 5.443-.277 5.48-5.004 8.329-.26.162-2.857-9.635.3-7.236 6.608-7.711-7.71-7.77.816-5.462 6.984-3.922-4.416.568-7.129 10.592-5.295-4.68-15.974-10.933-2.127 2.863-3.883 2.78.752 13.874 4.627 5.106-2.836-6.454-7.97 1.99-9.944-7.138-23.192-8.432-3.369-6.636 8.04-4.805-.686-10.861 13.853 3.138 10.971-6.26.484-5.757-9.707 2.17-11.568-9.48-3.611-7.413 14.453.246.125-14.65 3.767-3.863-6.277 9.177-5.795-1.45-13.521-14.97-4.83-9.175 4.83-30.483-30.883zM182.77 82.93l-5.348 2.494.713 2.496 6.01-.707.007-.137-1.382-4.146z" transform="matrix(.26458 0 0 .26458 26.971 130.206)" opacity=".332" fill="url(#n)" stroke-width="2.852" stroke-linecap="round" stroke-linejoin="bevel" stroke-opacity="0"/><path d="M29.578 16.385l-12.342.031 17.307 119.016 15.906-.81 1.403-48.24 3.863-22.696 6.76-14.971 2.414-.965-5.793 13.521h6.76l9.658 19.801 5.312-6.761 15.453-1.932.582-2.326.424.217 6.246-12.18 4.864 1.853-1.926 10.286 7.21 12.152 11.507-.883-3.694-12.934 8.942-11.416 4.757.678 6.334-7.664 5.233 2.092 6.52 21.195-2.104 10.549 5.158 6.373-1.043.58-12.76-4.254-4.736-1.295-6.701 9.09 13.654 2.658 3.522 12.022-9.903 4.95-.795 9.942 5.203 5.856 3.524-.18 5.101-6.52 5.211-.546 6.227 6.222 5.443-.277 5.48-5.004 8.329-.26.162-2.857-9.635.3-7.236 6.608-7.711-7.71-7.77.816-5.462 6.984-3.922-4.416.568-7.129 10.592-5.295-4.68-15.974-10.933-2.127 2.863-3.883 2.78.752 13.874 4.627 5.106-2.836-6.454-7.97 1.99-9.944-7.138-23.192-8.432-3.369-6.636 8.04-4.805-.686-10.861 13.853 3.138 10.971-6.26.484-5.757-9.707 2.17-11.568-9.48-3.611-7.413 14.453.246.125-14.65 3.767-3.863-6.277 9.177-5.795-1.45-13.521-14.97-4.83-9.175 4.83-30.483-30.883zM182.77 82.93l-5.348 2.494.713 2.496 6.01-.707.007-.137-1.382-4.146z" transform="matrix(.26458 0 0 .26458 26.971 130.206)" fill="url(#o)" stroke-width="2.852" stroke-linecap="round" stroke-linejoin="bevel" stroke-opacity="0"/><path d="M188.195 15.979l-153.627.392.827 1.256 11.212 14.717 11.758 1.427 3.957 5.032 6.192 1.633 9.54-7.776h7.223l8.711-4.183 8.76-6.202 16.637 3.252 13.638.366 11.084 5.168 6.807 16.837 8.926 6.786 3.676 10.654v17.32l-2.069 8.444 14.395 24.728 7.002-9.232.2-.059 1.1-19.326-6.011.707-.713-2.496 5.348-2.496 1.384 4.152 4.043-71.101zm-155.334.398l-3.283.008 13.486 13.662-8.834-11.592-1.369-2.078zm70.207 7.414l-8.353 5.922-9.117 4.375H78.56l-3.678 2.996 6.73 5.719 10.264 8.142 7.254 3.455 17.35-.695 21.308-24.016-5.101-2.382-13.46-.352-16.16-3.164zm36.073 6.527l-21.998 24.786-12.155.49 6.65 2.533-2.17 11.568 5.759 9.705 6.26-.482-3.14-10.97 10.86-13.854 4.805.685 6.638-8.039 8.432 3.37 7.139 23.19-1.99 9.942 5.886 7.274 1.97-8.032V65.578l-3.45-10.021-8.9-6.762-6.745-16.676-3.851-1.8zm-92.373 3.48L60.06 47.267l9.175-4.828 14.97 4.828 1.45 13.521-9.177 5.795 3.863 6.28 9.969-2.565-.59-2.244-.354-17.282-8.658-6.869L73.759 38l-4.91 3.998-7.353-1.937-3.889-4.948-10.84-1.314zm18.12 13.952l-2.413.965-6.76 14.969-3.863 22.699-1.403 48.238 2.342-.12 1.637-46.44 4.611-7.301 28.45 2.158 5.646-1.879-2.106-8.006-10.203 1.276-5.312 6.761-9.659-19.799h-6.76L64.89 47.75zm76.637 2.412l-6.334 7.664-4.757-.68-8.944 11.416 3.696 12.934-11.506.885-7.211-12.154 1.926-10.286-4.864-1.853-6.248 12.182-.422-.22-.582 2.327-3.822.478 2.147 8.16 19.939 10.323 13.484 39.053 2.04.175 12.706-.648-5.203-5.856.795-9.943 9.9-4.947-3.519-12.022-13.654-2.658 6.701-9.09 4.736 1.295 12.76 4.252 1.043-.578-5.158-6.375 2.103-10.547-6.521-21.197-5.23-2.09zm-50.713 1.756l.329 15.936.548 2.09 3.303-.85-.246-.125 6.79-13.237-2.7.11-7.715-3.68-.308-.244zM59.785 82.242l-3.947 6.25-1.617 45.938 72.425-3.69-13.265-38.396-19.445-10.069-6.268 2.09-27.883-2.123zm79.139 6.428l-2.863 3.885 10.933 2.127 4.678 15.974-10.59 5.295-.568 7.127 3.922 4.416 5.462-6.984 7.77-.817 5.035 5.037 12.201-7.662.006-.007-14.851-25.502-4.48 2.49-13.876-4.627-2.78-.752zm43.916 21.47l-6.465 8.528-3.373 2.12 9.248-.29.59-10.357zm-11.037 11.401l-7.545 4.742 1.12 1.123 6.425-5.865zm-15.194 1.133l-5.21.547-5.104 6.52 12.512-.64 2.277-.642.336-.979-4.81-4.806zm25.479.681l-8.328.26-5.483 5.004 13.551-.69.26-4.574z" transform="matrix(.26458 0 0 .26458 26.971 130.206)" opacity=".173" fill="url(#p)" fill-rule="evenodd" stroke-width=".713" stroke-opacity="0"/><path d="M188.195 15.979l-153.627.392.827 1.256 11.212 14.717 11.758 1.427 3.957 5.032 6.192 1.633 9.54-7.776h7.223l8.711-4.183 8.76-6.202 16.637 3.252 13.638.366 11.084 5.168 6.807 16.837 8.926 6.786 3.676 10.654v17.32l-2.069 8.444 14.395 24.728 7.002-9.232.2-.059 1.1-19.326-6.011.707-.713-2.496 5.348-2.496 1.384 4.152 4.043-71.101zm-155.334.398l-3.283.008 13.486 13.662-8.834-11.592-1.369-2.078zm70.207 7.414l-8.353 5.922-9.117 4.375H78.56l-3.678 2.996 6.73 5.719 10.264 8.142 7.254 3.455 17.35-.695 21.308-24.016-5.101-2.382-13.46-.352-16.16-3.164zm36.073 6.527l-21.998 24.786-12.155.49 6.65 2.533-2.17 11.568 5.759 9.705 6.26-.482-3.14-10.97 10.86-13.854 4.805.685 6.638-8.039 8.432 3.37 7.139 23.19-1.99 9.942 5.886 7.274 1.97-8.032V65.578l-3.45-10.021-8.9-6.762-6.745-16.676-3.851-1.8zm-92.373 3.48L60.06 47.267l9.175-4.828 14.97 4.828 1.45 13.521-9.177 5.795 3.863 6.28 9.969-2.565-.59-2.244-.354-17.282-8.658-6.869L73.759 38l-4.91 3.998-7.353-1.937-3.889-4.948-10.84-1.314zm18.12 13.952l-2.413.965-6.76 14.969-3.863 22.699-1.403 48.238 2.342-.12 1.637-46.44 4.611-7.301 28.45 2.158 5.646-1.879-2.106-8.006-10.203 1.276-5.312 6.761-9.659-19.799h-6.76L64.89 47.75zm76.637 2.412l-6.334 7.664-4.757-.68-8.944 11.416 3.696 12.934-11.506.885-7.211-12.154 1.926-10.286-4.864-1.853-6.248 12.182-.422-.22-.582 2.327-3.822.478 2.147 8.16 19.939 10.323 13.484 39.053 2.04.175 12.706-.648-5.203-5.856.795-9.943 9.9-4.947-3.519-12.022-13.654-2.658 6.701-9.09 4.736 1.295 12.76 4.252 1.043-.578-5.158-6.375 2.103-10.547-6.521-21.197-5.23-2.09zm-50.713 1.756l.329 15.936.548 2.09 3.303-.85-.246-.125 6.79-13.237-2.7.11-7.715-3.68-.308-.244zM59.785 82.242l-3.947 6.25-1.617 45.938 72.425-3.69-13.265-38.396-19.445-10.069-6.268 2.09-27.883-2.123zm79.139 6.428l-2.863 3.885 10.933 2.127 4.678 15.974-10.59 5.295-.568 7.127 3.922 4.416 5.462-6.984 7.77-.817 5.035 5.037 12.201-7.662.006-.007-14.851-25.502-4.48 2.49-13.876-4.627-2.78-.752zm43.916 21.47l-6.465 8.528-3.373 2.12 9.248-.29.59-10.357zm-11.037 11.401l-7.545 4.742 1.12 1.123 6.425-5.865zm-15.194 1.133l-5.21.547-5.104 6.52 12.512-.64 2.277-.642.336-.979-4.81-4.806zm25.479.681l-8.328.26-5.483 5.004 13.551-.69.26-4.574z" transform="matrix(.26458 0 0 .26458 26.971 130.206)" opacity=".867" fill="url(#q)" fill-rule="evenodd" stroke-width=".713" stroke-opacity="0"/><path d="M188.195 15.979l-153.627.392.827 1.256 11.212 14.717 11.758 1.427 3.957 5.032 6.192 1.633 9.54-7.776h7.223l8.711-4.183 8.76-6.202 16.637 3.252 13.638.366 11.084 5.168 6.807 16.837 8.926 6.786 3.676 10.654v17.32l-2.069 8.444 14.395 24.728 7.002-9.232.2-.059 1.1-19.326-6.011.707-.713-2.496 5.348-2.496 1.384 4.152 4.043-71.101zm-155.334.398l-3.283.008 13.486 13.662-8.834-11.592-1.369-2.078zm70.207 7.414l-8.353 5.922-9.117 4.375H78.56l-3.678 2.996 6.73 5.719 10.264 8.142 7.254 3.455 17.35-.695 21.308-24.016-5.101-2.382-13.46-.352-16.16-3.164zm36.073 6.527l-21.998 24.786-12.155.49 6.65 2.533-2.17 11.568 5.759 9.705 6.26-.482-3.14-10.97 10.86-13.854 4.805.685 6.638-8.039 8.432 3.37 7.139 23.19-1.99 9.942 5.886 7.274 1.97-8.032V65.578l-3.45-10.021-8.9-6.762-6.745-16.676-3.851-1.8zm-92.373 3.48L60.06 47.267l9.175-4.828 14.97 4.828 1.45 13.521-9.177 5.795 3.863 6.28 9.969-2.565-.59-2.244-.354-17.282-8.658-6.869L73.759 38l-4.91 3.998-7.353-1.937-3.889-4.948-10.84-1.314zm18.12 13.952l-2.413.965-6.76 14.969-3.863 22.699-1.403 48.238 2.342-.12 1.637-46.44 4.611-7.301 28.45 2.158 5.646-1.879-2.106-8.006-10.203 1.276-5.312 6.761-9.659-19.799h-6.76L64.89 47.75zm76.637 2.412l-6.334 7.664-4.757-.68-8.944 11.416 3.696 12.934-11.506.885-7.211-12.154 1.926-10.286-4.864-1.853-6.248 12.182-.422-.22-.582 2.327-3.822.478 2.147 8.16 19.939 10.323 13.484 39.053 2.04.175 12.706-.648-5.203-5.856.795-9.943 9.9-4.947-3.519-12.022-13.654-2.658 6.701-9.09 4.736 1.295 12.76 4.252 1.043-.578-5.158-6.375 2.103-10.547-6.521-21.197-5.23-2.09zm-50.713 1.756l.329 15.936.548 2.09 3.303-.85-.246-.125 6.79-13.237-2.7.11-7.715-3.68-.308-.244zM59.785 82.242l-3.947 6.25-1.617 45.938 72.425-3.69-13.265-38.396-19.445-10.069-6.268 2.09-27.883-2.123zm79.139 6.428l-2.863 3.885 10.933 2.127 4.678 15.974-10.59 5.295-.568 7.127 3.922 4.416 5.462-6.984 7.77-.817 5.035 5.037 12.201-7.662.006-.007-14.851-25.502-4.48 2.49-13.876-4.627-2.78-.752zm43.916 21.47l-6.465 8.528-3.373 2.12 9.248-.29.59-10.357zm-11.037 11.401l-7.545 4.742 1.12 1.123 6.425-5.865zm-15.194 1.133l-5.21.547-5.104 6.52 12.512-.64 2.277-.642.336-.979-4.81-4.806zm25.479.681l-8.328.26-5.483 5.004 13.551-.69.26-4.574z" transform="matrix(.26458 0 0 .26458 26.971 130.206)" opacity=".239" fill="url(#r)" fill-rule="evenodd" stroke-width=".713" stroke-opacity="0"/><path style="line-height:normal;font-variant-ligatures:normal;font-variant-position:normal;font-variant-caps:normal;font-variant-numeric:normal;font-variant-alternates:normal;font-feature-settings:normal;text-indent:0;text-align:start;text-decoration-line:none;text-decoration-style:solid;text-decoration-color:#000;text-transform:none;text-orientation:mixed;white-space:normal;shape-padding:0;isolation:auto;mix-blend-mode:normal;solid-color:#000;solid-opacity:1" d="M183.03 106.82l-.05.014-7.937 10.469-12.637 7.937-1.283 3.744 2.303-.117.76-2.215 12.326-7.748 6.302-8.314.215-3.77z" transform="matrix(.26458 0 0 .26458 26.971 130.206)" color="#000" font-weight="400" font-family="sans-serif" overflow="visible" fill="#6b3b14" fill-opacity=".522" fill-rule="evenodd" stroke-width="2.139"/><path style="line-height:normal;font-variant-ligatures:normal;font-variant-position:normal;font-variant-caps:normal;font-variant-numeric:normal;font-variant-alternates:normal;font-feature-settings:normal;text-indent:0;text-align:start;text-decoration-line:none;text-decoration-style:solid;text-decoration-color:#000;text-transform:none;text-orientation:mixed;white-space:normal;shape-padding:0;isolation:auto;mix-blend-mode:normal;solid-color:#000;solid-opacity:1" d="M34.549 16.371l-1.703.006 1.523 2.312 11.606 15.233 11.77 1.428 3.89 4.947 7.353 1.937 4.908-3.998 6.95 5.903 8.66 6.869.351 17.281 3.414 12.986-5.646 1.877-28.45-2.156-4.61 7.3-1.627 46.198 1.43-.072 1.609-45.695 3.947-6.248 27.88 2.123 6.27-2.092 19.444 10.07 13.183 38.158 1.742-.09-.277-.023-13.484-39.05L94.74 81.251 91.28 68.09l-.33-15.936.308.242 7.717 3.68 18.306-.736 21.996-24.785 3.854 1.799 6.742 16.675 8.9 6.764 3.454 10.021v16.907l-2.168 8.838 15.459 26.545 1.23-.717-15.164-26.05 2.07-8.44V65.573L159.98 54.92l-8.928-6.785-6.805-16.838-11.084-5.168-13.639-.365-16.638-3.252-8.758 6.2-8.711 4.184h-7.223l-9.543 7.776-6.19-1.633-3.958-5.031-11.758-1.428-11.213-14.717-.982-1.492zm68.656 7.656l16.16 3.164 13.46.352 5.103 2.383-21.31 24.015-17.35.694-7.252-3.453-10.264-8.143-6.73-5.72 3.677-2.995h7.037l9.116-4.375 8.353-5.922zm58.826 104.44l-2.035.574 2.168-.11-.133-.464z" transform="matrix(.26458 0 0 .26458 26.971 130.206)" color="#000" font-weight="400" font-family="sans-serif" overflow="visible" fill="#bd2f6e" fill-opacity=".567" fill-rule="evenodd" stroke-width="1.426"/><path transform="matrix(.26458 0 0 .26458 -23.13 117.226)" d="M190.057 49.566l22.158 143.264.986-.047 20.07-.94-19.953.823 2.623-2.627L195.84 53.996l-5.12-4.422zm191.812 141.727l-150.416 7.215 22.756 17.762 59.232-1.975 17.793 11.89 61.268-.972-22.459-12.217-54.535 1.23 105.213-3.507zm-168.613 2.342l1.508 10.162 48.955 36.99 207.83-4.523 2.377-6.79-211.623 2.089zm243.193 26.44l17.787 8.51.43-1.226z" fill="url(#s)" fill-rule="evenodd" stroke="#000" stroke-opacity="0"/></g><use xlink:href="#t"/></g></svg>