<svg xmlns="http://www.w3.org/2000/svg" xmlns:xlink="http://www.w3.org/1999/xlink" width="346.85" height="230.221" viewBox="0 0 91.771 60.913"><defs><pattern patternTransform="matrix(.12216 0 0 .12216 89.559 208.505)" id="s" xlink:href="#a"/><pattern id="a" patternTransform="matrix(.26458 0 0 .26458 357.166 24.808)" height="12.974" width="12.974" patternUnits="userSpaceOnUse"><rect y=".501" x=".501" height="11.972" width="11.972" rx="5.079" ry="5.079" fill-opacity=".498" stroke="#000" stroke-width="1.002" stroke-linecap="round" stroke-linejoin="bevel" stroke-opacity="0"/></pattern><pattern patternTransform="rotate(44.997 -201.117 214.05) scale(.03554)" id="r" xlink:href="#b"/><pattern id="b" patternTransform="matrix(.26458 0 0 .26458 381.242 24.988)" height="12.974" width="12.974" patternUnits="userSpaceOnUse"><rect y=".501" x=".501" height="11.972" width="11.972" rx="5.986" ry="5.986" fill-opacity=".498" stroke="#000" stroke-width="1.002" stroke-linecap="round" stroke-linejoin="bevel" stroke-opacity="0"/></pattern><pattern patternTransform="scale(.07) rotate(15 -11028.851 5880.302)" id="q" xlink:href="#c"/><pattern id="c" patternTransform="matrix(.26458 0 0 .26458 357.166 -26.888)" height="12.974" width="12.974" patternUnits="userSpaceOnUse"><rect y=".501" x=".501" height="11.972" width="11.972" rx="5.079" ry="5.079" fill="#f06" fill-opacity=".498" stroke="#000" stroke-width="1.002" stroke-linecap="round" stroke-linejoin="bevel" stroke-opacity="0"/></pattern><pattern patternTransform="scale(.07) rotate(-15 12297.084 -2669.43)" id="p" xlink:href="#d"/><pattern id="d" patternTransform="matrix(.26458 0 0 .26458 381.242 -51.437)" height="12.974" width="12.974" patternUnits="userSpaceOnUse"><rect ry="5.986" rx="5.986" width="11.972" height="11.972" x=".501" y=".501" fill="#0ff" fill-opacity=".498" stroke="#000" stroke-width="1.002" stroke-linecap="round" stroke-linejoin="bevel" stroke-opacity="0"/></pattern><pattern patternTransform="matrix(.07289 0 0 .07289 80.143 217.6)" id="o" xlink:href="#e"/><pattern id="e" patternTransform="matrix(.26458 0 0 .26458 381.242 -1.62)" height="12.974" width="12.974" patternUnits="userSpaceOnUse"><rect ry="5.986" rx="5.986" width="11.972" height="11.972" x=".501" y=".501" fill="#ff0" fill-opacity=".498" stroke="#000" stroke-width="1.002" stroke-linecap="round" stroke-linejoin="bevel" stroke-opacity="0"/></pattern><pattern patternTransform="rotate(44.998 -201.4 225.103) scale(.04512)" id="n" xlink:href="#f"/><pattern id="f" patternTransform="matrix(.26458 0 0 .26458 404.463 24.646)" height="12.974" width="12.974" patternUnits="userSpaceOnUse"><rect ry="0" y=".501" x=".501" height="11.972" width="11.972" fill-opacity=".004" stroke="#000" stroke-width="1.002" stroke-linecap="round" stroke-linejoin="bevel" stroke-opacity="0"/><rect y="-.338" x="3.081" height="9.473" width="9.473" rx="4.737" ry="4.737" transform="rotate(15)" fill-opacity=".498" stroke="#000" stroke-width=".793" stroke-linecap="round" stroke-linejoin="bevel" stroke-opacity="0"/></pattern><pattern xlink:href="#g" id="m" patternTransform="matrix(.09955 0 0 .09955 84.1 197.291)"/><pattern id="g" patternTransform="matrix(.26458 0 0 .26458 331.244 -52.243)" height="12.974" width="12.974" patternUnits="userSpaceOnUse"><rect ry="3.048" width="12.974" height="12.974" fill="#0ff" fill-opacity=".498" stroke-width="3.78"/></pattern><pattern patternTransform="rotate(-14.997 831.135 -248.878) scale(.13188)" id="l" xlink:href="#c"/><pattern patternTransform="matrix(.05696 0 0 .05696 101.326 204.997)" id="k" xlink:href="#h"/><pattern id="h" patternTransform="matrix(.26458 0 0 .26458 404.463 -32.372)" height="12.974" width="12.974" patternUnits="userSpaceOnUse"><rect ry="0" y=".501" x=".501" height="11.972" width="11.972" fill="#999" fill-opacity=".043" stroke="#000" stroke-width="1.002" stroke-linecap="round" stroke-linejoin="bevel" stroke-opacity="0"/><rect y="-.338" x="3.081" height="9.473" width="9.473" rx="4.737" ry="4.737" transform="rotate(15)" fill="#f06" fill-opacity=".498" stroke="#000" stroke-width=".793" stroke-linecap="round" stroke-linejoin="bevel" stroke-opacity="0"/></pattern><pattern patternTransform="matrix(.08713 0 0 .08713 100.184 201.003)" id="j" xlink:href="#i"/><pattern id="i" patternTransform="matrix(.26458 0 0 .26458 331.244 -1.712)" height="12.974" width="12.974" patternUnits="userSpaceOnUse"><rect height="12.974" width="12.974" ry="3.048" fill="#ff0" fill-opacity=".498" stroke-width="3.78"/></pattern></defs><path d="M72.155 221.322l-22.384.41 21.576 4.857-.022-.906zm-27.395 4.47l-.012.011 1.55 3.515 1.558-2.596zm60.993 2.384l7.525 6.91 6.755 1.395.09.006.057-.006zm-6.626.98l-1.49 2.552 5.225-1.861zm-9.029 3.442l2.622 3.155-8.013 3.872-.064.276 4.778 8.315c.453-1.4 3.295-12.357 3.295-12.357l.069-.138 1.385-2.769zm-34.138.634l.192 4.24 15.518-3.326-.01-.013zm70.632 3.562c-.155 1.282-.29 2.347-.528 4.185l.064-.092 5.433-.147zm-4.432 3.302l.002.056.968 1.453 2.871-.535.04-.057zm-44.273 1.246l-3.78 7.753 4.487-3.059zm11.474 7.364l-4.93 4.605 8.908 2.279zm11.801 1.698l-7.814 5.172 6.226 4.554zm23.537 6.431l-.23.216-.735 2.448 2.004-1.002zm-3.008 2.866c-.027 0-.036 0-.063.002l-.044.04-3.946 1.454-.09.184 5.878 3.574zm8.776.207l-5.047 1.204-.097.085-.004.045 5.982 1.071v-.003l-.787-2.359zm2.955 2.328l-.083.008c-1.587.716-7.772 3.51-8.416 3.744l-.012.147 8.431 15.624.08-.001zm-34.514 2.687l1.475 2.907.85-2.807zm24.65.102l-10.822 10.124.956-5.437-.09-.24-.118.24-1.897-3.277 1.133 8.804.002.017 12.042-9.197zm-14.66 1.997l-3.536.21-.015.089 1.335 1.06z" opacity=".472" fill="url(#j)" fill-rule="evenodd" transform="translate(-41.805 -221.187)"/><path d="M44.24 221.683l-2.303 1.767v.156l2.804 2.18zm5.53.05l-.252.004 6.438 11.423.002.03 15.391-6.534-.002-.067zm55.357 6.084l-5.948 1.248-.052.09 3.735.692.136-.048.053.022zm5.156 4.52l-.053.066.111.04.294 2.496 2.643.147zm-24.038 1.38l-.175.066-1.363 5.842 7.957-3.845zm-14.608.436l-15.485 3.319.011.257 17.861 11.422.037-.025zm54.93 2.622l-5.8.44 5.293 3.77.004-.006c.237-1.838.373-2.903.528-4.185zm-6.619 3.125l3.106 1.719-.01.002 1.468 1.615 1.49-2.166-2.872.535-.968-1.453zm-35.305.002l-.027.112-6.646 1.246-.028-.032-.055.115.707 4.694.092.115 6.064-6.064zm30.443 1.595l-4.017.207 2.282 1.239zm-36.324 4.75l5.647 7.058.022.006 4.93-4.605 3.958 6.85 3.333-8.063-7.088 1.065-.094.047.06-.056c-.032-.025-.112-.03-.126-.061zm14.586 9.33l-.012.008.003.006 3.091 9.272 3.09-4.77zm33.73 3.977l-.094.19-1.564 1.368 4.87-1.161zm-3.422.1c-.598.012-1.126.026-1.965.047l1.734 5.254.065.04.062.037.007-.006-.056-.048-.05-.042zm9.683 2.59l-1.994.2-.044-.134-.008.133-6.284 3.396-.029-.537-.052.632-.005.054c.644-.233 6.828-3.027 8.415-3.744zm-32.105 2.78l-.924 2.733.27.14 5.82.26-1.053-.836.015-.088 3.536-.21.017-.01-.85-1.649-2.68 1.856-.02-.01-3.926-2.067-.045-.119zm22.216.103l-9.773 4.674-.94 5.348zm-10.721 10.182l.028.219-.083.012.603 6.426 20.065-.207-.037-.067z" opacity=".512" fill="url(#k)" fill-rule="evenodd" transform="translate(-41.805 -221.187)"/><path d="M41.834 221.208v60.851h91.588v-.301h-.08l-20.065.207-.603-6.425-.02-.22-3.739-8.308-.017.01-2.216 1.36-.282-.225.95 3.339-6.77-3.6-.187-.096-.01.03-.024-.048-.049-.025.015-.043-1.373-2.704-2.394-.014-.103-.06-.025-.074-3.09-9.272-8.909-2.28-.022-.005-5.647-7.059-.076-.095-.092-.115-4.487 3.059-.046.031-.036.025-17.861-11.423-.012-.256-.192-4.24-.002-.042-.002-.03-6.438-11.423.252-.005 22.385-.41-.83 4.36.022.906.002.067.184 7.335.126.142.012.013 6.272 7.082.028.032 6.646-1.246.026-.113.065-.275 1.362-5.843.176-.066 3.147-1.18.706.062 4.071.354-1.385 2.769-.068.138s-2.843 10.956-3.296 12.356c-.004.012-.024.095-.028.105a.215.215 0 0 0 .012.167c.014.032.094.036.125.06.006.006.027.005.034.01l7.088-1.065.01-.003 4.57 2.492-.07.423-1.587 9.726-.005.028 1.824 4.865.045.12 3.927 2.066.019.01 2.68-1.856.02-.013 3.115.415.387.67 1.897 3.276.118-.24 3.946-8.09.09-.185 3.946-1.453.043-.041 2.841-2.652.231-.215 1.039 1.662-2.004 1.001-.073.037-.005.118-.203 5.282.05.042.055.047 1.205 1.034.144.123.004-.047.011-.147.005-.054.053-.633.339-4.058.004-.046.097-.085 1.564-1.368.095-.19.943-1.887 2.445 2.241.047.043.787 2.36.044.132 1.994-.199.083-.008v-41.028zm.103.322h2.285l.019.153.5 4.104.02.006 3.095.929-1.557 2.596-1.55-3.514-.008-.017-2.804-2.18v-.157zm63.19 6.287l.626.36 14.427 8.304-.057.006-8.314.802 1.469-2.203-2.643-.147-.294-2.496-.111-.04-7.179-2.582-.053-.022-.136.048-5.224 1.862 1.489-2.553.052-.091zm21.44 8.958l.025.019 4.969 3.946-5.433.147-.064.092-.004.006-.02.027-.038.058-1.49 2.166-1.468-1.615-4.7-.294 1.249-1.469.355.041 2.215.253-.002-.056-.145-1.991-1.249-.89zm-14.905 3.304l3.451 1.395-.027.023-1.735 1.445-2.282-1.239-.288-.156z" opacity=".076" fill="url(#l)" transform="translate(-41.805 -221.187)"/><path d="M41.834 221.208v60.851h91.588v-.301h-.08l-20.065.207-.603-6.425-.02-.22-3.739-8.308-.017.01-2.216 1.36-.282-.225.95 3.339-6.77-3.6-.187-.096-.01.03-.024-.048-.049-.025.015-.043-1.373-2.704-2.394-.014-.103-.06-.025-.074-3.09-9.272-8.909-2.28-.022-.005-5.647-7.059-.076-.095-.092-.115-4.487 3.059-.046.031-.036.025-17.861-11.423-.012-.256-.192-4.24-.002-.042-.002-.03-6.438-11.423.252-.005 22.385-.41-.83 4.36.022.906.002.067.184 7.335.126.142.012.013 6.272 7.082.028.032 6.646-1.246.026-.113.065-.275 1.362-5.843.176-.066 3.147-1.18.706.062 4.071.354-1.385 2.769-.068.138s-2.843 10.956-3.296 12.356c-.004.012-.024.095-.028.105a.215.215 0 0 0 .012.167c.014.032.094.036.125.06.006.006.027.005.034.01l7.088-1.065.01-.003 4.57 2.492-.07.423-1.587 9.726-.005.028 1.824 4.865.045.12 3.927 2.066.019.01 2.68-1.856.02-.013 3.115.415.387.67 1.897 3.276.118-.24 3.946-8.09.09-.185 3.946-1.453.043-.041 2.841-2.652.231-.215 1.039 1.662-2.004 1.001-.073.037-.005.118-.203 5.282.05.042.055.047 1.205 1.034.144.123.004-.047.011-.147.005-.054.053-.633.339-4.058.004-.046.097-.085 1.564-1.368.095-.19.943-1.887 2.445 2.241.047.043.787 2.36.044.132 1.994-.199.083-.008v-41.028zm.103.322h2.285l.019.153.5 4.104.02.006 3.095.929-1.557 2.596-1.55-3.514-.008-.017-2.804-2.18v-.157zm63.19 6.287l.626.36 14.427 8.304-.057.006-8.314.802 1.469-2.203-2.643-.147-.294-2.496-.111-.04-7.179-2.582-.053-.022-.136.048-5.224 1.862 1.489-2.553.052-.091zm21.44 8.958l.025.019 4.969 3.946-5.433.147-.064.092-.004.006-.02.027-.038.058-1.49 2.166-1.468-1.615-4.7-.294 1.249-1.469.355.041 2.215.253-.002-.056-.145-1.991-1.249-.89zm-14.905 3.304l3.451 1.395-.027.023-1.735 1.445-2.282-1.239-.288-.156z" opacity=".203" fill="url(#m)" transform="translate(-41.805 -221.187)"/><path d="M41.834 221.208v60.851h91.588v-.301h-.08l-20.065.207-.603-6.425-.02-.22-3.739-8.308-.017.01-2.216 1.36-.282-.225.95 3.339-6.77-3.6-.187-.096-.01.03-.024-.048-.049-.025.015-.043-1.373-2.704-2.394-.014-.103-.06-.025-.074-3.09-9.272-8.909-2.28-.022-.005-5.647-7.059-.076-.095-.092-.115-4.487 3.059-.046.031-.036.025-17.861-11.423-.012-.256-.192-4.24-.002-.042-.002-.03-6.438-11.423.252-.005 22.385-.41-.83 4.36.022.906.002.067.184 7.335.126.142.012.013 6.272 7.082.028.032 6.646-1.246.026-.113.065-.275 1.362-5.843.176-.066 3.147-1.18.706.062 4.071.354-1.385 2.769-.068.138s-2.843 10.956-3.296 12.356c-.004.012-.024.095-.028.105a.215.215 0 0 0 .012.167c.014.032.094.036.125.06.006.006.027.005.034.01l7.088-1.065.01-.003 4.57 2.492-.07.423-1.587 9.726-.005.028 1.824 4.865.045.12 3.927 2.066.019.01 2.68-1.856.02-.013 3.115.415.387.67 1.897 3.276.118-.24 3.946-8.09.09-.185 3.946-1.453.043-.041 2.841-2.652.231-.215 1.039 1.662-2.004 1.001-.073.037-.005.118-.203 5.282.05.042.055.047 1.205 1.034.144.123.004-.047.011-.147.005-.054.053-.633.339-4.058.004-.046.097-.085 1.564-1.368.095-.19.943-1.887 2.445 2.241.047.043.787 2.36.044.132 1.994-.199.083-.008v-41.028zm.103.322h2.285l.019.153.5 4.104.02.006 3.095.929-1.557 2.596-1.55-3.514-.008-.017-2.804-2.18v-.157zm63.19 6.287l.626.36 14.427 8.304-.057.006-8.314.802 1.469-2.203-2.643-.147-.294-2.496-.111-.04-7.179-2.582-.053-.022-.136.048-5.224 1.862 1.489-2.553.052-.091zm21.44 8.958l.025.019 4.969 3.946-5.433.147-.064.092-.004.006-.02.027-.038.058-1.49 2.166-1.468-1.615-4.7-.294 1.249-1.469.355.041 2.215.253-.002-.056-.145-1.991-1.249-.89zm-14.905 3.304l3.451 1.395-.027.023-1.735 1.445-2.282-1.239-.288-.156z" opacity=".106" fill="url(#n)" transform="translate(-41.805 -221.187)"/><path d="M44.24 221.683l-2.303 1.767v.156l2.804 2.18zm5.53.05l-.252.004 6.438 11.423.002.03 15.391-6.534-.002-.067zm55.357 6.084l-5.948 1.248-.052.09 3.735.692.136-.048.053.022zm5.156 4.52l-.053.066.111.04.294 2.496 2.643.147zm-24.038 1.38l-.175.066-1.363 5.842 7.957-3.845zm-14.608.436l-15.485 3.319.011.257 17.861 11.422.037-.025zm54.93 2.622l-5.8.44 5.293 3.77.004-.006c.237-1.838.373-2.903.528-4.185zm-6.619 3.125l3.106 1.719-.01.002 1.468 1.615 1.49-2.166-2.872.535-.968-1.453zm-35.305.002l-.027.112-6.646 1.246-.028-.032-.055.115.707 4.694.092.115 6.064-6.064zm30.443 1.595l-4.017.207 2.282 1.239zm-36.324 4.75l5.647 7.058.022.006 4.93-4.605 3.958 6.85 3.333-8.063-7.088 1.065-.094.047.06-.056c-.032-.025-.112-.03-.126-.061zm14.586 9.33l-.012.008.003.006 3.091 9.272 3.09-4.77zm33.73 3.977l-.094.19-1.564 1.368 4.87-1.161zm-3.422.1c-.598.012-1.126.026-1.965.047l1.734 5.254.065.04.062.037.007-.006-.056-.048-.05-.042zm9.683 2.59l-1.994.2-.044-.134-.008.133-6.284 3.396-.029-.537-.052.632-.005.054c.644-.233 6.828-3.027 8.415-3.744zm-32.105 2.78l-.924 2.733.27.14 5.82.26-1.053-.836.015-.088 3.536-.21.017-.01-.85-1.649-2.68 1.856-.02-.01-3.926-2.067-.045-.119zm22.216.103l-9.773 4.674-.94 5.348zm-10.721 10.182l.028.219-.083.012.603 6.426 20.065-.207-.037-.067z" fill="url(#o)" fill-rule="evenodd" transform="translate(-41.805 -221.187)"/><path d="M72.155 221.322l-22.384.41 21.576 4.857-.022-.906zm-27.395 4.47l-.012.011 1.55 3.515 1.558-2.596zm60.993 2.384l7.525 6.91 6.755 1.395.09.006.057-.006zm-6.626.98l-1.49 2.552 5.225-1.861zm-9.029 3.442l2.622 3.155-8.013 3.872-.064.276 4.778 8.315c.453-1.4 3.295-12.357 3.295-12.357l.069-.138 1.385-2.769zm-34.138.634l.192 4.24 15.518-3.326-.01-.013zm70.632 3.562c-.155 1.282-.29 2.347-.528 4.185l.064-.092 5.433-.147zm-4.432 3.302l.002.056.968 1.453 2.871-.535.04-.057zm-44.273 1.246l-3.78 7.753 4.487-3.059zm11.474 7.364l-4.93 4.605 8.908 2.279zm11.801 1.698l-7.814 5.172 6.226 4.554zm23.537 6.431l-.23.216-.735 2.448 2.004-1.002zm-3.008 2.866c-.027 0-.036 0-.063.002l-.044.04-3.946 1.454-.09.184 5.878 3.574zm8.776.207l-5.047 1.204-.097.085-.004.045 5.982 1.071v-.003l-.787-2.359zm2.955 2.328l-.083.008c-1.587.716-7.772 3.51-8.416 3.744l-.012.147 8.431 15.624.08-.001zm-34.514 2.687l1.475 2.907.85-2.807zm24.65.102l-10.822 10.124.956-5.437-.09-.24-.118.24-1.897-3.277 1.133 8.804.002.017 12.042-9.197zm-14.66 1.997l-3.536.21-.015.089 1.335 1.06z" fill="url(#p)" fill-rule="evenodd" transform="translate(-41.805 -221.187)"/><path d="M2.936 4.6l.007.017.012-.011z" fill="none" stroke="#000" stroke-width=".265"/><path d="M41.937 221.53v1.92l2.304-1.767-.019-.153zm29.412 5.125l-15.391 6.535.002.042 15.699.901-.127-.143zm33.778 1.162l-2.076 2.004 7.179 2.582.053-.067-4.53-4.16zm-15.734 4.72l-3.148 1.18 6.419 2.063.056-.027-2.622-3.155zm-17.723 1.609l-.033.007 2.423 14.973.047-.031 3.835-7.868zm41.608.94l-1.469 2.202 8.314-.802-.09-.006zm8.738 3.01l.144 2 3.88.917.02-.028zm-2.423 1.763l-1.249 1.468 4.7.294.01-.002-3.106-1.72zm-7.93.22l-.882 1.468.288.157 4.017-.207.027-.023zm-26.913.009l-6.064 6.064.076.095 10.642 2.24a.217.217 0 0 1-.011-.166c.004-.01.024-.093.028-.105zm11.912 7.402l-.01.003-3.333 8.063.017.028 7.826-5.18.069-.421zm-7.132 1.058l-.06.057.094-.048c-.007-.005-.028-.004-.034-.009zm34.938 8.503l-2.84 2.652c.888-.023 1.411-.037 2.028-.049l.005-.118.074-.037zm3.554.616l-.944 1.887 3.212.397.177-.043zM99.52 260.09l-3.09 4.771.024.073.104.061 4.836.028-1.824-4.865.005-.028zm25.799 1.152l-.339 4.058.03.538 6.283-3.396.008-.13zm-7.77.138l-3.947 8.09.09.241-.015.089 9.773-4.674.101-.095zm-9.464 3.97l-.02.013.85 1.648 3.739 8.308.02.22.083-.013-.028-.219 20.577 6.383-8.395-15.556-.004.047-.143-.123-12.042 9.197-1.134-8.82-.388-.67zm-7.505 2.546l6.77 3.599-.95-3.34z" fill="url(#q)" fill-rule="evenodd" transform="translate(-41.805 -221.187)"/><path d="M72.155 221.322l-22.384.41 21.576 4.857-.022-.906zm-27.395 4.47l-.012.011 1.55 3.515 1.558-2.596zm60.993 2.384l7.525 6.91 6.755 1.395.09.006.057-.006zm-6.626.98l-1.49 2.552 5.225-1.861zm-9.029 3.442l2.622 3.155-8.013 3.872-.064.276 4.778 8.315c.453-1.4 3.295-12.357 3.295-12.357l.069-.138 1.385-2.769zm-34.138.634l.192 4.24 15.518-3.326-.01-.013zm70.632 3.562c-.155 1.282-.29 2.347-.528 4.185l.064-.092 5.433-.147zm-4.432 3.302l.002.056.968 1.453 2.871-.535.04-.057zm-44.273 1.246l-3.78 7.753 4.487-3.059zm11.474 7.364l-4.93 4.605 8.908 2.279zm11.801 1.698l-7.814 5.172 6.226 4.554zm23.537 6.431l-.23.216-.735 2.448 2.004-1.002zm-3.008 2.866c-.027 0-.036 0-.063.002l-.044.04-3.946 1.454-.09.184 5.878 3.574zm8.776.207l-5.047 1.204-.097.085-.004.045 5.982 1.071v-.003l-.787-2.359zm2.955 2.328l-.083.008c-1.587.716-7.772 3.51-8.416 3.744l-.012.147 8.431 15.624.08-.001zm-34.514 2.687l1.475 2.907.85-2.807zm24.65.102l-10.822 10.124.956-5.437-.09-.24-.118.24-1.897-3.277 1.133 8.804.002.017 12.042-9.197zm-14.66 1.997l-3.536.21-.015.089 1.335 1.06z" opacity=".472" fill="url(#r)" fill-rule="evenodd" transform="translate(-41.805 -221.187)"/><path d="M41.937 221.53v1.92l2.304-1.767-.019-.153zm29.412 5.125l-15.391 6.535.002.042 15.699.901-.127-.143zm33.778 1.162l-2.076 2.004 7.179 2.582.053-.067-4.53-4.16zm-15.734 4.72l-3.148 1.18 6.419 2.063.056-.027-2.622-3.155zm-17.723 1.609l-.033.007 2.423 14.973.047-.031 3.835-7.868zm41.608.94l-1.469 2.202 8.314-.802-.09-.006zm8.738 3.01l.144 2 3.88.917.02-.028zm-2.423 1.763l-1.249 1.468 4.7.294.01-.002-3.106-1.72zm-7.93.22l-.882 1.468.288.157 4.017-.207.027-.023zm-26.913.009l-6.064 6.064.076.095 10.642 2.24a.217.217 0 0 1-.011-.166c.004-.01.024-.093.028-.105zm11.912 7.402l-.01.003-3.333 8.063.017.028 7.826-5.18.069-.421zm-7.132 1.058l-.06.057.094-.048c-.007-.005-.028-.004-.034-.009zm34.938 8.503l-2.84 2.652c.888-.023 1.411-.037 2.028-.049l.005-.118.074-.037zm3.554.616l-.944 1.887 3.212.397.177-.043zM99.52 260.09l-3.09 4.771.024.073.104.061 4.836.028-1.824-4.865.005-.028zm25.799 1.152l-.339 4.058.03.538 6.283-3.396.008-.13zm-7.77.138l-3.947 8.09.09.241-.015.089 9.773-4.674.101-.095zm-9.464 3.97l-.02.013.85 1.648 3.739 8.308.02.22.083-.013-.028-.219 20.577 6.383-8.395-15.556-.004.047-.143-.123-12.042 9.197-1.134-8.82-.388-.67zm-7.505 2.546l6.77 3.599-.95-3.34z" opacity=".548" fill="url(#s)" fill-rule="evenodd" transform="translate(-41.805 -221.187)"/></svg>