<svg xmlns="http://www.w3.org/2000/svg" xmlns:xlink="http://www.w3.org/1999/xlink" width="227.591" height="170.652" viewBox="0 0 60.217 45.152"><defs><pattern xlink:href="#a" id="az" patternTransform="matrix(.0375 .0375 -.0375 .0375 7.939 110.057)"/><pattern xlink:href="#b" id="a" patternTransform="matrix(.0375 .0375 -.0375 .0375 248.332 173.557)"/><pattern xlink:href="#c" id="b" patternTransform="matrix(.0375 .0375 -.0375 .0375 10.077 109.404)"/><pattern patternUnits="userSpaceOnUse" width="12.974" height="12.974" patternTransform="matrix(.26458 0 0 .26458 357.166 24.808)" id="h"><rect ry="5.079" rx="5.079" width="11.972" height="11.972" x=".501" y=".501" fill-opacity=".498" stroke="#000" stroke-width="1.002" stroke-linecap="round" stroke-linejoin="bevel" stroke-opacity="0"/></pattern><pattern xlink:href="#d" id="e" patternTransform="rotate(45.001 333.84 909.465) scale(.24946)"/><pattern patternUnits="userSpaceOnUse" width="12.974" height="12.974" patternTransform="matrix(.26458 0 0 .26458 331.244 25.884)" id="d"><rect height="12.974" width="12.974" ry="3.048" fill-opacity=".498" stroke-width="3.78"/></pattern><pattern xlink:href="#f" id="g" patternTransform="matrix(.38027 0 0 .38027 748.998 20.393)"/><pattern patternUnits="userSpaceOnUse" width="12.974" height="12.974" patternTransform="matrix(.26458 0 0 .26458 404.463 -2.469)" id="f"><rect ry="0" y=".501" x=".501" height="11.972" width="11.972" fill="#ff0" fill-opacity=".043" stroke="#000" stroke-width="1.002" stroke-linecap="round" stroke-linejoin="bevel" stroke-opacity="0"/><rect y="-.338" x="3.081" height="9.473" width="9.473" rx="4.737" ry="4.737" transform="rotate(15)" fill="#ff0" fill-opacity=".498" stroke="#000" stroke-width=".793" stroke-linecap="round" stroke-linejoin="bevel" stroke-opacity="0"/></pattern><pattern patternUnits="userSpaceOnUse" width="12.974" height="12.974" patternTransform="matrix(.26458 0 0 .26458 357.166 24.808)" id="n"><rect ry="5.079" rx="5.079" width="11.972" height="11.972" x=".501" y=".501" fill-opacity=".498" stroke="#000" stroke-width="1.002" stroke-linecap="round" stroke-linejoin="bevel" stroke-opacity="0"/></pattern><pattern patternUnits="userSpaceOnUse" width="12.974" height="12.974" patternTransform="matrix(.26458 0 0 .26458 331.244 25.884)" id="l"><rect height="12.974" width="12.974" ry="3.048" fill-opacity=".498" stroke-width="3.78"/></pattern><pattern patternUnits="userSpaceOnUse" width="12.974" height="12.974" patternTransform="matrix(.26458 0 0 .26458 430.922 -32.372)" id="i"><rect ry="0" y=".501" x=".501" height="11.972" width="11.972" fill="#999" fill-opacity=".004" stroke="#000" stroke-width="1.002" stroke-linecap="round" stroke-linejoin="bevel" stroke-opacity="0"/><rect y="1.892" x="4.812" height="5.724" width="5.724" rx="2.862" ry="2.862" transform="rotate(15)" fill="#f06" fill-opacity=".498" stroke="#000" stroke-width=".479" stroke-linecap="round" stroke-linejoin="bevel" stroke-opacity="0"/></pattern><pattern xlink:href="#j" id="k" patternTransform="matrix(.38027 0 0 .38027 748.998 20.393)"/><pattern patternUnits="userSpaceOnUse" width="12.974" height="12.974" patternTransform="matrix(.26458 0 0 .26458 404.463 -2.469)" id="j"><rect ry="0" y=".501" x=".501" height="11.972" width="11.972" fill="#ff0" fill-opacity=".043" stroke="#000" stroke-width="1.002" stroke-linecap="round" stroke-linejoin="bevel" stroke-opacity="0"/><rect y="-.338" x="3.081" height="9.473" width="9.473" rx="4.737" ry="4.737" transform="rotate(15)" fill="#ff0" fill-opacity=".498" stroke="#000" stroke-width=".793" stroke-linecap="round" stroke-linejoin="bevel" stroke-opacity="0"/></pattern><pattern xlink:href="#l" id="m" patternTransform="rotate(45.001 333.84 909.465) scale(.24946)"/><pattern patternUnits="userSpaceOnUse" width="12.974" height="12.974" patternTransform="matrix(.26458 0 0 .26458 331.244 25.884)" id="t"><rect height="12.974" width="12.974" ry="3.048" fill-opacity=".498" stroke-width="3.78"/></pattern><pattern xlink:href="#o" id="u" patternTransform="rotate(15.006 312.194 481.177) scale(.0866)"/><pattern patternUnits="userSpaceOnUse" width="12.974" height="12.974" patternTransform="matrix(.26458 0 0 .26458 430.922 -32.372)" id="o"><rect ry="0" y=".501" x=".501" height="11.972" width="11.972" fill="#999" fill-opacity=".004" stroke="#000" stroke-width="1.002" stroke-linecap="round" stroke-linejoin="bevel" stroke-opacity="0"/><rect y="1.892" x="4.812" height="5.724" width="5.724" rx="2.862" ry="2.862" transform="rotate(15)" fill="#f06" fill-opacity=".498" stroke="#000" stroke-width=".479" stroke-linecap="round" stroke-linejoin="bevel" stroke-opacity="0"/></pattern><pattern xlink:href="#p" id="r" patternTransform="matrix(.10061 0 0 .10061 125.382 -63.957)"/><pattern xlink:href="#q" id="p" patternTransform="matrix(.38027 0 0 .38027 748.998 20.393)"/><pattern patternUnits="userSpaceOnUse" width="12.974" height="12.974" patternTransform="matrix(.26458 0 0 .26458 404.463 -2.469)" id="q"><rect ry="0" y=".501" x=".501" height="11.972" width="11.972" fill="#ff0" fill-opacity=".043" stroke="#000" stroke-width="1.002" stroke-linecap="round" stroke-linejoin="bevel" stroke-opacity="0"/><rect y="-.338" x="3.081" height="9.473" width="9.473" rx="4.737" ry="4.737" transform="rotate(15)" fill="#ff0" fill-opacity=".498" stroke="#000" stroke-width=".793" stroke-linecap="round" stroke-linejoin="bevel" stroke-opacity="0"/></pattern><pattern xlink:href="#r" id="v" patternTransform="matrix(.10061 0 0 .10061 125.382 -63.957)"/><pattern patternUnits="userSpaceOnUse" width="12.974" height="12.974" patternTransform="matrix(.26458 0 0 .26458 404.463 24.646)" id="w"><rect width="11.972" height="11.972" x=".501" y=".501" ry="0" fill-opacity=".004" stroke="#000" stroke-width="1.002" stroke-linecap="round" stroke-linejoin="bevel" stroke-opacity="0"/><rect transform="rotate(15)" ry="4.737" rx="4.737" width="9.473" height="9.473" x="3.081" y="-.338" fill-opacity=".498" stroke="#000" stroke-width=".793" stroke-linecap="round" stroke-linejoin="bevel" stroke-opacity="0"/></pattern><pattern patternUnits="userSpaceOnUse" width="12.974" height="12.974" patternTransform="matrix(.26458 0 0 .26458 453.676 24.438)" id="x"><rect ry="0" y=".501" x=".501" height="11.972" width="11.972" fill="#999" fill-opacity=".004" stroke="#000" stroke-width="1.002" stroke-linecap="round" stroke-linejoin="bevel" stroke-opacity="0"/><rect y="2.758" x="6.424" height="3.538" width="3.538" rx="1.769" ry="1.769" transform="rotate(15)" fill-opacity=".498" stroke="#000" stroke-width=".296" stroke-linecap="round" stroke-linejoin="bevel" stroke-opacity="0"/></pattern><pattern patternUnits="userSpaceOnUse" width="12.974" height="12.974" patternTransform="matrix(.26458 0 0 .26458 430.922 24.646)" id="y"><rect ry="0" y=".501" x=".501" height="11.972" width="11.972" fill-opacity=".004" stroke="#000" stroke-width="1.002" stroke-linecap="round" stroke-linejoin="bevel" stroke-opacity="0"/><rect y="1.892" x="4.812" height="5.724" width="5.724" rx="2.862" ry="2.862" transform="rotate(15)" fill-opacity=".498" stroke="#000" stroke-width=".479" stroke-linecap="round" stroke-linejoin="bevel" stroke-opacity="0"/></pattern><pattern patternUnits="userSpaceOnUse" width="12.974" height="12.974" patternTransform="matrix(.26458 0 0 .26458 453.676 -53.01)" id="z"><rect ry="0" y=".501" x=".501" height="11.972" width="11.972" fill="#999" fill-opacity=".004" stroke="#000" stroke-width="1.002" stroke-linecap="round" stroke-linejoin="bevel" stroke-opacity="0"/><rect y="2.757" x="6.424" height="3.538" width="3.538" rx="1.769" ry="1.769" transform="rotate(15)" fill="#0ff" fill-opacity=".498" stroke="#000" stroke-width=".296" stroke-linecap="round" stroke-linejoin="bevel" stroke-opacity="0"/></pattern><pattern patternUnits="userSpaceOnUse" width="12.974" height="12.974" patternTransform="matrix(.26458 0 0 .26458 453.676 -32.372)" id="A"><rect width="11.972" height="11.972" x=".501" y=".501" ry="0" fill="#999" fill-opacity=".004" stroke="#000" stroke-width="1.002" stroke-linecap="round" stroke-linejoin="bevel" stroke-opacity="0"/><rect transform="rotate(15)" ry="1.769" rx="1.769" width="3.538" height="3.538" x="6.424" y="2.758" fill="#f06" fill-opacity=".498" stroke="#000" stroke-width=".296" stroke-linecap="round" stroke-linejoin="bevel" stroke-opacity="0"/></pattern><pattern xlink:href="#s" id="B" patternTransform="rotate(44.998 135.638 118.09) scale(.066)"/><pattern xlink:href="#t" id="s" patternTransform="rotate(45.001 333.84 909.465) scale(.24946)"/><pattern patternUnits="userSpaceOnUse" width="12.974" height="12.974" patternTransform="matrix(.26458 0 0 .26458 430.922 -52.898)" id="C"><rect width="11.972" height="11.972" x=".501" y=".501" ry="0" fill="#0ff" fill-opacity=".004" stroke="#000" stroke-width="1.002" stroke-linecap="round" stroke-linejoin="bevel" stroke-opacity="0"/><rect transform="rotate(15)" ry="2.862" rx="2.862" width="5.724" height="5.724" x="4.812" y="1.892" fill="#0ff" fill-opacity=".498" stroke="#000" stroke-width=".479" stroke-linecap="round" stroke-linejoin="bevel" stroke-opacity="0"/></pattern><pattern patternUnits="userSpaceOnUse" width="12.974" height="12.974" patternTransform="matrix(.26458 0 0 .26458 357.166 24.808)" id="D"><rect ry="5.079" rx="5.079" width="11.972" height="11.972" x=".501" y=".501" fill-opacity=".498" stroke="#000" stroke-width="1.002" stroke-linecap="round" stroke-linejoin="bevel" stroke-opacity="0"/></pattern><pattern patternUnits="userSpaceOnUse" width="12.974" height="12.974" patternTransform="matrix(.26458 0 0 .26458 331.244 25.884)" id="J"><rect height="12.974" width="12.974" ry="3.048" fill-opacity=".498" stroke-width="3.78"/></pattern><pattern xlink:href="#E" id="K" patternTransform="rotate(15.006 312.194 481.177) scale(.0866)"/><pattern patternUnits="userSpaceOnUse" width="12.974" height="12.974" patternTransform="matrix(.26458 0 0 .26458 430.922 -32.372)" id="E"><rect ry="0" y=".501" x=".501" height="11.972" width="11.972" fill="#999" fill-opacity=".004" stroke="#000" stroke-width="1.002" stroke-linecap="round" stroke-linejoin="bevel" stroke-opacity="0"/><rect y="1.892" x="4.812" height="5.724" width="5.724" rx="2.862" ry="2.862" transform="rotate(15)" fill="#f06" fill-opacity=".498" stroke="#000" stroke-width=".479" stroke-linecap="round" stroke-linejoin="bevel" stroke-opacity="0"/></pattern><pattern xlink:href="#F" id="H" patternTransform="matrix(.10061 0 0 .10061 125.382 -63.957)"/><pattern xlink:href="#G" id="F" patternTransform="matrix(.38027 0 0 .38027 748.998 20.393)"/><pattern patternUnits="userSpaceOnUse" width="12.974" height="12.974" patternTransform="matrix(.26458 0 0 .26458 404.463 -2.469)" id="G"><rect ry="0" y=".501" x=".501" height="11.972" width="11.972" fill="#ff0" fill-opacity=".043" stroke="#000" stroke-width="1.002" stroke-linecap="round" stroke-linejoin="bevel" stroke-opacity="0"/><rect y="-.338" x="3.081" height="9.473" width="9.473" rx="4.737" ry="4.737" transform="rotate(15)" fill="#ff0" fill-opacity=".498" stroke="#000" stroke-width=".793" stroke-linecap="round" stroke-linejoin="bevel" stroke-opacity="0"/></pattern><pattern xlink:href="#H" id="L" patternTransform="matrix(.10061 0 0 .10061 125.382 -63.957)"/><pattern patternUnits="userSpaceOnUse" width="12.974" height="12.974" patternTransform="matrix(.26458 0 0 .26458 404.463 24.646)" id="M"><rect width="11.972" height="11.972" x=".501" y=".501" ry="0" fill-opacity=".004" stroke="#000" stroke-width="1.002" stroke-linecap="round" stroke-linejoin="bevel" stroke-opacity="0"/><rect transform="rotate(15)" ry="4.737" rx="4.737" width="9.473" height="9.473" x="3.081" y="-.338" fill-opacity=".498" stroke="#000" stroke-width=".793" stroke-linecap="round" stroke-linejoin="bevel" stroke-opacity="0"/></pattern><pattern patternUnits="userSpaceOnUse" width="12.974" height="12.974" patternTransform="matrix(.26458 0 0 .26458 453.676 24.438)" id="N"><rect ry="0" y=".501" x=".501" height="11.972" width="11.972" fill="#999" fill-opacity=".004" stroke="#000" stroke-width="1.002" stroke-linecap="round" stroke-linejoin="bevel" stroke-opacity="0"/><rect y="2.758" x="6.424" height="3.538" width="3.538" rx="1.769" ry="1.769" transform="rotate(15)" fill-opacity=".498" stroke="#000" stroke-width=".296" stroke-linecap="round" stroke-linejoin="bevel" stroke-opacity="0"/></pattern><pattern patternUnits="userSpaceOnUse" width="12.974" height="12.974" patternTransform="matrix(.26458 0 0 .26458 430.922 24.646)" id="O"><rect ry="0" y=".501" x=".501" height="11.972" width="11.972" fill-opacity=".004" stroke="#000" stroke-width="1.002" stroke-linecap="round" stroke-linejoin="bevel" stroke-opacity="0"/><rect y="1.892" x="4.812" height="5.724" width="5.724" rx="2.862" ry="2.862" transform="rotate(15)" fill-opacity=".498" stroke="#000" stroke-width=".479" stroke-linecap="round" stroke-linejoin="bevel" stroke-opacity="0"/></pattern><pattern patternUnits="userSpaceOnUse" width="12.974" height="12.974" patternTransform="matrix(.26458 0 0 .26458 453.676 -53.01)" id="P"><rect ry="0" y=".501" x=".501" height="11.972" width="11.972" fill="#999" fill-opacity=".004" stroke="#000" stroke-width="1.002" stroke-linecap="round" stroke-linejoin="bevel" stroke-opacity="0"/><rect y="2.757" x="6.424" height="3.538" width="3.538" rx="1.769" ry="1.769" transform="rotate(15)" fill="#0ff" fill-opacity=".498" stroke="#000" stroke-width=".296" stroke-linecap="round" stroke-linejoin="bevel" stroke-opacity="0"/></pattern><pattern patternUnits="userSpaceOnUse" width="12.974" height="12.974" patternTransform="matrix(.26458 0 0 .26458 453.676 -32.372)" id="Q"><rect width="11.972" height="11.972" x=".501" y=".501" ry="0" fill="#999" fill-opacity=".004" stroke="#000" stroke-width="1.002" stroke-linecap="round" stroke-linejoin="bevel" stroke-opacity="0"/><rect transform="rotate(15)" ry="1.769" rx="1.769" width="3.538" height="3.538" x="6.424" y="2.758" fill="#f06" fill-opacity=".498" stroke="#000" stroke-width=".296" stroke-linecap="round" stroke-linejoin="bevel" stroke-opacity="0"/></pattern><pattern xlink:href="#I" id="R" patternTransform="rotate(44.998 135.638 118.09) scale(.066)"/><pattern xlink:href="#J" id="I" patternTransform="rotate(45.001 333.84 909.465) scale(.24946)"/><pattern patternUnits="userSpaceOnUse" width="12.974" height="12.974" patternTransform="matrix(.26458 0 0 .26458 430.922 -52.898)" id="S"><rect width="11.972" height="11.972" x=".501" y=".501" ry="0" fill="#0ff" fill-opacity=".004" stroke="#000" stroke-width="1.002" stroke-linecap="round" stroke-linejoin="bevel" stroke-opacity="0"/><rect transform="rotate(15)" ry="2.862" rx="2.862" width="5.724" height="5.724" x="4.812" y="1.892" fill="#0ff" fill-opacity=".498" stroke="#000" stroke-width=".479" stroke-linecap="round" stroke-linejoin="bevel" stroke-opacity="0"/></pattern><pattern patternUnits="userSpaceOnUse" width="12.974" height="12.974" patternTransform="matrix(.26458 0 0 .26458 357.166 24.808)" id="T"><rect ry="5.079" rx="5.079" width="11.972" height="11.972" x=".501" y=".501" fill-opacity=".498" stroke="#000" stroke-width="1.002" stroke-linecap="round" stroke-linejoin="bevel" stroke-opacity="0"/></pattern><pattern patternTransform="rotate(45 -53.041 214.48) scale(.20041)" id="c" xlink:href="#U"/><pattern patternTransform="rotate(44.998 -98.341 42.73) scale(.066)" id="ax" xlink:href="#V"/><pattern patternTransform="matrix(.10061 0 0 .10061 3.567 79.427)" id="am" xlink:href="#W"/><pattern xlink:href="#X" id="aD" patternTransform="matrix(.12094 0 0 .08698 8.649 110.801)"/><pattern patternUnits="userSpaceOnUse" width="12.974" height="12.974" patternTransform="matrix(.26458 0 0 .26458 331.244 -1.712)" id="X"><rect ry="3.048" width="12.974" height="12.974" fill="#ff0" fill-opacity=".498" stroke-width="3.78"/></pattern><pattern xlink:href="#Y" id="aC" patternTransform="matrix(.06196 .0166 -.01246 .0465 10.35 112.675)"/><pattern patternUnits="userSpaceOnUse" width="12.974" height="12.974" patternTransform="matrix(.26458 0 0 .26458 430.922 -32.372)" id="Y"><rect ry="0" y=".501" x=".501" height="11.972" width="11.972" fill="#999" fill-opacity=".004" stroke="#000" stroke-width="1.002" stroke-linecap="round" stroke-linejoin="bevel" stroke-opacity="0"/><rect y="1.892" x="4.812" height="5.724" width="5.724" rx="2.862" ry="2.862" transform="rotate(15)" fill="#f06" fill-opacity=".498" stroke="#000" stroke-width=".479" stroke-linecap="round" stroke-linejoin="bevel" stroke-opacity="0"/></pattern><pattern xlink:href="#Z" id="U" patternTransform="rotate(45 -76.217 634.373) scale(.20041)"/><pattern patternUnits="userSpaceOnUse" width="12.974" height="12.974" patternTransform="matrix(.26458 0 0 .26458 357.166 24.808)" id="Z"><rect ry="5.079" rx="5.079" width="11.972" height="11.972" x=".501" y=".501" fill-opacity=".498" stroke="#000" stroke-width="1.002" stroke-linecap="round" stroke-linejoin="bevel" stroke-opacity="0"/></pattern><pattern xlink:href="#aa" id="aA" patternTransform="rotate(14.999 -427.336 95.298) scale(.05215)"/><pattern patternUnits="userSpaceOnUse" width="12.974" height="12.974" patternTransform="matrix(.26458 0 0 .26458 404.463 -32.372)" id="aa"><rect width="11.972" height="11.972" x=".501" y=".501" ry="0" fill="#999" fill-opacity=".043" stroke="#000" stroke-width="1.002" stroke-linecap="round" stroke-linejoin="bevel" stroke-opacity="0"/><rect transform="rotate(15)" ry="4.737" rx="4.737" width="9.473" height="9.473" x="3.081" y="-.338" fill="#f06" fill-opacity=".498" stroke="#000" stroke-width=".793" stroke-linecap="round" stroke-linejoin="bevel" stroke-opacity="0"/></pattern><pattern xlink:href="#V" id="ay" patternTransform="rotate(44.998 -98.341 42.73) scale(.066)"/><pattern xlink:href="#ab" id="V" patternTransform="rotate(44.998 135.638 118.09) scale(.066)"/><pattern xlink:href="#ac" id="ab" patternTransform="rotate(45.001 333.84 909.465) scale(.24946)"/><pattern patternUnits="userSpaceOnUse" width="12.974" height="12.974" patternTransform="matrix(.26458 0 0 .26458 331.244 25.884)" id="ac"><rect height="12.974" width="12.974" ry="3.048" fill-opacity=".498" stroke-width="3.78"/></pattern><pattern xlink:href="#ad" id="aw" patternTransform="matrix(.05761 .01544 -.00811 .03028 6.842 76.889)"/><pattern patternUnits="userSpaceOnUse" width="12.974" height="12.974" patternTransform="matrix(.26458 0 0 .26458 453.676 -32.372)" id="ad"><rect width="11.972" height="11.972" x=".501" y=".501" ry="0" fill="#999" fill-opacity=".004" stroke="#000" stroke-width="1.002" stroke-linecap="round" stroke-linejoin="bevel" stroke-opacity="0"/><rect transform="rotate(15)" ry="1.769" rx="1.769" width="3.538" height="3.538" x="6.424" y="2.758" fill="#f06" fill-opacity=".498" stroke="#000" stroke-width=".296" stroke-linecap="round" stroke-linejoin="bevel" stroke-opacity="0"/></pattern><pattern xlink:href="#ae" id="av" patternTransform="rotate(-14.988 309.272 2.984) scale(.03701)"/><pattern patternUnits="userSpaceOnUse" width="12.974" height="12.974" patternTransform="matrix(.26458 0 0 .26458 453.676 -53.01)" id="ae"><rect ry="0" y=".501" x=".501" height="11.972" width="11.972" fill="#999" fill-opacity=".004" stroke="#000" stroke-width="1.002" stroke-linecap="round" stroke-linejoin="bevel" stroke-opacity="0"/><rect y="2.757" x="6.424" height="3.538" width="3.538" rx="1.769" ry="1.769" transform="rotate(15)" fill="#0ff" fill-opacity=".498" stroke="#000" stroke-width=".296" stroke-linecap="round" stroke-linejoin="bevel" stroke-opacity="0"/></pattern><pattern xlink:href="#ae" id="au" patternTransform="rotate(-15.011 316.057 -5.627) scale(.04484)"/><pattern xlink:href="#af" id="at" patternTransform="rotate(45.002 -93.413 48.506) scale(.02629)"/><pattern patternUnits="userSpaceOnUse" width="12.974" height="12.974" patternTransform="matrix(.26458 0 0 .26458 430.922 24.646)" id="af"><rect ry="0" y=".501" x=".501" height="11.972" width="11.972" fill-opacity=".004" stroke="#000" stroke-width="1.002" stroke-linecap="round" stroke-linejoin="bevel" stroke-opacity="0"/><rect y="1.892" x="4.812" height="5.724" width="5.724" rx="2.862" ry="2.862" transform="rotate(15)" fill-opacity=".498" stroke="#000" stroke-width=".479" stroke-linecap="round" stroke-linejoin="bevel" stroke-opacity="0"/></pattern><pattern xlink:href="#ag" id="as" patternTransform="rotate(45.001 -89.232 55.158) scale(.03513)"/><pattern patternUnits="userSpaceOnUse" width="12.974" height="12.974" patternTransform="matrix(.26458 0 0 .26458 453.676 24.438)" id="ag"><rect ry="0" y=".501" x=".501" height="11.972" width="11.972" fill="#999" fill-opacity=".004" stroke="#000" stroke-width="1.002" stroke-linecap="round" stroke-linejoin="bevel" stroke-opacity="0"/><rect y="2.758" x="6.424" height="3.538" width="3.538" rx="1.769" ry="1.769" transform="rotate(15)" fill-opacity=".498" stroke="#000" stroke-width=".296" stroke-linecap="round" stroke-linejoin="bevel" stroke-opacity="0"/></pattern><pattern xlink:href="#ac" id="ar" patternTransform="rotate(45.001 -92.334 50.218) scale(.06213)"/><pattern xlink:href="#ah" id="aq" patternTransform="rotate(14.992 -293.33 90.218) scale(.06448)"/><pattern xlink:href="#Y" id="ah" patternTransform="rotate(15.006 312.194 481.177) scale(.0866)"/><pattern xlink:href="#ai" id="ap" patternTransform="rotate(-15.001 298.857 19.806) scale(.08517)"/><pattern patternUnits="userSpaceOnUse" width="12.974" height="12.974" patternTransform="matrix(.26458 0 0 .26458 430.922 -52.898)" id="ai"><rect width="11.972" height="11.972" x=".501" y=".501" ry="0" fill="#0ff" fill-opacity=".004" stroke="#000" stroke-width="1.002" stroke-linecap="round" stroke-linejoin="bevel" stroke-opacity="0"/><rect transform="rotate(15)" ry="2.862" rx="2.862" width="5.724" height="5.724" x="4.812" y="1.892" fill="#0ff" fill-opacity=".498" stroke="#000" stroke-width=".479" stroke-linecap="round" stroke-linejoin="bevel" stroke-opacity="0"/></pattern><pattern xlink:href="#aj" id="ao" patternTransform="matrix(.0703 0 0 .0703 2.73 74.474)"/><pattern patternUnits="userSpaceOnUse" width="12.974" height="12.974" patternTransform="matrix(.26458 0 0 .26458 381.242 -1.62)" id="aj"><rect y=".501" x=".501" height="11.972" width="11.972" rx="5.986" ry="5.986" fill="#ff0" fill-opacity=".498" stroke="#000" stroke-width="1.002" stroke-linecap="round" stroke-linejoin="bevel" stroke-opacity="0"/></pattern><pattern xlink:href="#W" id="an" patternTransform="matrix(.10061 0 0 .10061 3.567 79.427)"/><pattern xlink:href="#ak" id="W" patternTransform="matrix(.10061 0 0 .10061 125.382 -63.957)"/><pattern xlink:href="#al" id="ak" patternTransform="matrix(.38027 0 0 .38027 748.998 20.393)"/><pattern patternUnits="userSpaceOnUse" width="12.974" height="12.974" patternTransform="matrix(.26458 0 0 .26458 404.463 -2.469)" id="al"><rect ry="0" y=".501" x=".501" height="11.972" width="11.972" fill="#ff0" fill-opacity=".043" stroke="#000" stroke-width="1.002" stroke-linecap="round" stroke-linejoin="bevel" stroke-opacity="0"/><rect y="-.338" x="3.081" height="9.473" width="9.473" rx="4.737" ry="4.737" transform="rotate(15)" fill="#ff0" fill-opacity=".498" stroke="#000" stroke-width=".793" stroke-linecap="round" stroke-linejoin="bevel" stroke-opacity="0"/></pattern></defs><g transform="translate(28.078 -83.513)"><path d="M-1.836 87.175a10.47 10.47 0 0 0-1.816.142c-.083.152-.184.3-.296.444-.453.361-1.06.544-1.468.88-.901.626-1.586.861-1.91 1.91-.313.932-1.24 2.62-.587 3.525.313.86 1.637.204 1.616-.588.158-.816.418-1.575 1.027-1.909.298-.323.882-.295 1.277-.008a.54.54 0 0 1 .342-.109c.842-.211 1.632-.565 2.377-1.006-.771-.267-.54-1.498.116-1.625.3-.358.528-.878.652-1.456-.355-.115-.791-.188-1.33-.2zM5.9 90.167c-.4.05-.777.138-1.126.264l.115.183c.396-.114.798-.223 1.197-.333l-.048-.024c-.044-.032-.092-.06-.138-.09zm6.44.512c.018.467.062.969.013 1.301-.031.943.1 1.952-.148 2.743-.327 1.564-.329 3.206-.586 4.786.021.415.022.799.008 1.168.345.168.692.331 1.042.487.176-.288.315-.567.376-.773.53-.484 1.017-1.398 1.217-2.203.587-.916.856-2.12 1.175-3.07.29-.892.115-1.89 0-2.789a4.098 4.098 0 0 0-.064-.583c-1.012-.45-2.032-.852-3.02-1.065a.086.086 0 0 1-.014-.002zm-5.081.213c-.669.085-1.35.103-1.996.296.206.297.416.555.629.685.014.927 1.18 2.555.44 3.23-.156.604-1.096.984-.881 1.616.619.558-.555 1.745.587 1.909.563.442.054 1.235-.018 2.094.962-1.227 1.75-2.49 3.543-1.23.01-.699.045-1.387.14-2.05.27-1.184.112-2.532.154-3.807-.437-.86-1-1.454-1.322-1.91-.38-.28-.822-.568-1.276-.833zm-17.522.434c-.627.323-1.38.463-1.994.78l-.943.942c.205-.456.544-.737.943-.943l.086-.086c-.96.515-1.499 1.349-1.827 2.306.286.351.468.976.505 1.366.983.448.596-1.72 1.028-2.203.495-.948 1.714-.52 1.762.44-.167 1.117 2.119.826 1.468-.293-.248-.098-1.04-1.022-1.027-1.175v-1.134zm9.958.045c-.035.03-.07.06-.103.093.058.05.118.094.179.132a2.921 2.921 0 0 0-.077-.225zm.139 1.07l-.813.206-2.725.157c-.178.419-.164 1.704.066 1.647.638.743 1.689.137 2.187-.375.454-.365 1.104-.84 1.284-1.635zm20.258 1.63c-.127.553-.284 1.084-.396 1.62-.41.767-.939 1.936-1.616 2.643-.585 1.107-1.072 2.06-1.643 3.105-.03.304-.25.692-.491 1.055.543.211 1.087.421 1.628.641l1.134.252c.342-.774.736-1.475 1.135-2.262.174-1.226.694-2.023 1.018-2.944.501-.717.702-2.124.891-3.062.008-.034.013-.069.02-.103-.554-.314-1.12-.622-1.68-.945zm-18.18.879c-.907.04-1.733 1.03-1.977 1.887-.327 1.176-1.55-.486-2.513.364-1.03.915-2.887.626-2.55-1.094-.122-1.947-2.445.054-2.88.956-.263 1.265-.228 2.644-.873 3.852-.592 1.17-1.404 2.335-2.44 3.158-.983.349-1.976-.085-2.624-.832.437 1.24 1.14 2.319 2.286 2.94 1.815-.732 3.53-2.241 3.423-4.37.821-1.73 3.1 1.081 4.751.854 1.715.462 3.545.39 5.323.083-.292-.495-.363-1.011.208-1.612 1.418-1.45-1.736-1.77-1.034-3.019.343-1.1 1.908-1.814 1.535-3.03a1.283 1.283 0 0 0-.635-.137z" fill="url(#am)" fill-rule="evenodd"/><path d="M-1.836 87.175a10.47 10.47 0 0 0-1.816.142c-.083.152-.184.3-.296.444-.453.361-1.06.544-1.468.88-.901.626-1.586.861-1.91 1.91-.313.932-1.24 2.62-.587 3.525.313.86 1.637.204 1.616-.588.158-.816.418-1.575 1.027-1.909.298-.323.882-.295 1.277-.008a.54.54 0 0 1 .342-.109c.842-.211 1.632-.565 2.377-1.006-.771-.267-.54-1.498.116-1.625.3-.358.528-.878.652-1.456-.355-.115-.791-.188-1.33-.2zM5.9 90.167c-.4.05-.777.138-1.126.264l.115.183c.396-.114.798-.223 1.197-.333l-.048-.024c-.044-.032-.092-.06-.138-.09zm6.44.512c.018.467.062.969.013 1.301-.031.943.1 1.952-.148 2.743-.327 1.564-.329 3.206-.586 4.786.021.415.022.799.008 1.168.345.168.692.331 1.042.487.176-.288.315-.567.376-.773.53-.484 1.017-1.398 1.217-2.203.587-.916.856-2.12 1.175-3.07.29-.892.115-1.89 0-2.789a4.098 4.098 0 0 0-.064-.583c-1.012-.45-2.032-.852-3.02-1.065a.086.086 0 0 1-.014-.002zm-5.081.213c-.669.085-1.35.103-1.996.296.206.297.416.555.629.685.014.927 1.18 2.555.44 3.23-.156.604-1.096.984-.881 1.616.619.558-.555 1.745.587 1.909.563.442.054 1.235-.018 2.094.962-1.227 1.75-2.49 3.543-1.23.01-.699.045-1.387.14-2.05.27-1.184.112-2.532.154-3.807-.437-.86-1-1.454-1.322-1.91-.38-.28-.822-.568-1.276-.833zm-17.522.434c-.627.323-1.38.463-1.994.78l-.943.942c.205-.456.544-.737.943-.943l.086-.086c-.96.515-1.499 1.349-1.827 2.306.286.351.468.976.505 1.366.983.448.596-1.72 1.028-2.203.495-.948 1.714-.52 1.762.44-.167 1.117 2.119.826 1.468-.293-.248-.098-1.04-1.022-1.027-1.175v-1.134zm9.958.045c-.035.03-.07.06-.103.093.058.05.118.094.179.132a2.921 2.921 0 0 0-.077-.225zm.139 1.07l-.813.206-2.725.157c-.178.419-.164 1.704.066 1.647.638.743 1.689.137 2.187-.375.454-.365 1.104-.84 1.284-1.635zm20.258 1.63c-.127.553-.284 1.084-.396 1.62-.41.767-.939 1.936-1.616 2.643-.585 1.107-1.072 2.06-1.643 3.105-.03.304-.25.692-.491 1.055.543.211 1.087.421 1.628.641l1.134.252c.342-.774.736-1.475 1.135-2.262.174-1.226.694-2.023 1.018-2.944.501-.717.702-2.124.891-3.062.008-.034.013-.069.02-.103-.554-.314-1.12-.622-1.68-.945zm-18.18.879c-.907.04-1.733 1.03-1.977 1.887-.327 1.176-1.55-.486-2.513.364-1.03.915-2.887.626-2.55-1.094-.122-1.947-2.445.054-2.88.956-.263 1.265-.228 2.644-.873 3.852-.592 1.17-1.404 2.335-2.44 3.158-.983.349-1.976-.085-2.624-.832.437 1.24 1.14 2.319 2.286 2.94 1.815-.732 3.53-2.241 3.423-4.37.821-1.73 3.1 1.081 4.751.854 1.715.462 3.545.39 5.323.083-.292-.495-.363-1.011.208-1.612 1.418-1.45-1.736-1.77-1.034-3.019.343-1.1 1.908-1.814 1.535-3.03a1.283 1.283 0 0 0-.635-.137z" fill="url(#an)" fill-rule="evenodd"/><path d="M-1.836 87.175a10.47 10.47 0 0 0-1.816.142c-.083.152-.184.3-.296.444-.453.361-1.06.544-1.468.88-.901.626-1.586.861-1.91 1.91-.313.932-1.24 2.62-.587 3.525.313.86 1.637.204 1.616-.588.158-.816.418-1.575 1.027-1.909.298-.323.882-.295 1.277-.008a.54.54 0 0 1 .342-.109c.842-.211 1.632-.565 2.377-1.006-.771-.267-.54-1.498.116-1.625.3-.358.528-.878.652-1.456-.355-.115-.791-.188-1.33-.2zM5.9 90.167c-.4.05-.777.138-1.126.264l.115.183c.396-.114.798-.223 1.197-.333l-.048-.024c-.044-.032-.092-.06-.138-.09zm6.44.512c.018.467.062.969.013 1.301-.031.943.1 1.952-.148 2.743-.327 1.564-.329 3.206-.586 4.786.021.415.022.799.008 1.168.345.168.692.331 1.042.487.176-.288.315-.567.376-.773.53-.484 1.017-1.398 1.217-2.203.587-.916.856-2.12 1.175-3.07.29-.892.115-1.89 0-2.789a4.098 4.098 0 0 0-.064-.583c-1.012-.45-2.032-.852-3.02-1.065a.086.086 0 0 1-.014-.002zm-5.081.213c-.669.085-1.35.103-1.996.296.206.297.416.555.629.685.014.927 1.18 2.555.44 3.23-.156.604-1.096.984-.881 1.616.619.558-.555 1.745.587 1.909.563.442.054 1.235-.018 2.094.962-1.227 1.75-2.49 3.543-1.23.01-.699.045-1.387.14-2.05.27-1.184.112-2.532.154-3.807-.437-.86-1-1.454-1.322-1.91-.38-.28-.822-.568-1.276-.833zm-17.522.434c-.627.323-1.38.463-1.994.78l-.943.942c.205-.456.544-.737.943-.943l.086-.086c-.96.515-1.499 1.349-1.827 2.306.286.351.468.976.505 1.366.983.448.596-1.72 1.028-2.203.495-.948 1.714-.52 1.762.44-.167 1.117 2.119.826 1.468-.293-.248-.098-1.04-1.022-1.027-1.175v-1.134zm9.958.045c-.035.03-.07.06-.103.093.058.05.118.094.179.132a2.921 2.921 0 0 0-.077-.225zm.139 1.07l-.813.206-2.725.157c-.178.419-.164 1.704.066 1.647.638.743 1.689.137 2.187-.375.454-.365 1.104-.84 1.284-1.635zm20.258 1.63c-.127.553-.284 1.084-.396 1.62-.41.767-.939 1.936-1.616 2.643-.585 1.107-1.072 2.06-1.643 3.105-.03.304-.25.692-.491 1.055.543.211 1.087.421 1.628.641l1.134.252c.342-.774.736-1.475 1.135-2.262.174-1.226.694-2.023 1.018-2.944.501-.717.702-2.124.891-3.062.008-.034.013-.069.02-.103-.554-.314-1.12-.622-1.68-.945zm-18.18.879c-.907.04-1.733 1.03-1.977 1.887-.327 1.176-1.55-.486-2.513.364-1.03.915-2.887.626-2.55-1.094-.122-1.947-2.445.054-2.88.956-.263 1.265-.228 2.644-.873 3.852-.592 1.17-1.404 2.335-2.44 3.158-.983.349-1.976-.085-2.624-.832.437 1.24 1.14 2.319 2.286 2.94 1.815-.732 3.53-2.241 3.423-4.37.821-1.73 3.1 1.081 4.751.854 1.715.462 3.545.39 5.323.083-.292-.495-.363-1.011.208-1.612 1.418-1.45-1.736-1.77-1.034-3.019.343-1.1 1.908-1.814 1.535-3.03a1.283 1.283 0 0 0-.635-.137z" fill="url(#ao)" fill-rule="evenodd"/><path d="M-1.836 87.174a8.966 8.966 0 0 0-.85.028c-.057.004-.118.011-.178.017.014-.001.027-.001.04-.003l-.162.016.016-.002-.08.008-.11.01c-.143.018-.292.039-.444.062l-.016.003-.032.004a16.77 16.77 0 0 0-.87.158c-2.013.341-4.13 1.402-5.023 3.306a2.305 2.305 0 0 1-.718.545c-.376.194-.796.323-1.206.463l-.09.032a7.065 7.065 0 0 0-.438.163l-.02.008a3.788 3.788 0 0 0-.24.113l-.943.943a.03.03 0 0 1 .004-.008l.005-.008a1.81 1.81 0 0 1 .115-.21l.03-.047c.046-.068.095-.132.148-.19.006-.008.013-.014.02-.021.048-.053.1-.101.152-.147h.001c.013-.011.024-.023.037-.033a2.694 2.694 0 0 1 .432-.28l.085-.085a3.589 3.589 0 0 0-.306.187l-.055.037a3.457 3.457 0 0 0-.266.205 3.56 3.56 0 0 0-.589.654l-.084.124-.047.07a5.025 5.025 0 0 0-.48 1.028c-.131.385-.226.79-.302 1.202.031.05.066.1.096.151a3.228 3.228 0 0 0-.236.962c-.007-.004-.015-.013-.022-.017-.046.388-.088.769-.127 1.142.035.02.07.04.105.062-.039.248-.092.496-.156.741-.006.065-.003.13 0 .193-.005-.006-.011-.01-.016-.017.06 1.419.206 3.063.712 4.498a7.87 7.87 0 0 0 .334.796c.053.107.109.212.167.315l.059.106c.18.307.386.595.622.855.028.03.06.058.089.087.07.073.14.146.215.214a4.253 4.253 0 0 0 .174.15l.096.073c.034.026.067.052.102.076.049.036.1.07.151.103l.056.037c.072.045.145.088.221.129 1.815-.733 3.53-2.242 3.422-4.372.722-1.518 2.566.463 4.123.816 0-.012 0-.024-.002-.037-.362-.252-.141-.831.315-.584.207-.082.444-.04.604-.22a.88.88 0 0 1 .475-.11c.516.016 1.073.384.92.9a1.77 1.77 0 0 1-.253.351l-.002.002c.149.016.298.03.448.04a14.93 14.93 0 0 0 .596.023c.097.002.193.002.289.002.124-.001.248-.005.372-.01.097-.003.194-.006.29-.012a14.6 14.6 0 0 0 .472-.034l.235-.024a17.027 17.027 0 0 0 .602-.073l.196-.03a11.113 11.113 0 0 1-.156-.647 8.053 8.053 0 0 1-.101-.58c.058-1.427-.174-2.892.299-4.276-.408-.31-.176-1.122.331-1.147a.47.47 0 0 1 .105.006c.898.65 1.075 1.852 1.359 2.85.433.862-.192 1.76-.443 2.314.068.102.142.2.218.297l.022.027c.19.238.397.467.597.7.266-.068.53-.138.791-.212.635-.297 1.112-.854 1.555-1.419.4-.51.772-1.026 1.197-1.364l.074-.06c.059-.042.117-.08.177-.116l.036-.02a1.64 1.64 0 0 1 .165-.08l.036-.014c.207-.08.43-.116.678-.088l.01.001c.086.01.175.031.266.057a43.982 43.982 0 0 1-.335-.503 11.837 11.837 0 0 1-.14-.218l-.077-.125a6.164 6.164 0 0 1-.207-.368l-.01-.017-.002-.006a4.411 4.411 0 0 1-.133-.291l-.024-.058c-.04-.1-.077-.202-.108-.307v-.002a3.012 3.012 0 0 1-.083-.385 2.747 2.747 0 0 1-.034-.333c.08-.014.158-.02.236-.019.543.004 1.037.326 1.515.556 2.02.691 3.422 2.392 4.97 3.764.106.114.218.233.33.356l.002.003c.113.124.227.253.337.385.165.199.322.407.455.622.045.072.086.144.125.218.157.06.313.123.47.184.543.212 1.087.422 1.627.642l1.135.251c2.105.47 4.265.899 6.406.698 1.943-.869 1.657-3.495.755-5.04-.744-1.972-2.351-3.04-4.097-4.028-.484-.274-.977-.546-1.466-.825-.46-.262-.918-.53-1.358-.827-1.127-.453-2.345-1.067-3.575-1.614l-.001-.005a30.208 30.208 0 0 0-.7-.3 15.761 15.761 0 0 0-1.709-.61c-.074-.02-.148-.042-.221-.061a9.226 9.226 0 0 0-.403-.095c-.748-.066-1.638-.211-2.57-.34-.463.095-.927.19-1.389.29-1.054.417-2.225.23-3.285.606-1.035.054-2.023.393-3.015.664-1.026.222-2.041.486-3.06.745l-3.012.174c-.842.239-.391-1.4.34-1.358.95-.238 1.835-.65 2.66-1.173.225-.148.456-.284.69-.414.372-.136.837-.192 1.025-.49l.002-.002c.182-.773-.062-1.629-1.231-2.009a3.493 3.493 0 0 0-.295-.08l-.003-.001a4.207 4.207 0 0 0-.313-.06l-.17-.02c-.057-.006-.111-.014-.171-.019a6.261 6.261 0 0 0-.378-.02zm8.526 2.939c-.268.008-.53.026-.785.057-.002 0-.003-.002-.005-.003l-.064.01a5.723 5.723 0 0 0-.495.09c-.04.008-.08.02-.12.03l-.007.001a4.804 4.804 0 0 0-.431.131l-.009.003c-.068.025-.137.046-.203.074-1.871.486-2.084-.06-3.609-.184v.001a2.76 2.76 0 0 1-.612.557c-.26.185-.532.359-.758.585.112.098.232.171.357.223.126.051.258.081.395.094.273.027.563-.014.858-.085.589-.143 1.195-.406 1.71-.495.63-.193 1.257-.378 1.885-.56.626-.18 1.256-.357 1.89-.528h.003zm-17.216 3.853c.039 0 .077.002.115.01 1.063.394 1.525 1.559 1.86 2.554.105 1.533.14 3.116-.324 4.598-.246.787-.998 1.598-1.893 1.39-.887-.314-1.107-1.333-1.408-2.116-.529-1.824-.689-3.875.12-5.642.034-.792.809-.384 1.206-.685a.533.533 0 0 1 .324-.109zM.63 102.914l-.204.02c.068-.005.136-.013.204-.02zm-2.227.054c.086.006.171.01.257.013-.086-.004-.171-.007-.257-.013zm1.44.01c-.042.001-.085.001-.127.003l.128-.004zm-.834.013l.25.002c-.083 0-.167 0-.25-.002z" fill="url(#ap)" fill-rule="evenodd"/><path d="M-1.836 87.174a8.966 8.966 0 0 0-.85.028c-.057.004-.118.011-.178.017.014-.001.027-.001.04-.003l-.162.016.016-.002-.08.008-.11.01c-.143.018-.292.039-.444.062l-.016.003-.032.004a16.77 16.77 0 0 0-.87.158c-2.013.341-4.13 1.402-5.023 3.306a2.305 2.305 0 0 1-.718.545c-.376.194-.796.323-1.206.463l-.09.032a7.065 7.065 0 0 0-.438.163l-.02.008a3.788 3.788 0 0 0-.24.113l-.943.943a.03.03 0 0 1 .004-.008l.005-.008a1.81 1.81 0 0 1 .115-.21l.03-.047c.046-.068.095-.132.148-.19.006-.008.013-.014.02-.021.048-.053.1-.101.152-.147h.001c.013-.011.024-.023.037-.033a2.694 2.694 0 0 1 .432-.28l.085-.085a3.589 3.589 0 0 0-.306.187l-.055.037a3.457 3.457 0 0 0-.266.205 3.56 3.56 0 0 0-.589.654l-.084.124-.047.07a5.025 5.025 0 0 0-.48 1.028c-.131.385-.226.79-.302 1.202.031.05.066.1.096.151a3.228 3.228 0 0 0-.236.962c-.007-.004-.015-.013-.022-.017-.046.388-.088.769-.127 1.142.035.02.07.04.105.062-.039.248-.092.496-.156.741-.006.065-.003.13 0 .193-.005-.006-.011-.01-.016-.017.06 1.419.206 3.063.712 4.498a7.87 7.87 0 0 0 .334.796c.053.107.109.212.167.315l.059.106c.18.307.386.595.622.855.028.03.06.058.089.087.07.073.14.146.215.214a4.253 4.253 0 0 0 .174.15l.096.073c.034.026.067.052.102.076.049.036.1.07.151.103l.056.037c.072.045.145.088.221.129 1.815-.733 3.53-2.242 3.422-4.372.722-1.518 2.566.463 4.123.816 0-.012 0-.024-.002-.037-.362-.252-.141-.831.315-.584.207-.082.444-.04.604-.22a.88.88 0 0 1 .475-.11c.516.016 1.073.384.92.9a1.77 1.77 0 0 1-.253.351l-.002.002c.149.016.298.03.448.04a14.93 14.93 0 0 0 .596.023c.097.002.193.002.289.002.124-.001.248-.005.372-.01.097-.003.194-.006.29-.012a14.6 14.6 0 0 0 .472-.034l.235-.024a17.027 17.027 0 0 0 .602-.073l.196-.03a11.113 11.113 0 0 1-.156-.647 8.053 8.053 0 0 1-.101-.58c.058-1.427-.174-2.892.299-4.276-.408-.31-.176-1.122.331-1.147a.47.47 0 0 1 .105.006c.898.65 1.075 1.852 1.359 2.85.433.862-.192 1.76-.443 2.314.068.102.142.2.218.297l.022.027c.19.238.397.467.597.7.266-.068.53-.138.791-.212.635-.297 1.112-.854 1.555-1.419.4-.51.772-1.026 1.197-1.364l.074-.06c.059-.042.117-.08.177-.116l.036-.02a1.64 1.64 0 0 1 .165-.08l.036-.014c.207-.08.43-.116.678-.088l.01.001c.086.01.175.031.266.057a43.982 43.982 0 0 1-.335-.503 11.837 11.837 0 0 1-.14-.218l-.077-.125a6.164 6.164 0 0 1-.207-.368l-.01-.017-.002-.006a4.411 4.411 0 0 1-.133-.291l-.024-.058c-.04-.1-.077-.202-.108-.307v-.002a3.012 3.012 0 0 1-.083-.385 2.747 2.747 0 0 1-.034-.333c.08-.014.158-.02.236-.019.543.004 1.037.326 1.515.556 2.02.691 3.422 2.392 4.97 3.764.106.114.218.233.33.356l.002.003c.113.124.227.253.337.385.165.199.322.407.455.622.045.072.086.144.125.218.157.06.313.123.47.184.543.212 1.087.422 1.627.642l1.135.251c2.105.47 4.265.899 6.406.698 1.943-.869 1.657-3.495.755-5.04-.744-1.972-2.351-3.04-4.097-4.028-.484-.274-.977-.546-1.466-.825-.46-.262-.918-.53-1.358-.827-1.127-.453-2.345-1.067-3.575-1.614l-.001-.005a30.208 30.208 0 0 0-.7-.3 15.761 15.761 0 0 0-1.709-.61c-.074-.02-.148-.042-.221-.061a9.226 9.226 0 0 0-.403-.095c-.748-.066-1.638-.211-2.57-.34-.463.095-.927.19-1.389.29-1.054.417-2.225.23-3.285.606-1.035.054-2.023.393-3.015.664-1.026.222-2.041.486-3.06.745l-3.012.174c-.842.239-.391-1.4.34-1.358.95-.238 1.835-.65 2.66-1.173.225-.148.456-.284.69-.414.372-.136.837-.192 1.025-.49l.002-.002c.182-.773-.062-1.629-1.231-2.009a3.493 3.493 0 0 0-.295-.08l-.003-.001a4.207 4.207 0 0 0-.313-.06l-.17-.02c-.057-.006-.111-.014-.171-.019a6.261 6.261 0 0 0-.378-.02zm8.526 2.939c-.268.008-.53.026-.785.057-.002 0-.003-.002-.005-.003l-.064.01a5.723 5.723 0 0 0-.495.09c-.04.008-.08.02-.12.03l-.007.001a4.804 4.804 0 0 0-.431.131l-.009.003c-.068.025-.137.046-.203.074-1.871.486-2.084-.06-3.609-.184v.001a2.76 2.76 0 0 1-.612.557c-.26.185-.532.359-.758.585.112.098.232.171.357.223.126.051.258.081.395.094.273.027.563-.014.858-.085.589-.143 1.195-.406 1.71-.495.63-.193 1.257-.378 1.885-.56.626-.18 1.256-.357 1.89-.528h.003zm-17.216 3.853c.039 0 .077.002.115.01 1.063.394 1.525 1.559 1.86 2.554.105 1.533.14 3.116-.324 4.598-.246.787-.998 1.598-1.893 1.39-.887-.314-1.107-1.333-1.408-2.116-.529-1.824-.689-3.875.12-5.642.034-.792.809-.384 1.206-.685a.533.533 0 0 1 .324-.109zM.63 102.914l-.204.02c.068-.005.136-.013.204-.02zm-2.227.054c.086.006.171.01.257.013-.086-.004-.171-.007-.257-.013zm1.44.01c-.042.001-.085.001-.127.003l.128-.004zm-.834.013l.25.002c-.083 0-.167 0-.25-.002z" fill="url(#aq)" fill-rule="evenodd"/><path d="M-1.835 87.174zm-.85.028c-.058.004-.119.01-.179.016.013 0 .025-.002.038-.003h.003l.138-.014zm1.305.002c.092.009.183.019.268.032l-.004-.001c-.054-.008-.113-.014-.17-.02-.03-.005-.063-.008-.094-.012zm-1.603.028l-.063.005.06-.005.003-.001zm2.056.038c.044.01.09.016.132.026l-.006-.002h-.003c-.039-.01-.083-.016-.124-.024zm-2.725.048c-.276.043-.562.092-.87.157-2.013.342-4.129 1.403-5.023 3.306a2.305 2.305 0 0 1-.717.545v1.135c-.013.153.78 1.077 1.028 1.174.27.466.03.786-.329.923.496.538.784 1.295 1.012 1.973.093 1.355.13 2.75-.184 4.08.494-1.132.486-2.388.726-3.548.436-.902 2.76-2.902 2.882-.956-.338 1.72 1.52 2.01 2.55 1.094.962-.85 2.185.813 2.513-.363.243-.858 1.069-1.847 1.976-1.888.21-.01.423.032.635.137.157.514-.032.937-.328 1.339.645.679.812 1.713 1.062 2.59.433.86-.192 1.759-.443 2.312.068.102.142.201.218.298l.022.027c.19.238.397.467.596.7.267-.068.532-.138.792-.212.635-.297 1.112-.854 1.554-1.419.072-.859.581-1.651.019-2.094-1.143-.163.03-1.351-.588-1.909-.214-.631.725-1.012.881-1.615.74-.676-.426-2.303-.44-3.23-.212-.13-.423-.389-.629-.685-.056.017-.112.03-.168.049-1.034.054-2.022.393-3.014.663-.753.164-1.5.35-2.247.54-.18.796-.83 1.27-1.285 1.635-.498.513-1.549 1.118-2.187.375-.23.057-.243-1.228-.065-1.647l-.288.017c-.7.198-.506-.896-.002-1.25-.395-.286-.979-.315-1.276.008-.61.334-.87 1.093-1.028 1.91.021.79-1.303 1.447-1.615.587-.653-.904.274-2.593.587-3.525.323-1.049 1.008-1.284 1.909-1.909.41-.337 1.016-.52 1.469-.881.112-.144.212-.292.295-.444zm9.672 13.404c.174-.22.341-.438.51-.646-.168.208-.336.425-.51.646zm-16.282-9.396zm9.756-3.95c-.124.577-.351 1.097-.652 1.455-.655.127-.887 1.357-.116 1.625.094-.055.19-.107.282-.166.225-.148.457-.284.69-.415.373-.136.838-.191 1.026-.49l.002-.002c.182-.773-.062-1.628-1.231-2.008zm7.196 2.737c-.268.008-.53.026-.785.058.045.029.09.056.134.087l.047.023c-.399.11-.8.22-1.197.334l-.114-.183c-.068.024-.138.045-.203.073-1.871.486-2.084-.059-3.61-.183a2.76 2.76 0 0 1-.611.558c-.223.158-.452.31-.656.491.028.072.053.147.076.225.058.036.118.067.18.092.125.05.257.08.393.094.273.027.564-.015.858-.086.59-.142 1.195-.405 1.71-.495.631-.192 1.258-.377 1.885-.559.626-.181 1.256-.357 1.89-.529h.004zm-6.919 1.483zm5.474-1.306l-.024.006-.006.002-.013.004.043-.012zm4.525.05c-.463.095-.927.19-1.389.29-.363.145-.74.215-1.121.263.453.265.896.553 1.275.833.322.456.885 1.05 1.322 1.91-.038 1.174.088 2.41-.103 3.524.735.326 1.388.784 2.003 1.297.135-1.248.193-2.515.449-3.734.246-.79.116-1.8.147-2.742.05-.333.005-.835-.014-1.301-.747-.066-1.637-.211-2.569-.34zm-11.052.12zm14.51.457zm-6.712.055zm-.762.1zm-8.81.215zm17.714.152a30.203 30.203 0 0 1 .016.006l-.016-.006zm-18.309.023zm-.157.02a.547.547 0 0 0-.06.021c.02-.008.04-.016.06-.021zm-6.858.024c-.037.014-.073.029-.11.042.037-.013.073-.028.11-.042zm26.04.245a4.1 4.1 0 0 1 .063.578c.115.899.29 1.897 0 2.79-.319.95-.588 2.154-1.175 3.069a5.249 5.249 0 0 1-.846 1.786c.27.256.538.51.812.752.106.114.218.233.33.356a11.284 11.284 0 0 1 .339.388c.165.199.322.407.455.622.045.072.086.144.125.218.157.06.312.123.469.184.24-.363.462-.75.49-1.054.572-1.046 1.059-1.999 1.645-3.105.676-.708 1.206-1.876 1.615-2.643.112-.536.27-1.067.396-1.62.071.04.143.079.214.12-.46-.262-.917-.53-1.357-.827-1.128-.453-2.345-1.067-3.576-1.614zm-27.901.489c-.002 0-.004.002-.005.003a3.457 3.457 0 0 0-.266.206c-.002 0-.003.003-.005.005.087-.075.18-.146.276-.214zm.005.023zm-.204.155zm-.128.082zm-.046.086zm-.176.237zm1.373.135c-.29.013-.577.175-.762.53-.432.483-.045 2.652-1.028 2.203-.037-.39-.219-1.014-.505-1.366-.132.384-.227.79-.303 1.202.032.05.066.1.097.151a3.229 3.229 0 0 0-.237.961c-.007-.004-.014-.012-.022-.017-.046.389-.087.77-.127 1.143l.106.061c-.04.249-.093.497-.156.742-.006.065-.003.129-.001.192l-.016-.016c.06 1.418.206 3.062.712 4.497.648.747 1.64 1.181 2.624.832.625-.496 1.167-1.12 1.63-1.791-.309.219-.679.329-1.077.236-.887-.313-1.107-1.333-1.408-2.116-.529-1.824-.689-3.875.12-5.642.034-.791.809-.383 1.206-.684a.488.488 0 0 1 .14-.076.886.886 0 0 1 .007-.07c-.03-.601-.518-.993-1-.972zm-2.295 1.367zm.423-.931zm-.167.312zm35.514 1.31c-.008.034-.012.07-.02.103-.19.938-.39 2.346-.89 3.062-.325.922-.845 1.718-1.02 2.944-.398.788-.792 1.488-1.134 2.262 2.106.469 4.266.898 6.406.698 1.944-.869 1.657-3.495.756-5.04-.745-1.972-2.352-3.04-4.098-4.028zM1.485 97.309c-.204.254-.382.518-.473.81-.21.372-.073.662.181.924.026-.586.098-1.167.292-1.734zm6.656 1.663c-.018.001-.034.006-.051.007.027-.002.055-.005.083-.006-.01 0-.022-.002-.032 0zm.242.008l.01.001h-.01zm.02.003c.082.011.169.03.257.055l-.002-.003a1.741 1.741 0 0 0-.255-.052zm-.44.014l-.083.016c.027-.007.055-.011.082-.016zm-.258.071l-.035.015.035-.015zm-.204.097l-.032.018.032-.018zm-.209.134c-.023.017-.046.037-.069.055.023-.018.046-.038.069-.055zm-.078.063zm-14.593 1.885a.895.895 0 0 0 .083.01c-.028-.004-.056-.009-.083-.01zm-.128.002l-.035.005c.012 0 .024-.004.035-.005zm.247.011zm-.364.006c-.016.003-.031.01-.046.013.015-.004.03-.01.046-.013zm-.111.033c-.016.006-.03.013-.045.02a.594.594 0 0 1 .045-.02zm-.112.053l-.036.024a.838.838 0 0 1 .036-.024zm.964.006c.034.012.066.021.1.035-.034-.014-.066-.023-.1-.035zm-1.062.064zm-.094.09l-.037.042.037-.043zm1.581.022zm-1.674.097c-.01.013-.019.025-.027.04l.027-.04zm2.732.46zm.308.16zm.325.151zm.332.132c.07.024.14.043.208.062-.069-.02-.138-.038-.208-.062zm-3.843.047zm-4.733 2.434z" fill="url(#ar)" fill-rule="evenodd"/><path d="M17.654 84.233c-.144 0-.295.003-.454.008-.758.12-1.544.184-2.331.251-.788.068-1.577.14-2.341.275-.857.215-1.74.347-2.615.506-.437.08-.872.166-1.3.272-.429.107-.851.234-1.262.395-.666.223-1.311.501-1.963.763-.651.262-1.308.507-1.997.662-.685.227-1.398.442-2.086.709-.174.067-.347.138-.517.213.068.214.068.458.036.688l.08-.02c.294-.063.59-.12.888-.173l.313-.056.22-.098c2.278-.989 4.44-2.291 6.877-2.87 1.24-.541 2.88-.68 4.187-.866 1.215.071 2.1-.017 3.298-.028.849.083 1.713.136 2.556.289.065-.038.122-.075.171-.112h.001a.886.886 0 0 0 .123-.11c.065-.072.097-.14.095-.205-.002-.065-.036-.125-.103-.18-.134-.11-.399-.197-.789-.25a7.981 7.981 0 0 0-1.087-.063zm-4.448 1.188a4.876 4.876 0 0 0-.53.033c-.352.04-.698.114-1.043.195-.691.164-1.379.363-2.093.417a4.408 4.408 0 0 0-1.076.213 7.03 7.03 0 0 0-1 .423c-.649.328-1.267.726-1.892 1.053-.335.229-.682.434-1.035.628l.701-.084c1.106-.18 2.225-.277 3.318-.358 1.102-.004 2.196-.108 3.297-.195.705-.174 1.429-.3 2.137-.469.354-.084.704-.179 1.046-.295.341-.117.674-.255.994-.426.714-.355 1.374-.594 1.921-.813-.085.006-.17.01-.256.021-.657-.093-1.31-.194-1.966-.26a11.685 11.685 0 0 0-1.982-.052 4.027 4.027 0 0 0-.54-.031zm6.4.566a1.647 1.647 0 0 1-.431.14c-1.445.434-2.319 1.53-3.81 1.761-1.282.106-2.528.471-3.818.493-2.507-.018-4.98.442-7.472.649a28.88 28.88 0 0 1-1.004.104c-.338.167-.676.334-1.009.508l-.205.111c-.1.054-.2.107-.297.163-.178.1-.354.204-.527.313-.176.27-.423.465-.683.65-.26.185-.531.36-.758.585.112.099.232.172.358.223.126.052.258.082.394.095.273.026.563-.015.858-.086.59-.142 1.195-.405 1.71-.495 1.374-.419 2.727-.812 4.118-1.183.683-.114 1.37-.225 2.052-.353a27.46 27.46 0 0 0 2.027-.451 10.51 10.51 0 0 1 1.87-.56 24.918 24.918 0 0 1 1.926-.309 37.398 37.398 0 0 0 3.555-.5c.191-.022.473-.054.776-.105.303-.051.628-.122.907-.223.279-.1.511-.231.629-.402a.444.444 0 0 0 .082-.287.717.717 0 0 0-.141-.354 11.572 11.572 0 0 0-.478-.23 8.073 8.073 0 0 0-.487-.204c-.046-.018-.091-.036-.137-.052l-.004-.002z" fill="url(#as)" fill-rule="evenodd"/><path d="M19.218 83.647c-.145-.005-.292 0-.441.01-.596.041-1.22.172-1.856.16-1.144-.303-2.602.168-3.766.174-1.766.055-3.084.796-4.786 1.255-1.336.3-2.653.673-3.898 1.252-1.015.447-2.01.936-3.106 1.162-.278.075-.557.143-.836.21.025.03.05.061.077.091a.831.831 0 0 1 .182.326c.17-.075.343-.146.517-.213.688-.266 1.401-.482 2.086-.71.69-.154 1.346-.399 1.997-.66.652-.262 1.297-.54 1.963-.764.41-.16.833-.288 1.261-.395.429-.106.864-.192 1.301-.271.875-.16 1.758-.292 2.615-.506.764-.135 1.553-.207 2.34-.275.788-.068 1.574-.132 2.332-.251.159-.006.31-.008.454-.008.432-.001.795.021 1.087.062.39.054.655.14.789.25.067.055.102.115.103.18.002.065-.03.134-.095.206a1.237 1.237 0 0 1-.295.221c-.843-.152-1.707-.206-2.556-.288-1.199.01-2.083.099-3.298.028-1.307.185-2.946.324-4.187.865-2.437.58-4.599 1.882-6.876 2.87l-.22.099a27.044 27.044 0 0 0-1.282.249c-.02.137-.049.27-.084.386-.177.32-.66.373-1.042.513-.234.13-.465.267-.69.415-.825.522-1.71.934-2.659 1.172-.732-.042-1.183 1.597-.34 1.359l3.012-.174c1.018-.26 2.033-.523 3.06-.746.992-.27 1.98-.61 3.014-.663 1.06-.377 2.232-.19 3.286-.607 2.373-.518 4.77-.927 7.131-1.494 1.026-.244 2.083-.381 3.113-.62 1.145-.247 2.367-.37 3.443-.772 1.056-1.157-.588-2.075-1.605-2.28l-.01-.003c.689-.55 1.122-1.264.013-1.425-.394-.279-.812-.376-1.248-.39zm-6.012 1.774c.179-.001.36.008.541.031a11.665 11.665 0 0 1 1.982.052c.656.066 1.309.167 1.966.26.087-.012.171-.015.256-.02-.547.218-1.207.457-1.921.812-.32.17-.653.309-.994.425-.342.117-.692.212-1.046.296-.708.169-1.432.295-2.137.47-1.101.086-2.195.19-3.297.194-1.093.081-2.212.178-3.318.358l-.701.084c.353-.194.7-.4 1.035-.628.625-.327 1.243-.725 1.892-1.053a7.03 7.03 0 0 1 1-.423 4.404 4.404 0 0 1 1.076-.213c.714-.054 1.402-.254 2.093-.417a9.037 9.037 0 0 1 1.043-.195c.175-.02.352-.032.53-.033zm6.401.566c.376.13.742.3 1.106.487.09.13.134.247.14.354a.443.443 0 0 1-.081.287c-.118.17-.35.301-.63.402-.278.1-.603.172-.906.223-.303.051-.585.083-.776.105-1.175.222-2.37.393-3.555.5-.648.084-1.292.175-1.926.308a10.51 10.51 0 0 0-1.87.56c-.666.179-1.345.323-2.027.452-.682.128-1.37.24-2.052.353-1.391.371-2.744.764-4.119 1.183-.514.09-1.12.353-1.71.495a2.63 2.63 0 0 1-.857.086 1.391 1.391 0 0 1-.394-.095 1.253 1.253 0 0 1-.358-.223c.227-.226.499-.4.758-.585.26-.185.507-.38.683-.65.652-.412 1.345-.754 2.038-1.095.336-.03.672-.062 1.004-.104 2.491-.207 4.965-.667 7.472-.649 1.29-.022 2.536-.387 3.818-.493 1.491-.231 2.365-1.327 3.81-1.76.12-.016.27-.068.432-.141z" fill="url(#at)" fill-rule="evenodd"/><path d="M19.218 83.647c-.145-.005-.292 0-.441.01-.596.041-1.22.172-1.856.16-1.144-.303-2.602.168-3.766.174-1.766.055-3.084.796-4.786 1.255-1.336.3-2.653.673-3.898 1.252-1.015.447-2.01.936-3.106 1.162-.278.075-.557.143-.836.21.025.03.05.061.077.091a.831.831 0 0 1 .182.326c.17-.075.343-.146.517-.213.688-.266 1.401-.482 2.086-.71.69-.154 1.346-.399 1.997-.66.652-.262 1.297-.54 1.963-.764.41-.16.833-.288 1.261-.395.429-.106.864-.192 1.301-.271.875-.16 1.758-.292 2.615-.506.764-.135 1.553-.207 2.34-.275.788-.068 1.574-.132 2.332-.251.159-.006.31-.008.454-.008.432-.001.795.021 1.087.062.39.054.655.14.789.25.067.055.102.115.103.18.002.065-.03.134-.095.206a1.237 1.237 0 0 1-.295.221c-.843-.152-1.707-.206-2.556-.288-1.199.01-2.083.099-3.298.028-1.307.185-2.946.324-4.187.865-2.437.58-4.599 1.882-6.876 2.87l-.22.099a27.044 27.044 0 0 0-1.282.249c-.02.137-.049.27-.084.386-.177.32-.66.373-1.042.513-.234.13-.465.267-.69.415-.825.522-1.71.934-2.659 1.172-.732-.042-1.183 1.597-.34 1.359l3.012-.174c1.018-.26 2.033-.523 3.06-.746.992-.27 1.98-.61 3.014-.663 1.06-.377 2.232-.19 3.286-.607 2.373-.518 4.77-.927 7.131-1.494 1.026-.244 2.083-.381 3.113-.62 1.145-.247 2.367-.37 3.443-.772 1.056-1.157-.588-2.075-1.605-2.28l-.01-.003c.689-.55 1.122-1.264.013-1.425-.394-.279-.812-.376-1.248-.39zm-6.012 1.774c.179-.001.36.008.541.031a11.665 11.665 0 0 1 1.982.052c.656.066 1.309.167 1.966.26.087-.012.171-.015.256-.02-.547.218-1.207.457-1.921.812-.32.17-.653.309-.994.425-.342.117-.692.212-1.046.296-.708.169-1.432.295-2.137.47-1.101.086-2.195.19-3.297.194-1.093.081-2.212.178-3.318.358l-.701.084c.353-.194.7-.4 1.035-.628.625-.327 1.243-.725 1.892-1.053a7.03 7.03 0 0 1 1-.423 4.404 4.404 0 0 1 1.076-.213c.714-.054 1.402-.254 2.093-.417a9.037 9.037 0 0 1 1.043-.195c.175-.02.352-.032.53-.033zm6.401.566c.376.13.742.3 1.106.487.09.13.134.247.14.354a.443.443 0 0 1-.081.287c-.118.17-.35.301-.63.402-.278.1-.603.172-.906.223-.303.051-.585.083-.776.105-1.175.222-2.37.393-3.555.5-.648.084-1.292.175-1.926.308a10.51 10.51 0 0 0-1.87.56c-.666.179-1.345.323-2.027.452-.682.128-1.37.24-2.052.353-1.391.371-2.744.764-4.119 1.183-.514.09-1.12.353-1.71.495a2.63 2.63 0 0 1-.857.086 1.391 1.391 0 0 1-.394-.095 1.253 1.253 0 0 1-.358-.223c.227-.226.499-.4.758-.585.26-.185.507-.38.683-.65.652-.412 1.345-.754 2.038-1.095.336-.03.672-.062 1.004-.104 2.491-.207 4.965-.667 7.472-.649 1.29-.022 2.536-.387 3.818-.493 1.491-.231 2.365-1.327 3.81-1.76.12-.016.27-.068.432-.141z" fill="url(#au)" fill-rule="evenodd"/><path d="M17.654 84.233c-.144 0-.295.003-.454.008-.758.12-1.544.184-2.331.251-.788.068-1.577.14-2.341.275-.857.215-1.74.347-2.615.506-.437.08-.872.166-1.3.272-.429.107-.851.234-1.262.395-.666.223-1.311.501-1.963.763-.651.262-1.308.507-1.997.662-.685.227-1.398.442-2.086.709-.174.067-.347.138-.517.213.068.214.068.458.036.688l.08-.02c.294-.063.59-.12.888-.173l.313-.056.22-.098c2.278-.989 4.44-2.291 6.877-2.87 1.24-.541 2.88-.68 4.187-.866 1.215.071 2.1-.017 3.298-.028.849.083 1.713.136 2.556.289.065-.038.122-.075.171-.112h.001a.886.886 0 0 0 .123-.11c.065-.072.097-.14.095-.205-.002-.065-.036-.125-.103-.18-.134-.11-.399-.197-.789-.25a7.981 7.981 0 0 0-1.087-.063zm-4.448 1.188a4.876 4.876 0 0 0-.53.033c-.352.04-.698.114-1.043.195-.691.164-1.379.363-2.093.417a4.408 4.408 0 0 0-1.076.213 7.03 7.03 0 0 0-1 .423c-.649.328-1.267.726-1.892 1.053-.335.229-.682.434-1.035.628l.701-.084c1.106-.18 2.225-.277 3.318-.358 1.102-.004 2.196-.108 3.297-.195.705-.174 1.429-.3 2.137-.469.354-.084.704-.179 1.046-.295.341-.117.674-.255.994-.426.714-.355 1.374-.594 1.921-.813-.085.006-.17.01-.256.021-.657-.093-1.31-.194-1.966-.26a11.685 11.685 0 0 0-1.982-.052 4.027 4.027 0 0 0-.54-.031zm6.4.566a1.647 1.647 0 0 1-.431.14c-1.445.434-2.319 1.53-3.81 1.761-1.282.106-2.528.471-3.818.493-2.507-.018-4.98.442-7.472.649a28.88 28.88 0 0 1-1.004.104c-.338.167-.676.334-1.009.508l-.205.111c-.1.054-.2.107-.297.163-.178.1-.354.204-.527.313-.176.27-.423.465-.683.65-.26.185-.531.36-.758.585.112.099.232.172.358.223.126.052.258.082.394.095.273.026.563-.015.858-.086.59-.142 1.195-.405 1.71-.495 1.374-.419 2.727-.812 4.118-1.183.683-.114 1.37-.225 2.052-.353a27.46 27.46 0 0 0 2.027-.451 10.51 10.51 0 0 1 1.87-.56 24.918 24.918 0 0 1 1.926-.309 37.398 37.398 0 0 0 3.555-.5c.191-.022.473-.054.776-.105.303-.051.628-.122.907-.223.279-.1.511-.231.629-.402a.444.444 0 0 0 .082-.287.717.717 0 0 0-.141-.354 11.572 11.572 0 0 0-.478-.23 8.073 8.073 0 0 0-.487-.204c-.046-.018-.091-.036-.137-.052l-.004-.002z" fill="url(#av)" fill-rule="evenodd"/><path d="M19.218 83.647c-.145-.005-.292 0-.441.01-.596.041-1.22.172-1.856.16-1.144-.303-2.602.168-3.766.174-1.766.055-3.084.796-4.786 1.255-1.336.3-2.653.673-3.898 1.252-1.015.447-2.01.936-3.106 1.162-.278.075-.557.143-.836.21.025.03.05.061.077.091a.831.831 0 0 1 .182.326c.17-.075.343-.146.517-.213.688-.266 1.401-.482 2.086-.71.69-.154 1.346-.399 1.997-.66.652-.262 1.297-.54 1.963-.764.41-.16.833-.288 1.261-.395.429-.106.864-.192 1.301-.271.875-.16 1.758-.292 2.615-.506.764-.135 1.553-.207 2.34-.275.788-.068 1.574-.132 2.332-.251.159-.006.31-.008.454-.008.432-.001.795.021 1.087.062.39.054.655.14.789.25.067.055.102.115.103.18.002.065-.03.134-.095.206a1.237 1.237 0 0 1-.295.221c-.843-.152-1.707-.206-2.556-.288-1.199.01-2.083.099-3.298.028-1.307.185-2.946.324-4.187.865-2.437.58-4.599 1.882-6.876 2.87l-.22.099a27.044 27.044 0 0 0-1.282.249c-.02.137-.049.27-.084.386-.177.32-.66.373-1.042.513-.234.13-.465.267-.69.415-.825.522-1.71.934-2.659 1.172-.732-.042-1.183 1.597-.34 1.359l3.012-.174c1.018-.26 2.033-.523 3.06-.746.992-.27 1.98-.61 3.014-.663 1.06-.377 2.232-.19 3.286-.607 2.373-.518 4.77-.927 7.131-1.494 1.026-.244 2.083-.381 3.113-.62 1.145-.247 2.367-.37 3.443-.772 1.056-1.157-.588-2.075-1.605-2.28l-.01-.003c.689-.55 1.122-1.264.013-1.425-.394-.279-.812-.376-1.248-.39zm-6.012 1.774c.179-.001.36.008.541.031a11.665 11.665 0 0 1 1.982.052c.656.066 1.309.167 1.966.26.087-.012.171-.015.256-.02-.547.218-1.207.457-1.921.812-.32.17-.653.309-.994.425-.342.117-.692.212-1.046.296-.708.169-1.432.295-2.137.47-1.101.086-2.195.19-3.297.194-1.093.081-2.212.178-3.318.358l-.701.084c.353-.194.7-.4 1.035-.628.625-.327 1.243-.725 1.892-1.053a7.03 7.03 0 0 1 1-.423 4.404 4.404 0 0 1 1.076-.213c.714-.054 1.402-.254 2.093-.417a9.037 9.037 0 0 1 1.043-.195c.175-.02.352-.032.53-.033zm6.401.566c.376.13.742.3 1.106.487.09.13.134.247.14.354a.443.443 0 0 1-.081.287c-.118.17-.35.301-.63.402-.278.1-.603.172-.906.223-.303.051-.585.083-.776.105-1.175.222-2.37.393-3.555.5-.648.084-1.292.175-1.926.308a10.51 10.51 0 0 0-1.87.56c-.666.179-1.345.323-2.027.452-.682.128-1.37.24-2.052.353-1.391.371-2.744.764-4.119 1.183-.514.09-1.12.353-1.71.495a2.63 2.63 0 0 1-.857.086 1.391 1.391 0 0 1-.394-.095 1.253 1.253 0 0 1-.358-.223c.227-.226.499-.4.758-.585.26-.185.507-.38.683-.65.652-.412 1.345-.754 2.038-1.095.336-.03.672-.062 1.004-.104 2.491-.207 4.965-.667 7.472-.649 1.29-.022 2.536-.387 3.818-.493 1.491-.231 2.365-1.327 3.81-1.76.12-.016.27-.068.432-.141z" fill="url(#aw)" fill-rule="evenodd"/><path d="M-19.131 91.997c-.657.011-1.3.145-1.955.238-.873.187-1.735.44-2.597.684-1.073.24-2.145.55-3.145 1.002-.685.056-1.845 1.047-.494.962.929-.18 1.717-.802 2.699-.807.876-.194 1.752-.35 2.586-.695 1.11-.182 2.169-.69 3.318-.633 1.019.183 1.83.912 2.474 1.664.482.8 1.183 1.394 1.71 2.154a.413.413 0 0 0 .094.073c.03-.325.108-.659.237-.961-.375-.627-.809-1.205-1.416-1.655-.85-.78-1.708-1.683-2.85-1.99a4.392 4.392 0 0 0-.661-.036zm8.605 1.97a.534.534 0 0 0-.324.108c-.397.301-1.172-.107-1.206.684-.809 1.767-.649 3.818-.12 5.642.3.784.52 1.803 1.408 2.117.895.207 1.647-.603 1.893-1.39.464-1.482.43-3.065.324-4.598-.335-.995-.797-2.16-1.86-2.555a.634.634 0 0 0-.115-.01zm12.343 2.192c-.507.025-.74.836-.331 1.147-.474 1.383-.241 2.849-.3 4.276.166 1.252.655 2.435 1.023 3.64-.372 1.44-.012 2.95.3 4.365.35 1.044 1.21 1.902 2.294 2.162-.432-.946-1.709-1.774-.717-2.66-.654-.405-1.204-1.07-1.054-1.992.014-.497-.675-.865.168-.758.948-.371 1.704-1.499 1.287-2.517-.19-1.041-1.096-1.664-1.649-2.494.25-.554.875-1.452.442-2.313-.284-.998-.46-2.2-1.358-2.85-.036-.007-.071-.008-.105-.007zm-19.224.039a1.113 1.113 0 0 0-.675.18c-.992.72-1.565 1.85-2.268 2.825-.435.789-.766 1.52-1.155 2.074-.385 1.181-.718 2.382-1.068 3.573.018.316-.475 1.413.106 1.058.663-.946.668-2.119 1.096-3.162.405-1.013.674-2.104 1.492-2.89.84-.787 1.153-2.03 2.037-2.715 1.123-.181 1.886.682 2.732 1.226.195.088.34.243.469.393a1.454 1.454 0 0 1 0-.193c.064-.245.117-.492.157-.741-.355-.219-.747-.404-1.042-.675-.566-.32-1.212-.917-1.881-.953zm25.15.208c-.078 0-.156.005-.236.019.041 1.343 1.057 2.321 1.674 3.442 1.065 1.897 2.694 3.348 4.274 4.803 1.09.462.525 1.906 1.544 2.67 1.265 1.291 2.44 2.78 4.078 3.612.804 1.581 2.882.455 1.843-1.066-.68-1.29-1.516-2.492-2.272-3.737-.621-1.235-2.476-1.114-3.133-1.973.749-1.325-.437-2.537-1.288-3.45-1.547-1.373-2.95-3.073-4.97-3.764-.477-.23-.971-.552-1.514-.556zm-10.465 5.27a.88.88 0 0 0-.475.109c-.16.18-.397.138-.604.22-.456-.247-.677.332-.315.584.066.33-.637.365-.38.661-.759.272-1.191 1.083-1.989 1.306-.654.272-1.316.536-1.84.878-.435.187-1.178.737-1.232 1.018.06.055.116.131.17.213-.943-.2-1.753.758-2.649.932-1.047.113-1.98.763-2.963 1.142-.754.027-1.431-.588-2.206-.581-1.462.094-2.58 1.173-3.59 2.113-.603.366-.563 1.81.105.766.621-.752 1.46-1.227 2.408-1.45.729-.407 1.574-.527 2.279-.075.664.084 1.283.776 1.91.791.851-.377 1.674-.829 2.506-1.246.854-.487 1.441-1.276 2.16-1.924.064-.1.083-.219.13-.325.256.433.491.941.985.41.47-.217.948-.471 1.346-.813.544-.202.983-.642 1.472-1.025.701-.54 1.406-1.075 2.191-1.458.477-.459 1.178-.724 1.501-1.348.153-.515-.404-.883-.92-.898z" fill="url(#ax)" fill-rule="evenodd"/><path d="M-19.131 91.997c-.657.011-1.3.145-1.955.238-.873.187-1.735.44-2.597.684-1.073.24-2.145.55-3.145 1.002-.685.056-1.845 1.047-.494.962.929-.18 1.717-.802 2.699-.807.876-.194 1.752-.35 2.586-.695 1.11-.182 2.169-.69 3.318-.633 1.019.183 1.83.912 2.474 1.664.482.8 1.183 1.394 1.71 2.154a.413.413 0 0 0 .094.073c.03-.325.108-.659.237-.961-.375-.627-.809-1.205-1.416-1.655-.85-.78-1.708-1.683-2.85-1.99a4.392 4.392 0 0 0-.661-.036zm8.605 1.97a.534.534 0 0 0-.324.108c-.397.301-1.172-.107-1.206.684-.809 1.767-.649 3.818-.12 5.642.3.784.52 1.803 1.408 2.117.895.207 1.647-.603 1.893-1.39.464-1.482.43-3.065.324-4.598-.335-.995-.797-2.16-1.86-2.555a.634.634 0 0 0-.115-.01zm12.343 2.192c-.507.025-.74.836-.331 1.147-.474 1.383-.241 2.849-.3 4.276.166 1.252.655 2.435 1.023 3.64-.372 1.44-.012 2.95.3 4.365.35 1.044 1.21 1.902 2.294 2.162-.432-.946-1.709-1.774-.717-2.66-.654-.405-1.204-1.07-1.054-1.992.014-.497-.675-.865.168-.758.948-.371 1.704-1.499 1.287-2.517-.19-1.041-1.096-1.664-1.649-2.494.25-.554.875-1.452.442-2.313-.284-.998-.46-2.2-1.358-2.85-.036-.007-.071-.008-.105-.007zm-19.224.039a1.113 1.113 0 0 0-.675.18c-.992.72-1.565 1.85-2.268 2.825-.435.789-.766 1.52-1.155 2.074-.385 1.181-.718 2.382-1.068 3.573.018.316-.475 1.413.106 1.058.663-.946.668-2.119 1.096-3.162.405-1.013.674-2.104 1.492-2.89.84-.787 1.153-2.03 2.037-2.715 1.123-.181 1.886.682 2.732 1.226.195.088.34.243.469.393a1.454 1.454 0 0 1 0-.193c.064-.245.117-.492.157-.741-.355-.219-.747-.404-1.042-.675-.566-.32-1.212-.917-1.881-.953zm25.15.208c-.078 0-.156.005-.236.019.041 1.343 1.057 2.321 1.674 3.442 1.065 1.897 2.694 3.348 4.274 4.803 1.09.462.525 1.906 1.544 2.67 1.265 1.291 2.44 2.78 4.078 3.612.804 1.581 2.882.455 1.843-1.066-.68-1.29-1.516-2.492-2.272-3.737-.621-1.235-2.476-1.114-3.133-1.973.749-1.325-.437-2.537-1.288-3.45-1.547-1.373-2.95-3.073-4.97-3.764-.477-.23-.971-.552-1.514-.556zm-10.465 5.27a.88.88 0 0 0-.475.109c-.16.18-.397.138-.604.22-.456-.247-.677.332-.315.584.066.33-.637.365-.38.661-.759.272-1.191 1.083-1.989 1.306-.654.272-1.316.536-1.84.878-.435.187-1.178.737-1.232 1.018.06.055.116.131.17.213-.943-.2-1.753.758-2.649.932-1.047.113-1.98.763-2.963 1.142-.754.027-1.431-.588-2.206-.581-1.462.094-2.58 1.173-3.59 2.113-.603.366-.563 1.81.105.766.621-.752 1.46-1.227 2.408-1.45.729-.407 1.574-.527 2.279-.075.664.084 1.283.776 1.91.791.851-.377 1.674-.829 2.506-1.246.854-.487 1.441-1.276 2.16-1.924.064-.1.083-.219.13-.325.256.433.491.941.985.41.47-.217.948-.471 1.346-.813.544-.202.983-.642 1.472-1.025.701-.54 1.406-1.075 2.191-1.458.477-.459 1.178-.724 1.501-1.348.153-.515-.404-.883-.92-.898z" fill="url(#ay)" fill-rule="evenodd"/><path d="M.745 89.734l-.03.018.02-.01.01-.008zm1.013.355a12.902 12.902 0 0 0 0 0zm-5.91 2.846l.006.006h0l-.005-.006zm-6.36 1.238a.567.567 0 0 0 0 0zm-1.199.361c-.083.078-.138.2-.146.398a6.084 6.084 0 0 0 0 0c.008-.197.063-.32.147-.398zm-2.327.86l-.202.092c.08.12.159.24.233.365a2.868 2.868 0 0 0 0 0c-.03-.052-.064-.1-.096-.152.02-.102.044-.203.065-.304zm-1.017.46l-1.533.694c.445.21.872.557 1.26.777.266.244.61.42.936.612.04-.373.082-.753.128-1.142-.024-.016-.048-.031-.072-.056a9.898 9.898 0 0 0-.719-.884zm6.5.288l.047.124c0-.002 0-.004-.002-.005l-.046-.119zm-5.607.181c-.039.162-.066.326-.08.488v.001a3.39 3.39 0 0 1 .08-.489zm38.419.392c.775.662 1.416 1.454 1.812 2.503.733 1.255 1.059 3.224.113 4.384a2.36 2.36 0 0 1-.869.655c-.13.013-.26.018-.39.026.07-.004.14-.006.211-.012l2.63 10.784-18.726 8.344-23.668-6.522-1.98-7.468c-.494-.05-1.008.09-1.474.351-.846.2-1.603.6-2.198 1.217l2.306 8.147 28.451 9.361 21.477-11.013-4.039-19.64zm-41.508.577a1.78 1.78 0 0 0-.394.022c-.883.686-1.197 1.928-2.037 2.715-.818.786-1.086 1.877-1.492 2.89-.32.782-.403 1.638-.705 2.415v.001l1.412 4.988c.977-.909 2.06-1.901 3.459-1.992.039 0 .077.002.115.005l-1.833-6.915-.086-.323 4.364-2.007c-.003-.057-.008-.117-.01-.173-.127-.145-.267-.293-.454-.377-.743-.479-1.423-1.204-2.34-1.25zm-1.68.316l-4.552 2.06 1.315 4.644c.277-.957.552-1.915.86-2.862.39-.553.72-1.285 1.155-2.074.415-.575.786-1.201 1.222-1.768zm4.645.391c-.039.249-.092.496-.156.742a1.303 1.303 0 0 0 0 .192h0c-.002-.064-.006-.127 0-.192.064-.246.118-.493.157-.742zm26.219.612l.023.019v0a.714.714 0 0 0-.023-.02zm-20.227.138c0 .048-.002.097-.004.146v-.008c.003-.046.003-.092.005-.138zm-6.104 1.193l-3.476 1.6 1.867 7.042v0c.398.164.79.343 1.205.328.597-.23 1.177-.56 1.774-.808l-1.277-4.766.465-.219c-.32-1.021-.477-2.13-.558-3.177zm2.262.026c.048.205.1.407.159.606.056.147.11.303.166.46-.056-.157-.11-.313-.166-.46-.058-.199-.111-.401-.16-.606zm32.281 3.855l2.078 9.794-14.134 5.14-19.64-5.14-1.014-3.785c-.44.225-.881.445-1.332.644-.595-.014-1.185-.635-1.812-.769l1.73 6.525 22.954 6.327 17.86-7.961-2.511-10.295c-1.396.013-2.796-.199-4.179-.48zm-36.826 4.542c.046.009.09.021.136.033-.045-.012-.09-.024-.136-.033zm.39.11l.08.029-.08-.028zm-.102.968c.036.008.071.02.107.03-.035-.011-.07-.022-.107-.03zm.264.081l.084.034-.084-.034z" id="aB" opacity=".382" fill="url(#az)" fill-opacity="1" fill-rule="evenodd" stroke="#000" stroke-width=".331" stroke-linecap="butt" stroke-linejoin="miter" stroke-opacity="0"/><path d="M.745 89.734l-.03.018.02-.01.01-.008zm1.013.355zm-5.91 2.846l.006.006-.005-.006zm-6.36 1.238zm-1.199.361c-.083.078-.138.2-.146.399.008-.198.063-.321.147-.399zm-2.327.86l-.202.092c.08.12.159.24.233.365-.03-.052-.064-.1-.096-.152.02-.102.044-.203.065-.304zm-1.017.46l-1.533.694c.445.21.872.557 1.26.777.266.244.61.42.936.612.04-.373.082-.753.128-1.142-.024-.016-.048-.031-.072-.056a9.9 9.9 0 0 0-.719-.884zm6.5.288l.047.124c0-.002 0-.004-.002-.005l-.046-.119zm-5.607.181c-.039.162-.066.326-.08.488v.001a3.39 3.39 0 0 1 .08-.489zm38.419.392c.775.662 1.416 1.454 1.812 2.503.733 1.255 1.059 3.224.113 4.384a2.36 2.36 0 0 1-.869.655c-.13.013-.26.018-.39.026.07-.004.14-.006.211-.012l2.63 10.784-18.726 8.344-23.668-6.522-1.98-7.468c-.494-.05-1.008.09-1.474.351-.846.2-1.603.6-2.198 1.217l2.306 8.147 28.451 9.361 21.477-11.013-4.039-19.64zm-41.508.577a1.78 1.78 0 0 0-.394.022c-.883.686-1.197 1.928-2.037 2.715-.818.786-1.086 1.877-1.492 2.89-.32.782-.403 1.638-.705 2.415v.001l1.412 4.988c.977-.909 2.06-1.901 3.459-1.992.039 0 .077.002.115.005l-1.833-6.915-.086-.323 4.364-2.007c-.003-.057-.008-.117-.01-.173-.127-.145-.267-.293-.454-.377-.743-.479-1.423-1.204-2.34-1.25zm-1.68.316l-4.552 2.06 1.315 4.644c.277-.957.552-1.915.86-2.862.39-.553.72-1.285 1.155-2.074.415-.575.786-1.201 1.222-1.768zm4.645.391c-.039.249-.092.496-.156.742a1.303 1.303 0 0 0 0 .192c-.002-.064-.006-.127 0-.192.064-.246.118-.493.157-.742zm26.219.612l.023.019a.714.714 0 0 0-.023-.02zm-20.227.138c0 .048-.002.097-.004.146v-.008c.003-.046.003-.092.005-.138zm-6.104 1.193l-3.476 1.6 1.867 7.042c.398.164.79.343 1.205.328.597-.23 1.177-.56 1.774-.808l-1.277-4.766.465-.219c-.32-1.021-.477-2.13-.558-3.177zm2.262.026c.048.205.1.407.159.606.056.147.11.303.166.46-.056-.157-.11-.313-.166-.46-.058-.199-.111-.401-.16-.606zm32.281 3.855l2.078 9.794-14.134 5.14-19.64-5.14-1.014-3.785c-.44.225-.881.445-1.332.644-.595-.014-1.185-.635-1.812-.769l1.73 6.525 22.954 6.327 17.86-7.961-2.511-10.295c-1.396.013-2.796-.199-4.179-.48zm-36.826 4.542c.046.009.09.021.136.033-.045-.012-.09-.024-.136-.033zm.39.11l.08.029-.08-.028zm-.102.968c.036.008.071.02.107.03-.035-.011-.07-.022-.107-.03zm.264.081l.084.034-.084-.034z" opacity=".678" fill="url(#aA)" fill-rule="evenodd"/><use height="100%" width="100%" xlink:href="#aB" opacity=".681"/><path d="M-12.357 98.724c.01.088.026.175.038.262-.012-.088-.028-.174-.038-.262zm-2.091.367l-4.364 2.007.086.322 1.833 6.916c.306.02.597.13.886.249l-1.867-7.044 3.476-1.599a28.7 28.7 0 0 1-.05-.851zm39.582 5.18c-.27.02-.54.03-.81.032l2.51 10.295-17.859 7.96-22.955-6.326-1.73-6.525c-.032-.007-.064-.018-.096-.022a1.801 1.801 0 0 0-.803-.276l1.979 7.468L9.038 123.4l18.726-8.344z" style="line-height:normal;font-variant-ligatures:normal;font-variant-position:normal;font-variant-caps:normal;font-variant-numeric:normal;font-variant-alternates:normal;font-feature-settings:normal;text-indent:0;text-align:start;text-decoration-line:none;text-decoration-style:solid;text-decoration-color:#000;text-transform:none;text-orientation:mixed;white-space:normal;shape-padding:0;isolation:auto;mix-blend-mode:normal;solid-color:#000;solid-opacity:1" color="#000" font-weight="400" font-family="sans-serif" overflow="visible" fill="url(#aC)" fill-rule="evenodd"/><path style="line-height:normal;font-variant-ligatures:normal;font-variant-position:normal;font-variant-caps:normal;font-variant-numeric:normal;font-variant-alternates:normal;font-feature-settings:normal;text-indent:0;text-align:start;text-decoration-line:none;text-decoration-style:solid;text-decoration-color:#000;text-transform:none;text-orientation:mixed;white-space:normal;shape-padding:0;isolation:auto;mix-blend-mode:normal;solid-color:#000;solid-opacity:1" d="M-12.357 98.724c.01.088.026.175.038.262-.012-.088-.028-.174-.038-.262zm-2.091.367l-4.364 2.007.086.322 1.833 6.916c.306.02.597.13.886.249l-1.867-7.044 3.476-1.599a28.7 28.7 0 0 1-.05-.851zm39.582 5.18c-.27.02-.54.03-.81.032l2.51 10.295-17.859 7.96-22.955-6.326-1.73-6.525c-.032-.007-.064-.018-.096-.022a1.801 1.801 0 0 0-.803-.276l1.979 7.468L9.038 123.4l18.726-8.344z" color="#000" font-weight="400" font-family="sans-serif" overflow="visible" fill="url(#aD)" fill-rule="evenodd"/></g></svg>