<svg xmlns="http://www.w3.org/2000/svg" xmlns:xlink="http://www.w3.org/1999/xlink" width="313.739" height="260.904" viewBox="0 0 83.01 69.031"><defs><pattern xlink:href="#a" id="b" patternTransform="scale(.6319) rotate(-15 1097.94 -3519.01)"/><pattern patternUnits="userSpaceOnUse" width="12.974" height="12.974" patternTransform="matrix(.26458 0 0 .26458 357.166 -51.616)" id="a"><rect y=".501" x=".501" height="11.972" width="11.972" rx="5.079" ry="5.079" fill="#0ff" fill-opacity=".498" stroke="#000" stroke-width="1.002" stroke-linecap="round" stroke-linejoin="bevel" stroke-opacity="0"/></pattern><pattern xlink:href="#c" id="k" patternTransform="rotate(45 94.01 156.522) scale(.11499)"/><pattern patternUnits="userSpaceOnUse" width="12.974" height="12.974" patternTransform="matrix(.26458 0 0 .26458 404.463 24.646)" id="c"><rect width="11.972" height="11.972" x=".501" y=".501" ry="0" fill-opacity=".004" stroke="#000" stroke-width="1.002" stroke-linecap="round" stroke-linejoin="bevel" stroke-opacity="0"/><rect transform="rotate(15)" ry="4.737" rx="4.737" width="9.473" height="9.473" x="3.081" y="-.338" fill-opacity=".498" stroke="#000" stroke-width=".793" stroke-linecap="round" stroke-linejoin="bevel" stroke-opacity="0"/></pattern><pattern xlink:href="#d" id="l" patternTransform="translate(156.654 -31.42) scale(.34083)"/><pattern xlink:href="#e" id="d" patternTransform="translate(144.318 -19.084) scale(.34083)"/><pattern patternUnits="userSpaceOnUse" width="12.974" height="12.974" patternTransform="matrix(.26458 0 0 .26458 430.922 -2.469)" id="e"><rect width="11.972" height="11.972" x=".501" y=".501" ry="0" fill="#ff0" fill-opacity=".004" stroke="#000" stroke-width="1.002" stroke-linecap="round" stroke-linejoin="bevel" stroke-opacity="0"/><rect transform="rotate(15)" ry="2.862" rx="2.862" width="5.724" height="5.724" x="4.812" y="1.892" fill="#ff0" fill-opacity=".498" stroke="#000" stroke-width=".479" stroke-linecap="round" stroke-linejoin="bevel" stroke-opacity="0"/></pattern><pattern xlink:href="#f" id="m" patternTransform="rotate(45 114.314 175.607) scale(.16682)"/><pattern patternUnits="userSpaceOnUse" width="12.974" height="12.974" patternTransform="matrix(.26458 0 0 .26458 453.676 24.438)" id="f"><rect ry="0" y=".501" x=".501" height="11.972" width="11.972" fill="#999" fill-opacity=".004" stroke="#000" stroke-width="1.002" stroke-linecap="round" stroke-linejoin="bevel" stroke-opacity="0"/><rect y="2.758" x="6.424" height="3.538" width="3.538" rx="1.769" ry="1.769" transform="rotate(15)" fill-opacity=".498" stroke="#000" stroke-width=".296" stroke-linecap="round" stroke-linejoin="bevel" stroke-opacity="0"/></pattern><pattern xlink:href="#g" id="n" patternTransform="rotate(14.998 183.113 636.408) scale(.18634)"/><pattern patternUnits="userSpaceOnUse" width="12.974" height="12.974" patternTransform="matrix(.26458 0 0 .26458 357.166 -26.888)" id="g"><rect ry="5.079" rx="5.079" width="11.972" height="11.972" x=".501" y=".501" fill="#f06" fill-opacity=".498" stroke="#000" stroke-width="1.002" stroke-linecap="round" stroke-linejoin="bevel" stroke-opacity="0"/></pattern><pattern xlink:href="#f" id="o" patternTransform="rotate(44.999 114.286 173.54) scale(.12304)"/><pattern patternUnits="userSpaceOnUse" width="12.974" height="12.974" patternTransform="matrix(.26458 0 0 .26458 426.525 -26.977)" id="p"><rect ry="5.986" rx="5.986" width="11.972" height="11.972" x=".501" y=".501" fill="#f06" fill-opacity=".498" stroke="#000" stroke-width="1.002" stroke-linecap="round" stroke-linejoin="bevel" stroke-opacity="0"/></pattern><pattern xlink:href="#h" id="q" patternTransform="rotate(45 155.191 758.286)"/><pattern xlink:href="#i" id="h" patternTransform="scale(.26458) rotate(45 447.733 634.104)"/><pattern xlink:href="#j" id="i" patternTransform="scale(.26458) rotate(45 368.142 601.136)"/><pattern patternUnits="userSpaceOnUse" width="12.974" height="12.974" patternTransform="matrix(.26458 0 0 .26458 430.922 24.646)" id="j"><rect ry="0" y=".501" x=".501" height="11.972" width="11.972" fill-opacity=".004" stroke="#000" stroke-width="1.002" stroke-linecap="round" stroke-linejoin="bevel" stroke-opacity="0"/><rect y="1.892" x="4.812" height="5.724" width="5.724" rx="2.862" ry="2.862" transform="rotate(15)" fill-opacity=".498" stroke="#000" stroke-width=".479" stroke-linecap="round" stroke-linejoin="bevel" stroke-opacity="0"/></pattern><pattern xlink:href="#e" id="r" patternTransform="matrix(.15534 0 0 .15534 151.047 -28.588)"/><pattern xlink:href="#s" id="t" patternTransform="scale(.6319) rotate(-15 1097.94 -3519.01)"/><pattern patternUnits="userSpaceOnUse" width="12.974" height="12.974" patternTransform="matrix(.26458 0 0 .26458 357.166 -51.616)" id="s"><rect y=".501" x=".501" height="11.972" width="11.972" rx="5.079" ry="5.079" fill="#0ff" fill-opacity=".498" stroke="#000" stroke-width="1.002" stroke-linecap="round" stroke-linejoin="bevel" stroke-opacity="0"/></pattern><pattern xlink:href="#u" id="T" patternTransform="scale(.4346) rotate(45 327.545 1722.787)"/><pattern xlink:href="#v" id="u" patternTransform="rotate(45 94.01 156.522) scale(.11499)"/><pattern patternUnits="userSpaceOnUse" width="12.974" height="12.974" patternTransform="matrix(.26458 0 0 .26458 404.463 24.646)" id="v"><rect width="11.972" height="11.972" x=".501" y=".501" ry="0" fill-opacity=".004" stroke="#000" stroke-width="1.002" stroke-linecap="round" stroke-linejoin="bevel" stroke-opacity="0"/><rect transform="rotate(15)" ry="4.737" rx="4.737" width="9.473" height="9.473" x="3.081" y="-.338" fill-opacity=".498" stroke="#000" stroke-width=".793" stroke-linecap="round" stroke-linejoin="bevel" stroke-opacity="0"/></pattern><pattern xlink:href="#w" id="U" patternTransform="matrix(.5754 0 0 .5754 594.203 124.48)"/><pattern xlink:href="#x" id="w" patternTransform="translate(156.654 -31.42) scale(.34083)"/><pattern xlink:href="#y" id="x" patternTransform="translate(144.318 -19.084) scale(.34083)"/><pattern patternUnits="userSpaceOnUse" width="12.974" height="12.974" patternTransform="matrix(.26458 0 0 .26458 430.922 -2.469)" id="y"><rect width="11.972" height="11.972" x=".501" y=".501" ry="0" fill="#ff0" fill-opacity=".004" stroke="#000" stroke-width="1.002" stroke-linecap="round" stroke-linejoin="bevel" stroke-opacity="0"/><rect transform="rotate(15)" ry="2.862" rx="2.862" width="5.724" height="5.724" x="4.812" y="1.892" fill="#ff0" fill-opacity=".498" stroke="#000" stroke-width=".479" stroke-linecap="round" stroke-linejoin="bevel" stroke-opacity="0"/></pattern><pattern xlink:href="#z" id="V" patternTransform="scale(.6305) rotate(45 221.277 1249.624)"/><pattern xlink:href="#A" id="z" patternTransform="rotate(45 114.314 175.607) scale(.16682)"/><pattern patternUnits="userSpaceOnUse" width="12.974" height="12.974" patternTransform="matrix(.26458 0 0 .26458 453.676 24.438)" id="A"><rect ry="0" y=".501" x=".501" height="11.972" width="11.972" fill="#999" fill-opacity=".004" stroke="#000" stroke-width="1.002" stroke-linecap="round" stroke-linejoin="bevel" stroke-opacity="0"/><rect y="2.758" x="6.424" height="3.538" width="3.538" rx="1.769" ry="1.769" transform="rotate(15)" fill-opacity=".498" stroke="#000" stroke-width=".296" stroke-linecap="round" stroke-linejoin="bevel" stroke-opacity="0"/></pattern><pattern xlink:href="#B" id="W" patternTransform="scale(.09655) rotate(15 1896.811 6591.663)"/><pattern xlink:href="#C" id="B" patternTransform="rotate(14.998 183.113 636.408) scale(.18634)"/><pattern patternUnits="userSpaceOnUse" width="12.974" height="12.974" patternTransform="matrix(.26458 0 0 .26458 357.166 -26.888)" id="C"><rect ry="5.079" rx="5.079" width="11.972" height="11.972" x=".501" y=".501" fill="#f06" fill-opacity=".498" stroke="#000" stroke-width="1.002" stroke-linecap="round" stroke-linejoin="bevel" stroke-opacity="0"/></pattern><pattern xlink:href="#D" id="X" patternTransform="rotate(45 139.421 780.082) scale(.46504)"/><pattern xlink:href="#A" id="D" patternTransform="rotate(44.999 114.286 173.54) scale(.12304)"/><pattern xlink:href="#E" id="Y" patternTransform="translate(1660.811 94.645)"/><pattern patternUnits="userSpaceOnUse" width="12.974" height="12.974" patternTransform="matrix(.26458 0 0 .26458 426.525 -26.977)" id="E"><rect ry="5.986" rx="5.986" width="11.972" height="11.972" x=".501" y=".501" fill="#f06" fill-opacity=".498" stroke="#000" stroke-width="1.002" stroke-linecap="round" stroke-linejoin="bevel" stroke-opacity="0"/></pattern><pattern xlink:href="#F" id="Z" patternTransform="rotate(45 155.196 758.287) scale(.42523)"/><pattern xlink:href="#G" id="F" patternTransform="rotate(45 155.191 758.286)"/><pattern xlink:href="#H" id="G" patternTransform="scale(.26458) rotate(45 447.733 634.104)"/><pattern xlink:href="#I" id="H" patternTransform="scale(.26458) rotate(45 368.142 601.136)"/><pattern patternUnits="userSpaceOnUse" width="12.974" height="12.974" patternTransform="matrix(.26458 0 0 .26458 430.922 24.646)" id="I"><rect ry="0" y=".501" x=".501" height="11.972" width="11.972" fill-opacity=".004" stroke="#000" stroke-width="1.002" stroke-linecap="round" stroke-linejoin="bevel" stroke-opacity="0"/><rect y="1.892" x="4.812" height="5.724" width="5.724" rx="2.862" ry="2.862" transform="rotate(15)" fill-opacity=".498" stroke="#000" stroke-width=".479" stroke-linecap="round" stroke-linejoin="bevel" stroke-opacity="0"/></pattern><pattern xlink:href="#J" id="aa" patternTransform="translate(573.012 135.181) scale(.37657)"/><pattern xlink:href="#y" id="J" patternTransform="matrix(.15534 0 0 .15534 151.047 -28.588)"/><pattern xlink:href="#v" id="P" patternTransform="rotate(45 123.038 99.58) scale(.06115)"/><pattern xlink:href="#K" id="Q" patternTransform="rotate(-15.001 -60.242 -620.256) scale(.16719)"/><pattern xlink:href="#L" id="K" patternTransform="rotate(-15.001 -60.242 -620.256) scale(.16719)"/><pattern xlink:href="#M" id="L" patternTransform="rotate(-15.001 -60.242 -620.256) scale(.16719)"/><pattern xlink:href="#N" id="M" patternTransform="scale(.6319) rotate(-15 1097.94 -3519.01)"/><pattern patternUnits="userSpaceOnUse" width="12.974" height="12.974" patternTransform="matrix(.26458 0 0 .26458 357.166 -51.616)" id="N"><rect y=".501" x=".501" height="11.972" width="11.972" rx="5.079" ry="5.079" fill="#0ff" fill-opacity=".498" stroke="#000" stroke-width="1.002" stroke-linecap="round" stroke-linejoin="bevel" stroke-opacity="0"/></pattern><pattern xlink:href="#O" id="S" patternTransform="rotate(14.995 218.414 549.454) scale(.0705)"/><pattern patternUnits="userSpaceOnUse" width="12.974" height="12.974" patternTransform="matrix(.26458 0 0 .26458 404.463 -32.372)" id="O"><rect width="11.972" height="11.972" x=".501" y=".501" ry="0" fill="#999" fill-opacity=".043" stroke="#000" stroke-width="1.002" stroke-linecap="round" stroke-linejoin="bevel" stroke-opacity="0"/><rect transform="rotate(15)" ry="4.737" rx="4.737" width="9.473" height="9.473" x="3.081" y="-.338" fill="#f06" fill-opacity=".498" stroke="#000" stroke-width=".793" stroke-linecap="round" stroke-linejoin="bevel" stroke-opacity="0"/></pattern></defs><g transform="translate(-27.061 -332.355)"><g transform="translate(-80.134 365.57)"><path d="M131.628-33.204c-4.038-.082-2.49 4.147-3.223 6.012L110.77-3.457c-5.057-.792-4.512 7.325.156 6.522l16.144 26.357c-3.356 3.12 2.498 7.867 4.906 4.124.975-.84 2.803-.169 4.13-.384h31.415c.912 5.033 8.922 1.54 5.72-2.574-.93-1.134.875-2.71 1.17-4.041l11.542-24.735c5.201 1.08 4.777-7.397-.042-6.475l-12.55-22.723c2.572-3.579-3.782-7.213-5.57-3.198-.77 1.03-2.792.16-4.092.385l-29.003-.751c-.393-1.315-1.694-2.27-3.067-2.254zm3.215 3.316l32.615.845c.694 1.73-1.97 1.916-2.987 2.869l-5.795 3.31c.5 1.834 2.077-.287 3.158-.586l6.372-3.64c.443 1.08-1.482 2.306-2.024 3.446l-4.556 6.032c-2.845-.507-2.833 3.471-5.602 2.479l-11.055-.075c-.209-2.626-3.325-2.448-4.676-3.05-1.954-3.16-3.971-6.284-5.849-9.492l8.23 4.969c1.359-1.33-1.261-1.675-2.05-2.474l-5.981-3.611.141-.503.058-.519zm-1.386 2.549c1.98 3.4 4.147 6.688 6.197 10.047-2.175 1-.671 3.545-1.72 4.8l-8.68 9.83c-2.59-.855-4.007 2.128-6.692 1.328l-9.238.144c-1.522-1.647 1.414-2.246 2.35-3.337 1.73-.317 1.394-2.684-.082-1.255-1.26.865-2.511 1.97-3.779 2.692l18.007-24.232c1.992.354.619 2.712.822 4.148.236 1.066-.973 3.366.379 3.48.95-.372.365-2.543.697-3.64.422-1.521-.63-3.948 1.74-4.005zm39.14.761L185.02-4.087c-1.234.83-2.63-1.116-3.938-1.536l-4.762-2.783c-1.34 1.349 1.285 1.657 2.084 2.444l5.406 3.159c-.366 1.65-2.674.56-3.986.886l-8.85.048c-.811-2.72-4.276-1.057-4.715-3.883l-3.168-5.965c3.192-1.617.214-4.86.023-6.107l6.316-8.361c1.059.675-.06 2.76.07 4.037l-.702 6.123c1.774.68.998-1.846 1.397-2.894l.808-7.036.84-.203zM145.025-14.15l13.106.09c.425 1.547-1.487 2.607-2.154 3.926l-4.762 6.304c-3.823.044-4.513-4.193-6.568-6.92-1.61-1.44.435-1.828.378-3.4zm13.897 1.875c1.995 1.149 3.984.971 4.62 3.662l2.746 5.172c-.948 1.917-2.691 1.675-4.571 1.623l-9.079.05c-1.452-1.652.845-2.869 1.59-4.292l4.694-6.215zm-19.825.045c1.75 2.16 4.913-.369 5.373 3.238 1.455 2.253 4.83 6.617.775 7.304l-14.48.226c-1.255-1.139 1.285-2.277 1.846-3.421l6.486-7.347zM183.48-.878c1.114 1.685-1.278 2.613-2.089 3.899l-2.694 2.874c1.018 1.607 1.902-.883 2.848-1.488l3.056-3.261c.613.991-.978 2.564-1.279 3.796L172.22 28.735l.125-5.02c-1.829-.521-.831 1.926-1.135 3.006.748 3.036-1.743 3.51-2.839.379-1.9-3.416-5.463-7.231-6.275-10.394 2.954-1.628-.274-4.404 1.355-6.356l3.844-7.907c3.732 1.275 2.709-4.302 5.843-3.265l10.343-.056zm-18.723.102c.959 2.154 1.932 3.422.226 5.553l-3.136 6.452c-2.238-1.064-4.216 1.422-5.075-1.817-1.27-3.192-6.22-6.385-4.228-9.522.504-1.253 2.764-.321 4.034-.621l8.18-.045zm-18.45.13c1.473 1.673.198 3.014-.773 4.584l-4.655 7.727c-2.14.03-3.548.336-4.682-1.87l-5.971-7.048c1.26-1.92.707-3.885 3.598-3.198l12.483-.195zm-21.362.333c-.927 4.271 3.88 2.829 5.353 4.783l6.927 8.177c-2.079 2.309 1.622 4.46-.843 6.484l-5.785 9.602c-1.682-.223-.827-2.614-1.28-3.896l-.798-7.628c-1.88-.284-.575 2.016-.737 3.125l.86 8.226c-1.447.462-1.798-2.144-2.746-3.078L111.826 2.51c1.022-.12 1.837 2.922 2.844 1.095-1.371-.987-2.56-2.818-.789-3.745l11.064-.173zm23.13 2.084c4.009-.457 4.779 4.556 7.104 7.14 1.525 1.613 3.65 5.596-.046 5.06-4.05.22-8.197.538-12.186.696-1.298-2.013-.953-3.418.523-5.251l4.605-7.645zm9.113 13.137c1.21 2.857 4.926 2.187 5.654 5.7 1.604 2.735 4.993 7.067 5.567 8.864l-7.36-3.75c-1.26 1.425 1.378 1.58 2.222 2.32 1.627.83 3.255 1.66 4.882 2.488-.201 2.446-2.685 1.329-4.35 1.573h-31.27c-.364-1.757 2.15-1.807 3.248-2.705l9.896-5.017c-.407-1.857-2.088.183-3.183.427l-10.378 5.26c-1.318-1.186.856-2.609 1.273-3.92l5.122-8.502c2.907 1.509 3.567-2.618 6.181-1.989l12.496-.749z" opacity=".522" fill="url(#P)"/><path d="M132.143-33.04c-4.038-.082-2.491 4.147-3.223 6.012L111.283-3.293c-5.056-.793-4.512 7.325.157 6.522l16.144 26.357c-3.356 3.12 2.497 7.867 4.906 4.124.974-.84 2.802-.169 4.13-.384h31.415c.912 5.033 8.922 1.54 5.72-2.574-.93-1.135.875-2.71 1.17-4.041l11.542-24.735c5.2 1.08 4.777-7.397-.042-6.475l-12.55-22.723c2.572-3.579-3.782-7.213-5.57-3.198-.77 1.03-2.792.16-4.092.385l-29.003-.751c-.394-1.316-1.694-2.271-3.067-2.254zm3.214 3.316l32.615.845c.694 1.729-1.969 1.916-2.987 2.869l-5.795 3.31c.5 1.834 2.078-.287 3.159-.586l6.372-3.64c.443 1.08-1.482 2.305-2.025 3.446l-4.555 6.031c-2.845-.507-2.834 3.472-5.602 2.48l-11.056-.075c-.208-2.626-3.324-2.448-4.675-3.05-1.954-3.16-3.971-6.284-5.85-9.492l8.23 4.969c1.36-1.33-1.26-1.675-2.048-2.474l-5.982-3.612.141-.502.058-.519zm-1.385 2.548c1.98 3.402 4.147 6.689 6.197 10.047-2.176 1.002-.672 3.546-1.72 4.8l-8.68 9.83c-2.59-.854-4.007 2.13-6.692 1.329l-9.238.144c-1.522-1.648 1.414-2.246 2.349-3.337 1.73-.317 1.395-2.684-.08-1.255-1.262.865-2.513 1.969-3.78 2.692l18.007-24.232c1.991.354.618 2.712.822 4.148.236 1.066-.973 3.366.379 3.48.95-.372.364-2.544.696-3.64.389-1.501-.574-3.96 1.74-4.006zm39.14.762l12.421 22.491c-1.233.83-2.63-1.117-3.937-1.536l-4.763-2.783c-1.339 1.349 1.286 1.656 2.085 2.444l5.405 3.158c-.366 1.65-2.673.561-3.985.887l-8.85.048c-.811-2.72-4.277-1.058-4.716-3.883l-3.167-5.965c3.192-1.617.213-4.86.022-6.107l6.317-8.362c1.059.676-.061 2.761.07 4.038l-.702 6.122c1.773.681.997-1.845 1.396-2.893l.809-7.036.84-.203zm-27.574 12.428l13.107.09c.425 1.547-1.488 2.606-2.154 3.926l-4.762 6.304c-3.823.044-4.514-4.193-6.568-6.92-1.61-1.44.435-1.828.377-3.4zm13.898 1.875c1.995 1.149 3.984.971 4.619 3.662l2.746 5.172c-.948 1.917-2.69 1.674-4.57 1.622l-9.079.05c-1.452-1.65.845-2.868 1.589-4.291l4.695-6.215zm-19.825.045c1.75 2.16 4.913-.37 5.373 3.238 1.454 2.253 4.83 6.617.774 7.303l-14.48.227c-1.255-1.14 1.285-2.277 1.847-3.422l6.486-7.346zM183.995-.715c1.114 1.686-1.278 2.614-2.09 3.9l-2.693 2.874c1.018 1.607 1.902-.883 2.847-1.488l3.057-3.262c.613.992-.978 2.565-1.279 3.797l-11.104 23.792.125-5.02c-1.828-.52-.83 1.927-1.134 3.007.748 3.035-1.743 3.51-2.84.379-1.9-3.416-5.462-7.232-6.275-10.394 2.954-1.628-.273-4.404 1.355-6.356l3.844-7.907c3.733 1.275 2.71-4.302 5.844-3.265l10.343-.057zm-18.723.103c.958 2.154 1.931 3.422.225 5.553l-3.136 6.452c-2.238-1.064-4.216 1.421-5.075-1.817-1.27-3.193-6.22-6.385-4.228-9.522.504-1.253 2.764-.322 4.034-.622l8.18-.044zm-18.45.13c1.473 1.673.197 3.014-.773 4.584l-4.655 7.727c-2.141.03-3.548.336-4.683-1.871l-5.97-7.047c1.259-1.92.707-3.886 3.597-3.199l12.484-.195zM125.46-.15c-.927 4.27 3.88 2.829 5.353 4.783l6.927 8.177c-2.08 2.308 1.621 4.46-.844 6.484l-5.784 9.601c-1.682-.222-.827-2.613-1.28-3.895l-.798-7.628c-1.88-.284-.575 2.015-.737 3.125l.86 8.226c-1.447.462-1.798-2.144-2.746-3.078L112.34 2.674c1.023-.12 1.838 2.921 2.845 1.095-1.372-.988-2.56-2.818-.79-3.745l11.065-.173zm23.13 2.084c4.009-.457 4.779 4.556 7.103 7.14 1.526 1.612 3.651 5.596-.045 5.06-4.05.22-8.198.538-12.186.696-1.298-2.013-.953-3.418.523-5.252l4.605-7.644zm9.113 13.137c1.21 2.857 4.925 2.187 5.654 5.7 1.604 2.735 4.993 7.067 5.567 8.864l-7.36-3.75c-1.26 1.424 1.378 1.58 2.221 2.32l4.883 2.488c-.202 2.446-2.686 1.328-4.35 1.573h-31.27c-.364-1.758 2.15-1.807 3.247-2.705l9.897-5.017c-.407-1.857-2.089.182-3.183.427l-10.379 5.26c-1.317-1.186.857-2.61 1.274-3.92l5.122-8.502c2.907 1.508 3.567-2.618 6.181-1.99l12.496-.748z" id="R" opacity="1" fill="url(#Q)" fill-opacity="1" stroke="none" stroke-width=".529" stroke-linecap="round" stroke-linejoin="miter" stroke-miterlimit="4" stroke-dasharray="none" stroke-dashoffset="0" stroke-opacity="0"/><use height="100%" width="100%" transform="translate(-.515 -.164)" xlink:href="#R"/><path d="M131.628-33.204c-4.11-.277-2.124 4.674-3.737 6.704L110.77-3.457c-5.306-.754-3.967 7.56.408 6.933l15.892 25.946c-3.56 3.706 3.41 7.745 5.772 3.74h34.68c.905 5.352 9.43.813 5.49-3.017 1.363-4.387 3.924-8.55 5.722-12.863l7.219-15.47c5.4 1.072 4.267-7.614-.251-6.854l-12.34-22.344c2.66-4.237-4.642-6.875-6.348-2.735-10.754-.263-21.547-.553-32.318-.829-.388-1.31-1.7-2.275-3.067-2.254zm3.215 3.316l32.615.845c-.676 3.48-7.464 3.796-8.548 6.692 2.619-.173 5.119-2.731 7.7-3.827 3.551-2.114-.322 2.358-1.331 3.73l-3.653 4.836c-2.705.54-4.362 3.431-7.541 2.466l-9.117-.062c-.807-3.434-5.934-2.036-6.52-6.006-.93-1.793-3.999-5.76-3.49-6.226 2.558.908 6.257 5.093 8.08 3.826-2.318-1.817-5.13-3.162-7.646-4.8-1.022-.289-.605-.734-.55-1.474zm-1.386 2.549c1.427 3.478 5.826 7.431 5.542 10.488-.818 2.183-.606 4.758-2.783 6.304l-6.962 7.884c-2.887-.174-5.374 2.07-8.411 1.356l-7.52.117c-2.098-2.337 5.501-3.521 2.775-4.962-1.567 1.092-5.924 4.732-2.878 1.169l16.6-22.339c3 .93-1.288 7.528 1.624 7.25.822-2.232-.9-6.43 2.013-7.267zm39.14.761L185.02-4.087c-3.101.584-6.895-5.096-9.053-3.481 2.162 1.642 4.75 2.865 7.1 4.331 1.815 1.971-3.224 1.173-4.742 1.328l-7.351.04c-1.665-2.18-4.96-2.406-5.625-5.596l-2.258-4.252c3.895-2.234-2.347-6.473 1.995-8.718 1.552-1.253 3.385-6.13 4.784-5.018.002 3.048-1.56 7.231-.52 9.542 1.4-2.153.816-5.613 1.45-8.281-.055-1.573.303-1.91 1.799-2.386zM145.025-14.15l13.106.09c-.592 3.181-3.78 5.44-5.424 8.256-2.329 4.741-6.379-1.013-7.344-3.864-1.89-1.791-1.115-2.48-.338-4.482zm13.897 1.875c4.277.874 6.394 6.043 6.975 9.455-1.917 1.822-4.802.728-7.198 1.018l-6.06.033c-1.014-3.252 3.455-5.69 4.813-8.56l1.47-1.946zm-19.825.045c2.173 1.476 5.509.769 5.99 4.17 2.875 2.501 2.66 7.642-2.1 6.407l-12.222.191c-.708-2.05 2.386-3.434 3.412-5.195l4.92-5.573zM183.48-.878c.781 2.433-2.485 3.76-3.707 5.625-2.463 2.475 1.523 1.106 2.206-.804.88-.616 2.126-2.936 2.756-2.402-1.524 4.178-3.782 8.19-5.572 12.313l-6.944 14.88c.403-1.553-.032-7.523-1-3.585.89 2.258-.911 6.007-2.627 2.498-1.193-3.91-7.313-7.845-5.658-11.6.58-2.604-.288-5.444 1.554-7.832l2.806-5.772c3.348 1.299 3.218-4.789 6.7-3.27l9.486-.051zm-18.723.102c2.696 3.31-.5 6.478-1.732 9.58-.544 3.699-6.47 3.076-6.881-.589-2.043-2.05-7.025-8.86-1.279-8.948 3.288.019 6.596-.04 9.892-.043zm-18.45.13c1.836 3.54-2.845 6.634-3.971 9.892-1.008 3.975-5.649 2.588-6.971-.434l-5.14-6.065c.438-3.345 3.098-3.457 5.752-3.232l10.33-.161zm-21.362.333c-1.026 4.495 5.546 2.735 6.648 6.312 1.941 3.109 6.501 5.338 5.1 9.177 1.592 4.433-3.565 7.768-5.01 11.755-2.677 4.534-2.28-3.352-2.714-5.422.258-1.62-1.05-6.54-1.38-2.735.412 3.247.69 6.526 1.053 9.786-3.437-2.21-4.868-7.588-7.577-10.964l-9.24-15.086c.855 1.057 3.942 2.565 1.895.224-2.178-2.404 1.054-3.326 2.975-2.918l8.25-.129zm23.13 2.084c4.635-.144 5.123 5.729 7.98 8.25 2.164 2.21.688 5.067-2.437 4.036-3.58-.563-9.205 2.256-11.343-.799-.138-3.815 3.485-6.645 4.935-10.051l.865-1.436zm9.113 13.137c2.022 2.74 5.873 3.604 6.715 7.38 1.164 2.064 4.475 5.775 4.048 6.95-2.256-.568-5.834-4.19-7.206-2.659 1.788 2.06 7.768 2.332 6.88 5.193-2.215.728-4.709.166-7.054.331h-28.037c1.687-3.294 6.967-3.898 10.046-6.152 1.8-.179 4.468-3.14 1.303-1.879-3.878 2.063-7.857 3.977-11.767 5.996-1.004-2.085 1.74-3.956 2.494-5.947l3.901-6.475c3.102.984 5.039-3.384 8.517-2.129l10.16-.609z" opacity=".522" fill="url(#S)"/></g><g id="ab" fill-rule="evenodd"><path d="M554.764 158.582c-.381 0-.842.082-1.196.592-.177.255-.255.62-.207.922.027.167.118.276.186.406l-.303.39 1.615.303c1.656.306 3.483 1.73 5.051 3.53 1.558 1.787 2.86 3.886 3.668 5.365 2.218 4.874 1.716 11.125-2.473 14.285-1.461.313-2.768.851-3.992 1.424l5.366.037c4.972-3.901 5.428-11.101 2.908-16.607l-.014-.032-.016-.029c-.857-1.572-2.221-3.79-3.935-5.758a12.46 12.46 0 0 0-5.315-3.588c-.015-.23-.021-.469-.146-.648-.354-.51-.816-.592-1.197-.592zm-32.07.147c.47.749.897 1.44 1.378 2.207 3.462.604 6.802 2.375 9.875 3.462 3.276 2.656 3.307 2.401 5.81 6.334-.014-.031-.037-.072-.052-.103l.059.111c.896 1.865 2.383 4.354 3.787 6.307a12.905 12.905 0 0 1 1.11.678l1.179-.924c-1.458-1.854-3.377-5.029-4.326-7.028l-.03-.058-.03-.053c-2.573-4.04-2.957-4.162-6.32-6.894l-.14-.118-.162-.052c-3.25-1.12-7.461-3.601-12.139-3.87zm-4.39.476c-.06.018-.121.03-.183.049l.576 1.912c.243-.074.485-.127.727-.182l-1.12-1.779zm36.97.389c-.012-.013.042.038.066.183a.848.848 0 0 1-.125.534c-.21.3-.371.271-.451.271-.077 0-.234-.002-.428-.258zm-36.983 9.36l-1.986.273c.335 2.445-.48 4.34-1.957 6.002-1.475 1.658-3.631 3.006-5.793 4.052-4.001 1.498-9.419 3.142-14.795 4.377l.097-.013c-6.093.81-11.698 2.941-17.873 4.458l-.088.022-.087.037c-4.067 1.854-8.743 3.13-12.44 6.252l1.293 1.53c3.238-2.735 7.678-4.001 11.922-5.928 6.267-1.55 11.784-3.627 17.539-4.393l.043-.008.045-.008c5.493-1.262 11-2.938 15.111-4.48l.043-.016.045-.022c2.3-1.111 4.674-2.557 6.43-4.533 1.756-1.975 2.869-4.557 2.451-7.603zm60.336 2.91a28.51 28.51 0 0 0-1.393.013c-3.75.136-7.55 1.07-10.142 3.736l1.431 1.387c2.066-2.124 5.313-2.998 8.778-3.123 3.464-.126 7.084.495 9.678 1.174l.058.015.06.008c2.202.308 4.3.947 5.669 2.045 1.33 1.067 2.014 2.556 1.75 5.02-.52 1.194-1.636 2.134-3.41 2.834-1.125.443-2.474.773-3.924 1.031l6.293.041c1.364-.791 2.453-1.843 3.011-3.264l.053-.119.014-.125c.404-3.136-.7-5.506-2.531-6.976-1.824-1.463-4.244-2.116-6.622-2.451-2.392-.622-5.534-1.201-8.773-1.247zm20.107.36a66.86 66.86 0 0 0-.328.096s-.272.19-.273.192l-.258.435c-.001.003-.04.235-.04.324a1 1 0 0 0 .09.407c0 .049.008.055-.023.244l.25.045c.052.056.09.138.149.183.163.13.387.147.584.207 1.81 1.275 4.437 2.668 6.547 4.11a12.145 12.145 0 0 1 2.01-1.014c-2.44-1.832-5.598-3.454-7.424-4.742l-.221-.147-.215-.023c-.011-.012-.014-.024-.03-.037a1.224 1.224 0 0 0-.116-.096c-.047-.032-.169-.095-.17-.095a75.838 75.838 0 0 0-.528-.088h-.002zm-.527 1.749l.988.17-.236.066c.003 0-.519-.082-.516-.08.002 0-.112-.06-.154-.09a1.228 1.228 0 0 1-.082-.066zm-73.496 12.23c-3.717 1.611-6.523 3.94-9.992 5.717l-.186.088-.133.162c-1.309 1.576-3.595 3.11-5.779 4.887-1.94 1.578-3.834 3.399-4.754 5.818-1.787-1.766-3.94-3.173-6.135-4.164l-.074-.037-.066-.016c-2.083-.586-4.173-.716-6.237-.502h-.002c-6.113.637-11.96 4.275-16.638 7.758-.003.001-.004.006-.008.008-6.74 2.944-12.385 10.113-16.32 15.99l-.06.088-.044.104c-2.135 5.464-5.162 10.685-6.941 16.304l2.134-.035c1.719-5.067 4.502-10.035 6.616-15.406 3.854-5.749 9.43-12.6 15.42-15.213l.11-.052.089-.067c6.103-4.567 14.029-9.055 21.26-7.064 4.833 2.204 9.262 6.46 9.337 11.972v.14l.04.134c.236.796.322 1.527.31 2.217l1.748-1.98c-.043-.21-.074-.415-.133-.628-.071-3.18-1.32-5.948-3.193-8.228l.426.109c.569-2.221 2.3-4.01 4.377-5.7 1.99-1.618 4.198-3.117 5.802-4.945 3.307-1.703 5.869-3.681 8.836-5.144a12.905 12.905 0 0 1-.008-.139 12.905 12.905 0 0 1 .198-2.176zm25.537 3.547a12.905 12.905 0 0 1-.049.383c.972.004 1.882-.133 2.74-.365zm73.654.73c-.11.78-.307 1.539-.562 2.274 1.585 1.55 3.202 3.036 4.916 4.332l.096.066.103.053c1.946.862 3.06 2.02 4.608 2.982 1.54.958 3.535 1.528 6.583.989 2.474-.257 4.988-.993 6.704-2.65 1.727-1.67 2.419-4.34 1.21-7.58l-1.874.693c1.017 2.73.489 4.274-.725 5.447s-3.353 1.896-5.565 2.119l-.039.008-.037.008c-2.722.489-3.939.054-5.205-.732-1.216-.756-2.533-2.003-4.656-2.996-1.901-1.438-3.722-3.179-5.557-5.012zm-2.757 6.125c-.49.58-1.032 1.118-1.63 1.602.931.266 1.812.56 2.544.932.831.422 1.465.916 1.88 1.52.414.6.645 1.321.592 2.372l.008-.068-.008.08v-.012c-.324 2.43-.467 4.381-.133 6.073.338 1.707 1.27 3.138 2.82 4.126l.192.125.229.024c5.779.642 11.279-.545 16.299 2.111 3.657 1.922 5.784 3.478 7.95 6.871l.067.112.096.088c.182.167.573.838.797 1.742.223.903.333 2.029.273 3.123-.06 1.094-.295 2.161-.701 2.967-.406.805-.935 1.33-1.676 1.58l.635 1.898c1.312-.44 2.251-1.44 2.828-2.584.577-1.144.843-2.45.914-3.75.071-1.3-.055-2.594-.332-3.713-.268-1.08-.661-1.978-1.344-2.642-2.32-3.574-4.85-5.507-8.576-7.465-5.635-2.982-11.423-1.807-16.676-2.317-1.049-.713-1.59-1.455-1.832-2.68-.255-1.288-.157-3.097.164-5.492l.006-.037v-.045c.075-1.423-.273-2.651-.937-3.617-.664-.965-1.608-1.656-2.635-2.177a14.082 14.082 0 0 0-1.814-.747zm-18.372.23l-.619.821c.404-.08.812-.15 1.229-.203-.206-.202-.417-.4-.61-.617zm-5.029.017c-5.126 1.67-9.226 5.67-13.312 8.613l1.166 1.623c3.254-2.344 6.352-5.09 9.65-6.934zm-36.033.648l-.104.014c-4.862.463-9.517 1.413-13.68 3.595l1.03 1.713c3.783-1.955 8.095-2.857 12.738-3.306 5.763.647 10.695 1.523 15.008 4.273l.149.096.162.037c1.381.323 3.319 1.69 5.035 3.027.858.669 1.67 1.321 2.42 1.83.488.332 1 .44 1.5.606.376.584.719 1.116 1.06 1.65l1.293-1.71-.744-1.159-.308-.479-.569.022c.091-.003-.462-.146-1.107-.584-.645-.438-1.448-1.078-2.319-1.756-1.736-1.353-3.702-2.896-5.787-3.389-4.69-2.895-9.907-3.823-15.672-4.466zm-17.506 5.18c-3.609 1.136-7.478 2.54-10.967 4.52-4.154 2.357-7.773 5.543-9.504 10.015.047-.05.09-.103.137-.153l-.213.338c.024-.063.052-.122.076-.185-4.629 4.947-8.685 10.61-10.183 17.15l1.949.444c1.392-6.077 5.262-11.522 9.826-16.373l.139-.149.066-.191c1.48-3.98 4.718-6.901 8.69-9.155 3.43-1.947 7.364-3.353 11.045-4.498l-1.06-1.763zm46.348 10.334l-1.332 1.763a30.715 30.715 0 0 1 1.494 3.451c.562 1.998.484 3.461.05 4.569-.43 1.1-1.232 1.913-2.34 2.57-.752.354-2.576.635-4.214.686a23.47 23.47 0 0 1-2.229-.037c-.613-.042-1.169-.18-1.02-.118l-.774 1.838c.55.233.97.233 1.662.28a25.61 25.61 0 0 0 2.427.029c1.782-.055 3.684-.22 5.057-.885l.037-.015.04-.022c1.407-.825 2.593-1.999 3.218-3.596s.663-3.555.008-5.867l-.008-.03-.016-.036a32.67 32.67 0 0 0-2.06-4.58zm28.994 6.127a22.708 22.708 0 0 0-2.36.113h-.001l-.06.008-.052.014c-5.877 1.23-12.05 2.998-16.756 6.386-2.8 1.345-5.99 3.284-7.994 6-1.026 1.392-1.693 3.032-1.781 4.82l1.916-.01c.089-1.311.642-2.492 1.475-3.62 1.671-2.266 4.64-4.15 7.293-5.418l.08-.038.082-.058c4.28-3.117 10.234-4.867 16.025-6.084 2.991-.287 5.394.037 7.13 1.012 1.747.98 2.942 2.592 3.538 5.271l.05.258.186.191c.536.589 1.046 1.615 1.424 2.832.28-.208.57-.407.87-.591l-5.18-9.752c-1.67-.911-3.652-1.319-5.885-1.334zm-55.744.492c-1.606-.016-3.182.026-4.71.052l1.21 2.012c4.802-.041 9.762-.033 12.611 2.045h.008c.806.721 1.818 1.485 2.772 2.3l1.21-1.603c-1.037-.888-2.056-1.646-2.72-2.248l-.04-.037-.042-.03c-2.788-2.037-6.546-2.455-10.3-2.491zm-9.172.385c-3.042.669-5.06 2.428-6.024 4.794-1.208 2.967-.965 6.668-.109 10.42 0-.018 0-.036-.002-.054l.023.154c-.008-.033-.013-.066-.021-.1.04.563.049 1.113.04 1.657l1.995-.032c.01-.6 0-1.207-.045-1.828l-.008-.074-.013-.074c-.826-3.577-.96-6.978-.008-9.315.818-2.008 2.31-3.367 5.255-3.744l-1.084-1.804zm-72.291.248c-3.156-.02-5.58 2.46-7.766 5.277-2.185 2.816-4.22 6.139-6.297 8.357l-.117.125-.066.162c-.58 1.333-1.174 2.657-1.768 3.985l2.2-.033c.454-1.022.904-2.028 1.353-3.059 2.24-2.444 4.24-5.688 6.275-8.31 2.082-2.683 4.132-4.517 6.172-4.504zm189.752.212c-.208.165-.794.43-1.535.672-.742.243-1.64.497-2.555.836-1.806.67-3.779 1.756-4.51 3.918-1.13 2.075-1.33 4.573-.937 6.992.177 1.093.473 2.168.855 3.19l2.162-.012a14.99 14.99 0 0 1-1.047-3.496c-.35-2.155-.148-4.279.73-5.824l.052-.088.03-.104c.423-1.327 1.724-2.094 3.36-2.7.818-.304 1.688-.551 2.487-.813.798-.262 1.528-.507 2.148-.996zm-92.438 6.963l-1.32 1.748c.102.234.189.467.242.702.174.763.111 1.546-.39 2.525l-.024.059-.021.058c-.097.268-.198.522-.3.776.432.815.768 1.677 1.005 2.572.41-.817.796-1.66 1.133-2.586.67-1.328.814-2.662.544-3.846-.166-.732-.482-1.394-.869-2.008zm64.918 1.442l-1.088 1.424a12.161 12.161 0 0 1 3.164 2.894c.023-.386.02-.776-.048-1.17-.2-1.149-.87-2.266-2.028-3.148zm23.49 11.178l-2.486.013c1.325 1.85 2.676 3.11 3.305 5.785-.011.087-.041.16-.037.258.011.261.12.608.361.848.484.479.936.372 1.1.363.081-.004.123-.006.082-.008-.041-.002-.23.018-.489-.215-.258-.233-.304-.634-.287-.752l1.772.9c.092-.18.168-.341.207-.597.04-.256-.037-.747-.354-1.033-.159-.143-.247-.112-.377-.149-.574-2.522-1.732-4.057-2.797-5.414zm-10.162.134c-.728.001-1.517.092-2.369.274l-.228.045-.184.148a367.75 367.75 0 0 0-7.824 6.357 12.183 12.183 0 0 1-6.62 5.157 2.5 2.5 0 0 0 .596.48c.587.328 1.32.382 2.024.207l.228-.058.184-.155c3.62-3.142 8.235-6.926 12.41-10.216 1.842-.36 3.109-.222 3.979.25.905.49 1.55 1.347 2.09 2.584 1.056 2.418 1.531 6.134 2.752 9.64-.054 7.25.396 14.355-4.045 19.223l-.038.037-.03.045c-1.782 2.41-4.015 3.75-6.739 4.627-2.724.876-5.932 1.248-9.45 1.646l.23 1.987c3.517-.398 6.835-.763 9.831-1.727 1.16-.373 2.27-.85 3.317-1.45l-.028.09c.246.077.448.272.649.797.2.526.318 1.315.34 2.17.043 1.697-.271 3.665-.54 4.659-1.4 4.32-2.493 6.392-5.824 10.158l-.008.008-.008.008c-1.812 2.125-3.219 3.16-4.671 4.127-1.423.946-2.921 1.843-4.663 3.506l.05-.03-.157.125c.037-.035.07-.06.107-.095-3.049 1.94-6.906 3.22-10.263 4.302l.611 1.905c3.381-1.09 7.415-2.4 10.78-4.555l.08-.05.074-.067c1.631-1.58 2.979-2.377 4.488-3.381 1.509-1.004 3.144-2.212 5.086-4.488 3.428-3.879 4.783-6.416 6.223-10.86l.008-.021.008-.024c.334-1.224.67-3.289.619-5.277-.027-.994-.142-1.961-.473-2.826a3.779 3.779 0 0 0-.818-1.293 14.112 14.112 0 0 0 2.707-2.754c5.111-5.648 4.496-13.469 4.554-20.63v-.179l-.06-.17c-1.177-3.274-1.58-7.041-2.863-9.98-.642-1.47-1.556-2.78-2.975-3.55-.887-.482-1.932-.727-3.146-.725zm-64.353.274l-2.234.011c.215.494.475.992.789 1.495l1.691-1.055c-.097-.155-.16-.3-.246-.451zm-11.328.06l-3.037.018c-.056.434-.14.861-.24 1.283.206-.044.428-.09.632-.135 5.18 2.101 11.98 2.748 16.692 6.045 2.936 2.36 4.263 5.204 5.144 8.461.884 3.267 1.268 6.926 2.348 10.645l1.926-.563c-1.017-3.498-1.405-7.127-2.346-10.607-.941-3.48-2.492-6.837-5.84-9.516l-.03-.021-.023-.014c-4.653-3.272-10.642-4.164-15.226-5.596zm-32.145.336l-2.045.033c-.72 3.044-2.131 5.867-3.828 8.704-1.65 2.6-4.282 4.444-6.719 6.539-2.439 2.096-4.717 4.561-5.086 8.32l-.021.25.096.236c.871 2.08 2.26 4.314 3.054 6.483.794 2.169 1.01 4.095-.191 5.898l-.117.176-.04.215c-.327 1.987-1.316 3.376-2.648 4.804-1.164 1.25-2.573 2.505-3.84 4.08a12.16 12.16 0 0 1 1.543-.103c.386.001.769.023 1.15.06.85-.891 1.749-1.748 2.608-2.67 1.403-1.504 2.632-3.298 3.078-5.69 1.48-2.412 1.2-5.087.332-7.458-.854-2.333-2.156-4.478-2.945-6.267.359-2.944 2.052-4.858 4.326-6.813 2.327-2 5.188-3.953 7.115-6.998l.008-.016v-.006c1.832-3.06 3.417-6.252 4.17-9.777zm-32.619.51l-19.361.303c.115.473.2.953.258 1.435a9.64 9.64 0 0 1 1.32-.318c7.882-.623 16.145-1.08 22.678 2.65l.037.014.029.023c5.388 2.572 6.503 9.167 4.002 14.084-2.244 2.678-5.12 3.77-8.35 4.555-3.264.794-6.83 1.242-10.076 2.865-.544.25-1.076.551-1.6.877l1.307 1.543c.376-.224.754-.432 1.133-.605l.014-.006.015-.016c2.845-1.427 6.26-1.877 9.678-2.709 3.418-.832 6.89-2.098 9.523-5.314l.067-.082.043-.096c3.008-5.792 1.629-13.746-4.854-16.875-1.867-1.063-3.836-1.81-5.863-2.328zm-50.71.793l-2.192.035c-.936 2.162-1.831 4.322-2.594 6.483l-.043.125-.008.14c-.49 7.148-2.47 15.43 1.21 22.678 1.414 4.953 4.373 9.47 8.577 12.549 2.621 2.48 6.179 3.2 9.522 3.232-.11 4.5 1.25 7.697 2.378 11.303l.038.111.058.096c1.94 3.3 3.538 5.211 5.582 7.824l.008.016c1.558 2.321 3.71 3.684 4.996 5.543l.067.103.09.074c1.275 1.145 1.026 1.126 2.9 2.319l1.078-1.684c-1.787-1.138-1.337-.943-2.594-2.08.032.045.068.085.1.131l-.149-.178.05.047c-1.577-2.21-3.652-3.562-4.886-5.406l-.021-.03-.023-.029c-2.066-2.642-3.563-4.44-5.418-7.58-1.162-3.683-2.379-6.526-2.254-10.629.622-.04 1.23-.094 1.81-.164 2.769-.045 5.024-1.705 6.446-3.912 1.408-2.186 2.09-4.927 1.851-7.515v-2.332h-2v2.435c.215 2.116-.372 4.52-1.535 6.326-1.163 1.806-2.806 2.978-4.805 3.004h-.06l-.051.008c-3.957.484-8.904.305-11.84-2.502l-.053-.05-.05-.038c-3.884-2.82-6.663-7.044-7.952-11.672l-.03-.095-.044-.088c-3.26-6.379-1.542-14.15-1.02-21.504.83-2.338 1.816-4.702 2.86-7.094zm-14.37.225l-2.047.03c-.02.108-.044.214-.062.321l1.972.338c.04-.23.091-.46.137-.69zm173.05 1.89c-.141.139-.276.28-.429.416-1.12 1-2.5 1.919-3.705 3.102l-.14.133-.075.175c-1.323 3.052-2.815 6.917-3.53 10.74-.713 3.825-.687 7.686 1.315 10.602l.016.014.008.015c.531.711 1.088 1.55 1.621 2.46l1.033-2.126a29.665 29.665 0 0 0-1.052-1.529l.023.03c-1.527-2.225-1.656-5.529-.99-9.096.653-3.501 2.047-7.162 3.322-10.12.978-.927 2.22-1.788 3.41-2.84a12.152 12.152 0 0 1-.826-1.976zm-63.17 5.842c-.407 1.582-.355 3.333-.116 5.02.415 2.928 1.34 5.851 1.558 7.619l.022.191.095.17c1.361 2.462.835 4.602-.369 6.828-1.164 2.155-2.97 4.181-4.177 6.098-2.957 1.918-5.584 2.958-7.883 5.55l1.49 1.329c2.01-2.266 4.448-3.212 7.654-5.323l.186-.125.117-.191c1.023-1.678 3.004-3.857 4.371-6.387 1.343-2.485 2.056-5.514.443-8.582.01.063.028.136.036.198l-.117-.362c.03.055.053.11.082.164-.292-2.118-1.151-4.84-1.522-7.457-.214-1.508-.242-2.9.02-4.08a12.144 12.144 0 0 1-1.89-.66zm-74.495 6.441a12.13 12.13 0 0 1-1.485.106c-.18 0-.355-.02-.533-.027.066 1.553.132 3.078.03 4.51l-.163 2.243.871-.68c.13.069.24.157.407.184.301.05.667-.028.922-.205.509-.354.584-.808.584-1.19 0-.38-.075-.84-.584-1.195-.012-.008-.03 0-.043-.008.044-1.257.018-2.509-.006-3.738zm95.8 1.635a1.626 1.626 0 0 0-.87.295c-.343.252-.556.577-.713.95l.505.769 1.227.334c.05-.182.038-.128.074-.2.229.162.735.595 1.313 1.307.652.805 1.367 1.782 2.09 2.606.478.545 1.09.813 1.675 1.144.537 1.76.792 3.758.81 5.793l1.962 2.994c.295-3.227.039-6.573-.875-9.496l-.2-.642-.663-.059c.071.006-.58-.336-1.211-1.057-.633-.72-1.34-1.685-2.038-2.546-.698-.862-1.298-1.644-2.244-2.051a1.907 1.907 0 0 0-.841-.14zm-96.443 2.754l.207.11-.672.865c-.254-.194-.26-.346-.26-.422 0-.08-.026-.24.274-.45.126-.087.308-.104.451-.103zm-31.219 4.281c-1.246 2.613-3.51 4.433-7.168 5.58l-.08.03-.074.037c-2.064 1.053-4.004.582-6.113-.569-2.109-1.15-4.207-2.983-6.186-4.355l-1.136 1.639c1.825 1.265 3.97 3.162 6.363 4.466 2.382 1.3 5.187 1.993 7.943.606 3.952-1.27 6.765-3.452 8.252-6.57zm182.582 1.506l-1.585 1.217c4.022 5.262 4.26 12.795 2.96 18.293l-.023.082-.006.08c-.21 3.124-2.223 6.036-4.77 8.764-2.462 2.637-5.31 5.034-7.308 7.396-2.114.59-4.343 1.488-6.467 1.985-1.656.387-3.188.519-4.549.152a12.15 12.15 0 0 1-1.709 1.475c2.136.995 4.494.833 6.715.314 2.433-.568 4.794-1.542 6.785-2.074l.317-.088.199-.244c1.786-2.18 4.811-4.695 7.478-7.551 2.65-2.837 4.997-6.082 5.286-9.922 1.383-5.93 1.205-13.956-3.323-19.879zm-135.195 3.645a17.273 17.273 0 0 0-2.777 3.744c-1.696 3.118-2.315 6.821-.783 10.18.813 2.876 2.326 5.081 4.607 6.252 2.302 1.181 5.24 1.311 8.754.501 2.017-.324 4.36-.958 6.582-1.341l-1.498-1.766c-1.993.398-3.924.901-5.467 1.145l-.039.008-.03.008c-3.23.744-5.652.56-7.39-.332-1.738-.893-2.924-2.512-3.63-5.065l-.032-.082-.03-.08c-1.257-2.684-.787-5.715.71-8.467a15.216 15.216 0 0 1 2.328-3.164zm120.58 3.785l-1.217 2.5c.096.307.19.615.266.922.712 2.875.454 5.524-1.453 7.572l-.385-.066-.502.164c-.002 0-.301.3-.303.302 0 .002-.088.173-.109.237a.883.883 0 0 0-.045.154c-.059.34-.01.378.008.54.02.16.052.362.096.634l.494-.082c.11.163.147.344.606.465.33.087.81-.018 1.078-.229.17-.133.23-.286.318-.435 2.72-2.669 2.976-6.363 2.14-9.737a20.447 20.447 0 0 0-.992-2.941zM589 277.477c-.525 2.293-1.336 4.337-2.361 5.779-3.89 5.352-8.406 10.037-13.592 13.701l3.611-.217c4.37-3.489 8.23-7.67 11.606-12.318v-.008h.008c.92-1.294 1.667-2.884 2.236-4.635L589 277.476zm32.703 9.418a3.851 3.851 0 0 0-.05.05l-.489.157a55.1 55.1 0 0 0-.383-.06zm-98.652.496c-.037-.001-.075.002-.112.002l.827.974c.426-.268.87-.502 1.324-.715a8.973 8.973 0 0 0-2.04-.261zm72.824 7.64c-.493.153-.961.36-1.389.64l1.325-.08c.01-.188.044-.373.064-.56zm-4.52 9.95c-1.845-.078-3.533.296-5.025.914-2.31.955-4.135 2.462-5.62 3.744-5.394 2.694-10.398 3.825-17.132 1.468l-.324-.11-.332.11c-2.081.72-3.987.067-5.95-.716-.98-.392-1.953-.82-2.96-1.05-1.008-.23-2.118-.245-3.137.298l.937 1.763c.49-.26 1.01-.273 1.756-.103.746.17 1.65.542 2.659.945 1.93.771 4.339 1.622 6.994.848-.1-.034-.198-.06-.3-.096h.657c-.12.042-.238.06-.357.096 7.098 2.393 12.82 1.113 18.398-1.676l.111-.059.096-.08c1.471-1.277 3.227-2.694 5.264-3.537 2.016-.834 4.29-1.114 7.027-.199 3.533 1.888 6.954 6.08 8.281 10.139-.233.075-.469.144-.7.226-3.679 1.298-7.168 3.346-10.053 5.108l1.04 1.705c2.86-1.746 6.25-3.715 9.678-4.924.168-.06.336-.107.504-.162.025.163.056.327.072.488.501 5.693-.801 9.412-3.019 13.47l-.008.016-.016.022c-1.19 2.419-2.606 3.452-4.177 4.244-1.572.792-3.349 1.256-4.946 2.467l1.211 1.594c1.191-.904 2.837-1.368 4.635-2.274 1.798-.906 3.692-2.339 5.072-5.144a32.105 32.105 0 0 0 1.832-3.952l.248-.013c-.022-.35.147-.662.754-1.07.608-.41 1.594-.778 2.701-1.004 2.215-.454 4.964-.31 6.239.265l.117.059.133.015c2.283.379 4.18 1.348 6.23 2.258 1.578.7 3.265 1.355 5.213 1.57l-1.52-2.318c-.973-.27-1.91-.652-2.88-1.082-1.923-.854-3.985-1.865-6.518-2.326-2.004-.889-4.872-.92-7.42-.399-.823.17-1.599.405-2.305.713.472-2.176.66-4.548.417-7.297v-.016c-.028-.28-.073-.562-.12-.843 2.585-.602 5.104-.645 7.397.232l.031.008.03.008c1.588.5 3.151 1.75 4.997 2.9.516.322 1.065.626 1.645.897-.89-1.357-1.648-2.51-2.55-3.887-1.064-.705-2.168-1.381-3.45-1.793-2.769-1.055-5.7-.98-8.565-.312-1.45-4.723-5.198-9.228-9.367-11.418l-.066-.037-.074-.022a12.3 12.3 0 0 0-3.485-.672zm63.434.53c-.188.602-1.2 1.679-2.37 2.725-1.02.913-2.016 1.872-2.694 3.004-3.336 2.047-5.888 4.462-10.823 6.135h-.014c-4.618 1.637-8.994 5.013-14.824 4.709l-.08-.008-.082.008a7.478 7.478 0 0 1-.855.047l1.265 1.926c6.444.195 11.18-3.355 15.235-4.793 5.29-1.793 8.112-4.408 11.226-6.319l.266-.162.127-.281c.285-.64 1.402-1.714 2.59-2.775 1.187-1.062 2.469-2.118 2.939-3.618zm3.492 12.438l.45.451h-.657l-.031-.066c-.023.03-.057.037-.08.066h-.688v.569c-1.34 1.675-2.408 3.105-4.9 4.045l-.09.029-.08.053c-2.02 1.246-3.388 2.573-4.74 3.556-1.352.984-2.653 1.662-4.813 1.846l-.148.016-.139.058c-4.199 1.689-8.745 2.302-13.644 2.205l1.308 1.994c4.552-.03 8.885-.684 12.953-2.298-.054.005-.104.014-.16.02l.29-.067c-.043.017-.087.03-.13.047 2.446-.24 4.179-1.128 5.657-2.204 1.502-1.093 2.784-2.332 4.586-3.449-.05.02-.09.042-.141.06l.17-.08c-.01.007-.019.014-.03.02 3.21-1.25 4.777-3.182 6.4-5.254l1.263-1.617zm-5.965 14.631a.835.835 0 0 1-.12.25l1.206.03zm1.188.305l-.04 1.521c.349-.355.646-.784.786-1.33zm-4.045 1.652c-2.851 1.83-5.597 2.536-8.658 3.432-1.749.493-4.53.683-6.973.594l1.371 2.087c2.19-.007 4.418-.265 6.147-.754h.008c2.654-.777 5.308-1.474 8.047-3zm-32.35 1.182a7.857 7.857 0 0 0-4.322 1.261l1.07 1.684c2.28-1.454 4.286-1.06 6.813-.303 2.445.734 5.284 1.785 8.57 1.514.247.084.531.149.805.219-.422-.642-.956-1.461-1.389-2.12-2.587.11-4.958-.797-7.41-1.533-1.328-.398-2.717-.725-4.137-.722z" style="line-height:normal;font-variant-ligatures:normal;font-variant-position:normal;font-variant-caps:normal;font-variant-numeric:normal;font-variant-alternates:normal;font-feature-settings:normal;text-indent:0;text-align:start;text-decoration-line:none;text-decoration-style:solid;text-decoration-color:#000;text-transform:none;text-orientation:mixed;white-space:normal;shape-padding:0;isolation:auto;mix-blend-mode:normal;solid-color:#000;solid-opacity:1" transform="matrix(.26458 0 0 .26458 -80.697 301.215)" color="#000" font-weight="400" font-family="sans-serif" overflow="visible" fill="url(#T)" stroke-width="2"/><path d="M559.09 154.426c-4.881-.056-9.772.248-14.682.373-.56 0-1.109.027-1.662.043l-1.379 2.287-3.306-1.996c-5.397.55-10.514 1.771-15.454 3.459 3.576 5.705 7.512 11.956 10.909 17.502a12.905 12.905 0 0 1 3.904-.62 12.905 12.905 0 0 1 12.62 10.278l49.97.338a12.166 12.166 0 0 1 11.857-9.483c.377.001.754.02 1.13.057l7.429-9.838c-4.992-2.899-10.05-5.606-15.637-7.086l-.957.547-.516-.9c-.83-.184-1.669-.35-2.525-.475-8.675-3.757-18.054-1.363-27.084-2.7-4.866-1.316-9.736-1.73-14.617-1.786zm-40.295 5.56c-6.152 2.433-12.058 5.54-17.918 8.928-14.053 6.335-27.95 17.458-38.977 28.477a74.155 74.155 0 0 0-18.306 23.31l1.084 1.477-2.719 1.998a71.385 71.385 0 0 0-4.555 14.449l38.592-.604a12.168 12.168 0 0 1 10.28-5.683c1.495.005 2.977.286 4.37.828l34.971-39.605a12.905 12.905 0 0 1-1.103-5.182 12.905 12.905 0 0 1 5.44-10.506c-3.254-5.368-7.412-11.936-11.16-17.887zm105.115 8.868l-6.775 8.97a12.167 12.167 0 0 1 6.898 10.95 12.166 12.166 0 0 1-5.502 10.171l15.81 29.776a12.147 12.147 0 0 1 2.643-.307c5.017 0 9.519 3.08 11.338 7.754l32.565-.178c-2.378-6.703-6.19-13.192-10.12-18.59l-4.255-2.486 1.006-1.725v-.002c-4.615-9.868-11.928-14.142-20.301-21.011-.816-3.632-2.498-6.628-4.668-9.237l-2.45-.277.24-2.102c-3.847-3.733-8.644-6.684-13.062-9.742-1.13-.642-2.246-1.306-3.367-1.965zm-73.662 20.896a12.905 12.905 0 0 1-4.21 8.215c7.535 12.54 14.293 23.781 17.66 29.379a12.155 12.155 0 0 1 3.427-.5c2.31.005 4.572.668 6.52 1.912l26.878-35.584a12.167 12.167 0 0 1-.738-3.084zm52.525 7.086l-26.132 34.596c1.184 1.494 2 3.245 2.382 5.113l46.592-.254a12.167 12.167 0 0 1 4.996-6.064l-15.756-29.67c-.976.251-1.98.38-2.988.384a12.165 12.165 0 0 1-9.094-4.105zm-74.93.17l-33.722 38.201a12.167 12.167 0 0 1 2.23 2.498l58.82-.92a12.167 12.167 0 0 1 4.92-7.683c-3.187-5.3-9.828-16.343-17.41-28.957a12.905 12.905 0 0 1-5.261 1.138 12.905 12.905 0 0 1-9.576-4.277zm154.288 42.978l-32.994.18c.008.139.012.277.015.416.001 6.72-5.447 12.169-12.168 12.168a12.157 12.157 0 0 1-2.566-.283l-17.393 35.775a12.169 12.169 0 0 1 3.084 8.072 12.167 12.167 0 0 1-6.834 10.924 32882.376 32882.376 0 0 0 24.22 36.912c.017.028.026.04.044.067 3.488-.68 6.35-1.907 8.092-3.883a52.625 52.625 0 0 0 3.77-3.408l.103-4.158 3.514.084c4.363-5.62 7.054-12.334 5.507-19.704.031-10.802 6.953-12.223 12.051-21.892 4.373-8.126 7.141-16.148 9.1-23.723l-2.158-2.021 3.51-3.744c.906-4.179 1.637-8.202 2.29-11.961.12-3.213-.33-6.52-1.187-9.82zm-57.299.313l-45.65.25a12.167 12.167 0 0 1-4.399 7.91c4.014 6.133 13.296 20.314 25.276 38.605a12.165 12.165 0 0 1 7.882-2.917c2.061 0 4.088.526 5.891 1.525l16.863-34.691a12.167 12.167 0 0 1-5.877-10.399c.004-.094.008-.189.014-.283zm-69.732.49l-57.006.89c.226.927.342 1.876.347 2.829a12.167 12.167 0 0 1-4.123 9.107l29.448 34.754a12.168 12.168 0 0 1 6.466-1.867c1.488.005 2.962.282 4.35.818l23.932-39.722a12.167 12.167 0 0 1-3.414-6.809zm-80.739 1.262l-37.32.584c-.41 4.587-1.401 9.285-1.824 13.902l.308.322-.36.346c-.341 4.302-.137 8.524 1.577 12.502 6.15 3.032 4.008 13.075 10.647 15.984 10.71-.655 16.916 6.154 21.324 15.188 3.85 5.23 9.406 7.734 15.342 9.383l-.164-1.574 3.978-.415.315 3.008c2.705.605 5.424 1.13 8.043 1.727 6.928 3.66 14.862 3.108 22.65.387l3.355-5.57a12.166 12.166 0 0 1-4.168-9.157c.004-2.78.96-5.475 2.71-7.637l-29.887-35.275c-1.463.603-3.03.915-4.612.918-6.72 0-12.167-5.446-12.168-12.166a12.16 12.16 0 0 1 .254-2.457zm87.42 7.875l-23.744 39.412a12.167 12.167 0 0 1 4.361 9.33l-.006.13 53.418-3.204c.11-1.867.649-3.684 1.575-5.309a141423.483 141423.483 0 0 1-26.094-39.853c-1.334.49-2.744.744-4.166.748a12.16 12.16 0 0 1-5.344-1.254zm34.442 49.652l-54.582 3.272a12.166 12.166 0 0 1-11.409 7.986c-.245 0-.49-.022-.734-.037 3.006 9.688 5.416 21.831 11.742 25.916l9.67-4.9 1.809 3.566-5.205 2.639c.291-.04.584-.08.886-.145 9.938 2.699 22.807 4.02 29.989 16.084 10.819 7.818 7.61-9.441 20.265-14.602 2.388 1.01 6.394 2.19 11.084 3.208l1.076-2.114 6.971 3.551c5.178.729 10.574 1.11 15.334.78-6.793-10.335-15.299-23.311-23.869-36.387-.434.052-.871.08-1.309.085a12.167 12.167 0 0 1-11.718-8.902zm-70.59 10.348l-.498.826c.39-.192.778-.39 1.166-.59-.223-.077-.45-.146-.668-.236z" transform="matrix(.26458 0 0 .26458 -80.697 301.215)" fill="url(#U)" stroke="#000" stroke-opacity="0"/><path transform="matrix(.26458 0 0 .26458 -80.697 301.215)" d="M623.943 187.375c.054.461.09.927.09 1.398a12.145 12.145 0 0 1-2.695 7.592c3.759 1.718 7.04 3.8 7.191 8.856 1.2 4.26-.055 6.52-2.474 7.892l8.287 15.608a12.147 12.147 0 0 1 2.642-.307c5.017 0 9.519 3.08 11.338 7.754l17.946-.098c-2.729-4.582-6.134-9.518-.22-13.695 2.122-1.94 2.912-3.997 2.82-6.084l-2.356-1.377 1.355-2.322c-2.518-5.315-9.132-10.515-12.824-14.217-2.406-1.938-4.872-3.798-7.27-5.746 1.873 14.032-16.816 7.82-20.464-.113-.48-1.691-1.739-3.523-3.366-5.141zm-1.68 27.13c-4.726 1.186-10.75 1.509-13.939 4.54-5.619 4.087-13.525 10.068-14.047 17.416l31.338-.17a12.167 12.167 0 0 1 4.996-6.064zm46.003 25.554l-19.13.105c.009.139.013.277.016.416 0 1.498-.282 2.927-.777 4.252 4.696 2.07 12.938.123 17.785 1.14 2.605-1.683 2.844-3.706 2.106-5.913zm-43.434.238l-30.086.164c.146.48.318.965.535 1.455 5.258 5.499 9.844 13.39 9.3 21.178-5.791 9.62-13.749-14.997-17.71-.598 1.085 2.613 1.91 5.288 2.295 7.93 3.955 6.04 5.73 8.754 10.893 16.636a12.165 12.165 0 0 1 7.882-2.917c2.061 0 4.088.526 5.891 1.525l7.662-15.764c-2.58-4.616-5.938-8.935-3.795-14.552 1.316-5.419 3.893-9.974 7.14-14.127-.01-.215-.02-.43-.02-.647.003-.094.007-.189.013-.283zm-128.953 23.959c-.94-.025-2.022.139-3.272.525-6.264 5.47-6.69 17.814-17.015 18.29-7.176-2.465-20.3 5.739-10.502 11.642 3.293 8.53 10.75 13.09 18.974 15.633l-.173-1.66 3.978-.415.332 3.184c2.061.472 4.134.848 6.17 1.143 7.688 3.49 16.56 3.896 24.484.83l3.377-5.606a12.166 12.166 0 0 1-4.168-9.156c.004-2.78.96-5.475 2.71-7.637l-.588-.693c-7.485-.894-16.369-2.422-18.127-11.07-.067-3.729.135-9.194-1.756-12.399l-1.29-1.521c-.807-.654-1.83-1.056-3.134-1.09zm127.715 10.474l-6.569 13.51a12.16 12.16 0 0 1 2.194 3.545c3.514-2.994 5.667-7.096 4.648-12.389.268-1.655.12-3.196-.273-4.666zm-34.614 2.717c-.718 3.217-2.414 6.238-5.507 8.848-2.847 6.217-12.971 10.12-18.653 6.137-3.263-6.392-10.9-15.277-17.363-6.287a17.88 17.88 0 0 1-7.365 5.42 12.156 12.156 0 0 1 2.306 7.101l-.006.13 53.418-3.204c.11-1.867.649-3.684 1.575-5.309-4.026-6.146-5.095-7.781-8.405-12.836zm7.243 22.13l-54.582 3.27a12.136 12.136 0 0 1-2.309 3.87c.477.144.962.323 1.459.545 6.683 5.193 9.583 14.43 15.799 20.41 6.483 6.693 15.88 1.764 23.707 3.93 8.912 1.217 20.076-4.723 18.572-14.778-3.3-4.356-4.654-11.275-2-15.484a12.177 12.177 0 0 1-.646-1.764zm-70.59 10.347l-.512.85c.376-.21.744-.424 1.115-.637-.2-.07-.405-.132-.603-.213z" fill="url(#V)" stroke-opacity="0"/><path d="M147.363-23.496c-1.992-.525-4.045.842-5.417.276-1.808.005-5.595.359-3.143 2.568.938 2.023 1.94 3.044 4.156 2.996 1.775.455 1.478 3.136 3.54 2.458l11.69.08c.315-2.772 3.598-1.68 4.461-3.85 2.39-1.83-2.028-2.67-3.343-3.038-2.166-1.117-5.102-.837-7.627-.962-1.426-.277-2.853-.558-4.317-.528zm-10.661 1.471c-5.536 2.398-10.851 5.502-15.054 9.897-1.777 1.774-4.56 4.138-4.556 6.558-1.146.685-2.773 4.448-1.075 4.338l9.361-.146c1.03-2.402 3.894-.365 4.889-2.432l8.24-9.332c-1.56-2.347 2.497-4.04.096-5.857-.63-1.01-1.266-2.018-1.901-3.026zm27.812 2.346c-.33.84-2.157 1.986-1.395 2.601 2.804 1.5.477 4.482.29 5.961l3.865 7.278c2.525-.99 3.004 2.589 5.228 1.962l7.087-.039c-.817-1.86-1.591-4.044-3.265-5.261-.653-1.153-1.543-3.468-3.293-4.462-1.967-1.096-3.216-3.586-4.176-4.893-1.214-1.253-2.835-2.226-4.341-3.147zm-19.49 5.529c-1.843 2.29.019 4.045 1.327 6.235 1.188 1.99 1.852 4.21 4.462 3.868.972.29 1.476-1.581 2.245-2.224l5.268-6.974c-.071-1.49-2.042-.568-3.085-.835l-10.217-.07zm13.897 1.875l-6.914 9.153c.26 1.802 1.812 1.306 3.18 1.34l9.778-.054c1.615-1.261 1.117-2.374.126-3.856l-2.973-5.599c-1.14.308-2.423-.094-3.197-.984zm-19.825.045l-8.922 10.107c.73 1.19 2.304.436 3.479.616l12.674-.198c2.768-2.802-1.528-5.564-2.566-8.465-.613-2.24-3.36.139-4.665-2.06zM179.918-.86l-8.73.048c.516 3.173-3.268 2.582-4.266 4.019l-4.23 8.7c1.963 1.72-.027 4.304-.777 5.356 2.067 3.152 4.133 6.305 6.205 9.455 2.367.24 2.625-2.75 3.845-3.013 1.673-1.122 2.008-3.762 1.73-5.715.336-2.77 3.252-4.22 3.957-6.89.753-1.702 1.785-4.114 1.278-5.454 1.496-1.545 1.408-4.54.988-6.506zm-15.16.083l-12.079.066c-2.436 2.746 1.335 5.104 2.536 7.744 1.614 1.819 2.224 5.699 5.073 3.791 1.751 1.052 2.026-.602 2.674-1.89l3.347-6.885c-.972-.577-1.593-1.695-1.552-2.826zm-18.45.13l-15.083.235c.543 1.923-1.969 3.25.21 4.585l6.582 7.768c1.728-.685 3.405.068 4.002-2.17l5.192-8.617a3.222 3.222 0 0 1-.904-1.801zm-21.363.333l-9.874.155c-.065 2.491-1.466 5.51.437 7.543.835 2.322 1.888 4.31 4.63 4.223 3.038 1.429 3.537 5.832 7.372 6.127.74-1.6 1.55 1.368 3.22.726 1.864.905 4.726 1.092 6.257-.334 1.544-1.507-1.862-3.132-.069-5.027.57-.99-1.195-1.854-1.67-2.788l-5.93-6.999c-2.278 1.037-4.968-1.194-4.373-3.626zm23.13 2.084l-6.282 10.428c1.268 1.063.695 3.237 2.849 2.401l12.437-.746c.864-2.84-2.551-5.025-3.634-7.59-1.676-2.372-2.121-4.72-5.37-4.493zm9.113 13.137l-14.442.866c-.473 2.47-4.63 1.272-2.627 4.104.598 1.494 1.305 5.856 3.583 4.318.708-.834 2.42-.713 1.672.339-2.794.99 2.659.826 3.402 1.704 2.4.309 4.694 6.063 6.408 2 .814-2.955 3.555-2.73 5.657-2.109.751-.882 2.334 1.36 3.606.705 1.734.278 3.275.165 1.447-1.574l-5.26-8.02c-1.523.2-3.06-.849-3.446-2.333zm-18.677 2.738c-.466.406.568.041 0 0z" opacity=".628" fill="url(#W)" stroke="#000" stroke-width=".265" stroke-opacity="0" transform="translate(-80.134 365.57)"/><path transform="matrix(.26458 0 0 .26458 -80.697 301.215)" d="M560.56 154.39c-.488 0-.978.01-1.47.036-5.413-.025-10.894.018-16.334.4l-1.389 2.303-3.137-1.895c-5.333.588-10.596 1.582-15.683 3.26 3.592 5.732 7.552 12.021 10.969 17.6a12.905 12.905 0 0 1 3.904-.62 12.905 12.905 0 0 1 12.62 10.278l7.683.053c4.13-2.33 7.741-5.659 10.818-9.272 2.872-2.32 6.657-3.205 10.28-2.537 7.622-.267 12.848 6.817 9.64 12.016l11.549.078a12.166 12.166 0 0 1 11.857-9.483c.377.001.754.02 1.13.057l7.392-9.787c-.879-.522-1.768-1.04-2.618-1.57a73.293 73.293 0 0 0-12.947-5.586l-.992.566-.603-1.055c-6.799-1.997-13.894-2.947-20.987-2.556-7.366.46-14.354-2.27-21.681-2.285zm-41.816 5.516a54.856 54.856 0 0 0-3.805 1.703c-16.606 7.984-33.119 16.747-46.552 29.604-9.696 8.437-19.021 17.895-24.862 29.396l1.153 1.569-2.84 2.088a56.31 56.31 0 0 0-1.78 4.705c-1.054 3.157-1.843 6.387-2.476 9.652l30.209-.473c3.137-4.014 7.813-6.443 8.436-12.574 3.53-9.114-7.492-11.276-12.022-4.887-9.899.394 4.567-12.414 8.69-14.41 7.596-3.04 14.842-7.272 23.054-8.375 3.82 3.53 5.99 13.156 12.957 6.428 6.953-4.407 8.255-13.43 15.608-17.478.038-.026.077-.046.115-.07a12.905 12.905 0 0 1 5.324-8.91c-3.268-5.394-7.449-11.997-11.209-17.968zm105.111 9.022l-6.72 8.896a12.162 12.162 0 0 1 6.869 10.201c2.83 3.07 5.375 6.717 7.078 8.819 6.254 7.2 21.525 4.504 15.611-6.574-1.054-2.756-2.542-5.168-4.306-7.348l-2.287-.26.236-2.057c-4.63-4.737-10.635-8.274-16.48-11.677zm-40.89 21.045c-5.094 1.85-16.47 6.107-8.291 11.066 5.238.238 10.636 3.986 13.3 8.746l12.55-16.613a12.167 12.167 0 0 1-.739-3.084zm38.422 6.332a12.127 12.127 0 0 1-2.856 2.64l7.444 14.016c2.964-1.617 4.503-4.253 2.218-9.242-.614-4.05-3.51-5.913-6.806-7.414zm-18.614.53l-13.21 17.49c.368 2.565-.16 5.194-1.95 7.577-2.09 2.837-4.817 4.519-7.633 5.108l-3.34 4.422c1.185 1.494 2 3.245 2.383 5.113l15.098-.082c.103-1.07.435-2.198 1.068-3.41 3.265-8.27 11.387-12.855 18.87-16.733 2.4-.685 5.425-1.154 8.152-1.912l-7.356-13.851c-.976.251-1.98.38-2.988.384a12.165 12.165 0 0 1-9.094-4.105zm-42.914 18.63c-1.002-.003-2.03.143-3.06.402l6.898 11.477a12.155 12.155 0 0 1 3.428-.5c2.31.005 4.572.668 6.52 1.912l1.388-1.838c-3.625-.901-6.838-3.665-8.35-8.166-1.827-2.319-4.24-3.279-6.824-3.287zm-6.836 1.88c-4.34 2.257-8.152 6.197-9.435 9.907.16 2.93.699 6.338.928 9.7l10.656-.167a12.167 12.167 0 0 1 4.92-7.683l-7.069-11.756zm41.768 23.116l-15.61.086a12.167 12.167 0 0 1-4.398 7.91l12.76 19.49c-1.443-6.09 1.396-13.982 7.455-7.648 3.056 9.74 14.584 2.866 8.332-4.621-.242-6.162-6.42-10.208-8.539-15.217zm-39.691.326l-10.512.164c-.234 5.597-2.224 10.434-9.567 11.819-7.465 5.517-17.855-1.333-16.558-10.202a8.873 8.873 0 0 0-.45-1.2l-19.92.31c.227.926.343 1.875.348 2.828a12.167 12.167 0 0 1-4.123 9.107l29.448 34.754a12.168 12.168 0 0 1 6.466-1.867c1.488.005 2.962.282 4.35.818l23.932-39.722a12.167 12.167 0 0 1-3.414-6.809zm-89.498 1.399l-28.717.449c-.712 4.677-1.137 9.408-1.453 14.125l.093.097-.107.104a607.64 607.64 0 0 0-.338 5.45c1.466 7.901 7.037 14.285 10.195 21.882 4.55 2.678 11.256.933 15.3 5.53 4.517-11.11 18.396-2.656 23.95-12.044 3.064-5.507 7.543-18.54 15.233-11.554l-8.871-10.471c-1.463.603-3.03.915-4.612.918-1.031 0-2.027-.141-2.984-.383-1.168 1.3-2.546 2.303-4.363 2.719-9.63 2.777-15.23-7.945-13.54-16.176.061-.226.142-.43.214-.646zm96.18 7.738l-23.745 39.412c.84.702 1.556 1.515 2.168 2.394 6.717-3.763 11.696-13.533 19.277-7.189 2.626 7.906 10.06 12.478 17.635 7.646 5.184-2.916 9.866-8.702 11.84-14.775-6.952-10.617-14.808-22.615-17.666-26.982-1.334.49-2.744.744-4.166.748a12.16 12.16 0 0 1-5.344-1.254zm-61.495 16.926c2.883 6.399-.65 19.443 10.352 21.576 3.23.463 6.426 1.22 9.613 1.988z" fill="url(#X)" stroke-opacity="0"/><path transform="matrix(.26458 0 0 .26458 -80.697 301.215)" d="M554.764 158.582c-.381 0-.842.082-1.196.592-.177.255-.255.62-.207.922.027.167.118.276.186.406l-.303.39 1.615.303c1.656.306 3.483 1.73 5.051 3.53 1.558 1.787 2.86 3.886 3.668 5.365 2.218 4.874 1.716 11.125-2.473 14.285-1.461.313-2.768.851-3.992 1.424l5.366.037c4.972-3.901 5.428-11.101 2.908-16.607l-.014-.032-.016-.029c-.857-1.572-2.221-3.79-3.935-5.758a12.46 12.46 0 0 0-5.315-3.588c-.015-.23-.021-.469-.146-.648-.354-.51-.816-.592-1.197-.592zm-32.07.147c.47.749.897 1.44 1.378 2.207 3.462.604 6.802 2.375 9.875 3.462 3.276 2.656 3.307 2.401 5.81 6.334-.014-.031-.037-.072-.052-.103l.059.111c.896 1.865 2.383 4.354 3.787 6.307a12.905 12.905 0 0 1 1.11.678l1.179-.924c-1.458-1.854-3.377-5.029-4.326-7.028l-.03-.058-.03-.053c-2.573-4.04-2.957-4.162-6.32-6.894l-.14-.118-.162-.052c-3.25-1.12-7.461-3.601-12.139-3.87zm-4.39.476c-.06.018-.121.03-.183.049l.576 1.912c.243-.074.485-.127.727-.182l-1.12-1.779zm36.97.389c-.012-.013.042.038.066.183a.848.848 0 0 1-.125.534c-.21.3-.371.271-.451.271-.077 0-.234-.002-.428-.258zm-36.983 9.36l-1.986.273c.335 2.445-.48 4.34-1.957 6.002-1.475 1.658-3.631 3.006-5.793 4.052-4.001 1.498-9.419 3.142-14.795 4.377l.097-.013c-6.093.81-11.698 2.941-17.873 4.458l-.088.022-.087.037c-4.067 1.854-8.743 3.13-12.44 6.252l1.293 1.53c3.238-2.735 7.678-4.001 11.922-5.928 6.267-1.55 11.784-3.627 17.539-4.393l.043-.008.045-.008c5.493-1.262 11-2.938 15.111-4.48l.043-.016.045-.022c2.3-1.111 4.674-2.557 6.43-4.533 1.756-1.975 2.869-4.557 2.451-7.603zm60.336 2.91a28.51 28.51 0 0 0-1.393.013c-3.75.136-7.55 1.07-10.142 3.736l1.431 1.387c2.066-2.124 5.313-2.998 8.778-3.123 3.464-.126 7.084.495 9.678 1.174l.058.015.06.008c2.202.308 4.3.947 5.669 2.045 1.33 1.067 2.014 2.556 1.75 5.02-.52 1.194-1.636 2.134-3.41 2.834-1.125.443-2.474.773-3.924 1.031l6.293.041c1.364-.791 2.453-1.843 3.011-3.264l.053-.119.014-.125c.404-3.136-.7-5.506-2.531-6.976-1.824-1.463-4.244-2.116-6.622-2.451-2.392-.622-5.534-1.201-8.773-1.247zm20.107.36a66.86 66.86 0 0 0-.328.096s-.272.19-.273.192l-.258.435c-.001.003-.04.235-.04.324a1 1 0 0 0 .09.407c0 .049.008.055-.023.244l.25.045c.052.056.09.138.149.183.163.13.387.147.584.207 1.81 1.275 4.437 2.668 6.547 4.11a12.145 12.145 0 0 1 2.01-1.014c-2.44-1.832-5.598-3.454-7.424-4.742l-.221-.147-.215-.023c-.011-.012-.014-.024-.03-.037a1.224 1.224 0 0 0-.116-.096c-.047-.032-.169-.095-.17-.095a75.838 75.838 0 0 0-.528-.088h-.002zm-.527 1.749l.988.17-.236.066c.003 0-.519-.082-.516-.08.002 0-.112-.06-.154-.09a1.228 1.228 0 0 1-.082-.066zm-73.496 12.23c-3.717 1.611-6.523 3.94-9.992 5.717l-.186.088-.133.162c-1.309 1.576-3.595 3.11-5.779 4.887-1.94 1.578-3.834 3.399-4.754 5.818-1.787-1.766-3.94-3.173-6.135-4.164l-.074-.037-.066-.016c-2.083-.586-4.173-.716-6.237-.502h-.002c-6.113.637-11.96 4.275-16.638 7.758-.003.001-.004.006-.008.008-6.74 2.944-12.385 10.113-16.32 15.99l-.06.088-.044.104c-2.135 5.464-5.162 10.685-6.941 16.304l2.134-.035c1.719-5.067 4.502-10.035 6.616-15.406 3.854-5.749 9.43-12.6 15.42-15.213l.11-.052.089-.067c6.103-4.567 14.029-9.055 21.26-7.064 4.833 2.204 9.262 6.46 9.337 11.972v.14l.04.134c.236.796.322 1.527.31 2.217l1.748-1.98c-.043-.21-.074-.415-.133-.628-.071-3.18-1.32-5.948-3.193-8.228l.426.109c.569-2.221 2.3-4.01 4.377-5.7 1.99-1.618 4.198-3.117 5.802-4.945 3.307-1.703 5.869-3.681 8.836-5.144a12.905 12.905 0 0 1-.008-.139 12.905 12.905 0 0 1 .198-2.176zm25.537 3.547a12.905 12.905 0 0 1-.049.383c.972.004 1.882-.133 2.74-.365zm73.654.73c-.11.78-.307 1.539-.562 2.274 1.585 1.55 3.202 3.036 4.916 4.332l.096.066.103.053c1.946.862 3.06 2.02 4.608 2.982 1.54.958 3.535 1.528 6.583.989 2.474-.257 4.988-.993 6.704-2.65 1.727-1.67 2.419-4.34 1.21-7.58l-1.874.693c1.017 2.73.489 4.274-.725 5.447s-3.353 1.896-5.565 2.119l-.039.008-.037.008c-2.722.489-3.939.054-5.205-.732-1.216-.756-2.533-2.003-4.656-2.996-1.901-1.438-3.722-3.179-5.557-5.012zm-2.757 6.125c-.49.58-1.032 1.118-1.63 1.602.931.266 1.812.56 2.544.932.831.422 1.465.916 1.88 1.52.414.6.645 1.321.592 2.372l.008-.068-.008.08v-.012c-.324 2.43-.467 4.381-.133 6.073.338 1.707 1.27 3.138 2.82 4.126l.192.125.229.024c5.779.642 11.279-.545 16.299 2.111 3.657 1.922 5.784 3.478 7.95 6.871l.067.112.096.088c.182.167.573.838.797 1.742.223.903.333 2.029.273 3.123-.06 1.094-.295 2.161-.701 2.967-.406.805-.935 1.33-1.676 1.58l.635 1.898c1.312-.44 2.251-1.44 2.828-2.584.577-1.144.843-2.45.914-3.75.071-1.3-.055-2.594-.332-3.713-.268-1.08-.661-1.978-1.344-2.642-2.32-3.574-4.85-5.507-8.576-7.465-5.635-2.982-11.423-1.807-16.676-2.317-1.049-.713-1.59-1.455-1.832-2.68-.255-1.288-.157-3.097.164-5.492l.006-.037v-.045c.075-1.423-.273-2.651-.937-3.617-.664-.965-1.608-1.656-2.635-2.177a14.082 14.082 0 0 0-1.814-.747zm-18.372.23l-.619.821c.404-.08.812-.15 1.229-.203-.206-.202-.417-.4-.61-.617zm-5.029.017c-5.126 1.67-9.226 5.67-13.312 8.613l1.166 1.623c3.254-2.344 6.352-5.09 9.65-6.934zm-36.033.648l-.104.014c-4.862.463-9.517 1.413-13.68 3.595l1.03 1.713c3.783-1.955 8.095-2.857 12.738-3.306 5.763.647 10.695 1.523 15.008 4.273l.149.096.162.037c1.381.323 3.319 1.69 5.035 3.027.858.669 1.67 1.321 2.42 1.83.488.332 1 .44 1.5.606.376.584.719 1.116 1.06 1.65l1.293-1.71-.744-1.159-.308-.479-.569.022c.091-.003-.462-.146-1.107-.584-.645-.438-1.448-1.078-2.319-1.756-1.736-1.353-3.702-2.896-5.787-3.389-4.69-2.895-9.907-3.823-15.672-4.466zm-17.506 5.18c-3.609 1.136-7.478 2.54-10.967 4.52-4.154 2.357-7.773 5.543-9.504 10.015.047-.05.09-.103.137-.153l-.213.338c.024-.063.052-.122.076-.185-4.629 4.947-8.685 10.61-10.183 17.15l1.949.444c1.392-6.077 5.262-11.522 9.826-16.373l.139-.149.066-.191c1.48-3.98 4.718-6.901 8.69-9.155 3.43-1.947 7.364-3.353 11.045-4.498l-1.06-1.763zm46.348 10.334l-1.332 1.763a30.715 30.715 0 0 1 1.494 3.451c.562 1.998.484 3.461.05 4.569-.43 1.1-1.232 1.913-2.34 2.57-.752.354-2.576.635-4.214.686a23.47 23.47 0 0 1-2.229-.037c-.613-.042-1.169-.18-1.02-.118l-.774 1.838c.55.233.97.233 1.662.28a25.61 25.61 0 0 0 2.427.029c1.782-.055 3.684-.22 5.057-.885l.037-.015.04-.022c1.407-.825 2.593-1.999 3.218-3.596s.663-3.555.008-5.867l-.008-.03-.016-.036a32.67 32.67 0 0 0-2.06-4.58zm28.994 6.127a22.708 22.708 0 0 0-2.36.113h-.001l-.06.008-.052.014c-5.877 1.23-12.05 2.998-16.756 6.386-2.8 1.345-5.99 3.284-7.994 6-1.026 1.392-1.693 3.032-1.781 4.82l1.916-.01c.089-1.311.642-2.492 1.475-3.62 1.671-2.266 4.64-4.15 7.293-5.418l.08-.038.082-.058c4.28-3.117 10.234-4.867 16.025-6.084 2.991-.287 5.394.037 7.13 1.012 1.747.98 2.942 2.592 3.538 5.271l.05.258.186.191c.536.589 1.046 1.615 1.424 2.832.28-.208.57-.407.87-.591l-5.18-9.752c-1.67-.911-3.652-1.319-5.885-1.334zm-55.744.492c-1.606-.016-3.182.026-4.71.052l1.21 2.012c4.802-.041 9.762-.033 12.611 2.045h.008c.806.721 1.818 1.485 2.772 2.3l1.21-1.603c-1.037-.888-2.056-1.646-2.72-2.248l-.04-.037-.042-.03c-2.788-2.037-6.546-2.455-10.3-2.491zm-9.172.385c-3.042.669-5.06 2.428-6.024 4.794-1.208 2.967-.965 6.668-.109 10.42 0-.018 0-.036-.002-.054l.023.154c-.008-.033-.013-.066-.021-.1.04.563.049 1.113.04 1.657l1.995-.032c.01-.6 0-1.207-.045-1.828l-.008-.074-.013-.074c-.826-3.577-.96-6.978-.008-9.315.818-2.008 2.31-3.367 5.255-3.744l-1.084-1.804zm-72.291.248c-3.156-.02-5.58 2.46-7.766 5.277-2.185 2.816-4.22 6.139-6.297 8.357l-.117.125-.066.162c-.58 1.333-1.174 2.657-1.768 3.985l2.2-.033c.454-1.022.904-2.028 1.353-3.059 2.24-2.444 4.24-5.688 6.275-8.31 2.082-2.683 4.132-4.517 6.172-4.504zm189.752.212c-.208.165-.794.43-1.535.672-.742.243-1.64.497-2.555.836-1.806.67-3.779 1.756-4.51 3.918-1.13 2.075-1.33 4.573-.937 6.992.177 1.093.473 2.168.855 3.19l2.162-.012a14.99 14.99 0 0 1-1.047-3.496c-.35-2.155-.148-4.279.73-5.824l.052-.088.03-.104c.423-1.327 1.724-2.094 3.36-2.7.818-.304 1.688-.551 2.487-.813.798-.262 1.528-.507 2.148-.996zm-92.438 6.963l-1.32 1.748c.102.234.189.467.242.702.174.763.111 1.546-.39 2.525l-.024.059-.021.058c-.097.268-.198.522-.3.776.432.815.768 1.677 1.005 2.572.41-.817.796-1.66 1.133-2.586.67-1.328.814-2.662.544-3.846-.166-.732-.482-1.394-.869-2.008zm64.918 1.442l-1.088 1.424a12.161 12.161 0 0 1 3.164 2.894c.023-.386.02-.776-.048-1.17-.2-1.149-.87-2.266-2.028-3.148zm23.49 11.178l-2.486.013c1.325 1.85 2.676 3.11 3.305 5.785-.011.087-.041.16-.037.258.011.261.12.608.361.848.484.479.936.372 1.1.363.081-.004.123-.006.082-.008-.041-.002-.23.018-.489-.215-.258-.233-.304-.634-.287-.752l1.772.9c.092-.18.168-.341.207-.597.04-.256-.037-.747-.354-1.033-.159-.143-.247-.112-.377-.149-.574-2.522-1.732-4.057-2.797-5.414zm-10.162.134c-.728.001-1.517.092-2.369.274l-.228.045-.184.148a367.75 367.75 0 0 0-7.824 6.357 12.183 12.183 0 0 1-6.62 5.157 2.5 2.5 0 0 0 .596.48c.587.328 1.32.382 2.024.207l.228-.058.184-.155c3.62-3.142 8.235-6.926 12.41-10.216 1.842-.36 3.109-.222 3.979.25.905.49 1.55 1.347 2.09 2.584 1.056 2.418 1.531 6.134 2.752 9.64-.054 7.25.396 14.355-4.045 19.223l-.038.037-.03.045c-1.782 2.41-4.015 3.75-6.739 4.627-2.724.876-5.932 1.248-9.45 1.646l.23 1.987c3.517-.398 6.835-.763 9.831-1.727 1.16-.373 2.27-.85 3.317-1.45l-.028.09c.246.077.448.272.649.797.2.526.318 1.315.34 2.17.043 1.697-.271 3.665-.54 4.659-1.4 4.32-2.493 6.392-5.824 10.158l-.008.008-.008.008c-1.812 2.125-3.219 3.16-4.671 4.127-1.423.946-2.921 1.843-4.663 3.506l.05-.03-.157.125c.037-.035.07-.06.107-.095-3.049 1.94-6.906 3.22-10.263 4.302l.611 1.905c3.381-1.09 7.415-2.4 10.78-4.555l.08-.05.074-.067c1.631-1.58 2.979-2.377 4.488-3.381 1.509-1.004 3.144-2.212 5.086-4.488 3.428-3.879 4.783-6.416 6.223-10.86l.008-.021.008-.024c.334-1.224.67-3.289.619-5.277-.027-.994-.142-1.961-.473-2.826a3.779 3.779 0 0 0-.818-1.293 14.112 14.112 0 0 0 2.707-2.754c5.111-5.648 4.496-13.469 4.554-20.63v-.179l-.06-.17c-1.177-3.274-1.58-7.041-2.863-9.98-.642-1.47-1.556-2.78-2.975-3.55-.887-.482-1.932-.727-3.146-.725zm-64.353.274l-2.234.011c.215.494.475.992.789 1.495l1.691-1.055c-.097-.155-.16-.3-.246-.451zm-11.328.06l-3.037.018c-.056.434-.14.861-.24 1.283.206-.044.428-.09.632-.135 5.18 2.101 11.98 2.748 16.692 6.045 2.936 2.36 4.263 5.204 5.144 8.461.884 3.267 1.268 6.926 2.348 10.645l1.926-.563c-1.017-3.498-1.405-7.127-2.346-10.607-.941-3.48-2.492-6.837-5.84-9.516l-.03-.021-.023-.014c-4.653-3.272-10.642-4.164-15.226-5.596zm-32.145.336l-2.045.033c-.72 3.044-2.131 5.867-3.828 8.704-1.65 2.6-4.282 4.444-6.719 6.539-2.439 2.096-4.717 4.561-5.086 8.32l-.021.25.096.236c.871 2.08 2.26 4.314 3.054 6.483.794 2.169 1.01 4.095-.191 5.898l-.117.176-.04.215c-.327 1.987-1.316 3.376-2.648 4.804-1.164 1.25-2.573 2.505-3.84 4.08a12.16 12.16 0 0 1 1.543-.103c.386.001.769.023 1.15.06.85-.891 1.749-1.748 2.608-2.67 1.403-1.504 2.632-3.298 3.078-5.69 1.48-2.412 1.2-5.087.332-7.458-.854-2.333-2.156-4.478-2.945-6.267.359-2.944 2.052-4.858 4.326-6.813 2.327-2 5.188-3.953 7.115-6.998l.008-.016v-.006c1.832-3.06 3.417-6.252 4.17-9.777zm-32.619.51l-19.361.303c.115.473.2.953.258 1.435a9.64 9.64 0 0 1 1.32-.318c7.882-.623 16.145-1.08 22.678 2.65l.037.014.029.023c5.388 2.572 6.503 9.167 4.002 14.084-2.244 2.678-5.12 3.77-8.35 4.555-3.264.794-6.83 1.242-10.076 2.865-.544.25-1.076.551-1.6.877l1.307 1.543c.376-.224.754-.432 1.133-.605l.014-.006.015-.016c2.845-1.427 6.26-1.877 9.678-2.709 3.418-.832 6.89-2.098 9.523-5.314l.067-.082.043-.096c3.008-5.792 1.629-13.746-4.854-16.875-1.867-1.063-3.836-1.81-5.863-2.328zm-50.71.793l-2.192.035c-.936 2.162-1.831 4.322-2.594 6.483l-.043.125-.008.14c-.49 7.148-2.47 15.43 1.21 22.678 1.414 4.953 4.373 9.47 8.577 12.549 2.621 2.48 6.179 3.2 9.522 3.232-.11 4.5 1.25 7.697 2.378 11.303l.038.111.058.096c1.94 3.3 3.538 5.211 5.582 7.824l.008.016c1.558 2.321 3.71 3.684 4.996 5.543l.067.103.09.074c1.275 1.145 1.026 1.126 2.9 2.319l1.078-1.684c-1.787-1.138-1.337-.943-2.594-2.08.032.045.068.085.1.131l-.149-.178.05.047c-1.577-2.21-3.652-3.562-4.886-5.406l-.021-.03-.023-.029c-2.066-2.642-3.563-4.44-5.418-7.58-1.162-3.683-2.379-6.526-2.254-10.629.622-.04 1.23-.094 1.81-.164 2.769-.045 5.024-1.705 6.446-3.912 1.408-2.186 2.09-4.927 1.851-7.515v-2.332h-2v2.435c.215 2.116-.372 4.52-1.535 6.326-1.163 1.806-2.806 2.978-4.805 3.004h-.06l-.051.008c-3.957.484-8.904.305-11.84-2.502l-.053-.05-.05-.038c-3.884-2.82-6.663-7.044-7.952-11.672l-.03-.095-.044-.088c-3.26-6.379-1.542-14.15-1.02-21.504.83-2.338 1.816-4.702 2.86-7.094zm-14.37.225l-2.047.03c-.02.108-.044.214-.062.321l1.972.338c.04-.23.091-.46.137-.69zm173.05 1.89c-.141.139-.276.28-.429.416-1.12 1-2.5 1.919-3.705 3.102l-.14.133-.075.175c-1.323 3.052-2.815 6.917-3.53 10.74-.713 3.825-.687 7.686 1.315 10.602l.016.014.008.015c.531.711 1.088 1.55 1.621 2.46l1.033-2.126a29.665 29.665 0 0 0-1.052-1.529l.023.03c-1.527-2.225-1.656-5.529-.99-9.096.653-3.501 2.047-7.162 3.322-10.12.978-.927 2.22-1.788 3.41-2.84a12.152 12.152 0 0 1-.826-1.976zm-63.17 5.842c-.407 1.582-.355 3.333-.116 5.02.415 2.928 1.34 5.851 1.558 7.619l.022.191.095.17c1.361 2.462.835 4.602-.369 6.828-1.164 2.155-2.97 4.181-4.177 6.098-2.957 1.918-5.584 2.958-7.883 5.55l1.49 1.329c2.01-2.266 4.448-3.212 7.654-5.323l.186-.125.117-.191c1.023-1.678 3.004-3.857 4.371-6.387 1.343-2.485 2.056-5.514.443-8.582.01.063.028.136.036.198l-.117-.362c.03.055.053.11.082.164-.292-2.118-1.151-4.84-1.522-7.457-.214-1.508-.242-2.9.02-4.08a12.144 12.144 0 0 1-1.89-.66zm-74.495 6.441a12.13 12.13 0 0 1-1.485.106c-.18 0-.355-.02-.533-.027.066 1.553.132 3.078.03 4.51l-.163 2.243.871-.68c.13.069.24.157.407.184.301.05.667-.028.922-.205.509-.354.584-.808.584-1.19 0-.38-.075-.84-.584-1.195-.012-.008-.03 0-.043-.008.044-1.257.018-2.509-.006-3.738zm95.8 1.635a1.626 1.626 0 0 0-.87.295c-.343.252-.556.577-.713.95l.505.769 1.227.334c.05-.182.038-.128.074-.2.229.162.735.595 1.313 1.307.652.805 1.367 1.782 2.09 2.606.478.545 1.09.813 1.675 1.144.537 1.76.792 3.758.81 5.793l1.962 2.994c.295-3.227.039-6.573-.875-9.496l-.2-.642-.663-.059c.071.006-.58-.336-1.211-1.057-.633-.72-1.34-1.685-2.038-2.546-.698-.862-1.298-1.644-2.244-2.051a1.907 1.907 0 0 0-.841-.14zm-96.443 2.754l.207.11-.672.865c-.254-.194-.26-.346-.26-.422 0-.08-.026-.24.274-.45.126-.087.308-.104.451-.103zm-31.219 4.281c-1.246 2.613-3.51 4.433-7.168 5.58l-.08.03-.074.037c-2.064 1.053-4.004.582-6.113-.569-2.109-1.15-4.207-2.983-6.186-4.355l-1.136 1.639c1.825 1.265 3.97 3.162 6.363 4.466 2.382 1.3 5.187 1.993 7.943.606 3.952-1.27 6.765-3.452 8.252-6.57zm182.582 1.506l-1.585 1.217c4.022 5.262 4.26 12.795 2.96 18.293l-.023.082-.006.08c-.21 3.124-2.223 6.036-4.77 8.764-2.462 2.637-5.31 5.034-7.308 7.396-2.114.59-4.343 1.488-6.467 1.985-1.656.387-3.188.519-4.549.152a12.15 12.15 0 0 1-1.709 1.475c2.136.995 4.494.833 6.715.314 2.433-.568 4.794-1.542 6.785-2.074l.317-.088.199-.244c1.786-2.18 4.811-4.695 7.478-7.551 2.65-2.837 4.997-6.082 5.286-9.922 1.383-5.93 1.205-13.956-3.323-19.879zm-135.195 3.645a17.273 17.273 0 0 0-2.777 3.744c-1.696 3.118-2.315 6.821-.783 10.18.813 2.876 2.326 5.081 4.607 6.252 2.302 1.181 5.24 1.311 8.754.501 2.017-.324 4.36-.958 6.582-1.341l-1.498-1.766c-1.993.398-3.924.901-5.467 1.145l-.039.008-.03.008c-3.23.744-5.652.56-7.39-.332-1.738-.893-2.924-2.512-3.63-5.065l-.032-.082-.03-.08c-1.257-2.684-.787-5.715.71-8.467a15.216 15.216 0 0 1 2.328-3.164zm120.58 3.785l-1.217 2.5c.096.307.19.615.266.922.712 2.875.454 5.524-1.453 7.572l-.385-.066-.502.164c-.002 0-.301.3-.303.302 0 .002-.088.173-.109.237a.883.883 0 0 0-.045.154c-.059.34-.01.378.008.54.02.16.052.362.096.634l.494-.082c.11.163.147.344.606.465.33.087.81-.018 1.078-.229.17-.133.23-.286.318-.435 2.72-2.669 2.976-6.363 2.14-9.737a20.447 20.447 0 0 0-.992-2.941zM589 277.477c-.525 2.293-1.336 4.337-2.361 5.779-3.89 5.352-8.406 10.037-13.592 13.701l3.611-.217c4.37-3.489 8.23-7.67 11.606-12.318v-.008h.008c.92-1.294 1.667-2.884 2.236-4.635L589 277.476zm32.703 9.418a3.851 3.851 0 0 0-.05.05l-.489.157a55.1 55.1 0 0 0-.383-.06zm-98.652.496c-.037-.001-.075.002-.112.002l.827.974c.426-.268.87-.502 1.324-.715a8.973 8.973 0 0 0-2.04-.261zm72.824 7.64c-.493.153-.961.36-1.389.64l1.325-.08c.01-.188.044-.373.064-.56zm-4.52 9.95c-1.845-.078-3.533.296-5.025.914-2.31.955-4.135 2.462-5.62 3.744-5.394 2.694-10.398 3.825-17.132 1.468l-.324-.11-.332.11c-2.081.72-3.987.067-5.95-.716-.98-.392-1.953-.82-2.96-1.05-1.008-.23-2.118-.245-3.137.298l.937 1.763c.49-.26 1.01-.273 1.756-.103.746.17 1.65.542 2.659.945 1.93.771 4.339 1.622 6.994.848-.1-.034-.198-.06-.3-.096h.657c-.12.042-.238.06-.357.096 7.098 2.393 12.82 1.113 18.398-1.676l.111-.059.096-.08c1.471-1.277 3.227-2.694 5.264-3.537 2.016-.834 4.29-1.114 7.027-.199 3.533 1.888 6.954 6.08 8.281 10.139-.233.075-.469.144-.7.226-3.679 1.298-7.168 3.346-10.053 5.108l1.04 1.705c2.86-1.746 6.25-3.715 9.678-4.924.168-.06.336-.107.504-.162.025.163.056.327.072.488.501 5.693-.801 9.412-3.019 13.47l-.008.016-.016.022c-1.19 2.419-2.606 3.452-4.177 4.244-1.572.792-3.349 1.256-4.946 2.467l1.211 1.594c1.191-.904 2.837-1.368 4.635-2.274 1.798-.906 3.692-2.339 5.072-5.144a32.105 32.105 0 0 0 1.832-3.952l.248-.013c-.022-.35.147-.662.754-1.07.608-.41 1.594-.778 2.701-1.004 2.215-.454 4.964-.31 6.239.265l.117.059.133.015c2.283.379 4.18 1.348 6.23 2.258 1.578.7 3.265 1.355 5.213 1.57l-1.52-2.318c-.973-.27-1.91-.652-2.88-1.082-1.923-.854-3.985-1.865-6.518-2.326-2.004-.889-4.872-.92-7.42-.399-.823.17-1.599.405-2.305.713.472-2.176.66-4.548.417-7.297v-.016c-.028-.28-.073-.562-.12-.843 2.585-.602 5.104-.645 7.397.232l.031.008.03.008c1.588.5 3.151 1.75 4.997 2.9.516.322 1.065.626 1.645.897-.89-1.357-1.648-2.51-2.55-3.887-1.064-.705-2.168-1.381-3.45-1.793-2.769-1.055-5.7-.98-8.565-.312-1.45-4.723-5.198-9.228-9.367-11.418l-.066-.037-.074-.022a12.3 12.3 0 0 0-3.485-.672zm63.434.53c-.188.602-1.2 1.679-2.37 2.725-1.02.913-2.016 1.872-2.694 3.004-3.336 2.047-5.888 4.462-10.823 6.135h-.014c-4.618 1.637-8.994 5.013-14.824 4.709l-.08-.008-.082.008a7.478 7.478 0 0 1-.855.047l1.265 1.926c6.444.195 11.18-3.355 15.235-4.793 5.29-1.793 8.112-4.408 11.226-6.319l.266-.162.127-.281c.285-.64 1.402-1.714 2.59-2.775 1.187-1.062 2.469-2.118 2.939-3.618zm3.492 12.438l.45.451h-.657l-.031-.066c-.023.03-.057.037-.08.066h-.688v.569c-1.34 1.675-2.408 3.105-4.9 4.045l-.09.029-.08.053c-2.02 1.246-3.388 2.573-4.74 3.556-1.352.984-2.653 1.662-4.813 1.846l-.148.016-.139.058c-4.199 1.689-8.745 2.302-13.644 2.205l1.308 1.994c4.552-.03 8.885-.684 12.953-2.298-.054.005-.104.014-.16.02l.29-.067c-.043.017-.087.03-.13.047 2.446-.24 4.179-1.128 5.657-2.204 1.502-1.093 2.784-2.332 4.586-3.449-.05.02-.09.042-.141.06l.17-.08c-.01.007-.019.014-.03.02 3.21-1.25 4.777-3.182 6.4-5.254l1.263-1.617zm-5.965 14.631a.835.835 0 0 1-.12.25l1.206.03zm1.188.305l-.04 1.521c.349-.355.646-.784.786-1.33zm-4.045 1.652c-2.851 1.83-5.597 2.536-8.658 3.432-1.749.493-4.53.683-6.973.594l1.371 2.087c2.19-.007 4.418-.265 6.147-.754h.008c2.654-.777 5.308-1.474 8.047-3zm-32.35 1.182a7.857 7.857 0 0 0-4.322 1.261l1.07 1.684c2.28-1.454 4.286-1.06 6.813-.303 2.445.734 5.284 1.785 8.57 1.514.247.084.531.149.805.219-.422-.642-.956-1.461-1.389-2.12-2.587.11-4.958-.797-7.41-1.533-1.328-.398-2.717-.725-4.137-.722z" style="line-height:normal;font-variant-ligatures:normal;font-variant-position:normal;font-variant-caps:normal;font-variant-numeric:normal;font-variant-alternates:normal;font-feature-settings:normal;text-indent:0;text-align:start;text-decoration-line:none;text-decoration-style:solid;text-decoration-color:#000;text-transform:none;text-orientation:mixed;white-space:normal;shape-padding:0;isolation:auto;mix-blend-mode:normal;solid-color:#000;solid-opacity:1" color="#000" font-weight="400" font-family="sans-serif" overflow="visible" fill="url(#Y)" stroke-width="2"/><path d="M669.953 216.926c-.532.684-1.14 1.393-1.797 2.178-.857 1.025-1.676 2.122-2.107 3.271-.75.511-1.377 1.33-1.85 2.332-.473 1.001-.792 2.185-.926 3.42a11.687 11.687 0 0 0 .186 3.734c.267 1.212.75 2.347 1.48 3.28.311.277.637.593.961.931l14.963-.082c-2.435-6.772-6.359-13.303-10.367-18.748zm12.152 23.058l-13.525.075c.177.454.322.916.402 1.388.145.844.116 1.711-.158 2.574-.193.66-.722 1.158-1.447 1.516-.725.358-1.647.578-2.621.684-.975.105-2.002.097-2.943 0-.942-.098-1.798-.283-2.424-.534-2.92-.211-8.215-.664-11.06-.728-1.76 4.554-6.17 7.79-11.345 7.789a12.157 12.157 0 0 1-2.566-.283l-10.947 22.52c.124.51.233 1.03.308 1.572.126.903.17 1.85.088 2.84.066 1.08.096 2.144.055 3.18-.042 1.034-.157 2.038-.383 2.997a10.102 10.102 0 0 1-1.053 2.723 8.943 8.943 0 0 1-1.95 2.35 8.464 8.464 0 0 1-1.24 1.322c.53 1.375.81 2.845.813 4.343a12.167 12.167 0 0 1-6.834 10.924 32882.376 32882.376 0 0 0 24.22 36.912c.017.028.026.04.044.067 3.488-.68 6.35-1.907 8.092-3.883a52.605 52.605 0 0 0 3.77-3.41l.103-4.156 3.514.084c4.363-5.62 7.054-12.334 5.507-19.704.03-10.802 6.953-12.223 12.051-21.892 4.373-8.126 7.141-16.148 9.1-23.723l-2.158-2.021 3.51-3.744c.906-4.178 1.638-8.2 2.29-11.96.12-3.225-.348-6.53-1.213-9.822zm-57.273 1.004c-.372.291-.746.568-1.123.817-.333.892-1.158 1.998-1.953 3.369a15.923 15.923 0 0 0-1.106 2.26 10.717 10.717 0 0 0-.67 2.693c-.614 1.099-1.342 2.449-1.9 4.014a15.608 15.608 0 0 0-.672 2.504 13.333 13.333 0 0 0-.203 2.806c-.201 1.224-.102 2.285.178 3.233.28.948.741 1.782 1.267 2.556 1.053 1.548 2.365 2.852 2.996 4.315l.008.021 9.041-18.597a12.164 12.164 0 0 1-5.863-9.99zm-27.853 60.586c-.411.607-.863 1.17-1.249 1.781-.337.536-.62 1.115-.767 1.81-.148.693-.16 1.503.04 2.501a4.55 4.55 0 0 0 .57 1.975c.305.562.697 1.057 1.091 1.564.394.508.786 1.028 1.094 1.645.307.616.529 1.329.576 2.218.233.39.417 1.019.535 1.756.118.738.171 1.582.145 2.405-.027.822-.131 1.622-.332 2.267-.201.645-.497 1.136-.903 1.342-.285 1.348-.927 2.574-1.732 3.613a11.05 11.05 0 0 1-2.707 2.492c-1.722.733-4.215 1.7-6.904 2.278-1.345.289-2.739.481-4.11.498-1.37.016-2.719-.143-3.973-.555-1.622-.229-3.169-.25-4.66-.185-1.49.065-2.926.216-4.33.332-1.404.115-2.777.195-4.138.119-1.362-.077-2.714-.309-4.079-.82-1.515-.9-3.148-1.854-4.556-2.938-.704-.542-1.353-1.117-1.903-1.735-.55-.617-1-1.278-1.31-1.99-1.854-2.536-3.212-4.593-4.441-7.215-1.078-.874-1.908-1.926-2.682-2.994-.775-1.067-1.494-2.152-2.35-3.086-.154-.953-.539-1.664-1.082-2.205-.543-.54-1.244-.91-2.031-1.185a12.79 12.79 0 0 0-1.57-.416 12.164 12.164 0 0 1-8.989 3.988c-.25 0-.497-.022-.746-.037 3.01 9.69 5.42 21.835 11.752 25.918l9.672-4.903 1.809 3.567-5.207 2.639c.291-.04.583-.08.886-.145 9.938 2.699 22.81 4.023 29.99 16.086 10.82 7.818 7.61-9.443 20.266-14.604 2.388 1.01 6.394 2.192 11.084 3.21l1.076-2.116 6.971 3.551c5.177.729 10.574 1.11 15.334.78-6.793-10.335-15.299-23.311-23.869-36.387-.434.052-.871.08-1.309.085a12.165 12.165 0 0 1-10.963-6.904z" transform="matrix(.26458 0 0 .26458 -80.697 301.215)" opacity=".698" fill="url(#Z)" stroke-opacity="0"/><path d="M576.781 173.74c-4.71-.146-9.018 2.752-11.802 6.49a28.306 28.306 0 0 1-7.196 5.575l30.47.205c.371-.47.718-.966 1.026-1.498 2.855-6.422-4.303-8.997-9.168-10.248l-.642-.149-.649-.119a11.018 11.018 0 0 0-2.039-.256zm-52.177 13.287c-2.922 1.719-5.398 4.284-7.28 6.938-2.312 4.915-5.762 9.234-10.703 11.783-5.559 3.739-6.823-3.733-8.986-6.707-4.442-2.51-9.773 1.394-14.276 2.666-5.165 2.187-10.177 4.426-14.904 7.348-2.59 3.097-9.346 8.609-7.342 11.656 5.276 1.667 8.221-6.609 13.397-3.438 3.81 3.013 1.732 8.221.693 12.08-2.02 3.99-4.784 5.624-7.502 8.797l8.295-.129a12.168 12.168 0 0 1 10.28-5.683c1.495.005 2.977.286 4.37.828l34.971-39.605a12.905 12.905 0 0 1-1.103-5.182 12.905 12.905 0 0 1 .09-1.352zm25.644 2.723a12.905 12.905 0 0 1-4.21 8.215c4.582 7.626 7.32 12.179 10.74 17.867 4.854-2.12 9.654 1.073 11.681 5.479 1.374 2.705 3.703 4.959 6.36 5.89l13.05-17.275c-2.043-4.123-5.536-7.372-10.35-8.043-6.148.47-7.964-7.67-1.818-8.867 2.638-.74 5.369-1.67 7.79-3.04zm-22.404 7.256l-33.723 38.201a12.167 12.167 0 0 1 2.23 2.498l48.137-.752c-.915-4.121-2.355-8.249.018-12.254 1.869-3.383 5.301-5.284 8.71-7.031l-10.534-17.523a12.905 12.905 0 0 1-5.262 1.138 12.905 12.905 0 0 1-9.576-4.277zm61.765 17.258l-9.8 12.972a8.455 8.455 0 0 0 2.406-1.314c4.423-1.94 8.774-6.684 7.394-11.658zm-44.535 26.68l-26.943.421c.813 3.144-.102 7.442 3.021 9.649 3.086 4.87 10.057 4.306 14.641 1.459 4.973-1.352 9.538-6.092 9.281-11.53zm-70.713 1.105l-8.756.137c-1.35 4.866.328 10.468 3.26 14.453 3.544 3.213 11.89 4.219 14.953-.215-5.541-1.136-9.71-6.04-9.71-11.918a12.16 12.16 0 0 1 .253-2.457z" transform="matrix(.26458 0 0 .26458 -80.697 301.215)" fill="url(#aa)" stroke-width="4" stroke-opacity="0"/></g><use height="100%" width="100%" xlink:href="#ab"/></g></svg>