<?xml version="1.0" encoding="UTF-8" standalone="no"?>
<!-- Created with Inkscape (http://www.inkscape.org/) -->

<svg
   width="210mm"
   height="297mm"
   viewBox="0 0 210 297"
   version="1.1"
   id="svg5"
   inkscape:version="1.1.2 (0a00cf5339, 2022-02-04)"
   sodipodi:docname="system.svg"
   xmlns:inkscape="http://www.inkscape.org/namespaces/inkscape"
   xmlns:sodipodi="http://sodipodi.sourceforge.net/DTD/sodipodi-0.dtd"
   xmlns="http://www.w3.org/2000/svg"
   xmlns:svg="http://www.w3.org/2000/svg">
  <sodipodi:namedview
     id="namedview7"
     pagecolor="#ffffff"
     bordercolor="#666666"
     borderopacity="1.0"
     inkscape:pageshadow="2"
     inkscape:pageopacity="0.0"
     inkscape:pagecheckerboard="0"
     inkscape:document-units="mm"
     showgrid="false"
     inkscape:zoom="0.26814675"
     inkscape:cx="-850.28069"
     inkscape:cy="647.03377"
     inkscape:window-width="1526"
     inkscape:window-height="836"
     inkscape:window-x="0"
     inkscape:window-y="0"
     inkscape:window-maximized="1"
     inkscape:current-layer="layer1" />
  <defs
     id="defs2" />
  <g
     inkscape:label="Layer 1"
     inkscape:groupmode="layer"
     id="layer1">
    <path
       style="fill:#000000;stroke-width:0.078757"
       d="m -341.1638,91.867378 c -3.93219,-0.312659 -7.68061,-1.631753 -10.4188,-3.666446 -0.33785,-0.251046 -0.67716,-0.502364 -0.754,-0.558487 -0.12048,-0.08796 -0.24959,-0.04789 -0.93853,0.29141 -4.11202,2.025407 -8.58695,2.653012 -13.09486,1.836564 -3.68604,-0.667591 -6.96892,-2.249227 -9.85082,-4.745937 l -0.39747,-0.344344 -0.70149,0.304143 c -2.02287,0.87707 -4.46392,1.504966 -6.79484,1.747779 -1.28919,0.134292 -3.53507,0.148905 -4.75187,0.0309 -6.11293,-0.592756 -11.38849,-3.579799 -13.99243,-7.922575 -0.56088,-0.935393 -0.84675,-1.571668 -1.1825,-2.63172 -0.9732,-3.07282 -0.70601,-6.197141 0.78846,-9.219233 0.48051,-0.971667 1.13697,-1.981201 1.86256,-2.864276 l 0.49424,-0.601509 -0.33726,-0.295794 c -2.87668,-2.523026 -4.73865,-5.659954 -5.36274,-9.034756 -0.17815,-0.96339 -0.20224,-3.36309 -0.0428,-4.252442 0.56195,-3.132555 1.97942,-5.735578 4.3074,-7.910034 4.91895,-4.594578 12.70919,-6.090831 19.89211,-3.820632 0.61917,0.195692 1.31919,0.43976 1.55557,0.542373 0.23638,0.102614 0.47006,0.186389 0.51928,0.186174 0.0492,-2.34e-4 0.17421,-0.307446 0.27777,-0.682732 0.77668,-2.814528 2.46937,-5.631628 4.70031,-7.822595 2.92022,-2.867897 6.48635,-4.631831 10.66867,-5.277099 1.24519,-0.192113 4.19474,-0.19516 5.43249,-0.0056 2.05678,0.314973 3.81702,0.854848 5.64085,1.730072 3.08286,1.479422 5.62306,3.67679 7.44529,6.440455 0.29711,0.450603 0.58839,0.886747 0.64727,0.969211 0.10203,0.142921 0.14396,0.125996 0.89615,-0.362121 2.53843,-1.647227 5.38801,-2.751836 8.40026,-3.25628 7.19738,-1.205299 14.30556,1.386144 17.74982,6.471098 0.99824,1.47375 1.62977,2.947355 2.00115,4.669423 0.18832,0.873338 0.2137,1.16666 0.21712,2.510398 0.004,1.591695 -0.0533,2.082928 -0.40562,3.472176 -0.33513,1.321497 -0.94674,2.771599 -1.69283,4.013609 -0.13672,0.227586 -0.23645,0.425678 -0.22166,0.440203 0.0148,0.01453 0.45841,0.115833 0.98577,0.225127 5.40283,1.119674 9.84162,4.206946 12.0075,8.351476 0.49197,0.941411 0.98713,2.372335 1.18804,3.433163 0.21955,1.159443 0.20304,3.214231 -0.0352,4.384663 -1.24363,6.108328 -6.92348,10.948955 -14.44398,12.309824 -0.56838,0.102856 -1.30171,0.209081 -1.62963,0.236061 -0.77452,0.06371 -0.95394,0.102628 -0.95394,0.20689 0,0.175612 -0.88463,1.804857 -1.34442,2.476019 -0.87993,1.284489 -1.69662,2.177771 -2.98802,3.268258 -3.64487,3.077806 -8.72417,4.822667 -13.87176,4.765282 -0.63398,-0.0072 -1.29577,-0.02427 -1.47066,-0.03817 z m 4.17346,-1.196826 c 4.48381,-0.564049 8.48335,-2.395649 11.32887,-5.188096 1.39683,-1.370783 2.31745,-2.675602 3.07582,-4.359462 0.2139,-0.474948 0.39612,-0.870081 0.40496,-0.878069 0.009,-0.0082 0.48109,-0.05534 1.04948,-0.105229 6.63965,-0.58275 12.31069,-4.061279 14.6669,-8.996434 0.38546,-0.807348 0.74426,-1.902086 0.9267,-2.827362 0.20673,-1.048457 0.18727,-3.023112 -0.0401,-4.072076 -0.70092,-3.233347 -2.6981,-5.998151 -5.81542,-8.050584 -2.25903,-1.487347 -4.66805,-2.373957 -7.82883,-2.881323 l -1.3164,-0.211306 0.6423,-0.99964 c 2.38427,-3.71061 3.06162,-7.070342 2.14425,-10.635639 -0.78339,-3.044662 -2.81131,-5.70218 -5.72521,-7.502709 -0.69944,-0.432196 -2.51891,-1.280986 -3.28973,-1.534665 -5.92322,-1.949387 -12.76976,-0.823318 -18.06629,2.971411 -0.50099,0.358929 -0.94167,0.6526 -0.97932,0.6526 -0.0377,0 -0.23755,-0.307229 -0.44425,-0.682732 -1.47694,-2.683242 -3.51124,-4.871534 -6.01605,-6.471451 -2.91078,-1.859228 -6.12494,-2.784886 -9.67888,-2.78746 -3.00094,-0.0021 -5.20535,0.489658 -7.83021,1.747014 -1.96466,0.941108 -3.33762,1.903356 -4.84915,3.398557 -1.39268,1.377641 -2.46634,2.879199 -3.34562,4.679032 -0.60143,1.231109 -0.89917,2.049581 -1.2251,3.367798 -0.13616,0.550924 -0.26516,1.060776 -0.28658,1.133002 -0.0339,0.114291 -0.12866,0.09048 -0.73086,-0.183605 -2.98935,-1.360612 -5.76222,-1.963744 -8.99906,-1.9574 -2.38948,0.0047 -4.1683,0.288276 -6.2968,1.003879 -7.4063,2.490012 -11.4564,8.993409 -9.74952,15.655144 0.76994,3.004848 2.50978,5.550562 5.51331,8.066935 l 0.47697,0.399603 -0.33812,0.380107 c -2.03848,2.291685 -2.95393,3.873424 -3.52398,6.088872 -0.52637,2.045726 -0.45578,4.08473 0.21184,6.118508 1.4074,4.287436 5.52996,7.706016 10.96374,9.091538 1.93465,0.493304 2.99127,0.613657 5.36588,0.611203 1.77735,-0.0019 2.2836,-0.02927 3.23915,-0.175739 2.15583,-0.330379 4.28418,-0.955458 6.05413,-1.778068 l 0.90665,-0.421377 0.44477,0.410873 c 2.27071,2.097713 4.48118,3.406829 7.28128,4.312252 5.26616,1.702833 11.15846,1.087006 15.9099,-1.662812 l 0.39923,-0.231045 0.70905,0.578934 c 2.72816,2.22747 6.35838,3.644444 10.24838,4.000204 0.95249,0.08714 3.46962,0.04534 4.41194,-0.07315 z"
       id="path81" />
    <text
       xml:space="preserve"
       style="font-style:normal;font-weight:normal;font-size:10.5833px;line-height:1.25;font-family:sans-serif;fill:#000000;fill-opacity:1;stroke:none;stroke-width:0.264583"
       x="-378.55676"
       y="59.054611"
       id="text1171"><tspan
         sodipodi:role="line"
         style="stroke-width:0.264583"
         x="-378.55676"
         y="59.054611"
         id="tspan1173">Internet</tspan><tspan
         sodipodi:role="line"
         style="stroke-width:0.264583"
         x="-378.55676"
         y="72.28373"
         id="tspan3877">database</tspan></text>
    <path
       style="fill:#000000;stroke-width:0.261729"
       d="m -585.00345,78.092927 v -1.036332 l 2.15926,-0.07601 2.15927,-0.07601 0.81554,-3.53334 c 0.85715,-3.713494 10.40465,-44.691271 10.95694,-47.026975 l 0.32044,-1.355288 -0.91922,-0.607679 c -1.37365,-0.908102 -1.93462,-2.12776 -1.81592,-3.94824 0.16755,-2.570305 1.81536,-4.118714 4.38298,-4.118714 2.56763,0 4.21537,1.548409 4.38298,4.118714 0.11747,1.801014 -0.4359,3.020551 -1.79229,3.950154 -0.53996,0.37007 -0.85419,0.78143 -0.79975,1.046916 0.0495,0.240533 2.32313,10.036228 5.05283,21.768225 2.72973,11.731997 5.40057,23.215352 5.93521,25.518564 l 0.97205,4.187663 2.15413,0.07601 2.15414,0.07601 v 1.036332 1.036332 h -18.0593 -18.05929 z m 28.9179,-1.646391 c -0.0931,-0.323889 -0.21794,-0.765557 -0.2776,-0.981483 -0.0597,-0.215926 -2.464,-1.474296 -5.34332,-2.796384 l -5.23506,-2.403787 -5.21899,2.383876 c -4.14853,1.894931 -5.24909,2.503766 -5.3657,2.968368 -0.0807,0.321466 -0.21855,0.772092 -0.30665,1.001394 -0.14467,0.377329 0.88788,0.416906 10.87826,0.416906 h 11.03825 z m -19.08402,-4.341674 c 0.85322,-0.408597 2.43466,-1.136793 3.51429,-1.618211 1.07963,-0.481421 2.06674,-0.963446 2.19358,-1.071168 0.21763,-0.18492 -4.3022,-2.449841 -5.47776,-2.744889 -0.50181,-0.125939 -0.59615,0.07818 -1.12343,2.430951 -0.31661,1.41264 -0.64593,2.833442 -0.73184,3.157331 -0.0859,0.32389 -0.10448,0.58889 -0.0411,0.58889 0.0634,0 0.8131,-0.334307 1.66633,-0.742904 z m 17.46598,-2.484142 c -0.38678,-1.679947 -0.82803,-3.048487 -0.98053,-3.041201 -0.52527,0.02504 -5.66704,2.47353 -5.66861,2.699299 -0.002,0.217255 7.13265,3.616084 7.28029,3.468447 0.0396,-0.03966 -0.24452,-1.446601 -0.63115,-3.126545 z m -5.27519,-3.123939 c 1.92164,-0.901929 3.62506,-1.723402 3.78537,-1.825497 0.20743,-0.132091 0.11253,-0.961415 -0.32897,-2.874961 -0.34128,-1.479128 -0.67616,-2.935863 -0.74423,-3.237183 -0.0915,-0.404869 -0.97898,-0.945702 -3.40063,-2.072141 l -3.27692,-1.52428 -3.24813,1.510888 -3.24811,1.510885 -0.78581,3.309407 c -0.43219,1.820174 -0.70775,3.342991 -0.61238,3.384043 0.0955,0.04105 1.76342,0.82436 3.70676,1.740691 1.94334,0.916331 3.78664,1.677749 4.09623,1.692037 0.3096,0.01422 2.13515,-0.711963 4.05682,-1.613889 z m -7.95675,-11.635654 c 0.89969,-0.391925 1.63581,-0.788163 1.63581,-0.880525 0,-0.175214 -2.30653,-1.150236 -2.72837,-1.153325 -0.13292,-0.001 -0.38121,0.616564 -0.55142,1.372306 -0.17033,0.755742 -0.23803,1.374092 -0.15055,1.374107 0.0875,1.9e-5 0.89493,-0.320634 1.79462,-0.712563 z m 9.61139,-0.623184 c -0.19382,-0.734645 -0.40019,-1.38358 -0.45871,-1.44207 -0.14653,-0.146527 -2.80575,0.975007 -2.80575,1.183326 0,0.186374 2.83416,1.528276 3.31337,1.568797 0.22319,0.01886 0.2102,-0.32827 -0.0488,-1.310053 z m -3.16983,-2.341078 c 1.24548,-0.58365 2.26093,-1.222687 2.26093,-1.422835 0,-0.397682 -1.24758,-5.663404 -1.36619,-5.766365 -0.40762,-0.353844 -2.92791,-1.435263 -3.34493,-1.435263 -0.41701,0 -2.93731,1.081419 -3.34492,1.435263 -0.12149,0.105474 -1.3662,5.373654 -1.3662,5.782498 0,0.339937 3.85845,2.385459 4.60945,2.443659 0.16013,0.01237 1.30836,-0.454231 2.55186,-1.036957 z m -4.9366,-9.671379 c 0.089,-0.143962 0.0371,-0.26174 -0.11531,-0.26174 -0.1524,0 -0.27728,0.117778 -0.27728,0.26174 0,0.143961 0.0519,0.261739 0.1153,0.261739 0.0634,0 0.18826,-0.117778 0.27729,-0.261739 z m 5.36542,0 c 0,-0.143962 -0.12489,-0.26174 -0.27729,-0.26174 -0.1524,0 -0.20433,0.117778 -0.1153,0.26174 0.089,0.143961 0.21361,0.261739 0.27729,0.261739 0.0634,0 0.1153,-0.117778 0.1153,-0.261739 z m -1.75622,-1.602545 c 0.60605,-0.305604 1.12186,-0.57092 1.14625,-0.589607 0.0247,-0.01855 -0.46271,-2.212548 -1.08242,-4.875246 -0.61971,-2.662694 -1.1983,-4.664599 -1.28579,-4.448672 -0.19011,0.46905 -2.24146,9.267539 -2.17305,9.32006 0.1014,0.07787 2.14557,1.126604 2.21723,1.137525 0.0417,0.0065 0.5717,-0.238461 1.17778,-0.54406 z m -15.44907,-9.966328 c -0.4977,-0.608368 -1.84553,-3.445918 -2.33702,-4.920047 -0.76014,-2.279898 -0.68336,-7.885309 0.14251,-10.406038 0.82828,-2.528042 2.08804,-4.618955 2.84813,-4.727162 1.01907,-0.145077 0.97802,0.648983 -0.15055,2.914194 -2.44697,4.911092 -2.40357,9.772345 0.13045,14.621575 0.50246,0.961538 0.87271,1.962651 0.82275,2.224696 -0.10943,0.574287 -1.06822,0.767044 -1.45621,0.292776 z m 27.32548,0.140036 c -0.34576,-0.345748 -0.1592,-1.049464 0.71941,-2.713095 1.31367,-2.487571 1.81724,-4.466603 1.82933,-7.188981 0.0124,-2.909676 -0.39056,-4.617813 -1.74244,-7.377024 -1.11064,-2.266852 -1.14674,-3.058533 -0.13292,-2.914192 0.73631,0.104826 1.97551,2.119028 2.81863,4.581376 0.81762,2.387839 1.01558,7.00576 0.41139,9.595812 -0.37522,1.60852 -1.86479,5.015089 -2.56385,5.863428 -0.28935,0.35117 -1.05401,0.438313 -1.33964,0.152679 z m -23.14919,-2.881682 c -0.48119,-0.191721 -1.5666,-2.441303 -2.02259,-4.191969 -0.73459,-2.820273 -0.39519,-5.834305 0.96083,-8.53301 0.84067,-1.673013 1.35577,-2.03887 1.98488,-1.409753 0.38088,0.380868 0.33995,0.579931 -0.47831,2.325917 -0.84096,1.794395 -0.89484,2.075264 -0.89484,4.66306 0,2.601506 0.0491,2.853316 0.88791,4.557288 0.64098,1.30201 0.81777,1.914876 0.63563,2.203614 -0.29181,0.462401 -0.60076,0.573205 -1.07351,0.384853 z m 19.3062,-0.220625 c -0.27235,-0.328233 -0.17497,-0.728628 0.55683,-2.290127 0.83168,-1.774376 0.88698,-2.063662 0.88698,-4.640496 0,-2.581532 -0.0544,-2.863922 -0.89483,-4.657558 -0.83966,-1.791628 -0.8676,-1.936647 -0.45312,-2.351123 0.33772,-0.337717 0.54682,-0.375419 0.88812,-0.160126 1.08783,0.686169 2.4228,4.636247 2.4228,7.168807 0,3.149068 -1.71044,7.328407 -2.99926,7.328407 -0.0427,0 -0.22597,-0.178986 -0.40752,-0.397784 z m -16.46419,-2.460812 c -1.32443,-1.324418 -1.70098,-5.226079 -0.73214,-7.585689 0.69909,-1.702653 1.2899,-2.176155 1.92398,-1.542054 0.40805,0.408062 0.39974,0.523306 -0.12581,1.745321 -0.66958,1.556405 -0.72979,3.853026 -0.14158,5.399034 0.69631,1.83023 0.70076,1.904328 0.13292,2.208285 -0.43992,0.235433 -0.63925,0.19302 -1.05716,-0.224891 z m 13.43445,0.125135 c -0.47761,-0.349219 -0.47761,-0.381242 -9e-5,-1.363934 0.27048,-0.55653 0.54514,-1.829911 0.61467,-2.848951 0.10386,-1.52065 0.0216,-2.083805 -0.46805,-3.222854 -0.55458,-1.289094 -0.56494,-1.409081 -0.15673,-1.817142 0.63189,-0.631911 1.22,-0.164444 1.93996,1.542054 1.34691,3.192502 -0.11561,9.037187 -1.92964,7.710827 z"
       id="path6429" />
    <rect
       style="fill:none;fill-rule:evenodd;stroke:#000000;stroke-width:0.721793;stroke-miterlimit:4;stroke-dasharray:none"
       id="rect6551"
       width="47.696766"
       height="61.449734"
       x="-539.54987"
       y="236.53339" />
    <text
       xml:space="preserve"
       style="font-style:normal;font-weight:normal;font-size:10.5833px;line-height:1.25;font-family:sans-serif;fill:#000000;fill-opacity:1;stroke:none;stroke-width:0.264583"
       x="-532.33099"
       y="259.05487"
       id="text8638"><tspan
         sodipodi:role="line"
         style="stroke-width:0.264583"
         x="-532.33099"
         y="259.05487"
         id="tspan8640">Phone</tspan></text>
  </g>
</svg>
