<?xml version="1.0" encoding="UTF-8" standalone="no"?>
<!-- Created with Inkscape (http://www.inkscape.org/) -->

<svg
   xmlns:dc="http://purl.org/dc/elements/1.1/"
   xmlns:cc="http://creativecommons.org/ns#"
   xmlns:rdf="http://www.w3.org/1999/02/22-rdf-syntax-ns#"
   xmlns:svg="http://www.w3.org/2000/svg"
   xmlns="http://www.w3.org/2000/svg"
   xmlns:sodipodi="http://sodipodi.sourceforge.net/DTD/sodipodi-0.dtd"
   xmlns:inkscape="http://www.inkscape.org/namespaces/inkscape"
   width="210mm"
   height="297mm"
   viewBox="0 0 210 297"
   version="1.1"
   id="svg8"
   inkscape:version="0.92.3 (2405546, 2018-03-11)"
   sodipodi:docname="sensor_setup.svg">
  <defs
     id="defs2">
    <marker
       inkscape:stockid="Arrow1Lstart"
       orient="auto"
       refY="0.0"
       refX="0.0"
       id="Arrow1Lstart"
       style="overflow:visible"
       inkscape:isstock="true">
      <path
         id="path895"
         d="M 0.0,0.0 L 5.0,-5.0 L -12.5,0.0 L 5.0,5.0 L 0.0,0.0 z "
         style="fill-rule:evenodd;stroke:#000000;stroke-width:1pt;stroke-opacity:1;fill:#000000;fill-opacity:1"
         transform="scale(0.8) translate(12.5,0)" />
    </marker>
    <marker
       inkscape:stockid="Arrow1Lstart"
       orient="auto"
       refY="0"
       refX="0"
       id="Arrow1Lstart-2"
       style="overflow:visible"
       inkscape:isstock="true">
      <path
         inkscape:connector-curvature="0"
         id="path895-9"
         d="M 0,0 5,-5 -12.5,0 5,5 Z"
         style="fill:#000000;fill-opacity:1;fill-rule:evenodd;stroke:#000000;stroke-width:1.00000003pt;stroke-opacity:1"
         transform="matrix(0.8,0,0,0.8,10,0)" />
    </marker>
  </defs>
  <sodipodi:namedview
     id="base"
     pagecolor="#ffffff"
     bordercolor="#666666"
     borderopacity="1.0"
     inkscape:pageopacity="0.0"
     inkscape:pageshadow="2"
     inkscape:zoom="0.35"
     inkscape:cx="-547.91775"
     inkscape:cy="498.71692"
     inkscape:document-units="mm"
     inkscape:current-layer="layer1"
     showgrid="false"
     showguides="false"
     inkscape:snap-global="false"
     inkscape:window-width="1366"
     inkscape:window-height="719"
     inkscape:window-x="0"
     inkscape:window-y="25"
     inkscape:window-maximized="1"
     inkscape:measure-start="0,0"
     inkscape:measure-end="0,0" />
  <metadata
     id="metadata5">
    <rdf:RDF>
      <cc:Work
         rdf:about="">
        <dc:format>image/svg+xml</dc:format>
        <dc:type
           rdf:resource="http://purl.org/dc/dcmitype/StillImage" />
        <dc:title></dc:title>
      </cc:Work>
    </rdf:RDF>
  </metadata>
  <g
     inkscape:label="Layer 1"
     inkscape:groupmode="layer"
     id="layer1">
    <rect
       style="opacity:0.25;fill:#b3b3b3;stroke:none;stroke-width:0.26619127;stroke-miterlimit:4;stroke-dasharray:0.53238252, 0.26619126;stroke-dashoffset:0"
       id="rect3980"
       width="173.49107"
       height="88.759544"
       x="-292.55356"
       y="205.59462" />
    <circle
       style="fill:none;stroke:#000000;stroke-width:0.46499997;stroke-miterlimit:4;stroke-dasharray:none"
       id="path817"
       cx="-200.98669"
       cy="270.27304"
       r="4.2763124" />
    <circle
       style="fill:none;stroke:#000000;stroke-width:0.46499997;stroke-miterlimit:4;stroke-dasharray:none"
       id="path817-3"
       cx="-224.50641"
       cy="271.34213"
       r="4.2763124" />
    <circle
       style="fill:none;stroke:#000000;stroke-width:0.46499997;stroke-miterlimit:4;stroke-dasharray:none"
       id="path817-6"
       cx="-215.95377"
       cy="253.16782"
       r="4.2763124" />
    <circle
       style="fill:none;stroke:#000000;stroke-width:0.46499997;stroke-miterlimit:4;stroke-dasharray:none"
       id="path817-7"
       cx="-200.45215"
       cy="237.13162"
       r="4.2763124" />
    <circle
       style="fill:none;stroke:#000000;stroke-width:0.46499997;stroke-miterlimit:4;stroke-dasharray:none"
       id="path817-5"
       cx="-191.36499"
       cy="253.1678"
       r="4.2763124" />
    <circle
       style="fill:none;stroke:#000000;stroke-width:0.46499997;stroke-miterlimit:4;stroke-dasharray:none"
       id="path817-35"
       cx="-222.90279"
       cy="236.06255"
       r="4.2763124" />
    <path
       style="fill:none;stroke:#000000;stroke-width:0.13930441px;stroke-linecap:butt;stroke-linejoin:miter;stroke-opacity:1"
       d="m -287.12176,205.70963 c 0.99349,0.63138 1.0611,0.56288 1.97006,0.56288 0.0938,0 0.19753,-0.042 0.28144,0 0.11867,0.0593 0.16277,0.2221 0.28143,0.28144 0.0728,0.0364 1.58455,0.0347 1.68864,0 0.19899,-0.0663 0.37524,-0.18763 0.56287,-0.28144 0.37524,-0.18763 0.7505,-0.37525 1.12575,-0.56288 0.37524,-0.18762 0.7505,-0.37525 1.12574,-0.56287 0.18764,-0.0938 0.38834,-0.16508 0.56288,-0.28144 0.60429,-0.40285 -0.0414,-0.16002 0.56287,-0.56287 0.51958,-0.34639 1.16906,-0.49793 1.68863,-0.84432 0.11039,-0.0736 0.16277,-0.2221 0.28144,-0.28143 0.0839,-0.042 0.18763,0 0.28144,0 0.18763,-0.0938 0.38834,-0.16508 0.56287,-0.28144 0.16889,-0.11259 1.04486,-1.12575 1.12575,-1.12575 0.0144,0 -0.0181,0.79019 0,0.84431 0.0663,0.19901 0.18763,0.37525 0.28144,0.56288 0,0.28143 -0.0683,0.57128 0,0.84431 0.0419,0.16729 0.71953,0.65715 0.8443,0.84431 0.11637,0.17454 0.16508,0.38834 0.28144,0.56287 0.0771,0.11563 0.72871,0.76724 0.84433,0.84432 0.17453,0.11636 0.37524,0.18762 0.56287,0.28144 0.18762,0.0938 0.35936,0.23056 0.56287,0.28143 0.18202,0.0455 0.38085,-0.0455 0.56288,0 0.20351,0.0509 0.35717,0.2403 0.56287,0.28144 0.27598,0.0552 0.56833,-0.0552 0.84431,0 0.2057,0.0411 0.35936,0.23056 0.56287,0.28144 0.67925,0.16981 1.39306,-0.27438 1.97007,-0.56288 2.04058,-1.02029 -0.44499,0.29666 0.84431,-0.56287 0.17454,-0.11636 0.38833,-0.16508 0.56288,-0.28144 0.11562,-0.0771 0.76723,-0.72869 0.84431,-0.84431 0.11636,-0.17454 0.16507,-0.38834 0.28144,-0.56287 0.21649,-0.32474 0.62782,-0.51958 0.8443,-0.84432 0.11637,-0.17454 0.16508,-0.38833 0.28144,-0.56287 0.0736,-0.11039 0.18763,-0.18763 0.28144,-0.28144 0.0938,-0.0938 0.14877,-0.28144 0.28144,-0.28144 0.2151,0 0.56153,0.8423 0.56287,0.84431 0.0736,0.11039 0.18763,0.18763 0.28145,0.28144 0.28143,0.28144 0.56287,0.56288 0.84431,0.84432 0.21982,0.21982 0.60146,0.6824 0.84431,0.8443 0.48509,0.3234 0.42541,0.28144 0.84431,0.28144 0.0938,0 0.19244,-0.0296 0.28144,0 0.19901,0.0663 0.36386,0.21511 0.56287,0.28144 0.2533,0.0844 0.59103,-0.0844 0.84431,0 0.19901,0.0663 0.35718,0.2403 0.56288,0.28144 0.27597,0.0552 0.56287,0 0.84432,0 0.37525,0 0.75777,0.0736 1.12575,0 0.46646,-0.0933 1.54528,-0.56113 1.97005,-0.84432 0.32473,-0.21648 0.51958,-0.62782 0.84432,-0.8443 0.34907,-0.23272 0.77667,-0.33016 1.12574,-0.56288 0.1104,-0.0736 0.17105,-0.20785 0.28145,-0.28144 0.95672,-0.63781 0.15094,-0.0377 1.12575,-0.28144 0.20351,-0.0509 0.37524,-0.18762 0.56287,-0.28143 0.37525,-0.18763 0.7505,-0.37525 1.12575,-0.56288 0.18763,-0.0938 0.38833,-0.16507 0.56288,-0.28144 0.11038,-0.0736 0.14876,-0.28144 0.28143,-0.28144 0.13267,0 0.18762,0.18763 0.28144,0.28144 0.0938,0.0938 0.2221,0.16278 0.28143,0.28144 0.042,0.0839 -0.0296,0.19244 0,0.28144 0.0828,0.24847 0.69585,1.46592 0.84432,1.68863 0.0736,0.11038 0.20784,0.17104 0.28144,0.28143 0.17139,0.25709 0.24022,0.68299 0.56287,0.84431 0.0856,0.0428 0.71756,0 0.84431,0 0.46906,0 0.93813,0 1.40719,0 0.18763,0 0.38488,0.0593 0.56288,0 0.39801,-0.13267 0.72773,-0.4302 1.12574,-0.56287 0.178,-0.0593 0.38488,0.0593 0.56288,0 0.19901,-0.0663 0.36387,-0.2151 0.56287,-0.28144 0.2533,-0.0844 0.59102,0.0844 0.84432,0 0.39801,-0.13267 0.75049,-0.37525 1.12574,-0.56287 0.37526,-0.18763 0.77667,-0.33016 1.12576,-0.56288 0.11038,-0.0736 0.16277,-0.2221 0.28143,-0.28144 0.0839,-0.042 0.2151,0.0663 0.28144,0 0.14072,-0.14071 -0.14072,-0.70359 0,-0.84431 0.0663,-0.0663 0.2151,0.0663 0.28144,0 0.0663,-0.0663 -0.0663,-0.2151 0,-0.28144 0.0663,-0.0663 0.19753,0.042 0.28143,0 0.0956,-0.0478 1.04964,-1.04963 0.28144,-0.28144"
       id="path860"
       inkscape:connector-curvature="0" />
    <path
       style="fill:none;stroke:#000000;stroke-width:0.13930441px;stroke-linecap:butt;stroke-linejoin:miter;stroke-opacity:1"
       d="m -178.99769,205.69353 c 0.99349,0.63138 1.0611,0.56288 1.97006,0.56288 0.0938,0 0.19753,-0.042 0.28143,0 0.11868,0.0593 0.16278,0.2221 0.28144,0.28144 0.0728,0.0364 1.58454,0.0347 1.68863,0 0.199,-0.0663 0.37525,-0.18763 0.56288,-0.28144 0.37524,-0.18763 0.7505,-0.37525 1.12575,-0.56288 0.37524,-0.18762 0.7505,-0.37525 1.12574,-0.56287 0.18763,-0.0938 0.38834,-0.16508 0.56287,-0.28144 0.6043,-0.40285 -0.0414,-0.16002 0.56288,-0.56287 0.51958,-0.34639 1.16906,-0.49793 1.68863,-0.84432 0.11039,-0.0736 0.16277,-0.2221 0.28144,-0.28143 0.0839,-0.042 0.18763,0 0.28144,0 0.18762,-0.0938 0.38834,-0.16508 0.56287,-0.28144 0.16889,-0.11259 1.04485,-1.12575 1.12575,-1.12575 0.0144,0 -0.0181,0.79019 0,0.84431 0.0663,0.19901 0.18763,0.37525 0.28143,0.56288 0,0.28143 -0.0683,0.57127 0,0.84431 0.0419,0.16729 0.71954,0.65715 0.84431,0.84431 0.11637,0.17454 0.16508,0.38834 0.28144,0.56287 0.0771,0.11563 0.7287,0.76724 0.84433,0.84432 0.17453,0.11636 0.37524,0.18762 0.56287,0.28144 0.18762,0.0938 0.35936,0.23056 0.56287,0.28143 0.18202,0.0455 0.38085,-0.0455 0.56288,0 0.20351,0.0509 0.35717,0.2403 0.56287,0.28144 0.27598,0.0552 0.56833,-0.0552 0.84431,0 0.2057,0.0411 0.35936,0.23056 0.56287,0.28144 0.67925,0.16981 1.39306,-0.27438 1.97007,-0.56288 2.04058,-1.02029 -0.44499,0.29666 0.84431,-0.56287 0.17454,-0.11636 0.38833,-0.16508 0.56288,-0.28144 0.11562,-0.0771 0.76723,-0.72869 0.84431,-0.84431 0.11636,-0.17454 0.16507,-0.38834 0.28143,-0.56287 0.2165,-0.32474 0.62782,-0.51958 0.84431,-0.84432 0.11637,-0.17454 0.16508,-0.38833 0.28144,-0.56287 0.0736,-0.11039 0.18763,-0.18763 0.28144,-0.28144 0.0938,-0.0938 0.14877,-0.28144 0.28144,-0.28144 0.21509,0 0.56153,0.8423 0.56287,0.84431 0.0736,0.11039 0.18763,0.18763 0.28145,0.28144 0.28143,0.28144 0.56287,0.56288 0.84431,0.84432 0.21982,0.21982 0.60146,0.6824 0.84431,0.8443 0.48509,0.3234 0.42541,0.28144 0.84431,0.28144 0.0938,0 0.19243,-0.0296 0.28143,0 0.19902,0.0663 0.36387,0.21511 0.56288,0.28144 0.2533,0.0844 0.59103,-0.0844 0.84431,0 0.19901,0.0663 0.35717,0.2403 0.56287,0.28144 0.27598,0.0552 0.56288,0 0.84433,0 0.37524,0 0.75777,0.0736 1.12575,0 0.46646,-0.0933 1.54528,-0.56114 1.97005,-0.84432 0.32473,-0.21648 0.51958,-0.62782 0.84431,-0.8443 0.34908,-0.23272 0.77668,-0.33016 1.12575,-0.56288 0.1104,-0.0736 0.17105,-0.20785 0.28145,-0.28144 0.95672,-0.63781 0.15094,-0.0377 1.12575,-0.28144 0.20351,-0.0509 0.37524,-0.18762 0.56287,-0.28143 0.37525,-0.18763 0.7505,-0.37525 1.12575,-0.56288 0.18762,-0.0938 0.38833,-0.16508 0.56287,-0.28144 0.11039,-0.0736 0.14877,-0.28144 0.28144,-0.28144 0.13267,0 0.18762,0.18763 0.28144,0.28144 0.0938,0.0938 0.2221,0.16278 0.28143,0.28144 0.042,0.0839 -0.0296,0.19244 0,0.28144 0.0828,0.24847 0.69585,1.46592 0.84432,1.68863 0.0736,0.11038 0.20784,0.17104 0.28144,0.28143 0.17139,0.25709 0.24022,0.68299 0.56287,0.84431 0.0856,0.0428 0.71757,0 0.84431,0 0.46906,0 0.93813,0 1.40719,0 0.18763,0 0.38488,0.0593 0.56288,0 0.39801,-0.13267 0.72773,-0.4302 1.12574,-0.56287 0.178,-0.0593 0.38488,0.0593 0.56288,0 0.19901,-0.0663 0.36387,-0.2151 0.56287,-0.28144 0.2533,-0.0844 0.59102,0.0844 0.84432,0 0.39801,-0.13267 0.75049,-0.37525 1.12574,-0.56287 0.37526,-0.18763 0.77667,-0.33016 1.12576,-0.56288 0.11038,-0.0736 0.16277,-0.2221 0.28143,-0.28144 0.0839,-0.042 0.2151,0.0663 0.28144,0 0.14072,-0.14072 -0.14072,-0.70359 0,-0.84431 0.0663,-0.0663 0.2151,0.0663 0.28144,0 0.0663,-0.0663 -0.0663,-0.2151 0,-0.28144 0.0663,-0.0663 0.19753,0.042 0.28143,0 0.0956,-0.0478 1.04964,-1.04963 0.28144,-0.28144"
       id="path860-6"
       inkscape:connector-curvature="0" />
    <path
       style="fill:none;stroke:#000000;stroke-width:0.26458332;stroke-linecap:butt;stroke-linejoin:miter;stroke-opacity:1;stroke-miterlimit:4;stroke-dasharray:0.79374995,0.26458332;stroke-dashoffset:0"
       d="m -229.58452,208.26651 c 0.35636,0.0891 0.71272,0.17819 1.06908,0.26727 0.17818,0.0891 0.34555,0.20428 0.53454,0.26727 0.17666,0.0589 1.58415,0 1.87088,0 0.19108,0 1.46681,0.0456 1.60362,0 0.11953,-0.0398 0.15458,-0.21092 0.26727,-0.26727 0.0703,-0.0351 0.92932,0 1.06908,0 0.25895,0 1.44425,-0.0531 1.60361,0 1.51427,0.75714 -0.39842,-0.0996 1.06908,0.26727 0.19326,0.0483 0.3392,0.22821 0.53454,0.26727 0.4368,0.0874 0.8909,0 1.33635,0 0.97999,0 1.95997,0 2.93997,0 0.97998,0 1.95997,0 2.93996,0 0.35636,0 0.71547,0.0442 1.06908,0 0.36449,-0.0456 0.71271,-0.17818 1.06907,-0.26727 0.35636,-0.0891 0.71589,-0.16635 1.06908,-0.26727 0.27089,-0.0774 0.52392,-0.22095 0.80181,-0.26727 0.26363,-0.0439 0.53818,0.0439 0.80181,0 0.27789,-0.0463 0.52555,-0.21201 0.80181,-0.26726 0.21155,-0.0423 1.75883,-0.0224 1.87089,0 0.19829,0.0397 1.35489,0.67744 1.60361,0.8018 0.71272,0.35636 1.42544,0.71272 2.13816,1.06908 0.35636,0.17818 0.73757,0.31354 1.06908,0.53454 0.10483,0.0699 0.15458,0.21092 0.26727,0.26727 0.0797,0.0398 0.17818,0 0.26727,0 0.26727,0 0.53453,0 0.8018,0 0.17199,0 1.69002,0.0452 1.87089,0 1.33739,-0.33435 -0.26831,-0.20019 1.06908,-0.53454 0.17286,-0.0432 0.36168,0.0432 0.53454,0 0.19326,-0.0483 0.34127,-0.21895 0.53454,-0.26727 1.17021,-0.29255 -0.10114,0.29256 1.06907,0 0.19327,-0.0483 0.34556,-0.20427 0.53455,-0.26727 0.259,-0.0863 1.07734,0.0863 1.33634,0 0.18899,-0.063 0.34555,-0.20427 0.53454,-0.26727 0.20736,-0.0691 1.1853,0.0378 1.33635,0 0.12223,-0.0306 0.15458,-0.21092 0.26727,-0.26727 0.15937,-0.0797 0.3655,0.0564 0.53454,0 0.18899,-0.063 0.34555,-0.20427 0.53454,-0.26727 0.15936,-0.0531 1.34466,0 1.60361,0"
       id="path883"
       inkscape:connector-curvature="0" />
    <rect
       style="fill:none;stroke:#000000;stroke-width:0.26458332;stroke-miterlimit:4;stroke-dasharray:none;stroke-dashoffset:0"
       id="rect885"
       width="34.210499"
       height="13.898015"
       x="-222.90279"
       y="20.643309" />
    <rect
       style="fill:none;stroke:#000000;stroke-width:0.26458332;stroke-miterlimit:4;stroke-dasharray:none;stroke-dashoffset:0"
       id="rect887"
       width="8.779274"
       height="4.4899249"
       x="-222.90279"
       y="34.541321" />
    <rect
       style="fill:none;stroke:#000000;stroke-width:0.26458332;stroke-miterlimit:4;stroke-dasharray:none;stroke-dashoffset:0"
       id="rect889"
       width="8.5044641"
       height="4.5357141"
       x="-209.20982"
       y="34.684521" />
    <rect
       style="fill:none;stroke:#000000;stroke-width:0.31384069;stroke-miterlimit:4;stroke-dasharray:none;stroke-dashoffset:0"
       id="rect891"
       width="47.115597"
       height="20.683338"
       x="-229.97389"
       y="-0.064656876" />
    <path
       style="fill:none;stroke:#000000;stroke-width:0.25468355px;stroke-linecap:butt;stroke-linejoin:miter;stroke-opacity:1;marker-start:url(#Arrow1Lstart)"
       d="M -218.82889,194.40622 V 39.753079"
       id="path893"
       inkscape:connector-curvature="0" />
    <path
       style="fill:none;stroke:#000000;stroke-width:0.17152654px;stroke-linecap:butt;stroke-linejoin:miter;stroke-opacity:1;marker-start:url(#Arrow1Lstart-2)"
       d="m -205.5543,41.56943 -10.51962,151.90132"
       id="path893-1"
       inkscape:connector-curvature="0" />
    <rect
       style="fill:none;stroke:#000000;stroke-width:0.29166815;stroke-miterlimit:4;stroke-dasharray:0.58333627, 0.29166814;stroke-dashoffset:0"
       id="rect2146"
       width="54.701576"
       height="10.797332"
       x="-235.35132"
       y="195.7184" />
    <text
       xml:space="preserve"
       style="font-style:normal;font-weight:normal;font-size:10.58333302px;line-height:1.25;font-family:sans-serif;letter-spacing:0px;word-spacing:0px;fill:#000000;fill-opacity:1;stroke:none;stroke-width:0.26458332"
       x="-105.07735"
       y="170"
       id="text3884"><tspan
         sodipodi:role="line"
         id="tspan3882"
         x="-105.07735"
         y="170"
         style="stroke-width:0.26458332">styrofoam</tspan><tspan
         sodipodi:role="line"
         x="-105.07735"
         y="183.22917"
         style="stroke-width:0.26458332"
         id="tspan3886">'float'</tspan></text>
    <text
       xml:space="preserve"
       style="font-style:normal;font-weight:normal;font-size:10.58333302px;line-height:1.25;font-family:sans-serif;letter-spacing:0px;word-spacing:0px;fill:#000000;fill-opacity:1;stroke:none;stroke-width:0.26458332"
       x="-139.23993"
       y="92.97776"
       id="text3884-9"><tspan
         sodipodi:role="line"
         x="-139.23993"
         y="92.97776"
         style="stroke-width:0.26458332"
         id="tspan3886-6">PVC</tspan></text>
    <path
       style="fill:none;stroke:#000000;stroke-width:0.26458332px;stroke-linecap:butt;stroke-linejoin:miter;stroke-opacity:1"
       d="m -177.27083,103.47619 34.01786,-12.851192"
       id="path3921"
       inkscape:connector-curvature="0" />
    <rect
       style="fill:#ffaaaa;stroke:#000000;stroke-width:0.26458332;stroke-miterlimit:4;stroke-dasharray:0.52916663, 0.26458331;stroke-dashoffset:0"
       id="rect3925"
       width="11.22532"
       height="163.03441"
       x="-299.34186"
       y="137.17282" />
    <rect
       style="fill:#ffaaaa;stroke:none;stroke-width:0.28077549;stroke-miterlimit:4;stroke-dasharray:0.56155097, 0.28077547000000003;stroke-dashoffset:0"
       id="rect3925-0"
       width="11.209127"
       height="183.86523"
       x="-302.60458"
       y="-299.60104"
       transform="rotate(-90)" />
    <rect
       style="fill:#ffaaaa;stroke:none;stroke-width:0.26458332;stroke-miterlimit:4;stroke-dasharray:0.52916663, 0.26458331;stroke-dashoffset:0"
       id="rect3925-6"
       width="11.22532"
       height="163.03441"
       x="-126.68576"
       y="136.93242" />
    <path
       style="fill:none;stroke:#000000;stroke-width:0.26458332px;stroke-linecap:butt;stroke-linejoin:miter;stroke-opacity:1"
       d="m -188.23214,198.72619 80.13095,-29.48215"
       id="path3888"
       inkscape:connector-curvature="0" />
    <rect
       style="fill:#b3b3b3;stroke:none;stroke-width:0.16852131;stroke-miterlimit:4;stroke-dasharray:0.33704264, 0.16852132000000000;stroke-dashoffset:0"
       id="rect3963"
       width="5.3453908"
       height="276.35669"
       x="-241.61165"
       y="5.1416759" />
    <rect
       style="fill:#b3b3b3;stroke:none;stroke-width:0.16852131;stroke-miterlimit:4;stroke-dasharray:0.33704264, 0.16852132;stroke-dashoffset:0"
       id="rect3963-2"
       width="5.3453908"
       height="276.35669"
       x="-179.07059"
       y="4.8744164" />
    <text
       xml:space="preserve"
       style="font-style:normal;font-weight:normal;font-size:10.58333302px;line-height:1.25;font-family:sans-serif;letter-spacing:0px;word-spacing:0px;fill:#000000;fill-opacity:1;stroke:none;stroke-width:0.26458332"
       x="-103.74816"
       y="212.119"
       id="text3884-9-6"><tspan
         sodipodi:role="line"
         x="-103.74816"
         y="212.119"
         style="stroke-width:0.26458332"
         id="tspan3886-6-1">bucket</tspan></text>
    <path
       style="fill:none;stroke:#000000;stroke-width:0.26458332px;stroke-linecap:butt;stroke-linejoin:miter;stroke-opacity:1"
       d="m -93.009796,217.35368 -21.381564,13.36347"
       id="path4276"
       inkscape:connector-curvature="0" />
  </g>
</svg>
