<?xml version="1.0" encoding="UTF-8" standalone="no"?>
<!-- Created with Inkscape (http://www.inkscape.org/) -->

<svg
   width="210mm"
   height="297mm"
   viewBox="0 0 210 297"
   version="1.1"
   id="svg2531"
   xmlns="http://www.w3.org/2000/svg"
   xmlns:svg="http://www.w3.org/2000/svg">
  <defs
     id="defs2528" />
  <g
     id="layer1">
    <path
       id="path1515"
       style="fill:#000000;stroke-width:0.264583"
       d="m 74.205055,211.93732 c -1.455208,-0.12692 -3.47927,-0.29495 -4.497916,-0.37345 -4.212629,-0.32459 -6.828857,-0.74873 -10.715625,-1.73718 -15.039632,-3.82489 -16.37914,-4.19047 -17.034725,-4.64968 -0.300034,-0.21015 -0.693836,-0.38209 -0.875114,-0.38209 -0.181279,0 -1.256115,-0.44906 -2.388525,-0.99791 -1.132409,-0.54881 -3.249552,-1.46656 -4.70476,-2.03941 -1.455209,-0.57284 -2.94349,-1.23031 -3.307292,-1.46106 -0.363802,-0.23075 -1.792552,-0.94301 -3.175,-1.58284 -3.716979,-1.72022 -5.855391,-2.88742 -6.746874,-3.68265 -0.436563,-0.38943 -1.658606,-1.28947 -2.715652,-2.00011 -1.057056,-0.71063 -2.723931,-2.18017 -3.704159,-3.2657 -0.980264,-1.08553 -1.905635,-2.10675 -2.056413,-2.26938 -0.672994,-0.72598 -2.068689,-3.01279 -2.273794,-3.72555 -0.3418766,-1.18805 -0.3165466,-9.84744 0.03457,-11.79226 0.169898,-0.94122 0.848255,-2.84237 1.507455,-4.2248 1.190625,-2.49689 3.815751,-7.17776 4.451527,-7.9375 0.182633,-0.21826 1.252996,-2.1233 2.378544,-4.23333 1.125555,-2.11004 2.50801,-4.57768 3.072123,-5.48362 0.564113,-0.90593 1.025659,-1.71252 1.025659,-1.79242 0,-0.0799 0.506017,-0.94534 1.124479,-1.92317 0.618465,-0.97787 1.303073,-2.07628 1.521354,-2.44094 0.218281,-0.36463 0.635,-1.05975 0.926042,-1.54471 0.291041,-0.48493 1.553143,-2.44944 2.804671,-4.36563 1.251525,-1.91611 2.977931,-4.65465 3.836458,-6.08555 3.527873,-5.88 5.036739,-8.3112 5.697922,-9.18094 0.383561,-0.50458 0.962977,-1.4532 1.287596,-2.10802 0.324616,-0.65483 0.741613,-1.36924 0.926659,-1.5875 0.185039,-0.21827 0.645965,-0.99219 1.024277,-1.71979 0.378308,-0.72761 1.046194,-1.73962 1.484192,-2.24896 0.437995,-0.50931 0.796636,-1.01117 0.796978,-1.11517 0.0018,-0.45339 -1.125654,-0.69374 -3.968129,-0.8461 -3.129537,-0.16778 -4.079967,-0.36319 -6.016385,-1.23684 -0.616881,-0.27834 -1.224195,-0.50606 -1.34959,-0.50606 -0.529012,0 -5.677362,-3.91484 -7.723512,-5.87304 -1.654591,-1.58341 -1.950945,-3.92339 -0.74719,-5.899654 0.266344,-0.43723 0.597997,-1.05276 0.737009,-1.36775 0.139012,-0.31503 0.906696,-1.38786 1.705959,-2.38407 1.58242,-1.97235 4.279275,-3.82267 6.318116,-4.3349 3.085525,-0.77523 4.575549,-0.97183 7.697695,-1.01568 l 3.400228,-0.0478 1.360209,0.87027 c 1.270056,0.81262 1.496938,0.86663 3.423299,0.81495 2.414054,-0.0648 3.891713,-0.72803 5.839417,-2.6211 0.65641,-0.638 1.366534,-1.16001 1.578053,-1.16001 0.211522,0 0.579614,-0.29764 0.817986,-0.66146 0.238375,-0.36378 0.556552,-0.66146 0.707068,-0.66146 0.150517,0 1.051398,-0.54359 2.001961,-1.20801 0.950564,-0.66442 1.925998,-1.2766 2.167633,-1.36042 0.241635,-0.0838 0.915585,-0.60081 1.497668,-1.14882 0.582084,-0.548005 1.251744,-1.037131 1.488137,-1.086979 0.345267,-0.07274 0.150594,-0.558905 -0.989824,-2.471808 -0.78079,-1.309657 -1.490463,-2.559796 -1.577052,-2.778095 -0.08659,-0.218263 -0.512272,-1.289826 -0.945963,-2.38125 -0.433691,-1.091388 -1.170125,-2.579687 -1.636522,-3.307291 -1.990192,-3.104797 -3.230989,-5.739201 -3.755552,-7.973554 -0.234492,-0.99882 -0.650745,-2.70898 -0.925008,-3.800404 -0.274264,-1.091389 -0.57923,-2.639201 -0.677704,-3.439583 -0.09847,-0.800347 -0.260389,-1.574271 -0.359812,-1.719792 -0.330934,-0.484399 0.0087,-2.994589 0.426889,-3.155033 0.932261,-0.357752 1.291728,0.274003 1.615793,2.839791 0.312928,2.477593 0.796255,4.643896 1.358113,6.087145 0.15948,0.409681 0.289966,1.08719 0.289966,1.505585 0,0.756003 1.232041,4.508112 1.563342,4.761053 0.0953,0.07278 0.577296,0.965729 1.071104,1.984375 0.493807,1.018646 1.037191,1.971146 1.207516,2.116667 0.170324,0.145521 0.466732,0.68132 0.658685,1.190625 0.191953,0.50934 0.507989,1.114002 0.702303,1.343766 0.194313,0.229729 0.3533,0.504154 0.3533,0.609811 0,0.921103 3.660161,7.23198 4.983504,8.592573 0.533291,0.548323 1.386339,1.550068 1.895662,2.226138 0.509323,0.67609 1.320183,1.42162 1.801915,1.65678 0.481732,0.23516 0.93683,0.58642 1.011333,0.78059 0.0745,0.19414 0.424497,0.42556 0.777772,0.51421 0.49263,0.12365 0.642314,0.33747 0.642314,0.91754 0,0.41596 -0.148827,0.86466 -0.33073,0.99713 -0.468171,0.34092 -1.785937,0.44139 -1.785937,0.13617 0,-0.14016 -0.297656,-0.32957 -0.661458,-0.42086 -0.363802,-0.0913 -0.661459,-0.30089 -0.661459,-0.46578 0,-0.16485 -1.071562,-1.36722 -2.38125,-2.67194 -1.915833,-1.90856 -2.38125,-2.25806 -2.38125,-1.78816 0,0.32124 -0.267888,0.81443 -0.595312,1.09594 -0.694842,0.59747 -2.68648,1.66621 -3.638021,1.95224 -0.363802,0.10933 -1.157746,0.60103 -1.764319,1.09259 -0.606573,0.49156 -1.203103,0.89376 -1.325623,0.89376 -0.122516,0 -0.574611,0.32741 -1.004654,0.72761 -0.430047,0.40019 -1.314877,1.0669 -1.966302,1.48159 -0.651419,0.41469 -1.488973,1.07816 -1.861228,1.4744 -0.637236,0.67829 -1.446805,0.99575 -4.222439,1.65566 -1.434458,0.3411 -2.773091,-0.004 -4.649117,-1.19571 -1.248636,-0.79371 -1.470713,-0.84091 -4.365625,-0.92777 -3.580532,-0.10742 -5.354486,0.20814 -9.109082,1.62038 -2.074749,0.78038 -4.927811,4.45594 -5.858012,7.546764 -0.484406,1.60959 -0.158298,2.18208 2.37175,4.16388 1.102557,0.86363 2.004652,1.64415 2.004652,1.73453 0,0.23629 2.825309,1.92935 4.271888,2.55994 1.919612,0.83678 2.564811,0.93076 8.560403,1.24671 4.146787,0.21851 4.436287,0.28512 4.821993,1.10931 0.303332,0.6482 0.250906,0.75689 -0.819249,1.69891 -1.131828,0.99628 -2.847834,3.37044 -4.284497,5.92776 -0.408756,0.7276 -1.317325,2.15635 -2.019046,3.175 -1.926576,2.79672 -3.65277,5.46287 -4.111275,6.35 -0.225637,0.43656 -0.958815,1.64698 -1.629294,2.68982 -0.670475,1.04281 -1.576236,2.51079 -2.012798,3.26217 -0.436563,0.75135 -1.240233,1.92003 -1.785938,2.59701 -0.545701,0.67698 -0.992187,1.33389 -0.992187,1.45973 0,0.1259 -0.627034,1.19962 -1.393405,2.38612 -0.766374,1.18649 -1.541028,2.45491 -1.721457,2.81869 -0.180424,0.36382 -0.595192,1.08546 -0.921699,1.60369 -1.449242,2.30025 -5.267201,8.90997 -6.944437,12.02235 -0.548936,1.01865 -1.610833,2.86413 -2.359783,4.10104 -0.748912,1.23695 -1.504351,2.48709 -1.678729,2.77813 -2.190785,3.65647 -3.147342,7.04751 -3.333538,11.81749 -0.148872,3.81406 0.192546,5.99793 1.270141,8.12447 0.748559,1.47722 4.592401,5.53374 6.499574,6.8592 0.654844,0.45512 1.905,1.32359 2.778125,1.92991 2.511781,1.74431 9.813857,5.34303 13.758333,6.78063 1.018646,0.37127 2.983177,1.21197 4.365625,1.86828 1.382448,0.65631 3.049322,1.34295 3.704166,1.52587 0.654844,0.18291 2.262188,0.65204 3.571875,1.04246 5.674201,1.69153 14.991976,3.80238 18.653125,4.22564 5.197069,0.60088 13.820729,1.21627 15.104695,1.07791 0.64195,-0.0692 2.578989,-0.18768 4.304531,-0.26331 1.725542,-0.0756 3.57101,-0.24818 4.101041,-0.38351 0.890958,-0.2274 5.815256,-0.91824 11.547025,-1.61995 2.63353,-0.32241 5.13929,-0.95402 7.14782,-1.80171 0.72536,-0.30614 2.29635,-0.86092 3.4911,-1.23285 1.19473,-0.37194 2.24356,-0.79163 2.33072,-0.93268 0.0871,-0.141 0.35046,-0.25639 0.58512,-0.25639 0.48731,0 3.75653,-1.26083 4.2045,-1.62155 0.16322,-0.13141 1.11572,-0.51855 2.11666,-0.86021 3.50962,-1.1981 6.59683,-2.60593 8.16991,-3.72562 0.87313,-0.62148 2.92754,-2.03073 4.56536,-3.13167 1.63785,-1.10092 3.30473,-2.25768 3.70417,-2.57059 1.66,-1.30023 8.20933,-7.95362 9.13426,-9.2794 0.54981,-0.78807 1.28812,-1.84954 1.64071,-2.35888 1.21933,-1.76142 2.0116,-3.74033 2.10553,-5.25921 0.0506,-0.8182 0.2355,-2.26155 0.41095,-3.20746 0.17542,-0.94586 0.33708,-3.20805 0.3592,-5.02708 0.0368,-3.028 -0.0238,-3.48604 -0.71808,-5.42396 -0.41709,-1.16417 -0.81013,-2.83104 -0.87342,-3.70417 -0.0633,-0.87312 -0.36653,-2.42093 -0.67384,-3.43958 -0.70295,-2.33006 -2.83252,-8.11413 -3.11727,-8.46666 -0.11753,-0.14553 -0.93501,-1.69866 -1.8166,-3.45141 -0.88159,-1.75277 -1.99329,-3.71729 -2.47044,-4.36562 -0.47715,-0.64834 -1.23995,-1.7605 -1.69511,-2.47149 -0.45513,-0.71099 -2.12333,-2.62901 -3.7071,-4.26233 -3.42202,-3.52902 -4.61224,-4.85105 -4.9847,-5.53657 -0.15187,-0.27954 -1.40721,-1.44039 -2.78966,-2.57969 -1.38245,-1.13926 -3.22792,-2.76863 -4.10104,-3.62084 -1.3893,-1.35597 -4.0545,-3.27603 -5.88698,-4.24109 -0.73565,-0.38746 -0.78362,-1.48999 -0.10329,-2.37458 0.4141,-0.53845 0.5529,-0.57902 1.00806,-0.29475 0.43646,0.27256 0.79893,0.23495 2.09357,-0.2172 0.86114,-0.30075 1.92291,-0.72175 2.35947,-0.93561 1.68453,-0.825 4.53348,-1.98077 5.29167,-2.14668 1.15464,-0.2527 3.17553,-1.71701 4.37817,-3.17232 0.85124,-1.03015 1.04579,-1.47236 1.04579,-2.37723 0,-1.66875 -1.09265,-4.168184 -2.42052,-5.536884 -1.04899,-1.08123 -1.59771,-1.47733 -3.69575,-2.66771 -0.61174,-0.34706 -2.19842,-0.71261 -4.92117,-1.13369 -0.46805,-0.0724 -1.412,0.0596 -2.09767,0.2932 -0.68567,0.23361 -1.73146,0.42545 -2.32399,0.42626 -0.59256,0 -1.53472,0.12848 -2.09373,0.2837 -1.21774,0.33814 -1.88793,-0.10435 -2.17675,-1.43711 -0.21006,-0.96932 -1.55684,-3.08119 -3.00689,-4.71508 l -1.01571,-1.14445 -0.64241,0.66146 c -0.35329,0.36382 -0.89503,1.07819 -1.20385,1.5875 -4.09931,1.50248 -4.10626,2.16383 -4.86013,1.55021 0.23558,-0.4142 0.52247,-0.75385 0.63751,-0.7548 1.11025,-0.009 3.89189,-3.71564 3.89189,-5.1863 0,-0.75395 0.12732,-0.96195 0.7276,-1.18861 0.40019,-0.15113 0.99881,-0.59464 1.33025,-0.98566 0.64781,-0.76412 2.17548,-3.741421 2.17548,-4.239755 0,-0.16644 0.47149,-1.54245 1.04775,-3.057842 1.27448,-3.35153 1.69485,-6.300929 1.45402,-10.201804 -0.19047,-3.084971 -1.22621,-6.346825 -2.35079,-7.403324 -0.5148,-0.483623 -0.56981,-0.720866 -0.41056,-1.770344 0.17198,-1.133087 0.56171,-1.683703 1.18563,-1.674954 0.36443,0.0049 1.75397,1.30496 2.31134,2.162175 0.25257,0.388479 1.21653,1.129806 2.1421,1.647402 2.58302,1.444519 4.70601,1.325421 9.15043,-0.513257 3.2268,-1.334946 5.71087,-3.375095 6.02562,-4.948837 0.0802,-0.400755 0.30906,-0.864235 0.50866,-1.029899 0.1996,-0.16563 0.59629,-1.091036 0.88154,-2.056448 0.44288,-1.498988 0.50077,-2.315316 0.39663,-5.591704 -0.13054,-4.105486 -0.42164,-6.268402 -1.01489,-7.540625 -2.21935,-4.75943 -2.23546,-4.782255 -5.64035,-7.999483 -1.81203,-1.712171 -3.43377,-3.160888 -3.60387,-3.219414 -0.17013,-0.05849 -0.5742,-0.415678 -0.89797,-0.79375 -0.32377,-0.378037 -0.76332,-0.888789 -0.97681,-1.134992 -0.21347,-0.246204 -1.19873,-0.698183 -2.18946,-1.004394 -1.83028,-0.565679 -6.81529,-1.182581 -7.27257,-0.899971 -0.32123,0.198543 -1.27561,-0.656696 -1.27561,-1.143071 0,-0.759883 -1.59168,-4.073807 -2.63494,-5.485976 -1.12413,-1.521707 -3.57798,-3.327506 -5.27915,-3.88493 -0.52221,-0.171133 -1.18758,-0.464644 -1.47862,-0.652321 -0.48925,-0.315419 -2.74919,-0.698359 -9.097318,-1.5414627 -2.801733,-0.37211 -4.243264,-0.207998 -9.026641,1.0277827 -3.894956,1.006228 -10.533161,4.267306 -11.94295,5.867047 -0.238463,0.270616 -0.509763,0.851429 -0.602886,1.290673 -0.115034,0.542642 -0.419495,0.909425 -0.949766,1.144129 -0.782885,0.346533 -1.850231,0.212971 -1.850231,-0.231493 0,-0.520383 -1.327814,-0.909461 -4.101042,-1.201773 -3.511084,-0.370099 -4.100078,-0.199566 -4.451449,1.288732 -0.253876,1.075373 -0.783357,1.194189 -0.927819,0.208245 -0.07052,-0.48133 -0.208259,-0.567584 -0.706575,-0.442524 -0.363076,0.09112 -0.945103,-0.03175 -1.407827,-0.297392 -0.780376,-0.447887 -0.812574,-0.440902 -2.997592,0.65017 -5.611604,2.802113 -14.674952,10.239974 -18.781952,15.41346 -2.167173,2.729936 -3.527992,7.165622 -3.710033,12.093081 -0.0421,1.139543 0.09431,1.611065 0.789619,2.729583 0.462277,0.743655 0.840504,1.446953 0.840504,1.562876 0,0.456706 2.598744,2.607874 3.516259,2.910699 0.535291,0.176635 1.258295,0.685411 1.606681,1.130582 l 0.63343,0.809342 1.782515,-0.559505 c 0.980384,-0.307728 2.810591,-1.206641 4.067126,-1.997604 1.256538,-0.790963 2.612037,-1.585983 3.012218,-1.766676 0.400184,-0.180728 0.727604,-0.429472 0.727604,-0.552838 0,-0.123331 0.47625,-0.414796 1.058333,-0.6477 0.582083,-0.232904 1.058333,-0.521582 1.058333,-0.641491 0,-0.119909 0.209251,-0.284445 0.464997,-0.365619 0.255746,-0.08117 1.003765,-0.663857 1.662267,-1.294836 1.428242,-1.368566 2.16564,-1.622178 2.926169,-1.006333 0.505128,0.40901 0.52669,0.54811 0.246358,1.589193 -0.295592,1.097738 -1.015982,4.67487 -1.830937,4.522011 -0.718267,-0.134761 -0.365178,-3.536456 -1.452453,-2.639377 -0.705186,0.582718 -1.774783,1.296493 -2.376883,1.586159 -0.602096,0.289666 -1.411679,0.735789 -1.799071,0.991412 -4.718333,3.113334 -5.29354,3.447803 -7.134751,4.148349 -2.824416,1.074667 -1.148958,-0.0496 -1.148958,0.664245 0,0.353166 -1.795188,1.878683 0.03351,-0.129328 1.882521,-2.067137 -0.683518,-0.225778 -0.827166,0.100788 -0.143647,0.326567 -0.933742,-0.442736 -1.207015,-0.39123 -0.415882,0.07835 0.36207,-0.528462 -0.246616,-0.730921 -1.556755,-0.517772 -0.956035,-0.835413 -2.012096,-0.570371 -0.443992,0.111443 -0.697685,0.01482 -0.886435,-0.337961 -0.145433,-0.27178 -1.032532,-1.255113 -1.97133,-2.185211 -1.866318,-1.84905 -3.676575,-4.917687 -3.98781,-6.759857 -0.12175,-0.720619 -0.04313,-1.569791 0.230735,-2.491987 0.228476,-0.769373 0.416848,-1.764207 0.418602,-2.210717 0.0047,-1.205513 1.376771,-5.231765 2.230293,-6.544839 0.409776,-0.630414 1.05714,-1.45542 1.438592,-1.833386 0.381455,-0.377931 0.991207,-1.09213 1.355009,-1.587112 0.363802,-0.495018 2.090208,-2.317009 3.836458,-4.048901 2.988042,-2.963439 4.465211,-4.234956 7.094679,-6.106831 0.609074,-0.433599 1.940842,-1.408288 2.959488,-2.165984 1.018645,-0.757697 2.387864,-1.608808 3.042708,-1.891348 0.654844,-0.28254 1.867605,-0.825923 2.695024,-1.207452 0.827423,-0.381565 1.79511,-0.693738 2.150417,-0.693738 0.355311,0 0.803155,-0.189336 0.995222,-0.420758 0.31811,-0.383293 0.376424,-0.38354 0.654907,-0.0035 0.278151,0.380401 0.434403,0.378249 1.733712,-0.02399 0.785407,-0.243134 1.535405,-0.414478 1.666663,-0.380788 0.291705,0.07486 1.584608,0.219393 3.862388,0.4318 0.945885,0.08823 2.192094,0.284551 2.769351,0.436316 0.958381,0.251953 1.096292,0.22045 1.5875,-0.362585 0.482607,-0.572806 4.923914,-3.381516 5.347092,-3.381516 0.09438,0 0.717811,-0.350168 1.385393,-0.778122 0.667583,-0.427955 1.690039,-0.894821 2.272122,-1.037414 0.582083,-0.142628 2.035506,-0.619231 3.229829,-1.0591087 2.462237,-0.906921 8.274504,-2.14249 9.470171,-2.013197 0.436562,0.0472 1.686718,0.223379 2.778125,0.391477 1.091406,0.168134 3.115468,0.462598 4.497916,0.654368 2.252183,0.312455 4.226113,0.93599 7.775343,2.4562147 1.08756,0.465843 3.05445,2.600219 5.25396,5.701312 0.69043,0.97342 1.43457,1.769886 1.65364,1.769886 0.2644,0 0.39831,0.261585 0.39831,0.778122 0,0.42799 0.12285,0.854075 0.27297,0.946856 0.25141,0.155363 3.81135,0.798618 6.13305,1.108145 0.54012,0.07204 1.12024,0.297462 1.28915,0.50098 0.16894,0.203553 0.4708,0.370064 0.67083,0.370064 0.20005,0 1.48888,1.101337 2.86408,2.447395 1.3752,1.346059 3.4889,3.338372 4.69713,4.427361 1.79371,1.616675 2.39093,2.363823 3.25508,4.072255 0.58209,1.150761 1.33189,2.505851 1.66624,3.011311 0.33436,0.505425 0.71999,1.509854 0.85694,2.232025 0.13694,0.722207 0.31117,1.413651 0.38716,1.536595 0.076,0.122943 0.20317,2.317926 0.28268,4.877717 0.12986,4.182427 0.0882,4.859337 -0.41066,6.677801 -1.22489,4.46479 -3.10488,6.568334 -7.91136,8.852005 -1.25365,0.59563 -2.48692,1.189249 -2.74063,1.319177 -1.77646,0.909638 -8.1774,0.757097 -8.74925,-0.208491 -0.11808,-0.19939 -0.33221,-0.289913 -0.47585,-0.201119 -0.15581,0.09631 -0.16608,0.285327 -0.0254,0.468595 0.43789,0.570583 0.90543,6.243179 0.72022,8.738799 -0.10353,1.395483 -0.5184,3.589937 -0.982,5.194406 -0.44148,1.527986 -0.89514,3.135312 -1.00809,3.571875 -0.28297,1.093646 -2.28907,5.107838 -3.06541,6.133928 -0.35049,0.46323 -0.63727,0.96911 -0.63727,1.12416 0,0.15508 0.49054,0.7874 1.09008,1.40518 1.08006,1.11291 2.61409,3.17529 2.61409,3.51441 0,0.0968 0.25296,0.53132 0.56213,0.96552 l 0.56213,0.78945 2.28214,-0.17879 c 1.25518,-0.0983 2.80731,-0.29119 3.44919,-0.42856 0.86151,-0.18436 1.62351,-0.14354 2.91042,0.15586 0.95885,0.2231 2.04102,0.46161 2.40482,0.53008 0.36381,0.0685 1.74543,0.84096 3.07028,1.71659 3.20498,2.11828 4.33208,3.74244 5.36972,7.737824 l 0.59706,2.29895 -0.69837,1.19168 c -0.3841,0.65543 -1.43798,1.88306 -2.34193,2.72814 -1.34575,1.25801 -2.00205,1.65238 -3.62173,2.17632 -1.08799,0.35193 -2.633,0.97003 -3.43336,1.37351 -0.80036,0.40347 -2.37794,1.10888 -3.50573,1.5676 -1.12779,0.45872 -2.04822,0.91218 -2.04542,1.00774 0.003,0.0956 0.98505,0.82681 2.18282,1.625 1.19774,0.7982 2.69364,2.01934 3.32422,2.71371 0.63061,0.69437 2.02224,1.92158 3.09253,2.72708 1.07032,0.80557 2.28079,1.88031 2.68994,2.38831 2.14749,2.66647 4.80663,5.67171 5.95217,6.72694 0.71089,0.65482 1.67532,1.75027 2.14318,2.43431 0.46787,0.68403 1.38396,1.99372 2.03573,2.91041 1.20312,1.69207 2.29883,3.56193 3.06978,5.23861 0.23421,0.50934 0.64598,1.34274 0.91508,1.85209 1.50215,2.8431 2.6402,5.32906 3.02814,6.61458 0.24151,0.80038 0.60817,1.84425 0.81483,2.31976 0.20664,0.47551 0.49745,1.93936 0.64627,3.25296 0.1614,1.42494 0.61056,3.31756 1.1134,4.6917 1.05793,2.89112 1.25015,5.98477 0.63627,10.24079 -0.23091,1.60073 -0.52705,3.96109 -0.65816,5.2452 -0.19703,1.92987 -0.35279,2.45759 -0.89812,3.04271 -0.36288,0.38936 -0.80777,0.99487 -0.98867,1.3456 -0.59997,1.16325 -4.53893,6.23087 -5.34466,6.87606 -0.43582,0.34901 -1.22735,1.11203 -1.75895,1.69559 -1.38848,1.52422 -3.96375,3.97334 -4.48437,4.2647 -0.24458,0.13688 -0.67691,0.46521 -0.9607,0.72958 -0.28382,0.26444 -0.60857,0.48076 -0.72166,0.48076 -0.23465,0 -5.36845,3.54394 -6.18818,4.27183 -0.86966,0.77216 -4.83925,2.72817 -7.12774,3.51214 -1.1616,0.39794 -3.2452,1.20809 -4.63021,1.80037 -3.69996,1.58221 -6.96659,2.85108 -7.33975,2.85108 -0.18,0 -1.51038,0.47135 -2.95641,1.04747 -3.13571,1.24925 -5.27587,1.77324 -8.71437,2.13353 -2.808689,0.29428 -4.352646,0.51029 -9.304598,1.30168 -3.851913,0.61556 -12.462707,0.89835 -16.536458,0.54306 z M 87.332784,80.10388 c -0.346833,-0.167851 -1.132244,-0.806873 -1.745357,-1.419966 -1.112351,-1.112378 -1.114838,-1.119293 -1.154688,-3.216275 -0.05065,-2.665059 0.328277,-3.221743 2.738935,-4.023959 1.947503,-0.648088 2.820984,-0.566491 4.544737,0.424497 1.492807,0.858238 2.200102,1.908916 2.200102,3.268169 0,1.342143 -0.52989,2.424465 -1.943453,3.969561 -1.004845,1.098374 -1.179403,1.183534 -2.544265,1.241249 -0.805973,0.03422 -1.749178,-0.07539 -2.096011,-0.243276 z m 2.391128,-2.088409 c 1.070631,-0.320781 1.870562,-1.2833 2.215666,-2.666047 0.139288,-0.558095 0.0725,-0.766763 -0.289891,-0.905828 -0.258981,-0.09938 -0.68833,-0.398145 -0.954109,-0.663928 -0.668115,-0.668125 -2.599898,-0.678779 -2.599898,-0.01446 0,0.25788 -0.351536,0.895349 -0.781191,1.416614 -0.643132,0.780239 -0.745084,1.083134 -0.576869,1.713935 0.181056,0.678957 1.069837,1.41284 1.72424,1.423741 0.128637,0.0035 0.69656,-0.134691 1.262052,-0.30413 z m 6.044685,-29.861509 c -0.509323,-0.119627 -1.045105,-0.417654 -1.190625,-0.662305 -0.145521,-0.244616 -0.604464,-0.878699 -1.019877,-1.409065 -0.665015,-0.84903 -0.738886,-1.122398 -0.618014,-2.2872 0.157656,-1.519237 0.529336,-2.306108 1.642007,-3.476236 0.434298,-0.456707 0.943155,-1.022245 1.130794,-1.256771 0.42961,-0.536893 1.536975,-0.555696 1.738895,-0.02963 0.08376,0.218299 0.339369,0.396875 0.568014,0.396875 0.228646,0 0.86516,0.229271 1.414473,0.509517 1.136356,0.57972 1.817666,1.890572 1.866726,3.591525 0.0168,0.582083 0.0932,1.363804 0.16979,1.737148 0.18395,0.89662 -0.61343,1.89417 -2.082581,2.60537 -1.192315,0.57718 -2.067818,0.645054 -3.619602,0.280635 z m 2.905763,-2.281238 c 0.587287,-0.346921 0.769211,-0.685447 0.888697,-1.653646 0.140627,-1.139472 0.08915,-1.275079 -0.803946,-2.117689 -0.903513,-0.852488 -0.973137,-0.874395 -1.310894,-0.412468 -0.196186,0.268288 -0.356704,0.653133 -0.356704,0.855133 0,0.273756 -0.210612,0.321099 -0.826802,0.185738 -0.932024,-0.204682 -1.279242,0.120756 -1.285815,1.205159 -0.0074,1.224668 1.130554,2.311259 2.468669,2.357226 0.268591,0.0092 0.820649,-0.179529 1.226795,-0.419453 z m -26.102708,0.0088 C 72.075477,45.355446 71.369865,44.333696 71.003629,43.61096 l -0.665889,-1.314097 0.568303,-1.102819 c 1.091495,-2.118113 2.760529,-3.352764 4.529625,-3.350789 0.48733,0 1.600429,0.357294 2.473554,0.792763 0.873125,0.435468 1.750215,0.792197 1.949087,0.792762 0.242231,0 0.311308,0.193251 0.209267,0.583459 -0.08378,0.320393 -0.03454,1.108075 0.109428,1.750483 0.240316,1.072339 0.202057,1.246752 -0.467173,2.129508 -1.398203,1.844322 -3.320185,2.945871 -5.139919,2.945871 -0.916626,0 -1.243855,-0.156634 -1.99826,-0.956557 z m 3.165298,-1.718381 c 1.184505,-0.593654 2.569147,-1.76089 2.569147,-2.165738 0,-0.134091 -0.288195,-0.17145 -0.640433,-0.08304 -0.753533,0.189124 -1.47259,-0.03493 -1.485036,-0.462385 -0.0048,-0.166335 -0.252535,-0.595348 -0.550435,-0.953347 -0.507937,-0.610376 -0.585216,-0.626428 -1.242018,-0.257775 -0.66476,0.373133 -1.902911,1.930682 -1.902911,2.393809 0,0.318982 1.601135,2.086751 1.890031,2.086751 0.136247,0 0.74899,-0.251213 1.361655,-0.558271 z" />
  </g>
</svg>
